<?xml version="1.0" encoding="utf-8"?>
<!-- Generator: Adobe Illustrator 25.1.0, SVG Export Plug-In . SVG Version: 6.00 Build 0)  -->
<svg version="1.1" id="Layer_1" xmlns="http://www.w3.org/2000/svg" xmlns:xlink="http://www.w3.org/1999/xlink" x="0px" y="0px"
	 viewBox="0 0 226.5 167.4" style="enable-background:new 0 0 226.5 167.4;" xml:space="preserve">
<style type="text/css">
	.st0{display:none;}
	.st1{display:inline;fill:#F5F5F5;}
	.st2{fill:#E0E0E0;}
	.st3{fill:#F5F5F5;}
	.st4{opacity:0.59;}
	.st5{fill:#263238;}
	.st6{fill:#FFFFFF;}
	.st7{fill:#E8505B;}
	.st8{opacity:0.3;}
	.st9{fill:#00EDFF;}
	.st10{fill:#FAFAFA;}
	.st11{fill-rule:evenodd;clip-rule:evenodd;fill:#E8505B;}
	.st12{opacity:0.8;}
	.st13{fill-rule:evenodd;clip-rule:evenodd;fill:#FFFFFF;}
	.st14{fill-rule:evenodd;clip-rule:evenodd;fill:#E0CED0;}
	.st15{opacity:0.4;}
	.st16{fill:#FFBE9D;}
	.st17{fill:#EB996E;}
	.st18{fill:#455A64;}
	.st19{fill:#8CB770;}
	.st20{opacity:0.3;enable-background:new    ;}
	.st21{fill:#95C178;}
	.st22{fill:#A2D882;}
	.st23{opacity:0.2;}
	.st24{opacity:0.4;enable-background:new    ;}
	.st25{fill:#AAAAAA;}
	.st26{font-family:'ArialMT';}
	.st27{font-size:4.5514px;}
	.st28{fill:#193091;}
	.st29{fill:#3DBDC4;}
	.st30{fill:#B8F4E3;}
	.st31{fill:#B4C1EF;}
	.st32{fill:#42FCC3;}
	.st33{fill:#D920ED;}
	.st34{fill:#DEE3FC;}
</style>
<g id="Background_Simple" class="st0">
	<path class="st1" d="M272.2-105.8l-2.1-3.4c-17.9-29.1-50.2-46.6-84.2-44.5c-4.4,0.3-8.7,0.9-13,1.8c-31,6.5-57.9,29.7-69,59.3
		C97.3-75.2,95.5-55.1,83-41.3c-16.2,18-43.7,18.5-67.9,17.8s-51.8-0.1-67.9,17.9C-62.9,5.7-66.1,21.8-65.3,36.9
		c2.2,40.1,30.4,75.9,66.4,93.8s78.3,19.4,117.7,11.6c55.2-11,107.6-41.1,139.2-87.7S297.4-55.5,272.2-105.8z"/>
	<path class="st1" d="M51.2-94.9c-6-6.8-18.5-10.6-27.6-9.5l0,0c-8.3-0.2-16.6,3.7-21.7,10.2C-3.2-87.7-5-78.7-2.8-70.7
		C0.6-58.4,12.6-50,25.1-47.6c8,1.5,16.8,0.8,23.4-4c6.4-4.7,9.8-12.7,10.7-20.6C60.2-81.3,57.2-88.1,51.2-94.9z"/>
</g>
<g>
	<g>
		<g>
			<path class="st2" d="M221.6,150c0,0,0-0.2,0-0.6s0-0.9,0-1.6c0-1.4,0-3.4,0-6.1c0-5.3-0.1-12.9-0.1-22.2l0.1,0.1
				c-14.1,0-32.6,0-52.6,0l0,0l0.1-0.1c0,10.8,0,21.1,0,30.4l-0.1-0.1c15.4,0,28.6,0.1,37.9,0.1c4.7,0,8.3,0,10.9,0.1
				c1.3,0,2.2,0,2.9,0c0.3,0,0.6,0,0.8,0C221.6,150,221.6,150,221.6,150s-0.1,0-0.3,0c-0.2,0-0.4,0-0.8,0c-0.7,0-1.6,0-2.9,0
				c-2.5,0-6.2,0-10.9,0.1c-9.3,0-22.5,0.1-37.9,0.1h-0.1V150c0-9.4,0-19.7,0-30.4v-0.1h0.1l0,0c20.1,0,38.5,0,52.6,0h0.1v0.1
				c0,9.4-0.1,17-0.1,22.3c0,2.6,0,4.7,0,6.1c0,0.7,0,1.2,0,1.6C221.6,149.8,221.6,150,221.6,150z"/>
		</g>
	</g>
	<g>
		<g>
			<path class="st2" d="M221.7,123.2c0,0.1-11.8,0.1-26.3,0.1c-14.5,0-26.3-0.1-26.3-0.1s11.8-0.1,26.3-0.1
				C209.9,123.1,221.7,123.2,221.7,123.2z"/>
		</g>
	</g>
	<g>
		<rect x="173.5" y="128.2" class="st3" width="16.3" height="16.3"/>
	</g>
	<g>
		<g>
			<g>
				<path class="st2" d="M217.8,130.9c0,0-0.1,0-0.3,0c-0.2,0-0.4,0-0.7,0c-0.6,0-1.5,0-2.5,0.1c-2.2,0-5.1,0-8.3,0.1
					c-3.2,0-6.2,0-8.3-0.1c-1.1,0-1.9-0.1-2.5-0.1c-0.3,0-0.5,0-0.7,0c-0.2,0-0.3,0-0.3,0s0.1,0,0.3,0c0.2,0,0.4,0,0.7,0
					c0.6,0,1.5,0,2.5-0.1c2.2,0,5.1,0,8.3-0.1c3.2,0,6.2,0,8.3,0.1c1.1,0,1.9,0.1,2.5,0.1c0.3,0,0.5,0,0.7,0
					C217.7,130.9,217.8,130.9,217.8,130.9z"/>
			</g>
		</g>
		<g>
			<g>
				<path class="st2" d="M218.3,134.5c0,0-0.1,0-0.3,0c-0.2,0-0.4,0-0.7,0c-0.7,0-1.5,0-2.6,0.1c-2.2,0-5.2,0-8.5,0.1
					c-3.3,0-6.3,0-8.5-0.1c-1.1,0-1.9-0.1-2.6-0.1c-0.3,0-0.5,0-0.7,0c-0.2,0-0.3,0-0.3,0s0.1,0,0.3,0c0.2,0,0.4,0,0.7,0
					c0.7,0,1.5,0,2.6-0.1c2.2,0,5.2,0,8.5-0.1c3.3,0,6.3,0,8.5,0.1c1.1,0,1.9,0.1,2.6,0.1c0.3,0,0.5,0,0.7,0
					S218.3,134.5,218.3,134.5z"/>
			</g>
		</g>
		<g>
			<g>
				<path class="st2" d="M218.3,138.2c0,0-0.1,0-0.3,0c-0.2,0-0.4,0-0.7,0c-0.7,0-1.5,0-2.6,0.1c-2.2,0-5.2,0-8.5,0.1
					c-3.3,0-6.3,0-8.5-0.1c-1.1,0-1.9-0.1-2.6-0.1c-0.3,0-0.5,0-0.7,0c-0.2,0-0.3,0-0.3,0s0.1,0,0.3,0c0.2,0,0.4,0,0.7,0
					c0.7,0,1.5,0,2.6-0.1c2.2,0,5.2,0,8.5-0.1c3.3,0,6.3,0,8.5,0.1c1.1,0,1.9,0.1,2.6,0.1c0.3,0,0.5,0,0.7,0
					S218.3,138.2,218.3,138.2z"/>
			</g>
		</g>
		<g>
			<g>
				<path class="st2" d="M218.3,141.8c0,0-0.1,0-0.3,0c-0.2,0-0.4,0-0.7,0c-0.7,0-1.5,0-2.6,0.1c-2.2,0-5.2,0-8.5,0.1
					c-3.3,0-6.3,0-8.5-0.1c-1.1,0-1.9-0.1-2.6-0.1c-0.3,0-0.5,0-0.7,0c-0.2,0-0.3,0-0.3,0s0.1,0,0.3,0c0.2,0,0.4,0,0.7,0
					c0.7,0,1.5,0,2.6-0.1c2.2,0,5.2,0,8.5-0.1c3.3,0,6.3,0,8.5,0.1c1.1,0,1.9,0.1,2.6,0.1c0.3,0,0.5,0,0.7,0
					C218.3,141.8,218.3,141.8,218.3,141.8z"/>
			</g>
		</g>
	</g>
</g>
<g class="st4">
	<path class="st3" d="M19,23.1h37.4c0,0-3.3-6-12.9-5.2c-9.2,0.9-9.7-3-14.4-3.4C24.4,14.1,20.6,17.7,19,23.1z"/>
</g>
<g>
	<path class="st3" d="M100,91.2h30.3c0,0-2.7-4.9-10.5-4.1c-7.4,0.7-7.8-2.4-11.6-2.8C104.4,83.8,101.2,86.7,100,91.2z"/>
</g>
<g id="Floor">
	<g>
		<path class="st5" d="M229.6,165.9c0,0.1-52.1,0.2-116.4,0.2S-3.2,166-3.2,165.9c0-0.1,52.1-0.2,116.4-0.2
			C177.5,165.7,229.6,165.8,229.6,165.9z"/>
	</g>
</g>
<g id="Screens">
	<g>
		<g>
			<g>
				<rect x="143.5" y="14.3" class="st6" width="73.5" height="49.2"/>
			</g>
			<g>
				<g>
					<path class="st7" d="M217,63.5c0,0,0-0.3,0-0.9c0-0.6,0-1.5,0-2.6c0-2.3,0-5.6-0.1-9.9c0-8.5-0.1-20.8-0.1-35.8l0.1,0.1
						c-20.2,0-45.8,0-73.5,0.1l0,0l0.2-0.2c0,17.5,0,34.2,0,49.2l-0.1-0.1c21.6,0,40,0.1,52.9,0.1c6.5,0,11.6,0,15.1,0.1
						c1.8,0,3.1,0,4,0c0.5,0,0.8,0,1.1,0C216.8,63.5,217,63.5,217,63.5s-0.1,0-0.4,0c-0.3,0-0.6,0-1,0c-0.9,0-2.3,0-4,0
						c-3.5,0-8.6,0-15.1,0.1c-12.9,0-31.4,0.1-53,0.1h-0.1v-0.1c0-15,0-31.7,0-49.2v-0.2h0.2l0,0c27.7,0,53.2,0,73.5,0.1h0.1v0.1
						c0,15-0.1,27.3-0.1,35.9c0,4.2,0,7.6-0.1,9.9c0,1.1,0,2,0,2.6C217,63.2,217,63.5,217,63.5z"/>
				</g>
			</g>
		</g>
		<g>
			<g>
				<path class="st7" d="M143.5,18.7c0-0.1,16.4-0.2,36.7-0.2s36.7,0.1,36.7,0.2c0,0.1-16.4,0.2-36.7,0.2
					C159.9,18.8,143.5,18.7,143.5,18.7z"/>
			</g>
		</g>
		<g>
			<g class="st8">
				<path class="st7" d="M146.4,16.5c0,0.3-0.3,0.6-0.6,0.6s-0.6-0.3-0.6-0.6c0-0.3,0.3-0.6,0.6-0.6S146.4,16.2,146.4,16.5z"/>
			</g>
			<g class="st8">
				<path class="st7" d="M148.4,16.5c0,0.3-0.3,0.6-0.6,0.6c-0.3,0-0.6-0.3-0.6-0.6c0-0.3,0.3-0.6,0.6-0.6
					C148.1,15.9,148.4,16.2,148.4,16.5z"/>
			</g>
			<g class="st8">
				<path class="st7" d="M150.4,16.5c0,0.3-0.3,0.6-0.6,0.6c-0.3,0-0.6-0.3-0.6-0.6c0-0.3,0.3-0.6,0.6-0.6
					C150.1,15.9,150.4,16.2,150.4,16.5z"/>
			</g>
		</g>
		<g class="st8">
			<rect x="149.8" y="23.8" class="st7" width="19.6" height="19.6"/>
		</g>
		<g>
			<g>
				<path class="st7" d="M206.9,29.4c0,0.1-7.6,0.2-17.1,0.2c-9.4,0-17.1-0.1-17.1-0.2s7.6-0.2,17.1-0.2S206.9,29.3,206.9,29.4z"/>
			</g>
		</g>
		<g>
			<g>
				<path class="st7" d="M206.9,33c0,0.1-7.6,0.2-17.1,0.2c-9.4,0-17.1-0.1-17.1-0.2c0-0.1,7.6-0.2,17.1-0.2S206.9,33,206.9,33z"/>
			</g>
		</g>
		<g>
			<g>
				<path class="st7" d="M206.9,36.6c0,0.1-7.6,0.2-17.1,0.2c-9.4,0-17.1-0.1-17.1-0.2c0-0.1,7.6-0.2,17.1-0.2
					C199.2,36.5,206.9,36.6,206.9,36.6z"/>
			</g>
		</g>
		<g>
			<g>
				<path class="st7" d="M192.9,40.3c0,0-0.3,0.1-0.8,0.1c-0.6,0-1.3,0-2.2,0.1c-1.8,0-4.3,0.1-7.1,0.1c-2.8,0-5.3,0-7.1-0.1
					c-0.9,0-1.6-0.1-2.2-0.1c-0.5,0-0.8-0.1-0.8-0.1s0.3-0.1,0.8-0.1c0.6,0,1.3,0,2.2-0.1c1.8,0,4.3-0.1,7.1-0.1
					c2.8,0,5.3,0,7.1,0.1c0.9,0,1.6,0.1,2.2,0.1C192.6,40.2,192.9,40.3,192.9,40.3z"/>
			</g>
		</g>
		<g class="st8">
			<rect x="151" y="50" class="st7" width="9.2" height="9.2"/>
		</g>
		<g class="st8">
			<rect x="167.7" y="50" class="st7" width="9.2" height="9.2"/>
		</g>
		<g class="st8">
			<rect x="184.5" y="50" class="st7" width="9.2" height="9.2"/>
		</g>
		<g class="st8">
			<rect x="201.1" y="50" class="st7" width="9.2" height="9.2"/>
		</g>
	</g>
</g>
<g id="Rocket">
	<path class="st3" d="M112.3,19.2c-0.9-0.6-2-0.2-2.9,0.4c-0.9,0.6-1.6,1.4-2.6,1.7c-1.8,0.7-4.2-0.1-5.6,1.2
		c-0.9,0.8-1,2.3-1.7,3.3c-1.2,1.7-3.9,2.4-4.1,4.5c-0.1,1.2,0.8,2.3,2,2.7s2.5,0,3.5-0.7c1.2-0.8,2.1-2,3.5-2.4
		c1.4-0.4,3.1-0.1,4.2-1c1.1-1,0.9-2.7,1.7-3.9c0.4-0.6,1.1-1.1,1.7-1.6c0.6-0.5,1.2-1.1,1.2-1.9S112.9,19.2,112.3,19.2"/>
	<g>
		<g>
			<path class="st5" d="M89.9,103.6c0,0,0.2,0.1,0.4,0.4c0.2,0.2,0.2,0.4,0.2,0.5c0,0-0.2-0.1-0.4-0.4
				C89.9,103.9,89.9,103.7,89.9,103.6z"/>
		</g>
		<g>
			<path class="st5" d="M88.2,100c0,0,0.3,0.4,0.5,0.9c0.2,0.5,0.3,1,0.3,1c0,0-0.3-0.4-0.5-0.9C88.3,100.5,88.2,100.1,88.2,100z"/>
		</g>
		<g>
			<path class="st5" d="M87.3,96.2c0,0,0.2,0.4,0.3,1c0.1,0.6,0.1,1,0.1,1c0,0-0.2-0.4-0.3-1C87.3,96.6,87.2,96.2,87.3,96.2z"/>
		</g>
		<g>
			<path class="st5" d="M87.2,92.2c0,0,0.1,0.4,0.1,1c0,0.6-0.1,1-0.1,1c0,0-0.1-0.4-0.1-1C87,92.7,87.1,92.2,87.2,92.2z"/>
		</g>
		<g>
			<path class="st5" d="M87.8,88.3c0,0,0,0.5-0.1,1c-0.1,0.5-0.2,1-0.3,1c0,0,0-0.4,0.1-1C87.6,88.7,87.8,88.3,87.8,88.3z"/>
		</g>
		<g>
			<path class="st5" d="M89.2,84.6c0,0-0.1,0.4-0.3,1s-0.4,0.9-0.5,0.9c0,0,0.1-0.4,0.3-1C88.9,84.9,89.2,84.6,89.2,84.6z"/>
		</g>
		<g>
			<path class="st5" d="M91.4,81.3c0,0-0.2,0.4-0.5,0.9c-0.3,0.4-0.6,0.8-0.7,0.8c0,0,0.2-0.4,0.5-0.9
				C91.1,81.6,91.4,81.2,91.4,81.3z"/>
		</g>
		<g>
			<path class="st5" d="M94.1,78.3c0,0-0.2,0.4-0.6,0.8c-0.4,0.4-0.7,0.7-0.8,0.6c0,0,0.2-0.4,0.6-0.8C93.7,78.6,94,78.3,94.1,78.3z
				"/>
		</g>
		<g>
			<path class="st5" d="M96.9,75.5c0,0-0.2,0.4-0.6,0.8s-0.7,0.7-0.8,0.6c0,0,0.2-0.4,0.6-0.8C96.5,75.7,96.9,75.5,96.9,75.5z"/>
		</g>
		<g>
			<path class="st5" d="M99.5,72.5c0,0-0.2,0.4-0.6,0.8c-0.4,0.4-0.7,0.8-0.7,0.7c0,0,0.2-0.4,0.6-0.8
				C99.1,72.8,99.4,72.5,99.5,72.5z"/>
		</g>
		<g>
			<path class="st5" d="M101.6,69.1c0,0-0.1,0.4-0.3,1c-0.2,0.5-0.5,0.8-0.6,0.8c0,0,0.2-0.4,0.4-0.9
				C101.3,69.5,101.5,69.1,101.6,69.1z"/>
		</g>
		<g>
			<path class="st5" d="M102.5,65.2c0,0,0.1,0.4,0,1c-0.1,0.6-0.2,1-0.3,1c0,0,0-0.4,0.1-1C102.4,65.7,102.5,65.2,102.5,65.2z"/>
		</g>
		<g>
			<path class="st5" d="M102.2,61.3c0,0,0.2,0.4,0.3,1s0.1,1,0,1c0,0-0.1-0.4-0.2-1C102.2,61.7,102.2,61.3,102.2,61.3z"/>
		</g>
		<g>
			<path class="st5" d="M100.6,57.7c0,0,0.4,0.3,0.6,0.8c0.3,0.5,0.4,0.9,0.4,1c0,0-0.3-0.4-0.5-0.8
				C100.8,58.1,100.6,57.7,100.6,57.7z"/>
		</g>
		<g>
			<path class="st5" d="M97.9,54.8c0,0,0.4,0.2,0.9,0.5c0.4,0.4,0.7,0.7,0.7,0.8c0,0-0.4-0.2-0.8-0.6C98.2,55.1,97.9,54.9,97.9,54.8
				z"/>
		</g>
		<g>
			<path class="st5" d="M94.3,53.2c0,0,0.5,0,1,0.2s0.9,0.4,0.9,0.5c0,0-0.4-0.1-1-0.3S94.2,53.3,94.3,53.2z"/>
		</g>
		<g>
			<path class="st5" d="M90.3,53c0,0,0.4-0.2,1-0.2c0.6,0,1,0,1,0.1c0,0-0.4,0.1-1,0.1C90.8,53.1,90.3,53.1,90.3,53z"/>
		</g>
		<g>
			<path class="st5" d="M86.6,54.5c0,0,0.3-0.4,0.8-0.6c0.5-0.3,0.9-0.4,1-0.3c0,0-0.4,0.2-0.8,0.5C87.1,54.3,86.7,54.5,86.6,54.5z"
				/>
		</g>
		<g>
			<path class="st5" d="M83.9,57.4c0,0,0.2-0.4,0.5-0.9c0.4-0.4,0.7-0.7,0.7-0.7c0,0-0.2,0.4-0.6,0.8C84.2,57.1,84,57.4,83.9,57.4z"
				/>
		</g>
		<g>
			<path class="st5" d="M82.6,61.1c0,0,0-0.5,0.1-1c0.1-0.6,0.3-1,0.4-0.9c0,0-0.1,0.4-0.2,1C82.7,60.6,82.6,61.1,82.6,61.1z"/>
		</g>
		<g>
			<path class="st5" d="M83.1,65c0,0-0.2-0.4-0.4-0.9c-0.1-0.6-0.1-1-0.1-1c0,0,0.2,0.4,0.3,1C83,64.5,83.1,65,83.1,65z"/>
		</g>
		<g>
			<path class="st5" d="M85.1,68.4c0,0-0.4-0.3-0.7-0.7s-0.5-0.9-0.5-0.9c0,0,0.3,0.3,0.6,0.8S85.1,68.3,85.1,68.4z"/>
		</g>
		<g>
			<path class="st5" d="M88,71.1c0,0-0.4-0.2-0.9-0.5c-0.4-0.4-0.7-0.7-0.7-0.7c0,0,0.4,0.2,0.8,0.6C87.7,70.7,88,71,88,71.1z"/>
		</g>
		<g>
			<path class="st5" d="M91.5,73c0,0-0.4-0.1-0.9-0.4c-0.5-0.2-0.9-0.5-0.8-0.6c0,0,0.4,0.1,0.9,0.4C91.1,72.8,91.5,73,91.5,73z"/>
		</g>
		<g>
			<path class="st5" d="M95.2,74.3c0,0-0.5,0-1-0.1c-0.5-0.1-1-0.3-0.9-0.4c0,0,0.4,0,1,0.2C94.8,74.1,95.2,74.2,95.2,74.3z"/>
		</g>
		<g>
			<path class="st5" d="M99.2,74.5c0,0-0.4,0.2-1,0.2s-1-0.1-1-0.1s0.4-0.1,1-0.1C98.7,74.4,99.2,74.4,99.2,74.5z"/>
		</g>
		<g>
			<path class="st5" d="M103,73.4c0,0-0.4,0.3-0.9,0.5s-1,0.2-1,0.2c0,0,0.4-0.2,0.9-0.4C102.6,73.5,103,73.4,103,73.4z"/>
		</g>
		<g>
			<path class="st5" d="M106.3,71.3c0,0-0.3,0.4-0.7,0.7c-0.4,0.4-0.8,0.6-0.9,0.5c0,0,0.3-0.3,0.8-0.7
				C105.9,71.5,106.3,71.2,106.3,71.3z"/>
		</g>
		<g>
			<path class="st5" d="M108.9,68.3c0,0-0.2,0.4-0.5,0.9c-0.3,0.4-0.7,0.8-0.7,0.7c0,0,0.2-0.4,0.6-0.8
				C108.6,68.6,108.9,68.2,108.9,68.3z"/>
		</g>
		<g>
			<path class="st5" d="M110.6,64.7c0,0,0,0.5-0.2,1c-0.2,0.5-0.4,0.9-0.5,0.9c0,0,0.1-0.4,0.3-1C110.4,65.1,110.6,64.7,110.6,64.7z
				"/>
		</g>
		<g>
			<path class="st5" d="M111.4,60.8c0,0,0.1,0.4,0,1s-0.2,1-0.3,1c0,0,0-0.4,0.1-1C111.3,61.2,111.3,60.8,111.4,60.8z"/>
		</g>
		<g>
			<path class="st5" d="M111.3,56.8c0,0,0.1,0.4,0.2,1c0,0.6,0,1,0,1c0,0-0.1-0.4-0.2-1C111.2,57.3,111.3,56.8,111.3,56.8z"/>
		</g>
		<g>
			<path class="st5" d="M110.4,52.9c0,0,0.2,0.4,0.4,0.9c0.2,0.5,0.2,1,0.2,1c0,0-0.2-0.4-0.4-0.9C110.5,53.4,110.4,53,110.4,52.9z"
				/>
		</g>
		<g>
			<path class="st5" d="M108.9,49.3c0,0,0.3,0.4,0.5,0.8c0.2,0.5,0.4,0.9,0.3,1c0,0-0.3-0.4-0.5-0.9C109,49.7,108.9,49.3,108.9,49.3
				z"/>
		</g>
		<g>
			<path class="st5" d="M107,45.8c0,0,0.3,0.3,0.6,0.8s0.5,0.9,0.4,0.9c0,0-0.3-0.3-0.6-0.8S106.9,45.8,107,45.8z"/>
		</g>
		<g>
			<path class="st5" d="M105,42.3c0,0,0.3,0.4,0.6,0.8c0.3,0.5,0.4,0.9,0.4,0.9c0,0-0.3-0.4-0.6-0.8C105.1,42.8,104.9,42.4,105,42.3
				z"/>
		</g>
		<g>
			<path class="st5" d="M103.4,38.7c0,0,0.2,0.4,0.4,0.9s0.3,1,0.2,1c0,0-0.2-0.4-0.4-0.9C103.5,39.1,103.4,38.7,103.4,38.7z"/>
		</g>
		<g>
			<path class="st5" d="M102.8,34.8c0,0,0.1,0.4,0.2,1s0.1,1,0,1s-0.2-0.4-0.2-1C102.7,35.2,102.7,34.8,102.8,34.8z"/>
		</g>
		<g>
			<path class="st5" d="M103.1,30.8c0,0,0,0.4-0.1,1c-0.1,0.6-0.2,1-0.2,1c0,0-0.1-0.4,0-1C102.9,31.2,103,30.8,103.1,30.8z"/>
		</g>
		<g>
			<path class="st5" d="M104.4,27.1c0,0-0.1,0.4-0.3,1s-0.4,0.9-0.4,0.9c0,0,0-0.5,0.2-1C104.1,27.4,104.3,27,104.4,27.1z"/>
		</g>
		<g>
			<path class="st5" d="M106.6,23.8c0,0-0.2,0.4-0.6,0.8s-0.6,0.8-0.7,0.8c0,0,0.2-0.4,0.5-0.9C106.2,24,106.6,23.7,106.6,23.8z"/>
		</g>
		<g>
			<path class="st5" d="M109.6,21.1c0,0-0.3,0.3-0.8,0.7c-0.4,0.3-0.8,0.6-0.8,0.6c0,0,0.3-0.4,0.7-0.7
				C109.2,21.3,109.6,21.1,109.6,21.1z"/>
		</g>
		<g>
			<path class="st5" d="M113.1,19.4c0,0-0.4,0.2-0.9,0.5c-0.5,0.2-0.9,0.4-1,0.3c0,0,0.4-0.3,0.9-0.5
				C112.7,19.4,113.1,19.3,113.1,19.4z"/>
		</g>
		<g>
			<path class="st5" d="M116,18.6c0,0-0.2,0.2-0.5,0.2c-0.3,0-0.5,0-0.5,0c0,0,0.2-0.2,0.5-0.2C115.8,18.6,116,18.6,116,18.6z"/>
		</g>
	</g>
	<g>
		<path class="st9" d="M124.1,6.9c0,0,4.7-3.3,11.1-1.2c0,0,0.5,5.4-4.7,9.6"/>
		<path class="st9" d="M109.4,16.8c0.2,0.3,5.2,8.4,5.2,8.4l15.2-9.4c2.7-1.6,3.3-5.2,1.5-7.7l0,0c-1.7-2.3-4.9-2.8-7.2-1.2
			L109.4,16.8z"/>
		<path class="st5" d="M114.7,25.2l-0.4,5.7c0,0,9.9-4.8,7.4-10.1L114.7,25.2z"/>
		<path class="st5" d="M116.5,12.1c0,0-6.7-2.9-12.2,1.4l5.1,3.3L116.5,12.1z"/>
		<path class="st5" d="M116.4,16.8l-9.5,6c0,0,0.3,1,0.6,1c0.2-0.1,7.4-4.3,9.7-5.6c0.4-0.2,0.5-0.7,0.2-1.1l0,0
			C117.1,16.7,116.7,16.6,116.4,16.8z"/>
		<g>
			<ellipse class="st10" cx="125.2" cy="12.3" rx="3.1" ry="3.1"/>
			<g>
				<path class="st5" d="M128.2,12.3c0,0,0-0.3-0.1-0.7c-0.1-0.4-0.4-1.1-1.1-1.6c-0.4-0.2-0.8-0.5-1.3-0.6c-0.5-0.1-1-0.1-1.6,0.1
					c-0.5,0.2-1,0.6-1.4,1c-0.4,0.5-0.6,1.1-0.6,1.7s0.2,1.3,0.6,1.7c0.4,0.5,0.8,0.8,1.4,1c0.5,0.2,1.1,0.2,1.6,0.1
					c0.5-0.1,0.9-0.3,1.3-0.6c0.7-0.5,1-1.2,1.1-1.6C128.2,12.5,128.2,12.3,128.2,12.3s0,0.1,0,0.2c0,0.1,0,0.3-0.1,0.6
					c-0.1,0.5-0.4,1.2-1.1,1.7c-0.4,0.3-0.8,0.5-1.3,0.6c-0.5,0.1-1.1,0.1-1.6-0.1c-0.6-0.2-1.1-0.6-1.5-1.1
					c-0.4-0.5-0.6-1.2-0.6-1.9c0-0.7,0.2-1.4,0.6-1.9c0.4-0.5,0.9-0.9,1.5-1.1c0.6-0.2,1.2-0.2,1.6-0.1c0.5,0.1,1,0.3,1.3,0.6
					c0.7,0.6,1,1.3,1.1,1.7c0,0.2,0.1,0.4,0.1,0.6C128.2,12.2,128.2,12.3,128.2,12.3z"/>
			</g>
		</g>
		<g>
			<path class="st5" d="M131.9,14.3c0,0-0.1-0.6-0.3-1.5c-0.1-0.5-0.3-1-0.5-1.6c-0.2-0.6-0.6-1.2-1-1.8c-0.4-0.6-0.8-1.2-1.3-1.6
				c-0.4-0.4-0.8-0.8-1.2-1.2c-0.8-0.6-1.3-0.9-1.2-0.9c0,0,0.2,0,0.4,0.2c0.1,0.1,0.3,0.2,0.4,0.2c0.2,0.1,0.4,0.2,0.6,0.4
				c0.4,0.3,0.8,0.7,1.3,1.1c0.4,0.5,0.9,1,1.3,1.6c0.4,0.6,0.7,1.3,1,1.9c0.2,0.6,0.4,1.2,0.5,1.6c0,0.2,0.1,0.4,0.1,0.6
				c0,0.2,0,0.4,0,0.5C131.9,14.2,131.9,14.3,131.9,14.3z"/>
		</g>
		<g>
			<path class="st5" d="M131.1,14.8c0,0-0.1-0.6-0.3-1.6c-0.1-0.5-0.3-1-0.6-1.6c-0.2-0.6-0.6-1.2-1-1.8c-0.4-0.6-0.8-1.2-1.3-1.6
				c-0.4-0.5-0.9-0.9-1.2-1.2c-0.8-0.6-1.3-0.9-1.3-1c0,0,0.2,0,0.4,0.2c0.1,0.1,0.3,0.2,0.4,0.2c0.2,0.1,0.4,0.2,0.6,0.4
				c0.4,0.3,0.8,0.7,1.3,1.2c0.4,0.5,0.9,1,1.3,1.7c0.4,0.6,0.7,1.3,1,1.9s0.4,1.2,0.5,1.7c0.1,0.2,0.1,0.5,0.1,0.6
				c0,0.2,0,0.4,0,0.5C131.1,14.6,131.1,14.7,131.1,14.8z"/>
		</g>
	</g>
</g>
<g id="Chart">
	<g>
		<g>
			<rect x="190.3" y="86.4" class="st7" width="3.5" height="11.4"/>
		</g>
		<g>
			<rect x="196.8" y="81.8" class="st7" width="3.5" height="16.1"/>
		</g>
		<g>
			<rect x="203.7" y="79.6" class="st7" width="3.5" height="18.3"/>
		</g>
		<g>
			<rect x="210.6" y="77.3" class="st7" width="3.5" height="20.6"/>
		</g>
	</g>
</g>
<g id="Gears">
	<g>
		<g>
			<g>
				<g>
					<path class="st11" d="M68.5,75.1c0.7,0.4,1.2,0.8,1.8,1.3l1.9-0.7l1.8,2.8l-1.4,1.4c0.2,0.7,0.4,1.4,0.4,2.1l1.8,0.9L74,86.1
						h-2c-0.4,0.7-0.8,1.2-1.3,1.8l0.7,1.9l-2.8,1.8l-1.4-1.4c-0.7,0.2-1.4,0.4-2.1,0.4l-0.9,1.8L61,91.6v-2
						c-0.7-0.4-1.2-0.8-1.8-1.3L57.4,89l-1.8-2.8l1.4-1.4c-0.2-0.7-0.4-1.4-0.4-2.1l-1.8-0.9l0.7-3.2h2c0.4-0.7,0.8-1.2,1.3-1.8
						l-0.7-1.9l2.8-1.8l1.4,1.4c0.7-0.2,1.4-0.4,2.1-0.4l0.9-1.8l3.2,0.7L68.5,75.1L68.5,75.1z M65.7,78.9c-1.9-0.4-3.8,0.8-4.2,2.7
						c-0.4,1.9,0.8,3.8,2.7,4.2c1.9,0.4,3.8-0.8,4.2-2.7C68.8,81.2,67.6,79.3,65.7,78.9z"/>
				</g>
			</g>
		</g>
		<g class="st12">
			<g>
				<g>
					<path class="st13" d="M68.5,75.1c0.7,0.4,1.2,0.8,1.8,1.3l1.9-0.7l1.8,2.8l-1.4,1.4c0.2,0.7,0.4,1.4,0.4,2.1l1.8,0.9L74,86.1
						h-2c-0.4,0.7-0.8,1.2-1.3,1.8l0.7,1.9l-2.8,1.8l-1.4-1.4c-0.7,0.2-1.4,0.4-2.1,0.4l-0.9,1.8L61,91.6v-2
						c-0.7-0.4-1.2-0.8-1.8-1.3L57.4,89l-1.8-2.8l1.4-1.4c-0.2-0.7-0.4-1.4-0.4-2.1l-1.8-0.9l0.7-3.2h2c0.4-0.7,0.8-1.2,1.3-1.8
						l-0.7-1.9l2.8-1.8l1.4,1.4c0.7-0.2,1.4-0.4,2.1-0.4l0.9-1.8l3.2,0.7L68.5,75.1L68.5,75.1z M65.7,78.9c-1.9-0.4-3.8,0.8-4.2,2.7
						c-0.4,1.9,0.8,3.8,2.7,4.2c1.9,0.4,3.8-0.8,4.2-2.7C68.8,81.2,67.6,79.3,65.7,78.9z"/>
				</g>
			</g>
		</g>
	</g>
	<g>
		<g>
			<g>
				<g>
					<path class="st11" d="M66.8,110c0.5,0.3,1,0.6,1.4,1l1.5-0.5l1.4,2.2l-1.1,1.1c0.2,0.5,0.3,1.1,0.3,1.7l1.4,0.7l-0.6,2.5h-1.6
						c-0.3,0.5-0.6,1-1,1.4l0.5,1.5l-2.2,1.4l-1.1-1.1c-0.5,0.2-1.1,0.3-1.7,0.3l-0.7,1.4l-2.5-0.6v-1.6c-0.5-0.3-1-0.6-1.4-1
						l-1.5,0.5l-1.4-2.2l1.1-1.1c-0.2-0.5-0.3-1.1-0.3-1.7l-1.4-0.7l0.6-2.5h1.6c0.3-0.5,0.6-1,1-1.4l-0.5-1.5l2.2-1.4l1.1,1.1
						c0.5-0.2,1.1-0.3,1.7-0.3l0.7-1.4l2.5,0.6L66.8,110L66.8,110z M64.6,113c-1.5-0.3-3,0.6-3.3,2.1c-0.3,1.5,0.6,3,2.1,3.3
						c1.5,0.3,3-0.6,3.3-2.1C67,114.8,66.1,113.3,64.6,113z"/>
				</g>
			</g>
		</g>
		<g class="st12">
			<g>
				<g>
					<path class="st14" d="M66.8,110c0.5,0.3,1,0.6,1.4,1l1.5-0.5l1.4,2.2l-1.1,1.1c0.2,0.5,0.3,1.1,0.3,1.7l1.4,0.7l-0.6,2.5h-1.6
						c-0.3,0.5-0.6,1-1,1.4l0.5,1.5l-2.2,1.4l-1.1-1.1c-0.5,0.2-1.1,0.3-1.7,0.3l-0.7,1.4l-2.5-0.6v-1.6c-0.5-0.3-1-0.6-1.4-1
						l-1.5,0.5l-1.4-2.2l1.1-1.1c-0.2-0.5-0.3-1.1-0.3-1.7l-1.4-0.7l0.6-2.5h1.6c0.3-0.5,0.6-1,1-1.4l-0.5-1.5l2.2-1.4l1.1,1.1
						c0.5-0.2,1.1-0.3,1.7-0.3l0.7-1.4l2.5,0.6L66.8,110L66.8,110z M64.6,113c-1.5-0.3-3,0.6-3.3,2.1c-0.3,1.5,0.6,3,2.1,3.3
						c1.5,0.3,3-0.6,3.3-2.1C67,114.8,66.1,113.3,64.6,113z"/>
				</g>
			</g>
		</g>
	</g>
	<g>
		<g>
			<g>
				<g>
					<path class="st11" d="M56.9,94.1c0.4,0.2,0.7,0.5,1,0.7l1.1-0.4l1,1.6l-0.8,0.8c0.1,0.4,0.2,0.8,0.2,1.2l1.1,0.5l-0.4,1.9h-1.2
						c-0.2,0.4-0.5,0.7-0.7,1l0.4,1.1l-1.6,1l-0.8-0.8c-0.4,0.1-0.8,0.2-1.2,0.2l-0.5,1.1l-1.9-0.4v-1.2c-0.4-0.2-0.7-0.5-1-0.7
						l-1.1,0.4l-1-1.6l0.8-0.8c-0.1-0.4-0.2-0.8-0.2-1.2L49,98l0.4-1.9h1.2c0.2-0.4,0.5-0.7,0.7-1L50.9,94l1.6-1l0.8,0.8
						c0.4-0.1,0.8-0.2,1.2-0.2l0.5-1.1l1.9,0.4V94.1L56.9,94.1z M55.2,96.3c-1.1-0.3-2.2,0.5-2.5,1.6c-0.3,1.1,0.5,2.2,1.6,2.5
						c1.1,0.3,2.2-0.5,2.5-1.6C57.1,97.6,56.4,96.5,55.2,96.3z"/>
				</g>
			</g>
		</g>
		<g class="st15">
			<g>
				<g>
					<path class="st13" d="M56.9,94.1c0.4,0.2,0.7,0.5,1,0.7l1.1-0.4l1,1.6l-0.8,0.8c0.1,0.4,0.2,0.8,0.2,1.2l1.1,0.5l-0.4,1.9h-1.2
						c-0.2,0.4-0.5,0.7-0.7,1l0.4,1.1l-1.6,1l-0.8-0.8c-0.4,0.1-0.8,0.2-1.2,0.2l-0.5,1.1l-1.9-0.4v-1.2c-0.4-0.2-0.7-0.5-1-0.7
						l-1.1,0.4l-1-1.6l0.8-0.8c-0.1-0.4-0.2-0.8-0.2-1.2L49,98l0.4-1.9h1.2c0.2-0.4,0.5-0.7,0.7-1L50.9,94l1.6-1l0.8,0.8
						c0.4-0.1,0.8-0.2,1.2-0.2l0.5-1.1l1.9,0.4V94.1L56.9,94.1z M55.2,96.3c-1.1-0.3-2.2,0.5-2.5,1.6c-0.3,1.1,0.5,2.2,1.6,2.5
						c1.1,0.3,2.2-0.5,2.5-1.6C57.1,97.6,56.4,96.5,55.2,96.3z"/>
				</g>
			</g>
		</g>
	</g>
</g>
<g id="Gears_1_">
	<g>
		<g>
			<g>
				<g>
					<path class="st11" d="M217.3,39.1c0.5,0.3,1,0.6,1.4,1l1.5-0.5l1.4,2.2l-1.1,1.1c0.2,0.5,0.3,1.1,0.3,1.7l1.4,0.7l-0.6,2.5H220
						c-0.3,0.5-0.6,1-1,1.4l0.5,1.5l-2.2,1.4l-1.1-1.1c-0.5,0.2-1.1,0.3-1.7,0.3l-0.7,1.4l-2.5-0.6v-1.6c-0.5-0.3-1-0.6-1.4-1
						l-1.5,0.5l-1.4-2.2l1.1-1.1c-0.2-0.5-0.3-1.1-0.3-1.7l-1.4-0.7l0.6-2.5h1.6c0.3-0.5,0.6-1,1-1.4l-0.5-1.5l2.2-1.4l1.1,1.1
						c0.5-0.2,1.1-0.3,1.7-0.3l0.7-1.4l2.5,0.6V39.1L217.3,39.1z M215.1,42.1c-1.5-0.3-3,0.6-3.3,2.1c-0.3,1.5,0.6,3,2.1,3.3
						c1.5,0.3,3-0.6,3.3-2.1C217.5,43.9,216.6,42.4,215.1,42.1z"/>
				</g>
			</g>
		</g>
		<g class="st12">
			<g>
				<g>
					<path class="st14" d="M217.3,39.1c0.5,0.3,1,0.6,1.4,1l1.5-0.5l1.4,2.2l-1.1,1.1c0.2,0.5,0.3,1.1,0.3,1.7l1.4,0.7l-0.6,2.5H220
						c-0.3,0.5-0.6,1-1,1.4l0.5,1.5l-2.2,1.4l-1.1-1.1c-0.5,0.2-1.1,0.3-1.7,0.3l-0.7,1.4l-2.5-0.6v-1.6c-0.5-0.3-1-0.6-1.4-1
						l-1.5,0.5l-1.4-2.2l1.1-1.1c-0.2-0.5-0.3-1.1-0.3-1.7l-1.4-0.7l0.6-2.5h1.6c0.3-0.5,0.6-1,1-1.4l-0.5-1.5l2.2-1.4l1.1,1.1
						c0.5-0.2,1.1-0.3,1.7-0.3l0.7-1.4l2.5,0.6V39.1L217.3,39.1z M215.1,42.1c-1.5-0.3-3,0.6-3.3,2.1c-0.3,1.5,0.6,3,2.1,3.3
						c1.5,0.3,3-0.6,3.3-2.1C217.5,43.9,216.6,42.4,215.1,42.1z"/>
				</g>
			</g>
		</g>
	</g>
	<g>
		<g>
			<g>
				<g>
					<path class="st11" d="M207.4,23.2c0.4,0.2,0.7,0.5,1,0.7l1.1-0.4l1,1.6l-0.8,0.8c0.1,0.4,0.2,0.8,0.2,1.2l1.1,0.5l-0.4,1.9
						h-1.2c-0.2,0.4-0.5,0.7-0.7,1l0.4,1.1l-1.6,1l-0.8-0.8c-0.4,0.1-0.8,0.2-1.2,0.2l-0.5,1.1l-1.9-0.4v-1.2
						c-0.4-0.2-0.7-0.5-1-0.7l-1.1,0.4l-1-1.6l0.8-0.8c-0.1-0.4-0.2-0.8-0.2-1.2l-1.1-0.5l0.4-1.9h1.2c0.2-0.4,0.5-0.7,0.7-1
						l-0.4-1.1l1.6-1l0.8,0.8c0.4-0.1,0.8-0.2,1.2-0.2l0.5-1.1l1.9,0.4V23.2L207.4,23.2z M205.7,25.4c-1.1-0.3-2.2,0.5-2.5,1.6
						c-0.3,1.1,0.5,2.2,1.6,2.5s2.2-0.5,2.5-1.6C207.6,26.7,206.9,25.6,205.7,25.4z"/>
				</g>
			</g>
		</g>
		<g class="st15">
			<g>
				<g>
					<path class="st13" d="M207.4,23.2c0.4,0.2,0.7,0.5,1,0.7l1.1-0.4l1,1.6l-0.8,0.8c0.1,0.4,0.2,0.8,0.2,1.2l1.1,0.5l-0.4,1.9
						h-1.2c-0.2,0.4-0.5,0.7-0.7,1l0.4,1.1l-1.6,1l-0.8-0.8c-0.4,0.1-0.8,0.2-1.2,0.2l-0.5,1.1l-1.9-0.4v-1.2
						c-0.4-0.2-0.7-0.5-1-0.7l-1.1,0.4l-1-1.6l0.8-0.8c-0.1-0.4-0.2-0.8-0.2-1.2l-1.1-0.5l0.4-1.9h1.2c0.2-0.4,0.5-0.7,0.7-1
						l-0.4-1.1l1.6-1l0.8,0.8c0.4-0.1,0.8-0.2,1.2-0.2l0.5-1.1l1.9,0.4V23.2L207.4,23.2z M205.7,25.4c-1.1-0.3-2.2,0.5-2.5,1.6
						c-0.3,1.1,0.5,2.2,1.6,2.5s2.2-0.5,2.5-1.6C207.6,26.7,206.9,25.6,205.7,25.4z"/>
				</g>
			</g>
		</g>
	</g>
</g>
<path class="st5" d="M169.7,84.9c3.4-0.6,5-2,5.8-3c4.6-5.2-0.8-13.3-5.2-27.2c-0.2-0.6-0.7-1.7-1.7-2.3c-0.9-0.5-2.2-0.3-2.5,0.7"
	/>
<path class="st5" d="M159.4,50.5c1.5-1,1.9-3.2,1.1-4.8s-2.6-2.6-4.3-2.8c-2.6-0.4-5.3,0.5-7.1,2.4c-1,1-1.8,2.3-3.1,2.8
	c-1.2,0.4-2.5,0.1-3.7,0.2c-1.6,0.2-3,1.4-3.9,2.8c-0.9,1.4-1.2,3.1-1.4,4.7c-0.1,0.8-0.6,2-1.4,4.2c-2.5,7.4-3.6,9.1-4.9,14
	c-0.5,1.9-1.1,4.2-1.4,7.3c-0.5,5.8-0.9,9.1,1.1,11.4c2.1,2.4,5.6,2.4,11,2.4c3.6,0,5.6,0,6.7-1.4c0.9-1.2,0.8-3.7,0.7-8.7
	c0,0,0-0.6,0.1-1.3c0.1-0.7,0.1-1.1,0.3-1.3c0.5-0.6,1.2-0.3,2.2-0.9c0.2-0.1,0.4-0.3,0.6-0.6c0.7-0.9,1.1-2,2-2.7
	c1.1-1,2.6-1.2,4-1.7c3.1-1.1,5.7-3.5,6.9-6.5c1.2-3,1.1-6.6-0.4-9.5"/>
<g>
	<g>
		<g>
			<g>
				<g>
					<g>
						<g>
							<g>
								<g>
									<g>
										<g>
											<g>
												<g>
													<path class="st16" d="M162.7,52.5c1.3,0.2,2.2,1.2,2.2,2.5l0,0l-1.5,32.7c-0.1,3.8-5.7,6-9.9,5.9l0,0
														c-4.2-0.1-4.3-2.1-4.3-5.8c-0.1-6.1-0.1-8.4-0.1-8.4c0,0-5.3-0.9-6.4-7.8c-0.6-3.4-0.4-9.1-0.1-13.6
														c0.3-4.1,3-9.2,7.1-8.7L162.7,52.5z"/>
												</g>
											</g>
										</g>
									</g>
								</g>
							</g>
							<g>
								<g>
									<g>
										<g>
											<g>
												<g>
													<g>
														<path class="st5" d="M144.3,62.4c0,0.5,0.4,0.9,0.9,0.9c0.5,0.1,0.9-0.3,0.9-0.8c0-0.5-0.4-0.9-0.9-0.9
															C144.7,61.6,144.3,62,144.3,62.4z"/>
													</g>
												</g>
											</g>
										</g>
									</g>
								</g>
								<g>
									<g>
										<g>
											<g>
												<g>
													<g>
														<g>
															<path class="st5" d="M143.9,60.9c0.1,0.1,0.8-0.4,1.7-0.4c1,0,1.7,0.5,1.8,0.4c0.1-0.1-0.1-0.3-0.4-0.5
																c-0.3-0.2-0.8-0.5-1.4-0.5c-0.6,0-1.1,0.2-1.4,0.5C144,60.6,143.9,60.9,143.9,60.9z"/>
														</g>
													</g>
												</g>
											</g>
										</g>
									</g>
								</g>
							</g>
							<g>
								<g>
									<g>
										<g>
											<g>
												<g>
													<g>
														<path class="st5" d="M153.7,62.4c0,0.5,0.4,0.9,0.9,0.9c0.5,0.1,0.9-0.3,0.9-0.8c0-0.5-0.4-0.9-0.9-0.9
															C154.2,61.6,153.8,62,153.7,62.4z"/>
													</g>
												</g>
											</g>
										</g>
									</g>
								</g>
								<g>
									<g>
										<g>
											<g>
												<g>
													<g>
														<g>
															<path class="st5" d="M153.3,61.1c0.1,0.1,0.8-0.4,1.7-0.4c1,0,1.7,0.5,1.8,0.4c0.1-0.1-0.1-0.3-0.4-0.5
																c-0.3-0.2-0.8-0.5-1.4-0.5c-0.6,0-1.1,0.2-1.4,0.5C153.4,60.8,153.3,61,153.3,61.1z"/>
														</g>
													</g>
												</g>
											</g>
										</g>
									</g>
								</g>
							</g>
							<g>
								<g>
									<g>
										<g>
											<g>
												<g>
													<g>
														<path class="st5" d="M149.8,68.1c0-0.1-0.6-0.2-1.6-0.3c-0.3-0.1-0.5-0.1-0.5-0.3c-0.1-0.2,0.1-0.5,0.2-0.7
															c0.3-0.6,0.5-1.2,0.7-1.9c1-2.6,1.7-4.8,1.6-4.8c-0.1-0.1-1,2.1-2,4.7c-0.3,0.7-0.5,1.3-0.7,1.9
															c-0.1,0.3-0.3,0.6-0.2,1c0.1,0.2,0.3,0.3,0.4,0.4c0.2,0.1,0.3,0.1,0.4,0.1C149.2,68.2,149.8,68.2,149.8,68.1z"/>
													</g>
												</g>
											</g>
										</g>
									</g>
								</g>
							</g>
							<g>
								<g>
									<g>
										<g>
											<g>
												<g>
													<path class="st17" d="M149.2,79.4c0,0,4.7,0.3,9.2-2.4c0,0-2.3,4.9-9.2,4.2V79.4z"/>
												</g>
											</g>
										</g>
									</g>
								</g>
							</g>
							<g>
								<g>
									<g>
										<g>
											<g>
												<g>
													<path class="st7" d="M150.2,70.4c0.4-0.5,1-0.7,1.5-0.7c0.4,0.1,0.8,0.3,1.1,0.6c0.3,0.4,0.3,0.8,0.1,1.1
														c-0.3,0.4-0.8,0.5-1.3,0.3c-0.5-0.2-0.9-0.4-1.2-0.7c-0.1-0.1-0.2-0.2-0.3-0.3C150.1,70.7,150.1,70.5,150.2,70.4"/>
												</g>
											</g>
										</g>
									</g>
								</g>
							</g>
							<g>
								<g>
									<g>
										<g>
											<g>
												<g>
													<g>
														<path class="st5" d="M152.6,68.8c-0.2,0-0.2,1-1.1,1.8c-0.9,0.7-2,0.6-2,0.8c0,0.1,0.3,0.2,0.7,0.2s1.1-0.2,1.7-0.6
															c0.6-0.5,0.8-1.1,0.8-1.5C152.8,69.1,152.7,68.8,152.6,68.8z"/>
													</g>
												</g>
											</g>
										</g>
									</g>
								</g>
							</g>
						</g>
					</g>
				</g>
				<g>
					<g>
						<g>
							<g>
								<g>
									<g>
										<path class="st5" d="M152.8,59.5c0.1,0.3,1.1,0.2,2.2,0.3c1.1,0.1,2,0.5,2.2,0.2c0.1-0.1-0.1-0.4-0.5-0.6
											c-0.4-0.3-0.9-0.5-1.6-0.6c-0.7-0.1-1.3,0.1-1.7,0.2C153.1,59.1,152.8,59.3,152.8,59.5z"/>
									</g>
								</g>
							</g>
						</g>
					</g>
				</g>
				<g>
					<g>
						<g>
							<g>
								<g>
									<g>
										<path class="st5" d="M144.3,58.1c0.2,0.2,0.8,0,1.6,0c0.8-0.1,1.5,0.2,1.6-0.1c0.1-0.1-0.1-0.3-0.3-0.5
											c-0.3-0.2-0.8-0.4-1.3-0.4c-0.6,0-1,0.2-1.3,0.5C144.4,57.8,144.3,58,144.3,58.1z"/>
									</g>
								</g>
							</g>
						</g>
					</g>
				</g>
			</g>
		</g>
	</g>
</g>
<path class="st5" d="M159,48.7c0,1.4-0.6,2.7-1.7,3.6c-1.1,0.9-2.5,1.3-3.9,1c-1.1-0.2-2.2-0.7-3.1-0.2c-1,0.6-1,2-1.9,2.8
	c-1.2,1.1-3.1,0.1-4.7,0.5c-1.2,0.4-1.9,1.5-2.7,2.4c-0.8,1-2,1.9-3.2,1.5c0.1-1.1,0.2-2.2,0.5-3.2c0.3-1,0.9-2,1.8-2.6
	c0.5-0.3,1.1-0.5,1.5-0.9c1-0.8,1.2-2.2,1.8-3.3c0.8-1.4,2.3-2.4,3.9-2.6c1.4-0.2,2.7,0.3,4-0.1c1-0.3,1.8-0.9,2.8-1.1
	c1.9-0.4,3.7,1,5.1,2.4"/>
<g>
	<path class="st18" d="M171.5,65.2c-0.1,0,0.2-0.3,0.2-0.8c-0.1-0.5-0.5-1.3-1.4-1.6c-0.5-0.2-1-0.3-1.5-0.4
		c-0.6-0.2-1.2-0.3-1.7-0.7c-0.6-0.4-0.9-1.1-0.9-1.8c-0.1-0.7,0.1-1.4,0.1-2.2c0-0.4,0-0.7-0.1-1.1c-0.1-0.4-0.2-0.7-0.4-0.9
		c-0.4-0.5-1.1-0.8-1.7-1c-0.6-0.2-1.2-0.4-1.7-0.7c-0.5-0.3-0.9-0.7-1.3-1c-0.7-0.7-1-1.5-1.2-2c-0.1-0.3-0.2-0.5-0.2-0.6
		c-0.1-0.2-0.1-0.2-0.1-0.2s0.1,0.3,0.3,0.8c0.2,0.5,0.6,1.2,1.3,1.9c0.7,0.7,1.6,1.3,2.9,1.6c0.6,0.2,1.3,0.5,1.8,1
		c0.2,0.3,0.4,0.7,0.5,1s0.1,0.8,0.1,1.1c-0.1,0.8-0.2,1.5-0.1,2.1c0.1,0.7,0.3,1.3,0.8,1.7c0.5,0.4,1.1,0.6,1.6,0.7
		c0.6,0.2,1.1,0.3,1.5,0.5c0.5,0.2,0.9,0.5,1.1,0.8c0.3,0.3,0.4,0.7,0.4,1c0,0.3-0.1,0.5-0.1,0.6C171.6,65.1,171.5,65.2,171.5,65.2z
		"/>
</g>
<g>
	<path class="st18" d="M131,69.5c0,0-0.1,0-0.1-0.1c-0.1-0.1-0.2-0.1-0.3-0.3c-0.2-0.3-0.2-0.8,0.2-1.4c0.2-0.3,0.4-0.6,0.8-0.7
		c0.3-0.2,0.7-0.3,1.1-0.5s0.8-0.4,1.2-0.7c0.4-0.3,0.6-0.8,0.7-1.3c0.1-0.5,0.2-1.1,0.3-1.7c0.1-0.6,0.3-1.2,0.7-1.7
		c0.8-1.1,2.1-1.6,3.1-2.6c0.5-0.5,0.9-1.1,1.1-1.8c0.3-0.7,0.4-1.4,0.5-2.2c0.2-1.5,0.4-3.2,1.5-4.6c0.5-0.7,1.3-1.2,2.1-1.4
		c0.8-0.2,1.6-0.1,2.4,0.1c0.8,0.1,1.5,0.2,2.2,0.2c0.7-0.1,1.4-0.5,1.8-1c1-1,1.5-2.4,2.6-3.1c1.1-0.7,2.4-0.8,3.5-0.5
		c1.1,0.3,1.9,1,2.3,1.8c0.5,0.8,0.6,1.5,0.6,2.1c0,0.6-0.1,1.1-0.2,1.4c-0.1,0.3-0.2,0.5-0.2,0.5s0.1-0.2,0.2-0.5
		c0.1-0.3,0.2-0.8,0.2-1.4c-0.1-0.6-0.2-1.3-0.6-2.1c-0.4-0.7-1.2-1.4-2.2-1.7c-1-0.3-2.3-0.2-3.3,0.5c-0.5,0.4-1,0.8-1.3,1.4
		c-0.4,0.6-0.8,1.2-1.3,1.7c-0.3,0.3-0.6,0.5-0.9,0.7c-0.4,0.2-0.7,0.3-1.1,0.4c-0.8,0.1-1.6,0-2.3-0.1c-0.8-0.1-1.6-0.2-2.3-0.1
		c-0.8,0.2-1.5,0.6-1.9,1.3c-0.5,0.7-0.8,1.4-1,2.2c-0.2,0.8-0.3,1.6-0.4,2.3c-0.1,0.8-0.3,1.5-0.5,2.2s-0.6,1.4-1.2,1.9
		c-1.1,1-2.3,1.6-3.1,2.6c-0.4,0.5-0.6,1.1-0.7,1.6c-0.1,0.6-0.2,1.2-0.3,1.7c-0.1,0.6-0.4,1.1-0.7,1.4c-0.4,0.4-0.8,0.5-1.2,0.7
		c-0.4,0.2-0.8,0.3-1.1,0.5c-0.3,0.2-0.6,0.4-0.7,0.7c-0.3,0.5-0.3,1-0.2,1.3C130.8,69.4,131,69.5,131,69.5z"/>
</g>
<g>
	<path class="st19" d="M114.1,116.8l12.2-1.1c0,0,7.5-19.8,16.8-24.6l6,10.5l-12.9,24.2h-25.1L114.1,116.8z"/>
	<path class="st20" d="M114.1,116.8l12.2-1.1c0,0,7.5-19.8,16.8-24.6l6,10.5l-12.9,24.2h-25.1L114.1,116.8z"/>
	<g>
		<path class="st10" d="M118.9,122.5c-0.1-0.1,0.4-0.9,1-2c0.6-1.1,1.2-1.9,1.3-1.8s-0.4,0.9-1,2C119.5,121.7,119,122.5,118.9,122.5
			z"/>
	</g>
	<g>
		<path class="st10" d="M127.6,122.2c-0.1,0.1-0.7-0.7-1.5-1.7c-0.8-1-1.4-1.8-1.3-1.8c0.1-0.1,0.7,0.7,1.5,1.7
			C127,121.4,127.6,122.2,127.6,122.2z"/>
	</g>
	<g>
		<path class="st10" d="M129,117.7c-0.1,0-0.2-0.7-0.2-1.6c0-0.9,0.1-1.6,0.2-1.6c0.1,0,0.2,0.7,0.2,1.6
			C129.2,117,129.1,117.7,129,117.7z"/>
	</g>
	<g>
		<path class="st10" d="M124.7,124.7c-0.1,0.1-0.6-0.2-1.2-0.6c-0.6-0.4-1.1-0.8-1-0.8c0.1-0.1,0.6,0.2,1.2,0.6
			C124.3,124.3,124.8,124.7,124.7,124.7z"/>
	</g>
	<g>
		<path class="st10" d="M131.8,106.6c0.1,0.1-0.3,1-0.9,2.2c-0.6,1.2-1,2.1-1.1,2.1c-0.1-0.1,0.3-1,0.9-2.2
			C131.2,107.5,131.7,106.5,131.8,106.6z"/>
	</g>
	<g>
		<path class="st10" d="M136.7,98.5c0.1,0.1-0.4,0.5-1,0.9c-0.6,0.5-1.1,0.8-1.1,0.7c-0.1-0.1,0.4-0.5,1-0.9
			C136.2,98.8,136.7,98.5,136.7,98.5z"/>
	</g>
	<path class="st21" d="M155,124.2l6.3-25.4c1.1-4.5,5.5-7.2,9.9-6.4l0,0c4.6,0.8,7.7,5.2,7,9.9l-3.8,24.9c-1,5.2-5.1,9.3-10.3,10.1
		l-5,0.8L155,124.2z"/>
	<g>
		<path class="st5" d="M174.8,90.7c-0.1,0.1-0.7-0.8-2.2-1.1c-0.8-0.2-1.7-0.2-2.7,0c-1,0.3-2,0.8-2.9,1.5c-1.9,1.6-2.8,3.5-3.5,5
			c-0.4,0.7-0.6,1.3-0.8,1.7c-0.2,0.4-0.3,0.6-0.3,0.6s0.1-0.3,0.2-0.7c0.2-0.4,0.4-1,0.7-1.8c0.3-0.7,0.7-1.6,1.3-2.5
			c0.6-0.9,1.3-1.8,2.2-2.6c1-0.8,2-1.3,3.1-1.6s2-0.2,2.8,0.1c0.8,0.2,1.4,0.6,1.7,0.8c0.2,0.2,0.3,0.3,0.4,0.4
			C174.8,90.7,174.8,90.7,174.8,90.7z"/>
	</g>
	<g>
		<path class="st5" d="M139.1,96.4c0,0-0.1,0.1-0.2,0.3c-0.2,0.2-0.3,0.4-0.6,0.7c-0.5,0.6-1.1,1.4-1.9,2.4
			c-1.5,2.1-3.4,5.3-4.3,9.2c-0.9,3.9-0.9,7.5-1.1,10.1c-0.1,1.3-0.1,2.4-0.2,3.1c-0.1,0.4-0.1,0.6-0.1,0.9c0,0.2-0.1,0.3-0.1,0.3
			s0-0.1,0-0.3c0-0.2,0-0.5,0-0.9c0-0.8,0.1-1.8,0.1-3.1c0.1-2.6,0.1-6.3,1-10.2c0.9-3.9,2.8-7.1,4.4-9.2c0.8-1.1,1.5-1.9,2-2.4
			c0.3-0.3,0.5-0.5,0.6-0.6C139,96.5,139.1,96.4,139.1,96.4z"/>
	</g>
	<path class="st22" d="M179.5,96.4c-0.7-4.6-3.2-5.7-5.8-7.1c-0.9-0.5-5-1.5-8.2-2.3c-0.3-2-0.9-5.5-1-6.2c-0.2-1.1-16.6,1.6-16.8,2
		c-0.2,0.3-0.5,4.3-0.8,7.1l-3.9,1.4l-5.1,6.5l-2.7,3.8c-1.6,2.2-2.7,4.7-3.3,7.3c-0.7,2.9-0.8,5.7-0.8,8.8l-0.8,16.7l34.3,9.7
		l2.7-16.9l8.8-12C177,110.1,180.4,101.9,179.5,96.4z"/>
	<g>
		<path class="st5" d="M150.2,90.3c-0.1,0-0.1-0.5-0.3-1.2c-0.1-0.7-0.3-1.7-0.4-2.8c-0.1-0.6-0.1-1.1-0.2-1.6
			c-0.1-0.5-0.1-0.9-0.1-1.3s0.1-0.7,0.3-0.9c0.2-0.2,0.3-0.2,0.3-0.2s-0.1,0.1-0.2,0.3c-0.1,0.2-0.2,0.5-0.2,0.8
			c0,0.4,0.1,0.8,0.2,1.3c0.1,0.5,0.1,1,0.2,1.6c0.2,1.1,0.3,2.1,0.3,2.8C150.3,89.8,150.3,90.3,150.2,90.3z"/>
	</g>
	<g>
		<path class="st5" d="M154.6,89.3c-0.1,0-0.2-0.4-0.4-1.1c-0.2-0.7-0.4-1.6-0.5-2.7c-0.1-1.1-0.1-2-0.1-2.7
			c0.1-0.7,0.2-1.1,0.2-1.1c0.1,0-0.1,1.7,0.2,3.8C154.2,87.6,154.7,89.2,154.6,89.3z"/>
	</g>
	<g>
		<path class="st5" d="M162.8,88.1c-0.1,0,0.3-1.7-0.1-3.8s-1.3-3.5-1.2-3.6c0.1,0,0.3,0.3,0.6,1c0.3,0.6,0.7,1.5,0.9,2.6
			c0.2,1.1,0.2,2,0.1,2.7C162.9,87.7,162.8,88.1,162.8,88.1z"/>
	</g>
	<g>
		<path class="st10" d="M139.4,102.9c-0.1-0.1,0.5-1,1.4-2.1c0.8-1.1,1.6-1.9,1.7-1.9c0.1,0.1-0.6,1-1.5,2
			C140.2,102.1,139.5,103,139.4,102.9z"/>
	</g>
	<g>
		<path class="st10" d="M147.2,96.7c-0.1,0.1-0.7-0.7-1.4-1.6c-0.7-0.9-1.2-1.7-1.2-1.7s0.7,0.7,1.4,1.6
			C146.7,95.9,147.2,96.6,147.2,96.7z"/>
	</g>
	<g>
		<path class="st10" d="M155.3,92.7c0.1,0.1-0.7,0.8-1.6,1.6c-0.9,0.9-1.6,1.6-1.7,1.6c-0.1-0.1,0.6-0.9,1.5-1.8
			C154.4,93.3,155.2,92.7,155.3,92.7z"/>
	</g>
	<g>
		<path class="st10" d="M153,87.9c-0.1,0.1-0.6-0.4-1.3-1c-0.7-0.6-1.1-1.1-1.1-1.2c0.1-0.1,0.6,0.4,1.3,1
			C152.5,87.4,153.1,87.9,153,87.9z"/>
	</g>
	<g>
		<path class="st10" d="M160.1,84.1c0,0.1-0.8,0.3-1.7,0.5c-1,0.2-1.7,0.3-1.8,0.3c0-0.1,0.8-0.3,1.7-0.5S160,84.1,160.1,84.1z"/>
	</g>
	<g>
		<path class="st10" d="M161.5,95.4c-0.1,0-0.2-0.8-0.2-1.8c-0.1-1-0.1-1.8,0.1-1.8c0.1,0,0.2,0.8,0.2,1.8
			C161.6,94.5,161.5,95.4,161.5,95.4z"/>
	</g>
	<g>
		<path class="st10" d="M158.9,100.7c-0.1,0-0.5-0.9-0.9-2c-0.4-1.2-0.7-2.1-0.7-2.1c0.1,0,0.5,0.9,0.9,2
			C158.7,99.8,159,100.7,158.9,100.7z"/>
	</g>
	<g>
		<path class="st10" d="M151.9,104.5c-0.1,0.1-0.5-0.9-1-2.1c-0.5-1.2-0.8-2.2-0.7-2.2c0.1-0.1,0.5,0.9,1,2.1
			C151.6,103.5,152,104.5,151.9,104.5z"/>
	</g>
	<g>
		<path class="st10" d="M145.3,108.9c-0.1,0-0.3-0.9-0.6-2.1c-0.3-1.2-0.4-2.2-0.3-2.2c0.1,0,0.3,0.9,0.6,2.1
			C145.2,107.8,145.4,108.8,145.3,108.9z"/>
	</g>
	<g>
		<path class="st10" d="M137.5,109c-0.1,0.1-0.6-0.8-1.1-1.9c-0.5-1.1-0.9-2-0.8-2c0.1-0.1,0.6,0.8,1.1,1.9
			C137.2,108.1,137.5,109,137.5,109z"/>
	</g>
	<g>
		<path class="st10" d="M137.3,114c0.1,0.1-0.9,0.6-2.1,1.2c-1.2,0.6-2.1,1-2.2,0.9c-0.1-0.1,0.9-0.6,2.1-1.2
			C136.3,114.4,137.3,114,137.3,114z"/>
	</g>
	<g>
		<path class="st10" d="M137.4,122c-0.1,0.1-0.5-0.8-0.7-1.8c-0.3-1.1-0.4-1.9-0.3-2c0.1,0,0.3,0.9,0.6,1.9
			C137.2,121.1,137.5,122,137.4,122z"/>
	</g>
	<g>
		<path class="st10" d="M135.8,127.6c-0.1,0.1-0.8-0.6-1.7-1.3c-0.9-0.8-1.5-1.5-1.5-1.5c0.1-0.1,0.8,0.6,1.7,1.3
			C135.1,126.8,135.8,127.5,135.8,127.6z"/>
	</g>
	<g>
		<path class="st10" d="M146.1,123.8c0,0.1-1.2,0.4-2.5,1c-1.4,0.6-2.4,1.2-2.4,1.2c-0.1-0.1,1-0.8,2.3-1.4
			C144.9,123.9,146.1,123.7,146.1,123.8z"/>
	</g>
	<g>
		<path class="st10" d="M143.1,121c-0.1,0-0.4-0.8-0.8-1.7s-0.6-1.8-0.5-1.8c0.1-0.1,0.4,0.8,0.8,1.7
			C142.9,120.1,143.1,120.9,143.1,121z"/>
	</g>
	<g>
		<path class="st10" d="M149.2,114.2c0.1,0.1-0.6,1.1-1.4,2.4c-0.8,1.3-1.6,2.3-1.6,2.3c-0.1-0.1,0.6-1.1,1.4-2.4
			C148.4,115.1,149.2,114.1,149.2,114.2z"/>
	</g>
	<g>
		<path class="st10" d="M155.8,114.8c-0.1,0.1-0.9-1-1.7-2.3c-0.8-1.4-1.3-2.5-1.2-2.6c0.1-0.1,0.7,1.1,1.5,2.4
			C155.1,113.7,155.8,114.8,155.8,114.8z"/>
	</g>
	<g>
		<path class="st10" d="M159.7,108.3c0,0.1-0.9,0.3-1.9,0.4c-1.1,0.1-2-0.1-2-0.2c0-0.1,0.9-0.1,1.9-0.1
			C158.9,108.4,159.7,108.3,159.7,108.3z"/>
	</g>
	<g>
		<path class="st10" d="M169.1,100.9c0.1,0.1-1.1,0.7-2.5,1.3c-1.4,0.7-2.6,1.2-2.6,1.1c-0.1-0.1,1.1-0.7,2.5-1.3
			C167.9,101.3,169,100.9,169.1,100.9z"/>
	</g>
	<g>
		<path class="st10" d="M169.7,96.2c-0.1-0.1,0.4-1,0.9-2.1c0.6-1.1,1.1-2,1.1-2c0.1,0.1-0.4,1-0.9,2.1
			C170.3,95.4,169.8,96.2,169.7,96.2z"/>
	</g>
	<g>
		<path class="st10" d="M175.7,99.9c-0.1,0-0.4-1-0.8-2.3c-0.4-1.3-0.8-2.3-0.7-2.3c0.1-0.1,0.5,1,0.9,2.2
			C175.6,98.8,175.7,99.9,175.7,99.9z"/>
	</g>
	<g>
		<path class="st10" d="M176.6,104.8c0,0.1-1,0.5-2.2,0.8c-1.3,0.3-2.3,0.4-2.3,0.4c0-0.1,1-0.3,2.3-0.6
			C175.6,105,176.6,104.7,176.6,104.8z"/>
	</g>
	<g>
		<path class="st10" d="M166.4,110.8c-0.1,0,0.2-1.3,0.2-2.8c0.1-1.5-0.1-2.8,0.1-2.8c0.1,0,0.3,1.2,0.3,2.8
			C166.8,109.6,166.5,110.8,166.4,110.8z"/>
	</g>
	<g>
		<path class="st10" d="M164.4,116.9c-0.1,0.1-1-0.7-1.9-1.8c-0.9-1.1-1.5-2.1-1.4-2.2c0.1-0.1,0.8,0.9,1.6,2
			C163.6,116,164.4,116.8,164.4,116.9z"/>
	</g>
	<g>
		<path class="st10" d="M174.6,115.6c0.1,0.1-0.9,0.5-2.1,1c-1.2,0.5-2.2,0.9-2.2,0.8c-0.1-0.1,0.9-0.5,2.1-1
			C173.6,115.9,174.5,115.6,174.6,115.6z"/>
	</g>
	<g>
		<path class="st10" d="M170.9,127.2c-0.1,0-0.1-1.3-0.1-2.8c0-1.5,0.1-2.8,0.2-2.8c0.1,0,0.1,1.3,0.1,2.8
			C171.1,126,171,127.2,170.9,127.2z"/>
	</g>
	<g>
		<path class="st10" d="M163.1,126.6c-0.1,0,0.1-1.3,0.5-2.9c0.4-1.6,0.9-2.8,1-2.7c0.1,0.1-0.3,1.3-0.7,2.8
			C163.4,125.3,163.2,126.6,163.1,126.6z"/>
	</g>
	<g>
		<path class="st10" d="M163.4,129.6c0,0.1-1.3,0.2-2.8,0.5c-1.5,0.3-2.8,0.6-2.8,0.5c0-0.1,1.2-0.5,2.7-0.7
			C162.2,129.5,163.4,129.5,163.4,129.6z"/>
	</g>
	<g>
		<path class="st10" d="M154.8,127.6c-0.1-0.1,0.6-0.8,1.5-1.7c0.9-0.9,1.6-1.6,1.7-1.6c0.1,0.1-0.6,0.8-1.5,1.7
			C155.6,127,154.8,127.7,154.8,127.6z"/>
	</g>
	<g>
		<path class="st10" d="M149.2,133.1c-0.1,0-0.3-0.9-0.7-2s-0.8-1.9-0.7-2c0.1-0.1,0.6,0.8,1,1.9
			C149.1,132.1,149.2,133.1,149.2,133.1z"/>
	</g>
	<g>
		<path class="st10" d="M158.2,136.2c-0.1,0.1-1.2-0.4-2.5-1c-1.4-0.6-2.5-1.2-2.4-1.2c0.1-0.1,1.2,0.4,2.5,1
			C157.1,135.6,158.3,136.2,158.2,136.2z"/>
	</g>
	<g>
		<path class="st10" d="M142.4,135.3c-0.1,0,0.2-0.9,0.5-1.9c0.4-1,0.7-1.8,0.7-1.8c0.1,0-0.2,0.9-0.5,1.9
			C142.8,134.5,142.5,135.3,142.4,135.3z"/>
	</g>
	<g>
		<path class="st10" d="M152.8,137.1c0,0.1-1.5-0.2-3.2-0.3s-3.2,0-3.2-0.1c0-0.1,1.5-0.3,3.3-0.2
			C151.4,136.7,152.8,137,152.8,137.1z"/>
	</g>
	<g>
		<path class="st5" d="M155,122.2c0,0,0-0.1,0-0.2c0-0.2,0-0.3,0.1-0.6c0.1-0.3,0.2-0.6,0.6-0.8c0.3-0.2,0.8-0.3,1.2-0.2l-0.1,0.1
			c0.6-1.9,1.4-4.8,2.3-7.9c0.8-3,1.4-5.7,1.8-7.7c0.2-1,0.4-1.8,0.5-2.3c0.1-0.6,0.2-0.9,0.2-0.9s0,0.3-0.1,0.9
			c-0.1,0.6-0.2,1.4-0.4,2.4c-0.4,2-0.9,4.8-1.7,7.7c-0.9,3.2-1.8,6-2.4,7.9v0.1h-0.1c-0.4-0.1-0.9,0-1.1,0.2
			c-0.3,0.2-0.5,0.5-0.5,0.7C155,121.9,155,122.2,155,122.2z"/>
	</g>
	<g>
		<path class="st5" d="M166.3,129.2c-0.1,0-0.4-0.7-1-1.7c-0.7-1-1.7-2.4-3-3.6c-1.4-1.2-2.8-2.1-3.8-2.7c-1.1-0.6-1.8-0.8-1.8-0.8
			s0.2,0.1,0.5,0.2c0.3,0.1,0.8,0.3,1.4,0.5c1.1,0.5,2.6,1.4,3.9,2.6c1.4,1.3,2.4,2.6,3,3.7c0.3,0.5,0.5,1,0.7,1.3
			C166.2,129,166.4,129.2,166.3,129.2z"/>
	</g>
	<g class="st23">
		<path d="M156.9,120c1.9,0.2,3.5,0.3,5.3,1c1.8,0.7,3.5,2,4.1,3.8c0.2,0.5,0.3,1-0.1,1.3c-0.3,0.3-0.7,0.3-1,0.2
			c-0.3-0.1-0.6-0.4-0.9-0.6c-1.1-1-2.3-1.9-3.4-2.9c-1.2-1-2.8-2-4.3-2.3"/>
	</g>
	<g>
		<path class="st5" d="M153.3,116.8c0,0-0.2,0.2-0.5,0.3c-0.4,0.2-0.9,0.4-1.6,0.6c-1.4,0.4-3.3,0.6-5.5,0.1
			c-2.1-0.6-3.7-1.7-4.8-2.7c-0.5-0.5-0.9-1-1.1-1.3c-0.2-0.3-0.3-0.5-0.3-0.5c0.1-0.1,0.5,0.7,1.5,1.7c1,1,2.6,2.1,4.7,2.6
			c2,0.5,4,0.4,5.4,0C152.5,117.2,153.3,116.8,153.3,116.8z"/>
	</g>
	<g class="st23">
		<path d="M140,113.7c0.9,1.9,1.9,3.7,3.5,5c0.9,0.7,2,1.3,3.2,1.3c1.7,0.1,3.1-1.1,4.5-2.2C146.8,118.4,142.1,116.5,140,113.7"/>
	</g>
	<g>
		<path class="st5" d="M158.6,88.9c-0.1,0,0-1.7-0.2-3.8c-0.2-2.1-0.6-3.8-0.6-3.8c0.1,0,0.2,0.4,0.4,1.1c0.2,0.7,0.4,1.6,0.5,2.7
			c0.1,1.1,0.1,2,0.1,2.7C158.7,88.5,158.7,88.9,158.6,88.9z"/>
	</g>
</g>
<g>
	<path class="st7" d="M98.6,156.5c0,0-5.5,1.2-10.4,0.5c-4.6-0.7-14.9,0-14.9,6.1c0,6.8,13.8,5.1,19.1,4c5.4-1.1,10.7-2,10.7-2
		L98.6,156.5z"/>
	<g>
		<path class="st5" d="M86.3,165.2c-0.1,0-0.4-1.1-0.7-2.4c-0.3-1.3-0.5-2.4-0.4-2.4c0.1,0,0.4,1.1,0.7,2.4
			C86.2,164.1,86.4,165.2,86.3,165.2z"/>
	</g>
	<g>
		<path class="st5" d="M88.2,165.3c-0.1,0-0.3-1.1-0.5-2.4c-0.2-1.4-0.3-2.4-0.2-2.4s0.3,1.1,0.5,2.4
			C88.2,164.2,88.3,165.3,88.2,165.3z"/>
	</g>
	<g>
		<path class="st5" d="M90,164.6c-0.1,0-0.3-0.9-0.4-2.1c-0.2-1.2-0.2-2.1-0.1-2.1c0.1,0,0.3,0.9,0.4,2.1
			C90,163.6,90,164.6,90,164.6z"/>
	</g>
	<g>
		<path class="st5" d="M92.8,163.9c-0.1,0.1-0.5-0.8-0.7-1.8c-0.3-1.1-0.3-1.9-0.2-1.9s0.2,0.9,0.5,1.9
			C92.6,163.1,92.9,163.9,92.8,163.9z"/>
	</g>
	<g>
		<path class="st5" d="M93.4,161.4c0,0,0.3-0.1,0.7-0.1s1.2,0.1,1.9,0.4c0.2,0.1,0.4,0.2,0.6,0.3c0.2,0.2,0.4,0.4,0.4,0.7
			c0,0.6-0.7,1-1.3,0.9s-1.1-0.6-1.4-1c-0.4-0.5-0.7-1.1-0.8-1.7c-0.3-1.3-0.1-2.6,0.6-3.5c0.1-0.1,0.3-0.2,0.4-0.3
			c0.2-0.1,0.4,0.1,0.5,0.2c0.2,0.2,0.3,0.5,0.4,0.8c0.1,0.5,0.1,1-0.1,1.4c-0.2,0.8-0.6,1.4-0.9,1.7c-0.2,0.2-0.3,0.3-0.4,0.4
			c-0.1,0.1-0.2,0.1-0.2,0.1s0.2-0.2,0.5-0.5s0.7-0.9,0.8-1.7c0.1-0.4,0.1-0.9,0.1-1.3c-0.1-0.2-0.1-0.5-0.3-0.6
			c-0.2-0.2-0.4-0.1-0.5,0.1c-0.6,0.9-0.8,2.1-0.6,3.3c0.2,0.6,0.4,1.2,0.8,1.6c0.4,0.5,0.8,0.9,1.3,1c0.5,0.1,1-0.3,1-0.7
			c0-0.2-0.1-0.4-0.3-0.5c-0.2-0.2-0.4-0.3-0.6-0.3c-0.8-0.3-1.4-0.4-1.9-0.5C93.7,161.5,93.4,161.5,93.4,161.4z"/>
	</g>
	<g>
		<path class="st5" d="M102.6,164.2c0,0-0.1,0-0.2,0.1c-0.1,0.1-0.3,0.1-0.4,0.1c-0.4,0.1-0.9,0.2-1.6,0.4c-1.4,0.3-3.4,0.7-5.9,1.2
			c-2.5,0.5-5.5,1-8.8,1.5c-1.7,0.2-3.4,0.4-5.3,0.3c-0.9-0.1-1.9-0.2-2.8-0.6c-0.5-0.2-0.9-0.4-1.3-0.6c-0.4-0.3-0.9-0.5-1.2-1l0,0
			c-0.2-0.2-0.4-0.4-0.5-0.6c-0.6-0.9-0.6-2-0.3-3c0.3-1,1-1.7,1.8-2.3c0.8-0.6,1.6-1,2.5-1.3c0.5-0.1,0.9-0.3,1.3-0.4
			c0.5-0.1,0.9-0.2,1.3-0.3c3.4-0.6,6.6-0.3,9.2-0.3c1.3,0,2.5,0,3.5-0.1c1-0.1,1.9-0.2,2.6-0.4c0.4-0.1,0.7-0.2,1-0.2
			c0.3-0.1,0.5-0.2,0.7-0.2c0.2-0.1,0.3-0.1,0.4-0.1s0.2-0.1,0.2-0.1s-0.1,0-0.2,0.1c-0.1,0.1-0.3,0.1-0.4,0.2
			c-0.2,0.1-0.4,0.2-0.7,0.2c-0.3,0.1-0.6,0.2-1,0.2c-0.7,0.2-1.6,0.3-2.6,0.4c-1.1,0.1-2.2,0.1-3.5,0.1c-2.6,0-5.8-0.3-9.2,0.3
			c-0.4,0.1-0.9,0.2-1.3,0.3c-0.4,0.1-0.9,0.3-1.3,0.4c-0.9,0.3-1.7,0.7-2.4,1.2c-0.8,0.6-1.4,1.3-1.7,2.2c-0.3,0.9-0.3,1.9,0.3,2.7
			c0.1,0.2,0.3,0.4,0.5,0.5l0,0l0,0c0.3,0.4,0.7,0.7,1.1,0.9c0.4,0.3,0.9,0.4,1.3,0.6c0.9,0.3,1.8,0.5,2.7,0.5
			c1.8,0.2,3.6-0.1,5.3-0.3c3.3-0.5,6.3-1,8.8-1.4c2.5-0.5,4.5-0.9,5.9-1.1c0.7-0.2,1.2-0.3,1.6-0.3c0.2-0.1,0.3-0.1,0.4-0.1
			C102.5,164.2,102.6,164.2,102.6,164.2z"/>
	</g>
	<g>
		<path class="st5" d="M82.5,167.4c-0.1,0-0.1-0.6-0.2-1.4c-0.1-0.9-0.2-2.1-0.4-3.4c-0.2-1.3-0.4-2.5-0.6-3.3
			c-0.2-0.9-0.3-1.4-0.3-1.4s0.2,0.5,0.4,1.4c0.2,0.9,0.5,2,0.7,3.3c0.2,1.3,0.3,2.5,0.3,3.4C82.6,166.9,82.5,167.4,82.5,167.4z"/>
	</g>
	<polygon class="st24" points="97,156.9 100.5,165.6 103.1,165.1 98,156.5 	"/>
</g>
<path class="st5" d="M142.3,132.9c-0.6,0.2-36.6-9.9-51.1-14c-3.8-1.1-7.9-0.5-11.3,1.7l-0.2,0.1c-4.9,3.2-7.3,9.1-6,14.8l0,0
	c0.9,3.6,3.1,6.7,6.2,8.6c9.6,5.9,29.9,18.3,30.5,18c0.8-0.3,26.2-1,26.2-1l-30.5-21.9l14.5,9.4L142.3,132.9L142.3,132.9z"/>
<path class="st16" d="M112.3,122l7.6-3.9l7.5,4.7l28.1,0.9l4,13.7l-40.7-9.4c0,0-7.4,0.7-7.9-1C110.4,125.2,112.3,122,112.3,122z"/>
<path class="st5" d="M135.3,143.9l-3.8,12.4l0.5,3.8l0,0c6.9,6.9,17.9,7.7,25.6,1.7l0,0c4.7-3.6,7.5-9.3,7.4-15.2l-0.1-13
	L135.3,143.9z"/>
<g>
	<path class="st18" d="M112.8,144c-0.1,0.1-4.5-3.1-9.8-7.1s-9.7-7.3-9.7-7.4c0.1-0.1,4.5,3.1,9.8,7.1S112.8,143.9,112.8,144z"/>
</g>
<g>
	<path class="st17" d="M119.4,120.5c0,0.1-1.7,0.7-3.7,1.3c-2.1,0.7-3.8,1.2-3.8,1.1c0-0.1,1.7-0.7,3.7-1.3
		C117.7,120.9,119.4,120.4,119.4,120.5z"/>
</g>
<g>
	<path class="st17" d="M120,122.9c0,0.1-0.5,0.1-1.3,0.3c-0.8,0.2-1.9,0.4-3.1,0.6c-1.2,0.3-2.3,0.6-3.1,0.8
		c-0.8,0.3-1.3,0.4-1.3,0.4c0-0.1,0.5-0.3,1.2-0.5c0.8-0.3,1.9-0.6,3.1-0.9c1.2-0.3,2.3-0.5,3.2-0.6
		C119.5,122.8,120,122.8,120,122.9z"/>
</g>
<g>
	<path class="st17" d="M119.4,125c0,0.1-1.9,0.5-4.2,1s-4.2,0.8-4.2,0.7s1.9-0.5,4.2-1C117.4,125.2,119.4,124.9,119.4,125z"/>
</g>
<g>
	<path class="st18" d="M109.5,103.7l7.1,23.2c0.1,0.3,0.3,0.5,0.6,0.5l19.2,1.5c0.4,0.1,0.6,0.3,0.6,0.7v1.2c0,0.4-0.3,0.7-0.7,0.7
		l-52.6-1c-0.3,0-0.5-0.2-0.6-0.5l-9.3-24.2c-0.2-0.4,0.2-0.9,0.6-0.9l34.3-1.6C109.1,103.1,109.4,103.3,109.5,103.7z"/>
	<path class="st2" d="M94.6,113.7c-0.4,0.1-1,0.6-1.1,1.2c-0.1,0.6,0.2,1.1,0.7,1.5c0.6,0.4,1.4,0.5,1.9,0.1s0.8-1.1,0.5-1.9
		C96.5,113.8,95.3,113.3,94.6,113.7"/>
</g>
<g>
	<path class="st5" d="M103.1,165.1l-5.6-9.2l40.9-32c2.5-2.1,5.7-3.3,8.9-3.6l0,0c10.2-0.9,18.7,7.5,17.9,17.7l-0.7,7.8l-27.1,8.7
		L103.1,165.1z"/>
	<g>
		<path class="st18" d="M155.5,143.3c0,0-0.1,0.1-0.1,0.1c-0.1,0.1-0.2,0.2-0.4,0.3c-0.3,0.3-0.8,0.6-1.3,1.1
			c-0.3,0.2-0.6,0.5-1,0.8c-0.4,0.3-0.8,0.5-1.2,0.8c-0.4,0.3-0.9,0.6-1.4,0.9c-0.3,0.2-0.5,0.4-0.8,0.5s-0.6,0.3-0.8,0.5
			c-1.1,0.7-2.3,1.4-3.7,2.1c-0.7,0.4-1.4,0.8-2.1,1.1s-1.5,0.7-2.3,1.1c-3.1,1.4-6.6,2.8-10.3,4.1c-7.5,2.6-14.4,4.4-19.3,5.9
			c-1.3,0.4-2.4,0.7-3.3,1c-1,0.3-1.8,0.6-2.5,0.8c-0.7,0.2-1.2,0.4-1.6,0.5c-0.2,0.1-0.3,0.1-0.4,0.2c-0.1,0.1-0.2,0.1-0.2,0.1
			s0.1,0,0.2-0.1c0.1-0.1,0.3-0.1,0.4-0.2c0.4-0.2,0.9-0.3,1.6-0.6s1.5-0.5,2.5-0.9c1-0.3,2.1-0.7,3.3-1.1c5-1.6,11.8-3.4,19.3-6
			c3.7-1.3,7.2-2.7,10.3-4.1c0.8-0.4,1.5-0.7,2.3-1.1c0.7-0.4,1.4-0.8,2.1-1.1c1.4-0.7,2.6-1.4,3.7-2.1c0.3-0.2,0.6-0.3,0.8-0.5
			c0.3-0.2,0.5-0.4,0.8-0.5c0.5-0.3,1-0.6,1.4-0.9c0.4-0.3,0.8-0.6,1.2-0.8c0.4-0.3,0.7-0.5,1-0.7c0.6-0.4,1-0.8,1.3-1
			c0.2-0.1,0.3-0.2,0.4-0.3C155.5,143.4,155.5,143.3,155.5,143.3z"/>
	</g>
	<g>
		<path class="st18" d="M156.5,147.6c0,0-0.2,0.1-0.4,0.2c-0.3,0.1-0.7,0.3-1.2,0.5c-1,0.4-2.4,0.8-4,1.2c-1.6,0.4-3.1,0.5-4.1,0.6
			c-0.6,0.1-1,0.1-1.3,0.1c-0.3,0-0.5,0-0.5-0.1c0-0.1,0.7-0.1,1.7-0.2c1.1-0.1,2.5-0.3,4.1-0.7c1.6-0.4,3-0.8,4-1.1
			C155.9,147.8,156.5,147.6,156.5,147.6z"/>
	</g>
	<g>
		<path class="st18" d="M136.8,125.4c0.1,0.1-8.7,6.9-19.5,15.3c-10.8,8.4-19.7,15.2-19.7,15.1c-0.1-0.1,8.7-6.9,19.5-15.4
			C128,132.2,136.8,125.4,136.8,125.4z"/>
	</g>
	<g>
		<g>
			<path class="st7" d="M134.4,159.4c-2-1.1-4.1-0.4-6,0.2c-1.3,0.4-2.5,1.1-3.8,0.7c-0.9-0.3-1.6-1-2.3-1.7
				c-2.8-2.6-6.7-4-10.6-3.8c-1.1,0.1-2.2,0.5-2.9,1.3c-1.9,2.1-0.5,4.8,1.3,6.6c3,3.1,7.2,5.1,11.5,5.6c3.6,0.4,8.5-0.1,12.1-1.7
				c2.2-1,3.4-3.6,2.2-5.8C135.6,160.3,135.1,159.8,134.4,159.4z"/>
			<g class="st15">
				<path d="M134.4,161.1c-2-1.1-4.1-0.4-6,0.2c-1.3,0.4-2.5,1.1-3.8,0.7c-0.9-0.3-1.6-1-2.3-1.7c-2.8-2.6-6.7-4-10.6-3.8
					c-1.1,0.1-2.2,0.5-2.9,1.3c-0.4,0.5-0.7,1-0.8,1.5c0.3,1.3,1.1,2.5,2.1,3.4c3,3.1,7.2,5.1,11.5,5.6c3.6,0.4,8.5-0.1,12.1-1.7
					c1.4-0.6,2.3-1.8,2.6-3.1c-0.1-0.4-0.2-0.7-0.4-1C135.6,162,135.1,161.5,134.4,161.1z"/>
			</g>
		</g>
		<g>
			<path class="st5" d="M136.3,163.6c-0.1,0-0.1-0.5-0.5-1.2c-0.3-0.4-0.6-0.7-1.1-1c-0.5-0.3-1.1-0.6-1.8-0.7c-1.5-0.2-3.1,0.5-5,1
				c-0.9,0.3-1.9,0.6-3,0.5c-0.6-0.1-1.1-0.3-1.6-0.6c-0.5-0.3-0.9-0.7-1.4-1c-1.6-1.6-3.5-2.6-5.4-3.2c-0.9-0.3-1.8-0.5-2.7-0.6
				c-0.9-0.1-1.7-0.1-2.4,0c-0.7,0.1-1.3,0.4-1.8,0.7c-0.5,0.3-0.9,0.7-1.1,1c-0.5,0.6-0.7,1.1-0.7,1.1s0.2-0.5,0.7-1.1
				c0.3-0.3,0.6-0.7,1.1-1c0.5-0.3,1.2-0.6,1.9-0.7c0.8-0.2,1.6-0.1,2.4,0c0.9,0.1,1.8,0.3,2.7,0.6c0.9,0.3,1.9,0.7,2.8,1.3
				c0.5,0.3,0.9,0.6,1.4,0.9c0.5,0.4,0.9,0.7,1.3,1.1s0.9,0.7,1.3,1c0.5,0.3,1,0.5,1.5,0.5c1,0.2,2-0.2,2.9-0.5
				c1.9-0.5,3.6-1.1,5.1-0.9c1.5,0.3,2.5,1.2,2.9,1.8c0.2,0.4,0.3,0.7,0.4,0.9C136.3,163.5,136.3,163.6,136.3,163.6z"/>
		</g>
		<g>
			<path class="st5" d="M136.3,163.6c-0.1,0-0.1-0.5-0.5-1.2c-0.3-0.4-0.6-0.7-1.1-1c-0.5-0.3-1.1-0.6-1.8-0.7c-1.5-0.2-3.1,0.5-5,1
				c-0.9,0.3-1.9,0.6-3,0.5c-0.6-0.1-1.1-0.3-1.6-0.6c-0.5-0.3-0.9-0.7-1.4-1c-1.6-1.6-3.5-2.6-5.4-3.2c-0.9-0.3-1.8-0.5-2.7-0.6
				c-0.9-0.1-1.7-0.1-2.4,0c-0.7,0.1-1.3,0.4-1.8,0.7c-0.5,0.3-0.9,0.7-1.1,1c-0.5,0.6-0.7,1.1-0.7,1.1s0.2-0.5,0.7-1.1
				c0.3-0.3,0.6-0.7,1.1-1c0.5-0.3,1.2-0.6,1.9-0.7c0.8-0.2,1.6-0.1,2.4,0c0.9,0.1,1.8,0.3,2.7,0.6c0.9,0.3,1.9,0.7,2.8,1.3
				c0.5,0.3,0.9,0.6,1.4,0.9c0.5,0.4,0.9,0.7,1.3,1.1s0.9,0.7,1.3,1c0.5,0.3,1,0.5,1.5,0.5c1,0.2,2-0.2,2.9-0.5
				c1.9-0.5,3.6-1.1,5.1-0.9c1.5,0.3,2.5,1.2,2.9,1.8c0.2,0.4,0.3,0.7,0.4,0.9C136.3,163.5,136.3,163.6,136.3,163.6z"/>
		</g>
		<g>
			<path class="st5" d="M112,163.1c0-0.1,0.4-0.3,1-0.7c0.7-0.4,1.6-0.9,2.6-1.4c1.1-0.5,2-0.9,2.7-1.1s1.2-0.4,1.2-0.4
				c0,0.1-0.4,0.2-1.1,0.5c-0.7,0.3-1.7,0.7-2.7,1.2c-1,0.5-2,1-2.6,1.3C112.4,162.9,112,163.1,112,163.1z"/>
		</g>
		<g>
			<path class="st5" d="M112.6,165c-0.1-0.1,1.7-1,3.8-2c2.1-1.1,3.9-1.8,3.9-1.8c0.1,0.1-1.7,1-3.8,2
				C114.5,164.3,112.7,165.1,112.6,165z"/>
		</g>
		<g>
			<path class="st5" d="M120.8,165.9c-0.1,0.1-2.1-1.2-4.7-2.8c-2.5-1.6-4.6-2.9-4.5-3c0.1-0.1,2.1,1.2,4.7,2.8
				C118.8,164.5,120.8,165.9,120.8,165.9z"/>
		</g>
		<g>
			<path class="st5" d="M121.9,163.9c0,0.1-0.4-0.3-1-0.7c-0.6-0.5-1.5-1.1-2.4-1.7c-1-0.7-1.8-1.2-2.4-1.7c-0.6-0.4-1-0.7-1-0.7
				c0-0.1,0.5,0.2,1.1,0.6c0.7,0.4,1.6,1,2.5,1.6c1,0.7,1.8,1.3,2.4,1.8C121.6,163.5,122,163.9,121.9,163.9z"/>
		</g>
	</g>
</g>
<text transform="matrix(1 0 0 1 162.3551 164.6082)" class="st25 st26 st27">Designed by slidesgo / Freepik</text>
<g>
	<path class="st28" d="M164.6,39.7h-8c-1.4,0-2.5-1.2-2.5-2.5v-8c0-1.4,1.2-2.5,2.5-2.5h8c1.4,0,2.5,1.2,2.5,2.5v8
		C167.1,38.5,166,39.7,164.6,39.7z"/>
	<path class="st29" d="M162.1,39.7h-8c-1.4,0-2.5-1.2-2.5-2.5v-8c0-1.4,1.2-2.5,2.5-2.5h8c1.4,0,2.5,1.2,2.5,2.5v8
		C164.7,38.5,163.5,39.7,162.1,39.7z"/>
	<path class="st6" d="M159.7,29.8c0,0.9-0.7,1.6-1.6,1.6s-1.6-0.7-1.6-1.6c0-0.9,0.7-1.6,1.6-1.6C159,28.2,159.7,28.9,159.7,29.8z"
		/>
	<path class="st6" d="M161.4,35.1v2.3c0,0.2-0.2,0.4-0.4,0.4h-5.8c-0.2,0-0.4-0.2-0.4-0.4v-2.3c0-1.8,1.5-3.3,3.3-3.3l0,0
		C160,31.8,161.4,33.3,161.4,35.1z"/>
</g>
<g>
	<path class="st30" d="M32.5,112.3c-0.2-1.3-0.2-2.5,0.2-3.8c1.1-4.2,2.3-11.8-0.4-20.2C27.9,74.4,9.9,62,9.9,62s5,20.6,8.9,29.1
		c2.9,6.5,8.2,13.7,11,17.5c0.8,1.1,1.3,2.3,1.5,3.6c2.9,16.2,2.5,28.6,2.5,28.8h1.3C35.2,141.2,35.6,128.5,32.5,112.3z"/>
	<path class="st31" d="M47,99.2c3.6-11.2,5.3-24.6,5.3-24.6S36.1,87.9,34.8,98.2c-0.8,6.3,0.2,11.4,1.1,14.3c0.4,1.3,0.6,2.7,0.4,4
		c-1.7,15.2-0.4,26.8-0.4,27l1.1-0.2c0-0.2-1.1-11,0.2-25.3c0.2-1.9,1-3.8,2.3-5.3C41.8,109.8,45.1,105.1,47,99.2z"/>
	<path class="st32" d="M63.4,74c0,0-17.3,6.5-21.9,20.8c-2.9,8.6-1.5,16.6-0.4,20.8c0.4,1.1,0.4,2.3,0,3.6
		c-4,16.4-4.2,33.3-4.2,33.5h1.3c0-0.2,0-16.8,4-32.8c0.4-1.5,1.1-3,2.1-4.4c3-4,8-11.2,11-17.5C59.4,88.9,63.4,74,63.4,74z"/>
	<path class="st33" d="M32.7,134c-0.4-5.9-2.1-11.2-4-15.8c-0.4-1-0.6-1.9-0.4-2.9c0.2-1.9,0.4-4.8-0.4-8.6
		c-1.3-7-10.7-22.1-24-22.8c0,0,4.6,7.4,7,13.7c3,7.8,7.2,16.2,14.5,19.2c1.3,0.6,2.3,1.5,2.7,2.9c1.7,4.2,3,8.9,3.4,14.5L32.7,134z
		"/>
	<g>
		<g>
			<path class="st34" d="M23.6,164.5h22.1l5.7-35c0.2-1.5-1-3-2.5-3H20.3c-1.5,0-2.9,1.3-2.5,3L23.6,164.5z"/>
		</g>
	</g>
</g>
<path class="st5" d="M158.2,50.2c0.1-0.1,2.6-2.1,5.5-1c1.9,0.7,3.4,2.4,3.4,4c0.1,1.2-0.5,2.5,0.1,3.6c0.5,1.1,1.8,1.5,2.7,2.2
	c1.4,1.2,1.8,3.3,1,5c-0.8,1.4-2.3,2.4-2.5,3.9c-0.2,1.8,0.9,3.4,1.4,4.1c2.3,3.2,8.7,14,6.4,18.5c-1.1,2.1-4.7,2.6-12,3.6
	c-8.8,1.2-10.1-0.1-10.5-0.7c-0.7-1.1-0.5-2.6-0.1-3.8c0.9-2.6,1.6-4.8,2-6.5c0.5-1.9,0.8-3.5,0.9-4.3c0.2-0.8,0.3-1.6,0.5-3
	c1.1-6.8,0.1-10.1,1.8-12.9c0,0,0.4-1.3,1.4-2.8c0.6-0.9,1.2-1.9,0.8-2.9c-0.5-1.3-2.3-1.2-3.2-2.5C157.2,54.1,157,52.8,158.2,50.2z
	"/>
</svg>
