<?xml version="1.0" encoding="utf-8"?>
<!-- Generator: Adobe Illustrator 25.1.0, SVG Export Plug-In . SVG Version: 6.00 Build 0)  -->
<svg version="1.1" id="Layer_1" xmlns="http://www.w3.org/2000/svg" xmlns:xlink="http://www.w3.org/1999/xlink" x="0px" y="0px"
	 viewBox="0 0 181.2 122" style="enable-background:new 0 0 181.2 122;" xml:space="preserve">
<style type="text/css">
	.st0{fill:#CBD8E7;}
	.st1{fill:#93B0CC;}
	.st2{fill:#FFFFFF;}
	.st3{fill:none;stroke:#FFFFFF;stroke-width:0.1179;stroke-linecap:round;stroke-miterlimit:10;}
	.st4{fill:#F79FBA;}
	.st5{fill:#FFFFFF;stroke:#231F20;stroke-width:0.1179;stroke-miterlimit:10;}
	.st6{fill:#FFFFFF;stroke:#97CCEE;stroke-width:0.3538;stroke-miterlimit:10;}
	.st7{fill:url(#SVGID_3_);}
	.st8{fill:url(#SVGID_4_);}
	.st9{fill:url(#SVGID_5_);}
	.st10{fill:#D8D8D8;}
	.st11{font-family:'ArialMT';}
	.st12{font-size:4.5514px;}
	.st13{fill:#FFDD77;}
	.st14{fill:#654342;}
	.st15{fill:#7A2C8E;}
	.st16{fill:url(#SVGID_6_);}
	.st17{fill:url(#SVGID_7_);}
	.st18{fill:#791028;}
	.st19{fill:#4B1149;}
	.st20{fill:url(#SVGID_8_);}
	.st21{fill:#5B513D;}
	.st22{fill:url(#SVGID_9_);}
</style>
<g>
	<path class="st0" d="M164.8,101.5H24.1c0,0-17.5-34.4,6.9-46.2c24.5-11.8,31.1-8.7,30.6-27.4C61.1,9.1,73.3-2.3,83.3,3.6
		c10,5.9,18.6,20.8,34.2,11.8c15.6-9,37.8-7.6,37.2,21.2c-0.6,28.8,7.5,27.8,13.9,32.3C175.1,73.4,183.1,89,164.8,101.5z"/>
	<path class="st1" d="M29.4,101.5H170c0,0,17.5-34.4-6.9-46.2c-24.5-11.8-31.1-8.7-30.6-27.4C133,9.1,120.8-2.3,110.8,3.6
		c-10,5.9-18.6,20.8-34.2,11.8C61,6.3,38.8,7.7,39.4,36.6c0.6,28.8-7.5,27.8-13.9,32.3C19.1,73.4,11,89,29.4,101.5z"/>
	<path class="st2" d="M62,45.7c-3.5,3.7-5,4.3-5-0.3c0-4.6-5.7-14.6-12.2-11c-6.5,3.6-1.9,10,0,12.8c1.8,2.7,4.6,6.5,1.8,5.8
		c-2.8-0.7-6-1.7-5.7,1.1c0.3,2.9,7,4.6,10.3,7.5c3.3,2.9,3.5,5.2,0.4,4.7c-3.1-0.5-8,2.8-4.9,5.4c2.8,2.3,19.4,12.6,23.4,15.1
		c0-0.7,0.1-1.6-0.1-2.2c-0.1-0.4-0.3-0.8-0.5-1.3c-0.2-0.4-0.4-0.9-0.5-1.4c-0.2-0.6-0.5-1.2-0.7-1.8c-0.3-0.1-0.7-0.2-1.2-0.4
		c-0.5-0.2-1-0.4-1.6-0.6c-0.6-0.3-1.2-0.5-1.8-0.8c-0.6-0.3-1.2-0.6-1.8-0.9c-0.6-0.3-1.1-0.6-1.5-0.9c-0.9-0.6-1.4-1-1.4-1
		s0.7,0.2,1.6,0.5c0.5,0.2,1,0.4,1.6,0.7c0.6,0.3,1.2,0.5,1.8,0.8c0.6,0.3,1.2,0.6,1.8,0.9c0.6,0.3,1.1,0.6,1.5,0.9
		c0.4,0.2,0.7,0.4,0.9,0.6c-0.1-0.3-0.3-0.7-0.4-1c-0.4-1.1-1-2.2-1.5-3.4c-0.5-1.2-1.1-2.4-1.6-3.6c-0.6-1.2-1.1-2.5-1.7-3.8
		c-0.5-1-0.9-2.1-1.4-3.1c-0.2-0.1-0.5-0.3-0.8-0.5c-0.5-0.3-1-0.7-1.5-1.1c-0.5-0.4-1.1-0.9-1.7-1.3c-0.5-0.5-1.1-0.9-1.6-1.4
		c-0.5-0.5-0.9-0.9-1.3-1.3c-0.8-0.8-1.2-1.4-1.2-1.4s0.7,0.3,1.6,1c0.5,0.3,1,0.7,1.5,1.1c0.5,0.4,1.1,0.9,1.7,1.3
		c0.5,0.5,1.1,0.9,1.6,1.4c0.5,0.5,0.9,0.9,1.3,1.3c0,0,0.1,0.1,0.1,0.1c-1.7-3.6-3.2-7.1-4.5-9.9c-0.9-1.9-1.6-3.5-2.1-4.6
		c-0.5-1.1-0.8-1.7-0.8-1.7s0.4,0.6,0.9,1.7c0.6,1.1,1.4,2.6,2.4,4.4c1,1.8,2.1,4,3.2,6.3c1.1,2.3,2.3,4.8,3.5,7.3
		c0.6,1.3,1.1,2.5,1.7,3.8c0.4,1,0.8,2,1.2,3c0-0.4,0.1-0.9,0.2-1.5c0.1-0.7,0.2-1.6,0.3-2.5c0.1-0.5,0.1-0.9,0.2-1.4
		c0.1-0.5,0.2-1,0.3-1.4c0.1-0.5,0.2-1,0.3-1.4c0.1-0.5,0.2-0.9,0.3-1.4c0.2-0.9,0.4-1.7,0.6-2.4C69.6,60.9,70,60,70,60s0,1-0.2,2.5
		c-0.1,0.7-0.2,1.6-0.3,2.5c-0.1,0.5-0.1,0.9-0.2,1.4c-0.1,0.5-0.2,1-0.3,1.4c-0.1,0.5-0.2,1-0.3,1.4c-0.1,0.5-0.2,0.9-0.3,1.4
		c-0.2,0.9-0.4,1.7-0.6,2.5c-0.2,0.7-0.4,1.4-0.5,1.8c0,0.1,0.1,0.2,0.1,0.3c0.5,1.2,0.9,2.4,1.3,3.5c0.4,1.1,0.8,2.2,1.1,3.2
		c0.3,1,0.6,1.9,0.8,2.7c0.1,0.5,0.4,1,0.7,1.6c0.4-5.9,2.1-31.3,0.1-35.9C69,45.2,65.5,42,62,45.7z"/>
	<g>
		<defs>
			<path id="SVGID_1_" d="M163,101.5c-54.1,0-108.3,0-162.4,0C1.4,76,8.1,67,14.4,63.8c4.5-2.3,10.3-2.3,19.4-8.1
				c4.6-2.9,8.2-5.3,10.2-9.6c3-6.7-1.3-10.8-0.6-18.2C44.5,16.1,58.8-1.4,68.6,3.6c11.6,5.9,21.6,20.8,39.6,11.8
				c18-9,43.8-7.6,43.2,21.2c-0.6,28.8,8.7,27.8,16.1,32.3C174.9,73.4,184.3,89,163,101.5z"/>
		</defs>
		<clipPath id="SVGID_2_">
			<use xlink:href="#SVGID_1_"  style="overflow:visible;"/>
		</clipPath>
	</g>
	<g>
		<path class="st3" d="M46.7,24.1"/>
	</g>
	<g>
		<path class="st4" d="M120.3,99.1c0,0.9-0.7,1.7-1.7,1.7H68c-0.9,0-1.7-0.7-1.7-1.7V8.4c0-0.9,0.7-1.7,1.7-1.7h50.7
			c0.9,0,1.7,0.7,1.7,1.7V99.1z"/>
		<rect x="69.9" y="10.1" class="st5" width="46.9" height="78.1"/>
		
			<ellipse transform="matrix(0.2298 -0.9732 0.9732 0.2298 -19.7615 163.3381)" class="st5" cx="93.3" cy="94.2" rx="2.9" ry="2.9"/>
	</g>
	<g>
		<g>
			<path class="st6" d="M79,34.1c0-1.4-1.1-2.5-2.5-2.5c-1.4,0-2.5,1.1-2.5,2.5c0,0.8,0.3,1.4,0.9,1.9c0.1-0.8,0.7-1.5,1.6-1.6
				c-0.4,0-0.6-0.4-0.6-0.7c0-0.4,0.3-0.7,0.7-0.7c0.4,0,0.7,0.3,0.7,0.7c0,0.4-0.3,0.7-0.6,0.7c0.8,0,1.5,0.7,1.6,1.6
				C78.6,35.5,79,34.8,79,34.1z"/>
			<path class="st6" d="M76.5,34.4c0.4,0,0.6-0.4,0.6-0.7c0-0.4-0.3-0.7-0.7-0.7c-0.4,0-0.7,0.3-0.7,0.7c0,0.4,0.3,0.7,0.6,0.7
				C76.4,34.4,76.4,34.4,76.5,34.4C76.5,34.4,76.5,34.4,76.5,34.4z"/>
			<path class="st6" d="M76.5,34.4C76.5,34.4,76.5,34.4,76.5,34.4c-0.1,0-0.1,0-0.2,0c-0.8,0-1.5,0.7-1.6,1.6c0.4,0.4,1,0.6,1.7,0.6
				c0.6,0,1.2-0.2,1.7-0.6C78.1,35.1,77.4,34.4,76.5,34.4z"/>
			<path class="st6" d="M76.5,34.4C76.5,34.4,76.5,34.4,76.5,34.4c-0.1,0-0.1,0-0.2,0C76.4,34.4,76.4,34.4,76.5,34.4
				C76.5,34.4,76.5,34.4,76.5,34.4z"/>
		</g>
		<g>
			<linearGradient id="SVGID_3_" gradientUnits="userSpaceOnUse" x1="74.2573" y1="22.4118" x2="112.032" y2="22.4118">
				<stop  offset="0.1047" style="stop-color:#F6895D"/>
				<stop  offset="0.9543" style="stop-color:#F16680"/>
			</linearGradient>
			<path class="st7" d="M111.3,15.5H74.9c-0.4,0-0.7,0.3-0.7,0.7v9.4c0,0.1,0,0.2,0,0.2v3.5l3.1-3.1h34c0.4,0,0.7-0.3,0.7-0.7v-9.4
				C112,15.8,111.7,15.5,111.3,15.5z"/>
			<path class="st2" d="M110.1,18.3c0,0.1-0.1,0.2-0.2,0.2H77.7c-0.1,0-0.2-0.1-0.2-0.2l0,0c0-0.1,0.1-0.2,0.2-0.2h32.2
				C110,18.1,110.1,18.2,110.1,18.3L110.1,18.3z"/>
			<path class="st2" d="M110.1,20.7c0,0.1-0.1,0.2-0.2,0.2H77.7c-0.1,0-0.2-0.1-0.2-0.2l0,0c0-0.1,0.1-0.2,0.2-0.2h32.2
				C110,20.5,110.1,20.6,110.1,20.7L110.1,20.7z"/>
			<path class="st2" d="M110.1,23.1c0,0.1-0.1,0.2-0.2,0.2H77.7c-0.1,0-0.2-0.1-0.2-0.2l0,0c0-0.1,0.1-0.2,0.2-0.2h32.2
				C110,22.9,110.1,23,110.1,23.1L110.1,23.1z"/>
		</g>
	</g>
	<g>
		<g>
			<path class="st6" d="M79,83c0-1.4-1.1-2.5-2.5-2.5c-1.4,0-2.5,1.1-2.5,2.5c0,0.8,0.3,1.4,0.9,1.9c0.1-0.8,0.7-1.5,1.6-1.6
				c-0.4,0-0.6-0.4-0.6-0.7c0-0.4,0.3-0.7,0.7-0.7c0.4,0,0.7,0.3,0.7,0.7c0,0.4-0.3,0.7-0.6,0.7c0.8,0,1.5,0.7,1.6,1.6
				C78.6,84.5,79,83.8,79,83z"/>
			<path class="st6" d="M76.5,83.4c0.4,0,0.6-0.4,0.6-0.7c0-0.4-0.3-0.7-0.7-0.7c-0.4,0-0.7,0.3-0.7,0.7c0,0.4,0.3,0.7,0.6,0.7
				C76.4,83.4,76.4,83.4,76.5,83.4C76.5,83.4,76.5,83.4,76.5,83.4z"/>
			<path class="st6" d="M76.5,83.4C76.5,83.4,76.5,83.4,76.5,83.4c-0.1,0-0.1,0-0.2,0c-0.8,0-1.5,0.7-1.6,1.6c0.4,0.4,1,0.6,1.7,0.6
				c0.6,0,1.2-0.2,1.7-0.6C78.1,84.1,77.4,83.4,76.5,83.4z"/>
			<path class="st6" d="M76.5,83.4C76.5,83.4,76.5,83.4,76.5,83.4c-0.1,0-0.1,0-0.2,0C76.4,83.4,76.4,83.4,76.5,83.4
				C76.5,83.4,76.5,83.4,76.5,83.4z"/>
		</g>
		<g>
			<linearGradient id="SVGID_4_" gradientUnits="userSpaceOnUse" x1="74.2573" y1="71.3723" x2="112.032" y2="71.3723">
				<stop  offset="0.1047" style="stop-color:#F6895D"/>
				<stop  offset="0.9543" style="stop-color:#F16680"/>
			</linearGradient>
			<path class="st8" d="M111.3,64.5H74.9c-0.4,0-0.7,0.3-0.7,0.7v9.4c0,0.1,0,0.2,0,0.2v3.5l3.1-3.1h34c0.4,0,0.7-0.3,0.7-0.7v-9.4
				C112,64.8,111.7,64.5,111.3,64.5z"/>
			<path class="st2" d="M110.1,67.2c0,0.1-0.1,0.2-0.2,0.2H77.7c-0.1,0-0.2-0.1-0.2-0.2l0,0c0-0.1,0.1-0.2,0.2-0.2h32.2
				C110,67,110.1,67.1,110.1,67.2L110.1,67.2z"/>
			<path class="st2" d="M110.1,69.6c0,0.1-0.1,0.2-0.2,0.2H77.7c-0.1,0-0.2-0.1-0.2-0.2l0,0c0-0.1,0.1-0.2,0.2-0.2h32.2
				C110,69.4,110.1,69.5,110.1,69.6L110.1,69.6z"/>
			<path class="st2" d="M110.1,72c0,0.1-0.1,0.2-0.2,0.2H77.7c-0.1,0-0.2-0.1-0.2-0.2l0,0c0-0.1,0.1-0.2,0.2-0.2h32.2
				C110,71.9,110.1,71.9,110.1,72L110.1,72z"/>
		</g>
	</g>
	<g>
		<g>
			<path class="st6" d="M107,60.2c0-1.4,1.1-2.5,2.5-2.5c1.4,0,2.5,1.1,2.5,2.5c0,0.8-0.3,1.4-0.9,1.9c-0.1-0.8-0.7-1.5-1.6-1.6
				c0.4,0,0.6-0.4,0.6-0.7c0-0.4-0.3-0.7-0.7-0.7c-0.4,0-0.7,0.3-0.7,0.7c0,0.4,0.3,0.7,0.6,0.7c-0.8,0-1.5,0.7-1.6,1.6
				C107.3,61.6,107,60.9,107,60.2z"/>
			<path class="st6" d="M109.4,60.5c-0.4,0-0.6-0.4-0.6-0.7c0-0.4,0.3-0.7,0.7-0.7c0.4,0,0.7,0.3,0.7,0.7c0,0.4-0.3,0.7-0.6,0.7
				C109.6,60.5,109.5,60.5,109.4,60.5C109.5,60.5,109.5,60.5,109.4,60.5z"/>
			<path class="st6" d="M109.4,60.5C109.5,60.5,109.5,60.5,109.4,60.5c0.1,0,0.1,0,0.2,0c0.8,0,1.5,0.7,1.6,1.6
				c-0.4,0.4-1,0.6-1.7,0.6c-0.6,0-1.2-0.2-1.7-0.6C107.9,61.2,108.6,60.6,109.4,60.5z"/>
			<path class="st6" d="M109.4,60.5C109.5,60.5,109.5,60.5,109.4,60.5c0.1,0,0.1,0,0.2,0C109.6,60.5,109.5,60.5,109.4,60.5
				C109.5,60.5,109.5,60.5,109.4,60.5z"/>
		</g>
		<g>
			
				<linearGradient id="SVGID_5_" gradientUnits="userSpaceOnUse" x1="2796.5356" y1="47.1671" x2="2834.3105" y2="47.1671" gradientTransform="matrix(-1 0 0 1 2908.251 0)">
				<stop  offset="0.1047" style="stop-color:#F6895D"/>
				<stop  offset="0.9543" style="stop-color:#F16680"/>
			</linearGradient>
			<path class="st9" d="M74.6,38.9H111c0.4,0,0.7,0.3,0.7,0.7v12.1c0,0.1,0,0.2,0,0.2v3.5l-3.1-3.1h-34c-0.4,0-0.7-0.3-0.7-0.7V39.6
				C73.9,39.2,74.2,38.9,74.6,38.9z"/>
			<path class="st2" d="M75.9,44.4c0,0.1,0.1,0.2,0.2,0.2h32.2c0.1,0,0.2-0.1,0.2-0.2l0,0c0-0.1-0.1-0.2-0.2-0.2H76
				C75.9,44.2,75.9,44.3,75.9,44.4L75.9,44.4z"/>
			<path class="st2" d="M75.9,41.8c0,0.1,0.1,0.2,0.2,0.2h32.2c0.1,0,0.2-0.1,0.2-0.2l0,0c0-0.1-0.1-0.2-0.2-0.2H76
				C75.9,41.6,75.9,41.7,75.9,41.8L75.9,41.8z"/>
			<path class="st2" d="M75.9,46.8c0,0.1,0.1,0.2,0.2,0.2h32.2c0.1,0,0.2-0.1,0.2-0.2l0,0c0-0.1-0.1-0.2-0.2-0.2H76
				C75.9,46.6,75.9,46.7,75.9,46.8L75.9,46.8z"/>
			<path class="st2" d="M75.9,49.2c0,0.1,0.1,0.2,0.2,0.2h32.2c0.1,0,0.2-0.1,0.2-0.2l0,0c0-0.1-0.1-0.2-0.2-0.2H76
				C75.9,49,75.9,49.1,75.9,49.2L75.9,49.2z"/>
		</g>
	</g>
	<path class="st0" d="M180.7,103.7c0,0.4-0.3,0.7-0.7,0.7H1.2c-0.4,0-0.7-0.3-0.7-0.7v-1.9c0-0.4,0.3-0.7,0.7-0.7H180
		c0.4,0,0.7,0.3,0.7,0.7V103.7z"/>
</g>
<text transform="matrix(1 0 0 1 138.5152 108.2758)" class="st10 st11 st12">Designed by Freepik</text>
<g>
	<g>
		<polyline class="st13" points="130.2,110.7 131.7,115.1 130,115.7 127.1,109.1 		"/>
		<g>
			<path class="st14" d="M126.7,117.5c1.8-1,2.2-2.1,2.2-2.1l3.3-1.2l1.4,2.7l-9.1,3.5C124.5,119.8,124.7,118.6,126.7,117.5z"/>
			<path class="st2" d="M124.6,120.4c0,0.4,0.2,0.6,0.2,0.6l9.2-3.6l-0.3-0.5l0.6,1l-9.4,3.7L124.6,120.4z"/>
			<path class="st2" d="M124.8,121c0,0-0.1-0.2-0.2-0.6l9.1-3.5l0.3,0.5L124.8,121z"/>
		</g>
		<polyline class="st13" points="123,113.5 120.5,117.4 119,116.5 122.4,110.1 		"/>
		<g>
			<path class="st14" d="M115.5,115c1.9,0.8,3,0.4,3,0.4l3,1.8l-1.2,2.8l-8.4-4.9C112.4,114.6,113.4,114.1,115.5,115z"/>
			<path class="st2" d="M111.9,115.1c-0.3,0.3-0.3,0.5-0.3,0.5l8.5,5l0.2-0.5l-0.4,1.1l-8.7-5.1L111.9,115.1z"/>
			<path class="st2" d="M111.6,115.6c0,0,0.1-0.2,0.3-0.5l8.4,4.9l-0.2,0.5L111.6,115.6z"/>
		</g>
		<polygon class="st15" points="131.5,100.7 127.1,107.6 121.7,116.6 119.5,114.6 124,101.3 127.1,97 		"/>
		<g>
			<linearGradient id="SVGID_6_" gradientUnits="userSpaceOnUse" x1="140.2218" y1="74.8148" x2="144.6388" y2="74.8148">
				<stop  offset="9.595919e-02" style="stop-color:#FFDA8B"/>
				<stop  offset="0.2459" style="stop-color:#FED689"/>
				<stop  offset="0.4113" style="stop-color:#FDC884"/>
				<stop  offset="0.5842" style="stop-color:#FBB27C"/>
				<stop  offset="0.7622" style="stop-color:#F79371"/>
				<stop  offset="0.9425" style="stop-color:#F36C62"/>
				<stop  offset="1" style="stop-color:#F15E5D"/>
			</linearGradient>
			<polygon class="st16" points="144.6,76.3 141.2,76.8 140.2,72.8 143.1,72.8 			"/>
			<linearGradient id="SVGID_7_" gradientUnits="userSpaceOnUse" x1="140.2119" y1="75.114" x2="140.2119" y2="68.9526">
				<stop  offset="9.595919e-02" style="stop-color:#FFDA8B"/>
				<stop  offset="0.2459" style="stop-color:#FED689"/>
				<stop  offset="0.4113" style="stop-color:#FDC884"/>
				<stop  offset="0.5842" style="stop-color:#FBB27C"/>
				<stop  offset="0.7622" style="stop-color:#F79371"/>
				<stop  offset="0.9425" style="stop-color:#F36C62"/>
				<stop  offset="1" style="stop-color:#F15E5D"/>
			</linearGradient>
			<path class="st17" d="M143.5,69.3h-2.3l0-0.3l-4.3,0.3l0.4,4.9c0,0,1.3,1.9,3.4,0.4l1.1-1.1l-0.1-0.7h1.8V69.3z"/>
			<path class="st18" d="M151.2,77.8c-0.1-2.7-1.9-3.8-4.9-4.8c-1.3-0.4-2-1-2.4-1.6l-0.2-2.4l-2.6-0.3l0.2,1.4c0,0,0.1,0,0.1,0l0,0
				c0.1,0,0.2-0.1,0.3-0.1c0.6,0,1,0.4,1.1,0.9c0,0.6-0.4,1-0.9,1.1c-0.1,0-0.3,0-0.4-0.1v0.6c0,0,0,4.2,2.8,5.5
				c2.8,1.2,2.3,4.2,2.3,4.2S151.4,81.4,151.2,77.8z"/>
		</g>
		<path class="st19" d="M147.2,94.5c0,0-1.3,7-5.2,7c-3.9,0-13.2-1.2-13.2-1.2l2.3,13.1h-3.3l-5.2-18.9H147.2z"/>
		
			<linearGradient id="SVGID_8_" gradientUnits="userSpaceOnUse" x1="3034.3599" y1="84.8347" x2="3044.9915" y2="84.8347" gradientTransform="matrix(-1 0 0 1 3181.5928 0)">
			<stop  offset="0" style="stop-color:#F89420"/>
			<stop  offset="1" style="stop-color:#F04F36"/>
		</linearGradient>
		<path class="st20" d="M147.2,94.4c0,0,0.4-19.2-3-19.2c-1.8,0-2.5-0.2-4,1.7c-0.3,0.3-3.3,4.4-3.3,5.9c0,1.4,2.2,2.9,2.2,3.4
			c-0.5,4.6-2.5,8.4-2.5,8.4L147.2,94.4z"/>
		<rect x="120.3" y="92.9" class="st21" width="14.6" height="1.4"/>
		
			<rect x="118.2" y="82.6" transform="matrix(0.939 -0.3439 0.3439 0.939 -22.9937 46.2317)" class="st21" width="1.4" height="10.7"/>
		<linearGradient id="SVGID_9_" gradientUnits="userSpaceOnUse" x1="147.2352" y1="79.7271" x2="130.467" y2="96.4952">
			<stop  offset="9.595919e-02" style="stop-color:#FFDA8B"/>
			<stop  offset="0.2459" style="stop-color:#FED689"/>
			<stop  offset="0.4113" style="stop-color:#FDC884"/>
			<stop  offset="0.5842" style="stop-color:#FBB27C"/>
			<stop  offset="0.7622" style="stop-color:#F79371"/>
			<stop  offset="0.9425" style="stop-color:#F36C62"/>
			<stop  offset="1" style="stop-color:#F15E5D"/>
		</linearGradient>
		<path class="st22" d="M144.6,77.2c-0.9-1.6-3.4-0.4-3.8,0.7c-0.4,1.1-0.1,7.9-0.1,7.9v2.9l-6.9,1.4l-3.1,0.2c0,0-2.9,1.4-3.2,1.6
			c-0.4,0.2-0.4,1.3-0.4,1.3l4.9-0.9l1.3-0.4l11.2-1.3C144.6,90.7,145.5,78.8,144.6,77.2z"/>
	</g>
	<path class="st18" d="M135.8,66.8c0,0,0.8,4.2,3.8,3.7c0,0,0.2,2.4,1.6,2.3l0.3-3l2.3-0.8C143.8,69.1,142.7,63.1,135.8,66.8z"/>
</g>
</svg>
