<?xml version="1.0" encoding="utf-8"?>
<!-- Generator: Adobe Illustrator 25.1.0, SVG Export Plug-In . SVG Version: 6.00 Build 0)  -->
<svg version="1.1" id="Layer_1" xmlns="http://www.w3.org/2000/svg" xmlns:xlink="http://www.w3.org/1999/xlink" x="0px" y="0px"
	 viewBox="0 0 275.1 305.5" style="enable-background:new 0 0 275.1 305.5;" xml:space="preserve">
<style type="text/css">
	.st0{fill:#C2DFE3;}
	.st1{clip-path:url(#SVGID_2_);}
	.st2{fill:#9DB4C0;}
	.st3{fill:none;stroke:#FFFFFF;stroke-width:0.6125;stroke-miterlimit:10;}
	.st4{fill:#EA6227;}
	.st5{fill:#F2A51A;}
	.st6{fill:#FFD31D;}
	.st7{fill:none;stroke:#F2A51A;stroke-width:0.6125;stroke-miterlimit:10;}
	.st8{fill:#161651;}
	.st9{fill:#F8CB1C;}
	.st10{fill:#FFC8B0;}
	.st11{fill:#F5A29F;}
	.st12{fill:#F64B3C;}
	.st13{fill:#FFFFFF;}
	.st14{fill:none;stroke:#161651;stroke-width:0.6125;stroke-miterlimit:10;}
	.st15{fill:none;stroke:#EAA726;stroke-width:0.6125;stroke-linecap:round;stroke-linejoin:round;stroke-miterlimit:10;}
	.st16{fill:#342EAD;}
	.st17{fill:#E5E5E5;}
	.st18{fill:none;stroke:#FFFFFF;stroke-width:0.6125;stroke-linecap:round;stroke-linejoin:round;stroke-miterlimit:10;}
	.st19{fill:#20BF55;}
	.st20{fill:none;stroke:#4F5A66;stroke-width:0.6125;stroke-miterlimit:10;}
	.st21{fill:none;stroke:#1E272D;stroke-width:0.6125;stroke-miterlimit:10;}
	.st22{fill:#D6D6D6;}
	.st23{font-family:'MyriadPro-Regular';}
	.st24{font-size:7.3494px;}
</style>
<g>
	<g>
		<path class="st0" d="M260.5,195.3c0.2,44.6-53.3,95-109.4,99.6C77.1,301,6.6,226.7,6.6,150.4C6.6,55.7,112.3-10.8,151.1,5.9
			c18.8,8.1,13.9,28,46.1,85.7C234.6,158.6,260.4,164.4,260.5,195.3z"/>
		<g>
			<defs>
				<path id="SVGID_1_" d="M228.5,139.2c20.8,17.2,27.4,47.7,24.5,70.2c-6.2,47.8-58,82-101.9,85.6C80,300.7,6.6,227.8,6.6,150.4
					C6.6,50.8,125.7-10.9,151.1,5.9c19.5,12.9-21.7,82.8,10,111.5C179.8,134.4,203.8,118.9,228.5,139.2z"/>
			</defs>
			<clipPath id="SVGID_2_">
				<use xlink:href="#SVGID_1_"  style="overflow:visible;"/>
			</clipPath>
			<g class="st1">
				<g>
					<circle class="st2" cx="-20.9" cy="137.4" r="0.9"/>
					<circle class="st2" cx="-20.9" cy="142.5" r="0.9"/>
					<circle class="st2" cx="-20.9" cy="147.5" r="0.9"/>
					<circle class="st2" cx="-20.9" cy="152.5" r="0.9"/>
					<circle class="st2" cx="-20.9" cy="157.5" r="0.9"/>
					<circle class="st2" cx="-20.9" cy="162.5" r="0.9"/>
					<circle class="st2" cx="-20.9" cy="167.5" r="0.9"/>
					<circle class="st2" cx="-20.9" cy="172.5" r="0.9"/>
					<circle class="st2" cx="-20.9" cy="177.5" r="0.9"/>
					<circle class="st2" cx="-20.9" cy="182.5" r="0.9"/>
					<circle class="st2" cx="-20.9" cy="187.5" r="0.9"/>
					<circle class="st2" cx="-20.9" cy="192.5" r="0.9"/>
				</g>
				<g>
					<circle class="st2" cx="-15.9" cy="137.4" r="0.9"/>
					<circle class="st2" cx="-15.9" cy="142.5" r="0.9"/>
					<circle class="st2" cx="-15.9" cy="147.5" r="0.9"/>
					<circle class="st2" cx="-15.9" cy="152.5" r="0.9"/>
					<circle class="st2" cx="-15.9" cy="157.5" r="0.9"/>
					<circle class="st2" cx="-15.9" cy="162.5" r="0.9"/>
					<circle class="st2" cx="-15.9" cy="167.5" r="0.9"/>
					<circle class="st2" cx="-15.9" cy="172.5" r="0.9"/>
					<circle class="st2" cx="-15.9" cy="177.5" r="0.9"/>
					<circle class="st2" cx="-15.9" cy="182.5" r="0.9"/>
					<circle class="st2" cx="-15.9" cy="187.5" r="0.9"/>
					<circle class="st2" cx="-15.9" cy="192.5" r="0.9"/>
				</g>
				<g>
					<circle class="st2" cx="-10.9" cy="137.4" r="0.9"/>
					<circle class="st2" cx="-10.9" cy="142.5" r="0.9"/>
					<circle class="st2" cx="-10.9" cy="147.5" r="0.9"/>
					<circle class="st2" cx="-10.9" cy="152.5" r="0.9"/>
					<circle class="st2" cx="-10.9" cy="157.5" r="0.9"/>
					<circle class="st2" cx="-10.9" cy="162.5" r="0.9"/>
					<circle class="st2" cx="-10.9" cy="167.5" r="0.9"/>
					<circle class="st2" cx="-10.9" cy="172.5" r="0.9"/>
					<circle class="st2" cx="-10.9" cy="177.5" r="0.9"/>
					<circle class="st2" cx="-10.9" cy="182.5" r="0.9"/>
					<circle class="st2" cx="-10.9" cy="187.5" r="0.9"/>
					<circle class="st2" cx="-10.9" cy="192.5" r="0.9"/>
				</g>
				<g>
					<circle class="st2" cx="-5.9" cy="137.4" r="0.9"/>
					<circle class="st2" cx="-5.9" cy="142.5" r="0.9"/>
					<circle class="st2" cx="-5.9" cy="147.5" r="0.9"/>
					<circle class="st2" cx="-5.9" cy="152.5" r="0.9"/>
					<circle class="st2" cx="-5.9" cy="157.5" r="0.9"/>
					<circle class="st2" cx="-5.9" cy="162.5" r="0.9"/>
					<circle class="st2" cx="-5.9" cy="167.5" r="0.9"/>
					<circle class="st2" cx="-5.9" cy="172.5" r="0.9"/>
					<circle class="st2" cx="-5.9" cy="177.5" r="0.9"/>
					<circle class="st2" cx="-5.9" cy="182.5" r="0.9"/>
					<circle class="st2" cx="-5.9" cy="187.5" r="0.9"/>
					<circle class="st2" cx="-5.9" cy="192.5" r="0.9"/>
				</g>
				<g>
					<circle class="st2" cx="-0.9" cy="137.4" r="0.9"/>
					<circle class="st2" cx="-0.9" cy="142.5" r="0.9"/>
					<circle class="st2" cx="-0.9" cy="147.5" r="0.9"/>
					<circle class="st2" cx="-0.9" cy="152.5" r="0.9"/>
					<circle class="st2" cx="-0.9" cy="157.5" r="0.9"/>
					<circle class="st2" cx="-0.9" cy="162.5" r="0.9"/>
					<circle class="st2" cx="-0.9" cy="167.5" r="0.9"/>
					<circle class="st2" cx="-0.9" cy="172.5" r="0.9"/>
					<circle class="st2" cx="-0.9" cy="177.5" r="0.9"/>
					<circle class="st2" cx="-0.9" cy="182.5" r="0.9"/>
					<circle class="st2" cx="-0.9" cy="187.5" r="0.9"/>
					<circle class="st2" cx="-0.9" cy="192.5" r="0.9"/>
				</g>
				<g>
					<circle class="st2" cx="4.1" cy="137.4" r="0.9"/>
					<circle class="st2" cx="4.1" cy="142.5" r="0.9"/>
					<circle class="st2" cx="4.1" cy="147.5" r="0.9"/>
					<circle class="st2" cx="4.1" cy="152.5" r="0.9"/>
					<circle class="st2" cx="4.1" cy="157.5" r="0.9"/>
					<circle class="st2" cx="4.1" cy="162.5" r="0.9"/>
					<circle class="st2" cx="4.1" cy="167.5" r="0.9"/>
					<circle class="st2" cx="4.1" cy="172.5" r="0.9"/>
					<circle class="st2" cx="4.1" cy="177.5" r="0.9"/>
					<circle class="st2" cx="4.1" cy="182.5" r="0.9"/>
					<circle class="st2" cx="4.1" cy="187.5" r="0.9"/>
					<circle class="st2" cx="4.1" cy="192.5" r="0.9"/>
				</g>
				<g>
					<circle class="st2" cx="9.1" cy="137.4" r="0.9"/>
					<circle class="st2" cx="9.1" cy="142.5" r="0.9"/>
					<circle class="st2" cx="9.1" cy="147.5" r="0.9"/>
					<circle class="st2" cx="9.1" cy="152.5" r="0.9"/>
					<circle class="st2" cx="9.1" cy="157.5" r="0.9"/>
					<circle class="st2" cx="9.1" cy="162.5" r="0.9"/>
					<circle class="st2" cx="9.1" cy="167.5" r="0.9"/>
					<circle class="st2" cx="9.1" cy="172.5" r="0.9"/>
					<circle class="st2" cx="9.1" cy="177.5" r="0.9"/>
					<circle class="st2" cx="9.1" cy="182.5" r="0.9"/>
					<circle class="st2" cx="9.1" cy="187.5" r="0.9"/>
					<circle class="st2" cx="9.1" cy="192.5" r="0.9"/>
				</g>
				<g>
					<circle class="st2" cx="14.1" cy="137.4" r="0.9"/>
					<circle class="st2" cx="14.1" cy="142.5" r="0.9"/>
					<circle class="st2" cx="14.1" cy="147.5" r="0.9"/>
					<circle class="st2" cx="14.1" cy="152.5" r="0.9"/>
					<circle class="st2" cx="14.1" cy="157.5" r="0.9"/>
					<circle class="st2" cx="14.1" cy="162.5" r="0.9"/>
					<circle class="st2" cx="14.1" cy="167.5" r="0.9"/>
					<circle class="st2" cx="14.1" cy="172.5" r="0.9"/>
					<circle class="st2" cx="14.1" cy="177.5" r="0.9"/>
					<circle class="st2" cx="14.1" cy="182.5" r="0.9"/>
					<circle class="st2" cx="14.1" cy="187.5" r="0.9"/>
					<circle class="st2" cx="14.1" cy="192.5" r="0.9"/>
				</g>
				<g>
					<circle class="st2" cx="19.1" cy="137.4" r="0.9"/>
					<circle class="st2" cx="19.1" cy="142.5" r="0.9"/>
					<circle class="st2" cx="19.1" cy="147.5" r="0.9"/>
					<circle class="st2" cx="19.1" cy="152.5" r="0.9"/>
					<circle class="st2" cx="19.1" cy="157.5" r="0.9"/>
					<circle class="st2" cx="19.1" cy="162.5" r="0.9"/>
					<circle class="st2" cx="19.1" cy="167.5" r="0.9"/>
					<circle class="st2" cx="19.1" cy="172.5" r="0.9"/>
					<circle class="st2" cx="19.1" cy="177.5" r="0.9"/>
					<circle class="st2" cx="19.1" cy="182.5" r="0.9"/>
					<circle class="st2" cx="19.1" cy="187.5" r="0.9"/>
					<circle class="st2" cx="19.1" cy="192.5" r="0.9"/>
				</g>
				<g>
					<circle class="st2" cx="24.1" cy="137.4" r="0.9"/>
					<circle class="st2" cx="24.1" cy="142.5" r="0.9"/>
					<circle class="st2" cx="24.1" cy="147.5" r="0.9"/>
					<circle class="st2" cx="24.1" cy="152.5" r="0.9"/>
					<circle class="st2" cx="24.1" cy="157.5" r="0.9"/>
					<circle class="st2" cx="24.1" cy="162.5" r="0.9"/>
					<circle class="st2" cx="24.1" cy="167.5" r="0.9"/>
					<circle class="st2" cx="24.1" cy="172.5" r="0.9"/>
					<circle class="st2" cx="24.1" cy="177.5" r="0.9"/>
					<circle class="st2" cx="24.1" cy="182.5" r="0.9"/>
					<circle class="st2" cx="24.1" cy="187.5" r="0.9"/>
					<circle class="st2" cx="24.1" cy="192.5" r="0.9"/>
				</g>
				<g>
					<circle class="st2" cx="29.1" cy="137.4" r="0.9"/>
					<circle class="st2" cx="29.1" cy="142.5" r="0.9"/>
					<circle class="st2" cx="29.1" cy="147.5" r="0.9"/>
					<circle class="st2" cx="29.1" cy="152.5" r="0.9"/>
					<circle class="st2" cx="29.1" cy="157.5" r="0.9"/>
					<circle class="st2" cx="29.1" cy="162.5" r="0.9"/>
					<circle class="st2" cx="29.1" cy="167.5" r="0.9"/>
					<circle class="st2" cx="29.1" cy="172.5" r="0.9"/>
					<circle class="st2" cx="29.1" cy="177.5" r="0.9"/>
					<circle class="st2" cx="29.1" cy="182.5" r="0.9"/>
					<circle class="st2" cx="29.1" cy="187.5" r="0.9"/>
					<circle class="st2" cx="29.1" cy="192.5" r="0.9"/>
				</g>
				<g>
					<circle class="st2" cx="34.1" cy="137.4" r="0.9"/>
					<circle class="st2" cx="34.1" cy="142.5" r="0.9"/>
					<circle class="st2" cx="34.1" cy="147.5" r="0.9"/>
					<circle class="st2" cx="34.1" cy="152.5" r="0.9"/>
					<circle class="st2" cx="34.1" cy="157.5" r="0.9"/>
					<circle class="st2" cx="34.1" cy="162.5" r="0.9"/>
					<circle class="st2" cx="34.1" cy="167.5" r="0.9"/>
					<circle class="st2" cx="34.1" cy="172.5" r="0.9"/>
					<circle class="st2" cx="34.1" cy="177.5" r="0.9"/>
					<circle class="st2" cx="34.1" cy="182.5" r="0.9"/>
					<circle class="st2" cx="34.1" cy="187.5" r="0.9"/>
					<circle class="st2" cx="34.1" cy="192.5" r="0.9"/>
				</g>
			</g>
			<g class="st1">
				<g>
					<circle class="st2" cx="116.3" cy="-9.1" r="0.9"/>
					<circle class="st2" cx="116.3" cy="-4.1" r="0.9"/>
					<circle class="st2" cx="116.3" cy="0.9" r="0.9"/>
					<circle class="st2" cx="116.3" cy="5.9" r="0.9"/>
					<circle class="st2" cx="116.3" cy="10.9" r="0.9"/>
					<circle class="st2" cx="116.3" cy="15.9" r="0.9"/>
					<circle class="st2" cx="116.3" cy="20.9" r="0.9"/>
					<circle class="st2" cx="116.3" cy="25.9" r="0.9"/>
					<circle class="st2" cx="116.3" cy="30.9" r="0.9"/>
					<circle class="st2" cx="116.3" cy="35.9" r="0.9"/>
					<circle class="st2" cx="116.3" cy="40.9" r="0.9"/>
					<circle class="st2" cx="116.3" cy="45.9" r="0.9"/>
				</g>
				<g>
					<circle class="st2" cx="121.3" cy="-9.1" r="0.9"/>
					<circle class="st2" cx="121.3" cy="-4.1" r="0.9"/>
					<circle class="st2" cx="121.3" cy="0.9" r="0.9"/>
					<circle class="st2" cx="121.3" cy="5.9" r="0.9"/>
					<circle class="st2" cx="121.3" cy="10.9" r="0.9"/>
					<circle class="st2" cx="121.3" cy="15.9" r="0.9"/>
					<circle class="st2" cx="121.3" cy="20.9" r="0.9"/>
					<circle class="st2" cx="121.3" cy="25.9" r="0.9"/>
					<circle class="st2" cx="121.3" cy="30.9" r="0.9"/>
					<circle class="st2" cx="121.3" cy="35.9" r="0.9"/>
					<circle class="st2" cx="121.3" cy="40.9" r="0.9"/>
					<circle class="st2" cx="121.3" cy="45.9" r="0.9"/>
				</g>
				<g>
					<circle class="st2" cx="126.3" cy="-9.1" r="0.9"/>
					<circle class="st2" cx="126.3" cy="-4.1" r="0.9"/>
					<circle class="st2" cx="126.3" cy="0.9" r="0.9"/>
					<circle class="st2" cx="126.3" cy="5.9" r="0.9"/>
					<circle class="st2" cx="126.3" cy="10.9" r="0.9"/>
					<circle class="st2" cx="126.3" cy="15.9" r="0.9"/>
					<circle class="st2" cx="126.3" cy="20.9" r="0.9"/>
					<circle class="st2" cx="126.3" cy="25.9" r="0.9"/>
					<circle class="st2" cx="126.3" cy="30.9" r="0.9"/>
					<circle class="st2" cx="126.3" cy="35.9" r="0.9"/>
					<circle class="st2" cx="126.3" cy="40.9" r="0.9"/>
					<circle class="st2" cx="126.3" cy="45.9" r="0.9"/>
				</g>
				<g>
					<circle class="st2" cx="131.3" cy="-9.1" r="0.9"/>
					<circle class="st2" cx="131.3" cy="-4.1" r="0.9"/>
					<circle class="st2" cx="131.3" cy="0.9" r="0.9"/>
					<circle class="st2" cx="131.3" cy="5.9" r="0.9"/>
					<circle class="st2" cx="131.3" cy="10.9" r="0.9"/>
					<circle class="st2" cx="131.3" cy="15.9" r="0.9"/>
					<circle class="st2" cx="131.3" cy="20.9" r="0.9"/>
					<circle class="st2" cx="131.3" cy="25.9" r="0.9"/>
					<circle class="st2" cx="131.3" cy="30.9" r="0.9"/>
					<circle class="st2" cx="131.3" cy="35.9" r="0.9"/>
					<circle class="st2" cx="131.3" cy="40.9" r="0.9"/>
					<circle class="st2" cx="131.3" cy="45.9" r="0.9"/>
				</g>
				<g>
					<circle class="st2" cx="136.3" cy="-9.1" r="0.9"/>
					<circle class="st2" cx="136.3" cy="-4.1" r="0.9"/>
					<circle class="st2" cx="136.3" cy="0.9" r="0.9"/>
					<circle class="st2" cx="136.3" cy="5.9" r="0.9"/>
					<circle class="st2" cx="136.3" cy="10.9" r="0.9"/>
					<circle class="st2" cx="136.3" cy="15.9" r="0.9"/>
					<circle class="st2" cx="136.3" cy="20.9" r="0.9"/>
					<circle class="st2" cx="136.3" cy="25.9" r="0.9"/>
					<circle class="st2" cx="136.3" cy="30.9" r="0.9"/>
					<circle class="st2" cx="136.3" cy="35.9" r="0.9"/>
					<circle class="st2" cx="136.3" cy="40.9" r="0.9"/>
					<circle class="st2" cx="136.3" cy="45.9" r="0.9"/>
				</g>
				<g>
					<circle class="st2" cx="141.3" cy="-9.1" r="0.9"/>
					<circle class="st2" cx="141.3" cy="-4.1" r="0.9"/>
					<circle class="st2" cx="141.3" cy="0.9" r="0.9"/>
					<circle class="st2" cx="141.3" cy="5.9" r="0.9"/>
					<circle class="st2" cx="141.3" cy="10.9" r="0.9"/>
					<circle class="st2" cx="141.3" cy="15.9" r="0.9"/>
					<circle class="st2" cx="141.3" cy="20.9" r="0.9"/>
					<circle class="st2" cx="141.3" cy="25.9" r="0.9"/>
					<circle class="st2" cx="141.3" cy="30.9" r="0.9"/>
					<circle class="st2" cx="141.3" cy="35.9" r="0.9"/>
					<circle class="st2" cx="141.3" cy="40.9" r="0.9"/>
					<circle class="st2" cx="141.3" cy="45.9" r="0.9"/>
				</g>
				<g>
					<circle class="st2" cx="146.3" cy="-9.1" r="0.9"/>
					<circle class="st2" cx="146.3" cy="-4.1" r="0.9"/>
					<circle class="st2" cx="146.3" cy="0.9" r="0.9"/>
					<circle class="st2" cx="146.3" cy="5.9" r="0.9"/>
					<circle class="st2" cx="146.3" cy="10.9" r="0.9"/>
					<circle class="st2" cx="146.3" cy="15.9" r="0.9"/>
					<circle class="st2" cx="146.3" cy="20.9" r="0.9"/>
					<circle class="st2" cx="146.3" cy="25.9" r="0.9"/>
					<circle class="st2" cx="146.3" cy="30.9" r="0.9"/>
					<circle class="st2" cx="146.3" cy="35.9" r="0.9"/>
					<circle class="st2" cx="146.3" cy="40.9" r="0.9"/>
					<circle class="st2" cx="146.3" cy="45.9" r="0.9"/>
				</g>
				<g>
					<circle class="st2" cx="151.3" cy="-9.1" r="0.9"/>
					<circle class="st2" cx="151.3" cy="-4.1" r="0.9"/>
					<circle class="st2" cx="151.3" cy="0.9" r="0.9"/>
					<circle class="st2" cx="151.3" cy="5.9" r="0.9"/>
					<circle class="st2" cx="151.3" cy="10.9" r="0.9"/>
					<circle class="st2" cx="151.3" cy="15.9" r="0.9"/>
					<circle class="st2" cx="151.3" cy="20.9" r="0.9"/>
					<circle class="st2" cx="151.3" cy="25.9" r="0.9"/>
					<circle class="st2" cx="151.3" cy="30.9" r="0.9"/>
					<circle class="st2" cx="151.3" cy="35.9" r="0.9"/>
					<circle class="st2" cx="151.3" cy="40.9" r="0.9"/>
					<circle class="st2" cx="151.3" cy="45.9" r="0.9"/>
				</g>
				<g>
					<circle class="st2" cx="156.3" cy="-9.1" r="0.9"/>
					<circle class="st2" cx="156.3" cy="-4.1" r="0.9"/>
					<circle class="st2" cx="156.3" cy="0.9" r="0.9"/>
					<circle class="st2" cx="156.3" cy="5.9" r="0.9"/>
					<circle class="st2" cx="156.3" cy="10.9" r="0.9"/>
					<circle class="st2" cx="156.3" cy="15.9" r="0.9"/>
					<circle class="st2" cx="156.3" cy="20.9" r="0.9"/>
					<circle class="st2" cx="156.3" cy="25.9" r="0.9"/>
					<circle class="st2" cx="156.3" cy="30.9" r="0.9"/>
					<circle class="st2" cx="156.3" cy="35.9" r="0.9"/>
					<circle class="st2" cx="156.3" cy="40.9" r="0.9"/>
					<circle class="st2" cx="156.3" cy="45.9" r="0.9"/>
				</g>
				<g>
					<circle class="st2" cx="161.3" cy="-9.1" r="0.9"/>
					<circle class="st2" cx="161.3" cy="-4.1" r="0.9"/>
					<circle class="st2" cx="161.3" cy="0.9" r="0.9"/>
					<circle class="st2" cx="161.3" cy="5.9" r="0.9"/>
					<circle class="st2" cx="161.3" cy="10.9" r="0.9"/>
					<circle class="st2" cx="161.3" cy="15.9" r="0.9"/>
					<circle class="st2" cx="161.3" cy="20.9" r="0.9"/>
					<circle class="st2" cx="161.3" cy="25.9" r="0.9"/>
					<circle class="st2" cx="161.3" cy="30.9" r="0.9"/>
					<circle class="st2" cx="161.3" cy="35.9" r="0.9"/>
					<circle class="st2" cx="161.3" cy="40.9" r="0.9"/>
					<circle class="st2" cx="161.3" cy="45.9" r="0.9"/>
				</g>
				<g>
					<circle class="st2" cx="166.3" cy="-9.1" r="0.9"/>
					<circle class="st2" cx="166.3" cy="-4.1" r="0.9"/>
					<circle class="st2" cx="166.3" cy="0.9" r="0.9"/>
					<circle class="st2" cx="166.3" cy="5.9" r="0.9"/>
					<circle class="st2" cx="166.3" cy="10.9" r="0.9"/>
					<circle class="st2" cx="166.3" cy="15.9" r="0.9"/>
					<circle class="st2" cx="166.3" cy="20.9" r="0.9"/>
					<circle class="st2" cx="166.3" cy="25.9" r="0.9"/>
					<circle class="st2" cx="166.3" cy="30.9" r="0.9"/>
					<circle class="st2" cx="166.3" cy="35.9" r="0.9"/>
					<circle class="st2" cx="166.3" cy="40.9" r="0.9"/>
					<circle class="st2" cx="166.3" cy="45.9" r="0.9"/>
				</g>
				<g>
					<circle class="st2" cx="171.4" cy="-9.1" r="0.9"/>
					<circle class="st2" cx="171.4" cy="-4.1" r="0.9"/>
					<circle class="st2" cx="171.4" cy="0.9" r="0.9"/>
					<circle class="st2" cx="171.4" cy="5.9" r="0.9"/>
					<circle class="st2" cx="171.4" cy="10.9" r="0.9"/>
					<circle class="st2" cx="171.4" cy="15.9" r="0.9"/>
					<circle class="st2" cx="171.4" cy="20.9" r="0.9"/>
					<circle class="st2" cx="171.4" cy="25.9" r="0.9"/>
					<circle class="st2" cx="171.4" cy="30.9" r="0.9"/>
					<circle class="st2" cx="171.4" cy="35.9" r="0.9"/>
					<circle class="st2" cx="171.4" cy="40.9" r="0.9"/>
					<circle class="st2" cx="171.4" cy="45.9" r="0.9"/>
				</g>
			</g>
			<g class="st1">
				<path class="st3" d="M-2.9,179.1h56.8c2.7,0,4.9,2.2,4.9,4.9v23.9c0,2.7-2.2,4.9-4.9,4.9H-2.9"/>
				<path class="st3" d="M-2.9,170.3h70.7c2.7,0,4.9-2.2,4.9-4.9V81c0-2.7-2.2-4.9-4.9-4.9H-2.9"/>
			</g>
		</g>
		<g>
			<g>
				<polygon class="st4" points="173.2,187.4 182.6,294.9 189.4,294.9 180,187.4 				"/>
				<polygon class="st4" points="134.6,187.4 125.2,294.9 118.4,294.9 127.8,187.4 				"/>
			</g>
			<g>
				<polygon class="st5" points="178.6,187.4 188,294.9 194.8,294.9 185.4,187.4 				"/>
				<polygon class="st5" points="129.6,187.4 120.2,294.9 113.4,294.9 122.8,187.4 				"/>
			</g>
			<path class="st6" d="M121.8,126.7l-8.6,90.8h81.7l-8.6-90.8c-0.6-6.3-5.9-11.1-12.2-11.1h-40
				C127.7,115.5,122.4,120.3,121.8,126.7z"/>
			<path class="st6" d="M201.8,222.3V215c0-2.7-2.2-4.9-4.9-4.9h-85.6c-2.7,0-4.9,2.2-4.9,4.9v7.2c0,1.4,1.1,2.5,2.5,2.5h90.5
				C200.7,224.7,201.8,223.6,201.8,222.3z"/>
			<line class="st7" x1="113.9" y1="210.1" x2="194.2" y2="210.1"/>
		</g>
		<path class="st8" d="M181.4,176.6h-26.8h-26.8l-6,16c-1.2,3.2-1.4,6.7-0.5,10l0,0c1.9,7.3,8.5,12.4,16.1,12.4h17.3h17.3
			c7.6,0,14.2-5.1,16.1-12.4l0,0c0.9-3.3,0.7-6.8-0.5-10L181.4,176.6z"/>
		<g>
			<g>
				<path class="st9" d="M176.7,202.2c0-12.3-12.8-26.2-18.9-12.1c-6.3,14.3-3.3,56.9-6.9,75.5c-0.7,3.3-2.9,7.3-5.7,12.4
					c-2.8,5.1-4.9,11.4-2.7,15.2c2.3,3.9,11.6,1,14.9-4.6c3.4-5.5,1.5-18.4,2.2-21.5C163.5,250.7,176.6,209.5,176.7,202.2z"/>
				<path class="st10" d="M176.7,202.2c0-12.3-12.8-26.2-18.9-12.1c-6.3,14.3-3.3,56.9-6.9,75.5c-0.7,3.3-2.9,7.3-5.7,12.4
					c-2.8,5.1-4.9,11.4-2.7,15.2c2.3,3.9,11.6,1,14.9-4.6c3.4-5.5,1.5-18.4,2.2-21.5C163.5,250.7,176.6,209.5,176.7,202.2z"/>
				<path class="st8" d="M142.5,293.2c-2.1-3.6-0.3-9.4,2.2-14.4l-0.4,7l9.6,1.7l5.5-6.9c-0.2,3.1-0.8,6.1-2,8.1
					C154,294.1,144.7,297,142.5,293.2z"/>
				<path class="st11" d="M152.6,246.9c4.1-12.1,9.9-26.8,11.1-43c0.7-9.6-5.8-14.3-6-13.9c-0.8,1.8-1.5,4.4-2.1,7.5
					C153.2,210.2,153.4,230.4,152.6,246.9z"/>
			</g>
			<g>
				<path class="st10" d="M137.4,198.5c-3.7,6.4-12.9,48.7-17.7,64.7c-0.9,3.1-9,13.3-8.9,19.8c0.2,6.5,6.8,13.6,10.6,11.4
					c3.9-2.2,5.1-8.7,5.3-14.5c0.2-5.8,0.2-10.4,1.3-13.6c6.1-17.9,30-53.3,31.7-68.8C161.5,182.1,143.5,187.8,137.4,198.5z"/>
				<path class="st8" d="M121.5,294.4c3.7-2.1,5-8,5.2-13.6l-3.1,6.2l-9.1-3.3l-1.3-8.7c-1.3,2.8-2.3,5.6-2.3,8
					C111,289.4,117.6,296.6,121.5,294.4z"/>
			</g>
		</g>
		<g>
			<polygon class="st5" points="236.2,187.4 245.6,294.9 252.4,294.9 243,187.4 			"/>
			<polygon class="st5" points="73,187.4 63.6,294.9 56.8,294.9 66.2,187.4 			"/>
		</g>
		<g>
			<path class="st12" d="M137.1,73.2c-0.9,13.7-15,22.3-5.8,32.5c9.2,10.1,40.1,10.8,46-1.1c5.8-11.9-8.7-22.3-7.8-35.7l-28-1.4
				L137.1,73.2z"/>
			<polygon class="st13" points="136.6,109.1 124.3,142.2 128.2,181.8 180.9,181.5 183.2,145.4 168.8,109.1 			"/>
			<path class="st10" d="M146.9,89.4c0,0-0.4,13.3-1.5,15.2c-1.1,1.8-8.8,4.5-8.8,4.5s9.4,11,17.7,10.7s14.4-10.7,14.4-10.7
				s-7.1-2.2-8-4.5c-0.9-2.2-2.4-15.4-2.4-15.4L146.9,89.4z"/>
			<path class="st11" d="M160.2,102.4c-0.9-4.4-1.8-13.2-1.8-13.2l-11.5,0.2c0,0-0.1,4.3-0.4,8.4
				C149.3,100.4,153.8,102.9,160.2,102.4z"/>
			<path class="st10" d="M153.3,54.4c-13.7,0-15.4,9.4-14.2,20.7s0.5,23.2,14.9,23.2c12.6,0,13.7-13.8,13.7-23.2
				S168.3,54.4,153.3,54.4z"/>
			<path class="st8" d="M151.1,74.2c-2.7-4-6.8,0.9-6.8,0.9L151.1,74.2z"/>
			<path class="st8" d="M148.1,76.7c-0.5,0-0.9,0.4-0.9,0.9c0,0.5,0.4,0.9,0.9,0.9c0.5,0,0.9-0.4,0.9-0.9
				C149,77.1,148.6,76.7,148.1,76.7z"/>
			<path class="st8" d="M163.5,75c0,0-4.1-4.9-6.8-0.9L163.5,75z"/>
			<path class="st8" d="M159.8,76.7c0.5,0,0.9,0.4,0.9,0.9c0,0.5-0.4,0.9-0.9,0.9c-0.5,0-0.9-0.4-0.9-0.9
				C158.9,77.1,159.3,76.7,159.8,76.7z"/>
			<path class="st14" d="M154.5,78.5c-0.4,3.3,2.4,6.1,2.5,6.7c0.4,1.6-3.1,0-3.1,0"/>
			<path class="st12" d="M141.5,67.4c0,0,0.3,9.6-1.8,15.6L137.9,72L141.5,67.4z"/>
			<path class="st14" d="M151.1,88.2c0,0,2.1,4.3,5.8,0"/>
			<path class="st12" d="M145,60.3c0,0,0.2,7.3,9.3,11c9.1,3.7,14.7,2.4,14.7,2.4s2.4-15.3-3.7-19.3s-17-1.9-21.7,0.7
				c-6.6,3.6-6.6,18.1-6.6,18.1S143.8,72,145,60.3z"/>
			<path class="st10" d="M141.1,79.5c0,0-4.3-6.6-5.5-2.3s5.5,8.7,5.5,8.7V79.5z"/>
			<path class="st10" d="M166.3,79.5c0,0,4.3-6.6,5.5-2.3s-5.5,8.7-5.5,8.7V79.5z"/>
			<path class="st12" d="M163.8,67.1c0,0,1.1,9.6,3.6,15.3l1.2-11.6L163.8,67.1z"/>
			<path class="st15" d="M137.1,78.5c0,0,2.7,0.2,2.9,3.7"/>
			<path class="st15" d="M170.1,77.9c0,0-1.9,0.2-2.7,4.5"/>
			<path class="st16" d="M136.6,109.1c0,0-7,0.7-13.3,5.3c-5.3,3.8-20.1,29.1-20.4,49.9c-0.2,13.1,15.2,12.5,32.7,11.8
				C135.5,176,139,144,136.6,109.1z"/>
			<path class="st16" d="M173.7,175.7c-6.1-32.2-4.9-66.6-4.9-66.6s10.4,1.9,16.3,5.9c9.7,6.6,21.2,35.8,21.6,49.3
				C207.2,183.1,173.7,175.7,173.7,175.7z"/>
			<path class="st14" d="M135,110.7c0,0-2.1,10.4,0.1,13.9s15.9-3.6,15.9-3.6"/>
			<path class="st14" d="M157.7,121c0,0,11,6.8,15.1,4.5c4.2-2.3-2.8-15.2-2.8-15.2"/>
			<path class="st8" d="M128.8,127.7c0,0-7.3,22.4-6.1,27.3s5.5,14.4,5.5,14.4L128.8,127.7z"/>
			<path class="st8" d="M180,127.7c0,0,6.9,22.4,5.9,27.3c-1.1,4.9-5.2,14.4-5.2,14.4L180,127.7z"/>
			<g>
				<path class="st17" d="M118,144.8l3.6,34c0.2,1.7,1.6,3,3.3,3H184c1.7,0,3.1-1.3,3.3-3l3.6-34c0.2-2-1.3-3.7-3.3-3.7h-66.3
					C119.3,141.1,117.8,142.8,118,144.8z"/>
				<ellipse class="st18" cx="154.5" cy="165.1" rx="4.9" ry="3.7"/>
				<line class="st18" x1="120.4" y1="144.2" x2="188.5" y2="144.2"/>
			</g>
			<path class="st12" d="M164.9,73.7c7.5-0.2,17-10.6,2.5-10.7c-14.4-0.1-22.4-2.7-22.4-2.7L164.9,73.7z"/>
			<path class="st3" d="M147.2,58.5c0,0,7.1,10,19.5,8.9"/>
			<path class="st3" d="M150.1,57.8c0,0,3,3,12.2,4.1"/>
		</g>
		<rect x="55.7" y="181.8" class="st6" width="197.5" height="7.5"/>
		<g>
			<path class="st13" d="M209.9,162.3l2.7,17.1c0.2,1.3,1.4,2.3,2.7,2.3h8.6c1.4,0,2.5-1,2.7-2.3l2.7-17.1H209.9z"/>
			<g>
				<path class="st13" d="M223.1,177.6l-0.5-1.8l8.2-2.2c0.6-0.2,1.1-0.7,1.1-1.4v-3.9c0-0.8-0.6-1.4-1.4-1.4h-5.5V165h5.5
					c1.8,0,3.3,1.5,3.3,3.3v3.9c0,1.5-1,2.8-2.4,3.2L223.1,177.6z"/>
			</g>
		</g>
		<g>
			<g>
				<g>
					<path class="st3" d="M90.2,166.7c0,0,4.1-25.4,13.5-31.8"/>
					<path class="st3" d="M99.9,138.9c0,0,3.6,2,4.7,0.1C105.5,137.1,99.9,138.9,99.9,138.9z"/>
					<path class="st3" d="M100.9,137.5c0,0-2-5.1,0.2-5S100.9,137.5,100.9,137.5z"/>
					<path class="st3" d="M98.8,140.4c0,0,0.5-6.1-1.3-4.8C95.6,136.9,98.8,140.4,98.8,140.4z"/>
					<path class="st3" d="M97.4,143.3c0,0,4.2-3.3,4.5-1.4S97.4,143.3,97.4,143.3z"/>
					<path class="st3" d="M96.9,144.1c0,0,0.3-6.4-1.6-5.4C93.4,139.6,96.9,144.1,96.9,144.1z"/>
					<path class="st3" d="M96.3,145.3c0,0,4.6-1.8,4.5,0.1C100.7,147.4,96.3,145.3,96.3,145.3z"/>
					<path class="st3" d="M95.3,147.8c0,0,0.5-5.3-1.5-4.5S95.3,147.8,95.3,147.8z"/>
					<path class="st3" d="M94.6,149.5c0,0,4-3,4.2-0.9C99.1,150.6,94.6,149.5,94.6,149.5z"/>
					<path class="st3" d="M93.9,151.5c0,0,0-5.9-1.8-4.7S93.9,151.5,93.9,151.5z"/>
					<path class="st3" d="M93.5,152.9c0,0,2.2-3.1,3.4-1.3C98.1,153.4,93.5,152.9,93.5,152.9z"/>
					<path class="st3" d="M102.8,135.6c0,0,4.6,0.8,4.3-1.3S102.8,135.6,102.8,135.6z"/>
				</g>
				<g>
					<path class="st3" d="M90.5,160.4c0,0-3-25.6-12.1-32.4"/>
					<path class="st3" d="M82.1,132.1c0,0-3.7,1.8-4.7-0.1C76.5,130.1,82.1,132.1,82.1,132.1z"/>
					<path class="st3" d="M81.1,130.7c0,0,2.2-5,0.1-5C79,125.6,81.1,130.7,81.1,130.7z"/>
					<path class="st3" d="M83,133.7c0,0-0.3-6.1,1.6-4.7C86.4,130.4,83,133.7,83,133.7z"/>
					<path class="st3" d="M84.3,136.6c0,0-4-3.4-4.5-1.6S84.3,136.6,84.3,136.6z"/>
					<path class="st3" d="M84.8,137.5c0,0,0-6.4,1.8-5.4C88.5,133.1,84.8,137.5,84.8,137.5z"/>
					<path class="st3" d="M85.3,138.7c0,0-4.6-2-4.5-0.1S85.3,138.7,85.3,138.7z"/>
					<path class="st3" d="M86.3,141.2c0,0-0.2-5.3,1.7-4.5S86.3,141.2,86.3,141.2z"/>
					<path class="st3" d="M86.8,142.9c0,0-3.9-3.2-4.2-1.1C82.3,143.9,86.8,142.9,86.8,142.9z"/>
					<path class="st3" d="M87.4,145c0,0,0.3-5.9,2-4.6C91.2,141.7,87.4,145,87.4,145z"/>
					<path class="st3" d="M87.8,146.4c0,0-2.1-3.2-3.4-1.4S87.8,146.4,87.8,146.4z"/>
					<path class="st3" d="M79.3,128.7c0,0-4.6,0.6-4.2-1.5C75.5,125.2,79.3,128.7,79.3,128.7z"/>
				</g>
				<g>
					<path class="st3" d="M90.4,155c0,0-1.1-18.7,5.9-35.8"/>
					<path class="st3" d="M96,120.2c0,0,4.3-2,3.1-3.9C97.9,114.3,96,120.2,96,120.2z"/>
					<path class="st3" d="M95.5,121.4c0,0,0.3-5.7-1.4-4C92.3,119.1,95.5,121.4,95.5,121.4z"/>
					<path class="st3" d="M95.1,122.6c0,0,3.5-3,3.9-1.3C99.4,123,95.1,122.6,95.1,122.6z"/>
					<path class="st3" d="M94.5,124.2c0,0-0.8-5.3-2.4-3.5C90.5,122.5,94.5,124.2,94.5,124.2z"/>
					<path class="st3" d="M93.7,126.4c0,0,3.8-3.7,4.4-1.7C98.7,126.8,93.7,126.4,93.7,126.4z"/>
					<path class="st3" d="M93.3,128.6c0,0-1.1-5.9-2.6-4.2C89.2,126.1,93.3,128.6,93.3,128.6z"/>
					<path class="st3" d="M92.9,130.2c0,0,4.1-3,4.2-0.9C97.1,131.4,92.9,130.2,92.9,130.2z"/>
					<path class="st3" d="M92.4,132.2c0,0-1.1-5.4-2.4-3.7C88.6,130.3,92.4,132.2,92.4,132.2z"/>
					<path class="st3" d="M92.1,133.9c0,0,4-3.5,4.3-1.7C96.7,134,92.1,133.9,92.1,133.9z"/>
					<path class="st3" d="M91.7,135.6c0,0-1.4-5.2-2.6-3.4C87.9,134,91.7,135.6,91.7,135.6z"/>
					<path class="st3" d="M91.4,137.8c0,0,3.1-4.1,3.9-2.2C96.2,137.5,91.4,137.8,91.4,137.8z"/>
					<path class="st3" d="M91.2,139.3c0,0-0.8-5.3-2.3-3.5C87.4,137.7,91.2,139.3,91.2,139.3z"/>
					<path class="st3" d="M90.9,141.8c0,0,2.1-4.3,3.3-2.7C95.4,140.8,90.9,141.8,90.9,141.8z"/>
				</g>
				<path class="st8" d="M95.9,157.8l2.2-6.4H86l2.2,6.4l-4.7,19.5c-0.6,2.3,1.2,4.5,3.6,4.5H97c2.4,0,4.1-2.2,3.6-4.5L95.9,157.8z"
					/>
			</g>
			<line class="st3" x1="88.2" y1="157.8" x2="95.9" y2="157.8"/>
		</g>
		<g>
			<g>
				<g>
					<path class="st13" d="M166.7,76.5v8.9c0,1,0.8,1.8,1.8,1.8l0,0V74.7l0,0C167.5,74.7,166.7,75.5,166.7,76.5z"/>
					<path class="st8" d="M168.5,74.7v12.5h0c2.5,0,4.5-2,4.5-4.5v-3.4C173,76.7,171,74.7,168.5,74.7L168.5,74.7z"/>
				</g>
				<g>
					<path class="st13" d="M140.3,76.5v8.9c0,1-0.8,1.8-1.8,1.8l0,0V74.7l0,0C139.5,74.7,140.3,75.5,140.3,76.5z"/>
					<path class="st8" d="M138.5,74.7v12.5l0,0c-2.5,0-4.5-2-4.5-4.5v-3.4C134,76.7,136.1,74.7,138.5,74.7L138.5,74.7z"/>
				</g>
				<g>
					<path class="st8" d="M170,76.2l-0.9-0.1c0-0.1,0.8-11-4.9-17.1c-2.5-2.7-6-4.1-10.3-4.1c-4.6,0-8.2,1.4-10.9,4.3
						c-5.7,6.1-5.1,16.7-5.1,16.9l-0.9,0.1c0-0.5-0.6-11.1,5.4-17.5c2.9-3.1,6.8-4.6,11.6-4.6c4.6,0,8.3,1.5,11,4.4
						C170.8,64.7,170,75.7,170,76.2z"/>
				</g>
			</g>
			<g>
				<g>
					<path class="st8" d="M160.7,91l-0.1-0.5c0.1,0,7.9-1.3,9.3-6.4l0.4,0.1C168.8,89.7,161,91,160.7,91z"/>
				</g>
				<path class="st8" d="M161.2,90.7l-0.3-0.6c-0.2-0.4-0.7-0.6-1.2-0.4c-0.9,0.4-2.3,1.1-1.9,2c0.3,0.9,1.8,0.6,2.8,0.3
					C161.2,91.8,161.5,91.2,161.2,90.7z"/>
			</g>
		</g>
		<line class="st7" x1="53.4" y1="185.5" x2="255.5" y2="185.5"/>
		<g>
			<g>
				<path class="st6" d="M18,96.7v34.4c0,2,1.6,3.7,3.7,3.7h60.4c2,0,3.7-1.6,3.7-3.7V96.7c0-2-1.6-3.7-3.7-3.7H21.7
					C19.7,93,18,94.7,18,96.7z"/>
				<polyline class="st7" points="22,96.3 51.9,120.7 81.8,96.3 				"/>
			</g>
			<g>
				
					<ellipse transform="matrix(0.9871 -0.1602 0.1602 0.9871 -13.8666 14.892)" class="st19" cx="85.4" cy="93.5" rx="10.1" ry="10.1"/>
				<polyline class="st3" points="80.1,92 84.3,96.3 90.8,89.8 				"/>
			</g>
		</g>
		<line class="st20" x1="34.5" y1="294.9" x2="271.9" y2="294.9"/>
		<g>
			<path class="st8" d="M49.7,23.2v34.4c0,2,1.6,3.7,3.7,3.7h60.4c2,0,3.7-1.6,3.7-3.7V23.2c0-2-1.6-3.7-3.7-3.7H53.4
				C51.4,19.5,49.7,21.1,49.7,23.2z"/>
			<g>
				<path class="st13" d="M58.1,31.6V66c0,2,1.6,3.7,3.7,3.7h60.4c2,0,3.7-1.6,3.7-3.7V31.6c0-2-1.6-3.7-3.7-3.7H61.8
					C59.8,27.9,58.1,29.5,58.1,31.6z"/>
				<polygon class="st13" points="125.9,61.5 125.9,78.1 114,66.2 				"/>
			</g>
			<g>
				<line class="st21" x1="66.8" y1="42.6" x2="117.2" y2="42.6"/>
				<line class="st21" x1="66.8" y1="48.8" x2="117.2" y2="48.8"/>
				<line class="st21" x1="66.8" y1="55" x2="117.2" y2="55"/>
			</g>
		</g>
	</g>
	<text transform="matrix(1 0 0 1 209.8625 301.3239)" class="st22 st23 st24">Designed by Freepik</text>
</g>
</svg>
