<?xml version="1.0" encoding="utf-8"?>
<!-- Generator: Adobe Illustrator 25.1.0, SVG Export Plug-In . SVG Version: 6.00 Build 0)  -->
<svg version="1.1" xmlns="http://www.w3.org/2000/svg" xmlns:xlink="http://www.w3.org/1999/xlink" x="0px" y="0px"
	 viewBox="0 0 750 500" style="enable-background:new 0 0 750 500;" xml:space="preserve">
<style type="text/css">
	.st0{opacity:0.1;}
	.st1{clip-path:url(#SVGID_2_);fill:#B8E3DB;}
	.st2{clip-path:url(#SVGID_2_);fill:#FFCF54;}
	.st3{clip-path:url(#SVGID_2_);}
	.st4{fill:#31346B;}
	.st5{clip-path:url(#SVGID_2_);fill:#31346B;}
	.st6{clip-path:url(#SVGID_2_);fill:#F7F3EA;}
	.st7{clip-path:url(#SVGID_2_);fill:#FFFFFF;}
	.st8{clip-path:url(#SVGID_2_);fill:none;stroke:#31346B;stroke-miterlimit:10;}
	.st9{clip-path:url(#SVGID_2_);fill:none;stroke:#31346B;stroke-width:2.6604;stroke-linecap:round;stroke-miterlimit:10;}
</style>
<g id="BACKGROUND">
</g>
<g id="OBJECTS">
	<g class="st0">
		<defs>
			<rect id="SVGID_1_" x="42.5" y="28.3" class="st0" width="665.1" height="443.4"/>
		</defs>
		<clipPath id="SVGID_2_">
			<use xlink:href="#SVGID_1_"  style="overflow:visible;"/>
		</clipPath>
		<path class="st1" d="M642.6,38.9c-18.2,0-33.1,14.8-33.1,33.1s14.8,33.1,33.1,33.1c18.2,0,33.1-14.8,33.1-33.1
			S660.9,38.9,642.6,38.9z M642.6,98.6c-14.7,0-26.6-11.9-26.6-26.6c0-14.7,11.9-26.6,26.6-26.6c14.7,0,26.6,11.9,26.6,26.6
			C669.2,86.7,657.3,98.6,642.6,98.6z"/>
		
			<ellipse transform="matrix(0.9239 -0.3827 0.3827 0.9239 -60.7752 273.4466)" class="st2" cx="657" cy="289.5" rx="15.6" ry="15.6"/>
		<circle class="st2" cx="60.6" cy="395.7" r="7.5"/>
		<g class="st3">
			<path class="st4" d="M226,200.5L226,200.5c1-1,2.7-1,3.7,0l7.8,7.8c1,1,1,2.7,0,3.7l0,0c-1,1-2.7,1-3.7,0l-7.8-7.8
				C225,203.2,225,201.5,226,200.5z"/>
			<path class="st4" d="M237.5,200.5L237.5,200.5c1,1,1,2.7,0,3.7l-7.8,7.8c-1,1-2.7,1-3.7,0l0,0c-1-1-1-2.7,0-3.7l7.8-7.8
				C234.9,199.5,236.5,199.5,237.5,200.5z"/>
		</g>
		<circle class="st5" cx="91.4" cy="120.5" r="9.4"/>
		<g class="st3">
			<circle class="st4" cx="684.9" cy="387" r="2.8"/>
			<circle class="st4" cx="684.9" cy="401.7" r="2.8"/>
			<circle class="st4" cx="699.2" cy="387" r="2.8"/>
			<circle class="st4" cx="699.2" cy="401.7" r="2.8"/>
		</g>
		<g class="st3">
			<g>
				<circle class="st4" cx="460.8" cy="93.5" r="2.8"/>
				<circle class="st4" cx="460.8" cy="108.1" r="2.8"/>
				<circle class="st4" cx="475" cy="93.5" r="2.8"/>
				<circle class="st4" cx="475" cy="108.1" r="2.8"/>
			</g>
		</g>
		<circle class="st5" cx="61.9" cy="424.8" r="6.9"/>
		<circle class="st1" cx="556.8" cy="109.2" r="7.4"/>
		<circle class="st6" cx="681.6" cy="139.3" r="7.4"/>
		<circle class="st7" cx="107.8" cy="376" r="18.1"/>
		<line class="st8" x1="620.8" y1="330.8" x2="701.6" y2="250"/>
		<line class="st9" x1="239.8" y1="110.3" x2="213.7" y2="136.4"/>
		<line class="st8" x1="563.2" y1="454.5" x2="578.9" y2="438.7"/>
	</g>
</g>
</svg>
