<?xml version="1.0" encoding="utf-8"?>
<!-- Generator: Adobe Illustrator 25.1.0, SVG Export Plug-In . SVG Version: 6.00 Build 0)  -->
<svg version="1.1" id="Layer_1" xmlns="http://www.w3.org/2000/svg" xmlns:xlink="http://www.w3.org/1999/xlink" x="0px" y="0px"
	 viewBox="0 0 10 10" style="enable-background:new 0 0 10 10;" xml:space="preserve">
<style type="text/css">
	.st0{fill:#F90013;}
	.st1{fill:#45D7DE;}
</style>
<g>
	<g>
		<path class="st1" d="M9.4,1.2H0.6C0.3,1.2,0,1,0,0.6v0C0,0.3,0.3,0,0.6,0h8.8C9.7,0,10,0.3,10,0.6v0C10,1,9.7,1.2,9.4,1.2z"/>
	</g>
	<g>
		<path class="st1" d="M9.4,5.6H0.6C0.3,5.6,0,5.3,0,5v0c0-0.3,0.3-0.6,0.6-0.6h8.8C9.7,4.4,10,4.7,10,5v0C10,5.3,9.7,5.6,9.4,5.6z"
			/>
	</g>
	<g>
		<path class="st1" d="M9.4,10H0.6C0.3,10,0,9.7,0,9.4v0C0,9,0.3,8.8,0.6,8.8h8.8C9.7,8.8,10,9,10,9.4v0C10,9.7,9.7,10,9.4,10z"/>
	</g>
</g>
</svg>
