<?xml version="1.0" encoding="utf-8"?>
<!-- Generator: Adobe Illustrator 25.1.0, SVG Export Plug-In . SVG Version: 6.00 Build 0)  -->
<svg version="1.1" id="Layer_1" xmlns="http://www.w3.org/2000/svg" xmlns:xlink="http://www.w3.org/1999/xlink" x="0px" y="0px"
	 viewBox="0 0 15 16.2" style="enable-background:new 0 0 15 16.2;" xml:space="preserve">
<style type="text/css">
	.st0{fill:#4FC3CA;}
</style>
<g>
	<g>
		<g>
			<path class="st0" d="M14.4,14.7l-1.3,0.8c-0.8,0.6-4.4,1.2-9.2-4.6c-4.6-5.6-3.3-8.7-2.7-9.4l1.1-1.1C2.5,0.2,2.8,0.2,3,0.5
				l2.8,3.3l0,0C6,4,6,4.4,5.7,4.7l0,0L4.5,5.6C4,6.1,4.4,6.9,4.9,7.6l2.4,2.8c1.1,1.1,1.7,1.6,2.3,1.2l1-1.2
				c0.3-0.2,0.6-0.2,0.8,0.1l2.8,3.3l0,0C14.6,14.1,14.6,14.5,14.4,14.7z"/>
		</g>
	</g>
</g>
</svg>
