<?xml version="1.0" encoding="utf-8"?>
<!-- Generator: Adobe Illustrator 25.1.0, SVG Export Plug-In . SVG Version: 6.00 Build 0)  -->
<svg version="1.1" id="Layer_1" xmlns="http://www.w3.org/2000/svg" xmlns:xlink="http://www.w3.org/1999/xlink" x="0px" y="0px"
	 viewBox="0 0 15 20" style="enable-background:new 0 0 15 20;" xml:space="preserve">
<style type="text/css">
	.st0{fill:#4FC3CA;}
</style>
<path class="st0" d="M7.5,0.3c-3.9,0-7,3.1-7,7c0,1.4,0.4,2.8,1.2,3.9l4.1,7.3c1.6,2.4,3.1,0.4,3.1,0.4l4.4-7.7
	c0.8-1.1,1.2-2.5,1.2-3.9C14.5,3.4,11.3,0.3,7.5,0.3z M7.5,9.8c-0.8,0-1.6-0.4-2-1.1C5.2,8.3,5.1,7.8,5.1,7.3c0-1.3,1.1-2.4,2.4-2.4
	c1.3,0,2.4,1.1,2.4,2.4S8.8,9.8,7.5,9.8z"/>
</svg>
