<svg id="Layer_1" data-name="Layer 1" xmlns="http://www.w3.org/2000/svg" viewBox="0 0 62 16.2"><defs><style>.cls-1{fill:#fff;opacity:0;}.cls-2{fill:#f90013;stroke:#f90013;stroke-width:0.31px;}.cls-2,.cls-3{stroke-miterlimit:10;}.cls-3{fill:#45d7de;stroke:#45d7de;stroke-width:0.23px;}.cls-4{fill:none;}</style></defs><rect class="cls-1" width="62" height="16.2"/><path class="cls-2" d="M6.83,4.86v.4h-6v6H.39V4.86Z"/><path class="cls-2" d="M8.43,11.28V4.86h.4v6h5.62v-6h.4v6.42Z"/><path class="cls-2" d="M16.85,1.64v9.24h5.62V5.26H18.05v-.4h4.82v6.42H16.45V1.64Z"/><path class="cls-2" d="M26.89,3.66h-2.4v-.4h2.4Zm.82,1.2v6.42h-.4v-6H24.49v-.4Z"/><path class="cls-3" d="M32.19,11.32l-1.78-9h1.2l1.21,6.11L34,2.28h1.19L36.4,8.39l1.2-6.11h1.19l-1.78,9H35.75l-1.17-6-1.17,6Z"/><path class="cls-3" d="M40,11.32a.9.9,0,0,1-.65-.28.88.88,0,0,1-.28-.66V5.79A1,1,0,0,1,40,4.86h1.76a.93.93,0,0,1,.68.28.9.9,0,0,1,.28.65v2a.85.85,0,0,1-.28.65.91.91,0,0,1-.68.29H40.31v.93a.44.44,0,0,0,.14.33.51.51,0,0,0,.36.14h1.68l.28,1.22Zm.28-3.82h.75a.44.44,0,0,0,.33-.14A.47.47,0,0,0,41.53,7V6.57a.44.44,0,0,0-.14-.33.43.43,0,0,0-.33-.14h-.28a.45.45,0,0,0-.35.14.47.47,0,0,0-.14.33V7.5Z"/><path class="cls-3" d="M43.64,11.32V1.91l1.21-.28V4.86h1.48a.85.85,0,0,1,.65.28.89.89,0,0,1,.29.68v4.56A.86.86,0,0,1,47,11a.88.88,0,0,1-.65.28Zm1.21-1.2h.73a.42.42,0,0,0,.33-.14.47.47,0,0,0,.14-.32V6.54a.45.45,0,0,0-.14-.33.49.49,0,0,0-.33-.14h-.73Z"/><path class="cls-3" d="M48.22,11.32v-9h3.89a1,1,0,0,1,.94.94V10.4a.92.92,0,0,1-.28.66.88.88,0,0,1-.66.28H48.22Zm1.2-1.2h1.94a.43.43,0,0,0,.33-.14.47.47,0,0,0,.14-.32V3.94a.42.42,0,0,0-.14-.32.43.43,0,0,0-.33-.14H49.42Z"/><path class="cls-3" d="M54.87,11.32a1,1,0,0,1-.93-.94V5.79a.86.86,0,0,1,.28-.65.85.85,0,0,1,.65-.28h1.76a.93.93,0,0,1,.68.28.9.9,0,0,1,.28.65v2a.85.85,0,0,1-.28.65.91.91,0,0,1-.68.29H55.15v.93a.44.44,0,0,0,.14.33.5.5,0,0,0,.35.14h1.69l.28,1.22Zm.28-3.82h.75a.44.44,0,0,0,.33-.14A.47.47,0,0,0,56.37,7V6.57a.44.44,0,0,0-.14-.33.43.43,0,0,0-.33-.14h-.28a.45.45,0,0,0-.35.14.47.47,0,0,0-.14.33V7.5Z"/><path class="cls-3" d="M59.18,11.32,58,4.86h1.22l.61,3.23.61-3.23h1.21L60.4,11.32Z"/><rect class="cls-4" x="1.94" y="1.26" width="21.85" height="13.04"/></svg>