<svg id="Layer_1" data-name="Layer 1" xmlns="http://www.w3.org/2000/svg" viewBox="0 0 15 16.2"><defs><style>.cls-1{fill:#fff;opacity:0;}.cls-2,.cls-4,.cls-6{fill:none;}.cls-2,.cls-3,.cls-4,.cls-5,.cls-9{stroke:#1ed1d1;stroke-width:0.08px;}.cls-2,.cls-5,.cls-9{stroke-linecap:round;stroke-linejoin:round;}.cls-3,.cls-4,.cls-6,.cls-7,.cls-8{stroke-miterlimit:10;}.cls-3,.cls-9{opacity:0.15;}.cls-3,.cls-5,.cls-9{isolation:isolate;}.cls-5{opacity:0.5;}.cls-6{stroke:#f90013;stroke-width:0.15px;}.cls-7,.cls-8{fill:#45d7de;}.cls-7{stroke:#fff;stroke-width:0.06px;}.cls-8{stroke:#45d7de;stroke-width:0.02px;}</style></defs><rect class="cls-1" width="15" height="16.2"/><g id="Layer_5" data-name="Layer 5"><path class="cls-2" d="M7.65.23V.85L7.51.75l-.14.1V.21L.27,4.75v6.74L7.35,16v-.9l.16.1.14-.08V16l7.08-4.52V4.73Z"/><polygon class="cls-3" points="14.73 4.73 7.65 0.23 7.65 5.85 14.73 10.35 14.73 4.73"/><polygon class="cls-4" points="14.73 4.73 7.65 0.23 7.65 5.85 14.73 10.35 14.73 4.73"/><polygon class="cls-3" points="0.27 4.75 7.35 0.21 7.35 5.85 0.27 10.37 0.27 4.75"/><polygon class="cls-4" points="0.27 4.75 7.35 0.21 7.35 5.85 0.27 10.37 0.27 4.75"/><polygon class="cls-5" points="7.51 15.17 14.59 10.61 7.51 6.13 0.43 10.69 7.51 15.17"/><path class="cls-6" d="M4,9.93V10l-.92-.58V11L3,11V9.27Z"/><path class="cls-6" d="M4.21,11.69V10l.08.06v1.58l1,.64V10.71l.1.06v1.68Z"/><path class="cls-6" d="M5.71,10.11v2.48l.94.64V11.79l-.82-.56v-.1l.9.6v1.66l-1.12-.74V10.11Z"/><path class="cls-6" d="M7.73,12l-.5-.34v-.1l.5.34Zm.18.4v1.68L7.81,14V12.49l-.58-.4V12Z"/><polygon class="cls-7" points="12.19 8.01 7.25 4.87 7.25 8.61 12.19 11.75 12.19 8.01"/><polygon class="cls-7" points="11.03 9.29 8.07 7.37 8.07 10.07 11.03 11.99 11.03 9.29"/><polygon class="cls-7" points="7.69 8.93 6.65 8.27 6.65 10.45 7.69 11.09 7.69 8.93"/><path class="cls-8" d="M8.73,4.93,8.45,3l.22.12.22,1.26.14-1,.28.18.18,1.24.2-1L9.91,4,9.63,5.49l-.3-.16-.2-1.18L9,5.11Z"/><path class="cls-8" d="M10.13,5.83A.36.36,0,0,1,10,5.69s0-.06,0-.12v-.9a.08.08,0,0,1,0-.08.09.09,0,0,1,.1,0,.67.67,0,0,1,.26.14s.16.1.18.14a.15.15,0,0,1,0,.12l0,.36a.3.3,0,0,1,0,.14s-.06,0-.12,0l-.28-.16v.1s0,.08,0,.1,0,.06.08.08l.32.2v.28Zm0-.72a.37.37,0,0,0,.14,0h.08s0,0,0-.06V5a0,0,0,0,0,0,0s0,0-.06,0l-.06,0h-.06l0,0v.24Z"/><path class="cls-8" d="M12.69,7.45a.36.36,0,0,1-.16-.14s0-.06,0-.12v-.9a.08.08,0,0,1,0-.08.09.09,0,0,1,.1,0,.67.67,0,0,1,.26.14s.16.1.18.14a.15.15,0,0,1,0,.12l0,.36a.3.3,0,0,1,0,.14s-.06,0-.12,0L12.73,7v.1s0,.08,0,.1,0,.06.08.08l.32.2v.28Zm0-.72a.37.37,0,0,0,.14,0H13s0,0,0-.06V6.57a0,0,0,0,0,0,0s0,0-.06,0l-.06,0h-.06l0,0v.24Z"/><path class="cls-8" d="M10.73,6.21V4.49l.24.16v.46c.1.06.18.14.28.2l0,0,.06.06s0,0,0,.06a.12.12,0,0,1,0,.08v.78a.19.19,0,0,1,0,.14l0,0-.06,0h-.06a.07.07,0,0,1-.06,0Zm.24-.1.1,0h0s0,0,0,0a.07.07,0,0,0,0-.06V5.53s0,0,0,0a0,0,0,0,0,0,0l0,0s0,0,0,0l-.1,0Z"/><path class="cls-8" d="M11.53,6.71V5l.66.4s.06,0,.08.08.06,0,.06.06a.39.39,0,0,1,.06.26c0,.4,0,.78,0,1.18a.18.18,0,0,1-.06.14l-.06,0h0s0,0,0,0Zm.24-.1.24.14.06,0h0l0,0s0-.08,0-.08c0-.3,0-.6,0-.9a.3.3,0,0,0,0-.12l0,0,0,0a1.67,1.67,0,0,0-.28-.14V6.61Z"/><path class="cls-8" d="M13.41,7.93l-.16-1.38.28.18,0,.58.1-.5.24.14-.22,1.14Z"/><polygon class="cls-3" points="7.65 10.35 14.73 5.83 14.73 11.45 7.65 15.99 7.65 10.35"/><polygon class="cls-4" points="7.65 10.35 14.73 5.83 14.73 11.45 7.65 15.99 7.65 10.35"/><polygon class="cls-3" points="7.35 10.35 0.27 5.87 0.27 11.49 7.35 15.99 7.35 10.35"/><polygon class="cls-4" points="7.35 10.35 0.27 5.87 0.27 11.49 7.35 15.99 7.35 10.35"/><polygon class="cls-9" points="7.49 9.81 14.57 5.25 7.49 0.77 0.41 5.33 7.49 9.81"/><polygon class="cls-2" points="7.49 9.81 14.57 5.25 7.49 0.77 0.41 5.33 7.49 9.81"/><polygon class="cls-3" points="14.73 4.73 7.65 0.23 7.65 5.85 14.73 10.35 14.73 4.73"/><polygon class="cls-4" points="14.73 4.73 7.65 0.23 7.65 5.85 14.73 10.35 14.73 4.73"/><polygon class="cls-3" points="0.27 4.75 7.35 0.21 7.35 5.85 0.27 10.37 0.27 4.75"/><polygon class="cls-4" points="0.27 4.75 7.35 0.21 7.35 5.85 0.27 10.37 0.27 4.75"/><polygon class="cls-5" points="7.51 15.17 14.59 10.61 7.51 6.13 0.43 10.69 7.51 15.17"/><path class="cls-6" d="M4,9.93V10l-.92-.58V11L3,11V9.27Z"/><path class="cls-6" d="M4.21,11.69V10l.08.06v1.58l1,.64V10.71l.1.06v1.68Z"/><path class="cls-6" d="M5.71,10.11v2.48l.94.64V11.79l-.82-.56v-.1l.9.6v1.66l-1.12-.74V10.11Z"/><path class="cls-6" d="M7.73,12l-.5-.34v-.1l.5.34Zm.18.4v1.68L7.81,14V12.49l-.58-.4V12Z"/><polygon class="cls-7" points="12.19 8.01 7.25 4.87 7.25 8.61 12.19 11.75 12.19 8.01"/><polygon class="cls-7" points="11.03 9.29 8.07 7.37 8.07 10.07 11.03 11.99 11.03 9.29"/><polygon class="cls-7" points="7.69 8.93 6.65 8.27 6.65 10.45 7.69 11.09 7.69 8.93"/><path class="cls-8" d="M8.73,4.93,8.45,3l.22.12.22,1.26.14-1,.28.18.18,1.24.2-1L9.91,4,9.63,5.49l-.3-.16-.2-1.18L9,5.11Z"/><path class="cls-8" d="M10.13,5.83A.36.36,0,0,1,10,5.69s0-.06,0-.12v-.9a.08.08,0,0,1,0-.08.09.09,0,0,1,.1,0,.67.67,0,0,1,.26.14s.16.1.18.14a.15.15,0,0,1,0,.12l0,.36a.3.3,0,0,1,0,.14s-.06,0-.12,0l-.28-.16v.1s0,.08,0,.1,0,.06.08.08l.32.2v.28Zm0-.72a.37.37,0,0,0,.14,0h.08s0,0,0-.06V5a0,0,0,0,0,0,0s0,0-.06,0l-.06,0h-.06l0,0v.24Z"/><path class="cls-8" d="M12.69,7.45a.36.36,0,0,1-.16-.14s0-.06,0-.12v-.9a.08.08,0,0,1,0-.08.09.09,0,0,1,.1,0,.67.67,0,0,1,.26.14s.16.1.18.14a.15.15,0,0,1,0,.12l0,.36a.3.3,0,0,1,0,.14s-.06,0-.12,0L12.73,7v.1s0,.08,0,.1,0,.06.08.08l.32.2v.28Zm0-.72a.37.37,0,0,0,.14,0H13s0,0,0-.06V6.57a0,0,0,0,0,0,0s0,0-.06,0l-.06,0h-.06l0,0v.24Z"/><path class="cls-8" d="M10.73,6.21V4.49l.24.16v.46c.1.06.18.14.28.2l0,0,.06.06s0,0,0,.06a.12.12,0,0,1,0,.08v.78a.19.19,0,0,1,0,.14l0,0-.06,0h-.06a.07.07,0,0,1-.06,0Zm.24-.1.1,0h0s0,0,0,0a.07.07,0,0,0,0-.06V5.53s0,0,0,0a0,0,0,0,0,0,0l0,0s0,0,0,0l-.1,0Z"/><path class="cls-8" d="M11.53,6.71V5l.66.4s.06,0,.08.08.06,0,.06.06a.39.39,0,0,1,.06.26c0,.4,0,.78,0,1.18a.18.18,0,0,1-.06.14l-.06,0h0s0,0,0,0Zm.24-.1.24.14.06,0h0l0,0s0-.08,0-.08c0-.3,0-.6,0-.9a.3.3,0,0,0,0-.12l0,0,0,0a1.67,1.67,0,0,0-.28-.14V6.61Z"/><path class="cls-8" d="M13.41,7.93l-.16-1.38.28.18,0,.58.1-.5.24.14-.22,1.14Z"/><polygon class="cls-3" points="7.65 10.35 14.73 5.83 14.73 11.45 7.65 15.99 7.65 10.35"/><polygon class="cls-4" points="7.65 10.35 14.73 5.83 14.73 11.45 7.65 15.99 7.65 10.35"/><polygon class="cls-3" points="7.35 10.35 0.27 5.87 0.27 11.49 7.35 15.99 7.35 10.35"/><polygon class="cls-4" points="7.35 10.35 0.27 5.87 0.27 11.49 7.35 15.99 7.35 10.35"/><polygon class="cls-9" points="7.49 9.81 14.57 5.25 7.49 0.77 0.41 5.33 7.49 9.81"/><polygon class="cls-2" points="7.49 9.81 14.57 5.25 7.49 0.77 0.41 5.33 7.49 9.81"/></g></svg>