<?xml version="1.0" encoding="utf-8"?>
<!-- Generator: Adobe Illustrator 25.1.0, SVG Export Plug-In . SVG Version: 6.00 Build 0)  -->
<svg version="1.1" id="OBJECTS" xmlns="http://www.w3.org/2000/svg" xmlns:xlink="http://www.w3.org/1999/xlink" x="0px" y="0px"
	 viewBox="0 0 328.1 248" style="enable-background:new 0 0 328.1 248;" xml:space="preserve">
<style type="text/css">
	.st0{fill:none;stroke:#ADBBF9;stroke-width:0.5884;stroke-linejoin:round;stroke-miterlimit:10;stroke-dasharray:2.0594,2.0594;}
	.st1{fill:#E4E9F9;}
	.st2{fill:#FFFFFF;stroke:#ADBBF9;stroke-width:0.5884;stroke-linejoin:round;stroke-miterlimit:10;}
	.st3{fill:none;stroke:#ADBBF9;stroke-width:0.5884;stroke-linejoin:round;stroke-miterlimit:10;}
	.st4{fill:#FFFFFF;}
	.st5{fill:#ADBBF9;}
	.st6{fill:#849CF4;}
	.st7{fill:none;stroke:#4643BF;stroke-width:0.5884;stroke-miterlimit:10;}
	.st8{clip-path:url(#SVGID_2_);}
	.st9{fill:url(#SVGID_3_);}
	.st10{fill:url(#SVGID_4_);}
	.st11{fill:#D3DBF4;}
	.st12{fill:none;stroke:#FFFFFF;stroke-width:0.5884;stroke-miterlimit:10;}
	.st13{fill:#E3EAFC;}
	.st14{fill:#F0F1FF;}
	.st15{fill:#C2CFEF;}
	.st16{fill:none;stroke:#D3DBF4;stroke-width:0.5884;stroke-miterlimit:10;}
	.st17{fill:none;stroke:#849CF4;stroke-width:0.5884;stroke-miterlimit:10;}
	.st18{fill:#FFCBBD;}
	.st19{fill:#18277A;}
	.st20{fill:none;stroke:#121649;stroke-width:0.4413;stroke-miterlimit:10;}
	.st21{fill:#0D219B;}
	.st22{fill:#0E32AE;}
	.st23{fill:#212237;}
	.st24{fill:none;stroke:#E88872;stroke-width:0.2942;stroke-linejoin:round;stroke-miterlimit:10;}
	.st25{fill:#28364C;}
	.st26{fill:none;stroke:#28364C;stroke-width:0.4413;stroke-miterlimit:10;}
	.st27{fill:none;stroke:#525BCE;stroke-width:0.4413;stroke-miterlimit:10;}
	.st28{fill:#F49C8E;}
	.st29{fill:none;stroke:#0E32AE;stroke-width:0.5884;stroke-miterlimit:10;}
	.st30{fill:#E23917;}
	.st31{fill:#F7471E;}
	.st32{fill:none;stroke:#B22B19;stroke-width:0.4413;stroke-miterlimit:10;}
	.st33{fill:#4A1A1A;}
	.st34{fill:none;stroke:#28364C;stroke-width:0.2942;stroke-linecap:round;stroke-miterlimit:10;}
	.st35{fill:#E88872;}
	.st36{fill:#CECECE;}
	.st37{font-family:'MyriadPro-Regular';}
	.st38{font-size:7.0608px;}
</style>
<g>
	<g>
		<g>
			<path class="st0" d="M121.2,199.2c-3.4-11.7-13.1-20.7-25.6-21c-7.3-0.2-14.3,2.9-20.5,6.5c-8.4,4.8-18.2,10.6-28.2,9.1
				c-6.4-0.9-14-4.5-15.5-12c-1.6-7.9,4.8-13.3,11.6-16.4c5.8-2.7,14-9.2,16.6-15.4C69.9,125.4,40.9,97.3,49,69.3
				C57.6,40,97.3,35,117.2,54.9c1.9,1.9,3.7,3.9,5.3,6.1c4.1,5.4,6.5,12.8,12.1,16.8c7.3,5.2,16.8,3.6,24.7,0.5
				c15.1-6,19.1-9.9,33.8-16.3c10.6-4.6,23.7-8.7,35.6-4.6c8.5,2.9,18,8.2,22.7,15.9c8.9,14.2,4.9,29.5,18.9,49.7
				c6.4,9.2,16.5,11.7,24.5,18.3c20.9,17.2,13.9,53.3-8.9,65.7c-18.7,10.2-41.7,7.8-62,5.2c-1.6-0.2-3.1-0.4-4.7-0.6"/>
			<path class="st1" d="M269.1,65.8c1.8-2,3.3-4.2,4.6-6.7c1.3-2.5,2.3-5,2.9-7.6l-7-2.5c0.6-2.4,0.8-4.8,0.7-7.2l7.3-1.1
				c-0.4-5.4-2-10.7-4.8-15.4l-6.7,3.2c-1.3-2-2.8-3.9-4.6-5.6l4.4-6c-2-1.8-4.2-3.3-6.7-4.6c-2.5-1.3-5-2.3-7.6-2.9l-2.5,7
				c-2.4-0.6-4.8-0.8-7.2-0.7l-1.1-7.3c-5.4,0.4-10.7,2-15.4,4.8l3.2,6.7c-2,1.3-3.9,2.8-5.6,4.6l-6-4.4c-1.8,2-3.3,4.2-4.6,6.7
				c-1.3,2.5-2.3,5-2.9,7.6l7,2.5c-0.6,2.4-0.8,4.8-0.7,7.2l-7.3,1.1c0.4,5.4,2,10.7,4.8,15.4l6.7-3.2c1.3,2,2.8,3.9,4.6,5.6l-4.4,6
				c2,1.8,4.2,3.3,6.7,4.6c2.5,1.3,5,2.3,7.6,2.9l2.5-7c2.4,0.6,4.8,0.8,7.2,0.7l1.1,7.3c5.4-0.4,10.7-2,15.4-4.8l-3.2-6.7
				c2-1.3,3.9-2.8,5.6-4.6L269.1,65.8z M235,58.3c-8.5-4.5-11.7-14.9-7.2-23.4c4.5-8.5,14.9-11.7,23.4-7.2
				c8.5,4.5,11.7,14.9,7.2,23.4C253.9,59.5,243.5,62.7,235,58.3z M237.3,53.8c-6-3.2-8.3-10.6-5.1-16.6c3.2-6,10.6-8.3,16.6-5.1
				c6,3.2,8.3,10.6,5.1,16.6C250.8,54.7,243.4,57,237.3,53.8z"/>
			<path class="st1" d="M111.1,82.6c1-1.3,1.8-2.8,2.4-4.4c0.6-1.6,1.1-3.2,1.3-4.8l-4.4-1.1c0.2-1.5,0.2-3,0-4.5l4.4-1.1
				c-0.6-3.3-1.9-6.5-3.9-9.2l-3.9,2.4c-0.9-1.2-2-2.3-3.2-3.2l2.3-3.9c-1.3-1-2.8-1.8-4.4-2.4c-1.6-0.6-3.2-1.1-4.8-1.3l-1.1,4.4
				c-1.5-0.2-3-0.2-4.5,0l-1.1-4.4c-3.3,0.6-6.5,1.9-9.2,3.9l2.4,3.9c-1.2,0.9-2.3,2-3.2,3.2l-3.9-2.3c-1,1.3-1.8,2.8-2.4,4.4
				c-0.6,1.6-1.1,3.2-1.3,4.8l4.4,1.1c-0.2,1.5-0.2,3,0,4.5l-4.4,1.1c0.6,3.3,1.9,6.5,3.9,9.2l3.9-2.4c0.9,1.2,2,2.3,3.2,3.2
				l-2.3,3.9c1.3,1,2.8,1.8,4.4,2.4c1.6,0.6,3.2,1.1,4.8,1.3l1.1-4.4c1.5,0.2,3,0.2,4.5,0l1.1,4.4c3.3-0.6,6.5-1.9,9.2-3.9l-2.4-3.9
				c1.2-0.9,2.3-2,3.2-3.2L111.1,82.6z M89.6,80c-5.5-2.2-8.1-8.5-5.9-14c2.2-5.5,8.5-8.1,14-5.9c5.5,2.2,8.1,8.5,5.9,14
				C101.3,79.6,95.1,82.2,89.6,80z M90.8,77.1c-3.9-1.6-5.8-6-4.2-9.9c1.6-3.9,6-5.8,9.9-4.2c3.9,1.6,5.8,6,4.2,9.9
				C99.1,76.8,94.7,78.7,90.8,77.1z"/>
			<path class="st1" d="M128.7,41.8c0.8-0.9,1.4-1.8,2-2.9s1-2.2,1.3-3.3l-3-1.1c0.2-1,0.3-2.1,0.3-3.1l3.2-0.5
				c-0.2-2.4-0.9-4.6-2.1-6.7l-2.9,1.4c-0.6-0.9-1.2-1.7-2-2.4l1.9-2.6c-0.9-0.8-1.8-1.4-2.9-2c-1.1-0.6-2.2-1-3.3-1.3l-1.1,3
				c-1-0.2-2.1-0.3-3.1-0.3l-0.5-3.2c-2.4,0.2-4.6,0.9-6.7,2.1l1.4,2.9c-0.9,0.6-1.7,1.2-2.4,2l-2.6-1.9c-0.8,0.9-1.4,1.8-2,2.9
				c-0.6,1.1-1,2.2-1.3,3.3l3,1.1c-0.2,1-0.3,2.1-0.3,3.1l-3.2,0.5c0.2,2.4,0.9,4.6,2.1,6.7l2.9-1.4c0.6,0.9,1.2,1.7,2,2.4l-1.9,2.6
				c0.9,0.8,1.8,1.4,2.9,2c1.1,0.6,2.2,1,3.3,1.3l1.1-3c1,0.2,2.1,0.3,3.1,0.3l0.5,3.2c2.4-0.2,4.6-0.9,6.7-2.1l-1.4-2.9
				c0.9-0.6,1.7-1.2,2.4-2L128.7,41.8z M114.9,36.6c-2.6-1.4-3.6-4.7-2.3-7.3c1.4-2.6,4.7-3.6,7.3-2.3c2.6,1.4,3.6,4.7,2.3,7.3
				C120.8,37,117.5,38,114.9,36.6z"/>
			<path class="st2" d="M57.6,88.7c0-0.4-0.1-0.8-0.1-1.3c-0.4-3.7-2.9-3.3-4.5-3.2c-1.6,0.1-3.5,0.2-4.2-1.5
				c-0.3-0.7-0.3-1.6-0.5-2.4c-0.5-1.8-2-2.8-3.6-2.8c-1.5,0-2.9,0.9-4.2,1.9c-0.6,0.6-1.4,1.2-2.1,1c-0.5-0.1-0.9-0.6-1.2-1.1
				c-1.8-2.9-1.8-7.1-3.7-9.8c-2.2-3-6.2-3.1-8.9-0.9c-2.7,2.2-4.3,6.1-5,10c-0.2,1.3-0.4,2.7-1.2,3.5c-1.1,1.2-2.8,0.8-4.3,0.7
				c-1.7-0.2-3.6,0.1-5,1.4c-1.2,1-1.9,2.9-1.8,4.6H57.6z"/>
			<path class="st2" d="M158.4,25.4h49.5c0,0-2-2.3-4.2-3.1c-2.8-1-4,1.8-5.8-1.8c-1-2-1.7-4.7-4.3-5.4c-4.1-1.1-5.2,2.3-7.1,1.4
				c-1.7-0.8-1.7-4-3.4-6.7c-1.7-2.6-5.8-4.3-8.7-2.9c-5.2,2.5-4.5,6.5-6.2,7.8c-1.7,1.3-5.5-3.3-9.8,1.7
				C155.4,19.8,158.4,25.4,158.4,25.4z"/>
			<path class="st3" d="M210.1,8.4c0,1.2-1,2.2-2.2,2.2c-1.2,0-2.2-1-2.2-2.2c0-1.2,1-2.2,2.2-2.2C209.1,6.2,210.1,7.2,210.1,8.4z"
				/>
			<path class="st3" d="M249.5,93.5c0,1.2-1,2.2-2.2,2.2c-1.2,0-2.2-1-2.2-2.2c0-1.2,1-2.2,2.2-2.2
				C248.5,91.3,249.5,92.3,249.5,93.5z"/>
			<path class="st3" d="M69.4,37.8c0,1.2-1,2.2-2.2,2.2C66,40,65,39,65,37.8c0-1.2,1-2.2,2.2-2.2C68.4,35.6,69.4,36.6,69.4,37.8z"/>
			<path class="st3" d="M95.1,27.9c0,0.8-0.7,1.5-1.5,1.5s-1.5-0.7-1.5-1.5c0-0.8,0.7-1.5,1.5-1.5S95.1,27.1,95.1,27.9z"/>
			<circle class="st3" cx="228.4" cy="83.6" r="1.5"/>
			<path class="st3" d="M288,46.4c0,0.8-0.7,1.5-1.5,1.5c-0.8,0-1.5-0.7-1.5-1.5c0-0.8,0.7-1.5,1.5-1.5
				C287.3,44.9,288,45.6,288,46.4z"/>
			<path class="st3" d="M284.8,154.6c0,0.8-0.7,1.5-1.5,1.5c-0.8,0-1.5-0.7-1.5-1.5c0-0.8,0.7-1.5,1.5-1.5
				C284.2,153.2,284.8,153.8,284.8,154.6z"/>
			<path class="st3" d="M55.5,168.8c0,0.8-0.7,1.5-1.5,1.5s-1.5-0.7-1.5-1.5c0-0.8,0.7-1.5,1.5-1.5S55.5,168,55.5,168.8z"/>
			<path class="st3" d="M60,101.3c0,0.8-0.7,1.5-1.5,1.5c-0.8,0-1.5-0.7-1.5-1.5c0-0.8,0.7-1.5,1.5-1.5C59.3,99.8,60,100.5,60,101.3
				z"/>
			<path class="st1" d="M40.5,179.4h-2c-0.4,0-0.6-0.3-0.6-0.6v-2c0-0.4,0.3-0.6,0.6-0.6h2c0.4,0,0.6,0.3,0.6,0.6v2
				C41.2,179.1,40.9,179.4,40.5,179.4z"/>
			<path class="st1" d="M37.1,59h-2c-0.4,0-0.6-0.3-0.6-0.6v-2c0-0.4,0.3-0.6,0.6-0.6h2c0.4,0,0.6,0.3,0.6,0.6v2
				C37.7,58.7,37.5,59,37.1,59z"/>
			<path class="st1" d="M291.1,35.6h-3.8c-0.7,0-1.2-0.6-1.2-1.2v-3.8c0-0.7,0.6-1.2,1.2-1.2h3.8c0.7,0,1.2,0.6,1.2,1.2v3.8
				C292.3,35.1,291.8,35.6,291.1,35.6z"/>
			<path class="st1" d="M255.6,130.4h-2c-0.4,0-0.6-0.3-0.6-0.6v-2c0-0.4,0.3-0.6,0.6-0.6h2c0.4,0,0.6,0.3,0.6,0.6v2
				C256.3,130.1,256,130.4,255.6,130.4z"/>
			<path class="st2" d="M210.6,106.9c0-0.3,0-0.6,0.1-0.9c0.3-2.6,2.4-2.4,3.7-2.3c1.3,0.1,2.9,0.1,3.5-1.1c0.3-0.5,0.3-1.2,0.4-1.7
				c0.4-1.3,1.7-2,2.9-2c1.2,0,2.4,0.6,3.4,1.4c3.3,2.5,4.2-4.1,5.8-6c1.8-2.2,5.1-3.4,7.3-1.8c2.2,1.6,3.5,4.4,4.1,7.2
				c0.2,0.9,0.3,2,1,2.5c2.2,1.5,5-1.4,7.6,0.8c0.9,0.8,1.1,2.7,1,3.9H210.6z"/>
		</g>
		<g>
			<g>
				<path class="st4" d="M48.5,241.4c-7.4-11.1-22.8-39.2-9.4-48.9c7.4-5.3,17.1-0.5,21.8,11.2c4.5,11.1,6.2,24.3,8.1,37.5"/>
				<g>
					<path class="st5" d="M48.7,241.3c-3.6-5.5-6.8-11.3-9.5-17.3c-1.5-3.5-2.9-7-3.8-10.7c-0.9-3.3-1.4-6.6-1.3-10
						c0.1-3,0.9-6,2.8-8.3c2-2.5,5-4.2,8.2-4.4c3.5-0.2,6.8,1.5,9.3,3.8c3.4,3.1,5.5,7.1,7,11.3c3.7,10.1,5.2,20.9,6.7,31.5
						c0.2,1.4,0.4,2.8,0.6,4.1c0,0.3,0.5,0.2,0.5-0.1c-1.6-11.1-2.9-22.4-6.5-33.2c-1.5-4.5-3.3-8.9-6.4-12.4
						c-2.4-2.7-5.5-4.8-9.1-5.4c-3.2-0.5-6.4,0.5-9,2.6c-2.3,1.9-3.7,4.6-4.3,7.5c-0.7,3.2-0.4,6.5,0.2,9.7
						c0.7,3.7,1.9,7.4,3.3,10.9c2.6,6.6,6,13,9.9,19c0.4,0.6,0.7,1.1,1.1,1.7C48.5,241.7,48.8,241.5,48.7,241.3L48.7,241.3z"/>
				</g>
			</g>
			<line class="st2" x1="42.9" y1="190.8" x2="60.3" y2="241.5"/>
			<g>
				<path class="st4" d="M19,241.4c-6.4-8.2-20.3-29-8.7-36.2c6.3-3.9,14.2-0.4,18.2,8.3c3.9,8.2,5.3,18,6.9,27.8"/>
				<g>
					<path class="st5" d="M19.1,241.3c-3-4-5.9-8.2-8.2-12.6c-2.5-4.6-4.9-9.8-4.8-15.1c0-2.2,0.6-4.4,2-6.1c1.6-2,4.2-3.3,6.8-3.5
						c6.6-0.6,11.4,5.1,13.8,10.5c3.3,7.5,4.7,15.7,6.1,23.8c0.2,1,0.3,2.1,0.5,3.1c0.1,0.3,0.5,0.2,0.5-0.1
						c-1.4-8.5-2.6-17.2-5.8-25.2c-1.3-3.3-3-6.5-5.6-8.9c-2.1-1.9-4.7-3.4-7.5-3.6c-5-0.5-9.9,2.8-10.9,7.8
						c-1,5.1,1.2,10.6,3.4,15.1c2.4,5,5.4,9.6,8.8,14c0.3,0.4,0.6,0.8,0.9,1.2C19,241.7,19.2,241.5,19.1,241.3L19.1,241.3z"/>
				</g>
			</g>
			<line class="st2" x1="13.5" y1="204" x2="28.5" y2="241.5"/>
			<path class="st2" d="M93.4,241.3c-17.4-31.6-28.7-63-14.6-77.9c13.9-14.8,28.5,2.7,32.1,18.2c4.3,19,5,39.5,4.9,59.7"/>
			<line class="st3" x1="83.9" y1="159.6" x2="104.9" y2="241.3"/>
			<g>
				<path class="st4" d="M67.2,241.4c-6.9-16.7-22.5-50.6-11.5-61c7-6.7,19.7,1.5,26.2,16.1c6.2,13.9,8.1,28.2,11.8,44.7"/>
				<g>
					<path class="st5" d="M67.4,241.4c-3.3-8.2-6.9-16.2-9.8-24.6c-1.6-4.5-3-9-4-13.7c-0.9-4-1.6-8.2-1.5-12.3
						c0.1-3.2,0.7-6.6,2.8-9.2c2.2-2.8,5.6-3.8,9-3.1c4.2,1,7.9,3.9,10.7,7.1c3.9,4.3,6.5,9.4,8.6,14.7c4.5,11.6,6.6,24,9.2,36.1
						c0.3,1.6,0.7,3.2,1.1,4.8c0.1,0.3,0.5,0.2,0.5-0.1c-2.8-12.6-4.7-25.5-9-37.8c-2-5.6-4.3-11-7.9-15.7c-2.8-3.6-6.3-7-10.6-8.8
						c-3.2-1.3-7-1.6-9.9,0.6c-2.6,1.9-3.9,4.9-4.5,7.9c-0.7,3.8-0.3,7.8,0.3,11.6c0.8,4.7,2,9.3,3.5,13.9
						c2.9,8.9,6.5,17.5,10.1,26.1c0.4,0.9,0.8,1.8,1.1,2.7C67.1,241.7,67.5,241.6,67.4,241.4L67.4,241.4z"/>
				</g>
			</g>
			<g>
				<path class="st4" d="M202.4,241.3c-5.9-67.3,8.4-91.9,24.1-93c7.4-0.5,29.1,3.7,2.9,93"/>
				<g>
					<path class="st5" d="M202.5,241.3c-0.5-7.2-1-14.3-1.2-21.5c-0.2-6-0.1-12.1,0.2-18.1c0.5-9.3,1.5-18.7,3.9-27.7
						c1.6-6,3.8-12,7.5-17c2.5-3.4,5.7-6.4,9.8-7.7c2.1-0.7,4.4-1,6.6-0.7c1.9,0.3,3.7,1.1,5.3,2.3c2.2,1.8,3.8,4.3,4.8,7
						c1.7,4.5,2.3,9.4,2.4,14.1c0.3,7.8-0.6,15.7-1.8,23.4c-1.8,11.9-4.6,23.6-7.8,35.2c-1,3.5-2,7.1-2.9,10.6
						c-0.1,0.2,0.3,0.3,0.3,0.1c2.2-7,4.1-14.1,5.8-21.2c1.4-5.9,2.7-11.8,3.8-17.7c1.6-8.6,2.8-17.4,3-26.1
						c0.1-5.4-0.2-10.9-1.7-16.1c-0.9-3.1-2.2-6.2-4.5-8.5c-1.5-1.5-3.4-2.7-5.5-3.2c-1.8-0.5-3.6-0.5-5.5-0.2
						c-4,0.6-7.5,2.8-10.3,5.7c-3.9,4.1-6.4,9.3-8.2,14.6c-2.8,8-4.2,16.5-4.9,24.9c-1.1,12.3-1,24.7-0.2,37
						c0.2,3.6,0.5,7.2,0.9,10.8C202.3,241.5,202.5,241.5,202.5,241.3L202.5,241.3z"/>
				</g>
			</g>
			<line class="st2" x1="229.5" y1="148.4" x2="215.7" y2="241.3"/>
			<g>
				<path class="st4" d="M248.6,241.3c4.8-40,20.9-63.1,35.5-56.8c11.9,5.1,5.8,27.4-12.8,56.8"/>
				<g>
					<path class="st5" d="M248.7,241.4c1-6.5,2-12.9,3.5-19.2c1.3-5.4,3-10.7,5.2-15.9c1.7-4.2,3.8-8.3,6.4-12
						c2-2.9,4.4-5.7,7.3-7.7c2.3-1.6,4.9-2.7,7.7-2.8c2.6-0.1,5.4,0.7,7.5,2.4c2.2,1.8,3.2,4.5,3.6,7.2c0.4,3.8-0.2,7.6-1.2,11.3
						c-1.3,5.1-3.3,9.9-5.5,14.7c-2.8,6-6,11.7-9.3,17.3c-0.9,1.5-1.9,3.1-2.8,4.6c-0.1,0.2,0.2,0.4,0.3,0.2
						c3.9-5.9,7.4-12.1,10.5-18.4c2.5-5,4.8-10.2,6.4-15.6c1.2-3.9,2.1-8,2.1-12.2c-0.1-2.9-0.7-5.9-2.6-8.2c-1.7-2.1-4.4-3.3-7-3.7
						c-2.7-0.4-5.4,0.3-7.8,1.5c-3,1.5-5.4,3.9-7.5,6.4c-2.8,3.3-5,7.1-6.8,11c-5.1,10.6-7.9,22.4-9.6,34c-0.2,1.7-0.5,3.4-0.6,5.1
						C248.5,241.4,248.7,241.5,248.7,241.4L248.7,241.4z"/>
				</g>
			</g>
			<line class="st2" x1="284.1" y1="184.5" x2="260.3" y2="241.3"/>
			<line class="st2" x1="59.5" y1="178.3" x2="80.8" y2="241.5"/>
			<g>
				<path class="st4" d="M250.4,241.4c9.4-20,28.4-65.6,14.1-81.8c-7.9-8.9-22.3,2-29.9,21.6c-7.2,18.6-12.7,37.8-17.2,59.9"/>
				<g>
					<path class="st5" d="M250.5,241.5c2.2-4.6,4.3-9.3,6.2-14c2.4-5.7,4.6-11.5,6.5-17.4c2-6.1,3.8-12.2,5-18.5
						c1.1-5.6,1.8-11.3,1.5-16.9c-0.2-4.6-1.1-9.3-3.6-13.2c-1.1-1.7-2.6-3.4-4.5-4.3c-1.8-0.9-3.8-1.1-5.8-0.7
						c-5.2,1-9.6,5.1-12.8,9.1c-2.2,2.8-4.1,5.8-5.8,8.9c-1.9,3.6-3.3,7.3-4.7,11.1c-2.9,7.8-5.5,15.6-7.8,23.6
						c-2.4,8.4-4.5,16.8-6.4,25.4c-0.5,2.2-0.9,4.4-1.4,6.6c-0.1,0.3,0.4,0.4,0.5,0.1c1.7-8.5,3.7-17,5.9-25.4
						c2.1-7.9,4.5-15.7,7.2-23.5c2.6-7.4,5.2-14.9,9.3-21.6c3.1-5,7.2-10,12.5-12.6c1.9-0.9,4.1-1.5,6.2-1.3c2.1,0.2,4,1.4,5.4,2.9
						c3,3.3,4.4,7.8,4.9,12.2c0.6,5.4,0.2,10.9-0.7,16.2c-1,6.1-2.5,12.1-4.3,17.9c-1.8,5.9-3.9,11.7-6.2,17.5c-2,5-4.1,10-6.4,14.9
						c-0.4,1-0.9,2-1.4,2.9C250.1,241.5,250.4,241.7,250.5,241.5L250.5,241.5z"/>
				</g>
			</g>
			<line class="st2" x1="260.3" y1="156.8" x2="235.1" y2="241.5"/>
			<g>
				<path class="st4" d="M267,241.3c12.4-25.2,23.2-31.9,33.3-29.8c7.9,1.6,9.1,13.2-7.5,29.8"/>
				<g>
					<path class="st5" d="M267.1,241.4c2.2-3.9,4.1-7.8,6.5-11.6c1.9-3,3.9-5.9,6.2-8.6c3.2-3.7,7-7.2,11.6-8.9c1.8-0.6,3.6-1,5.5-1
						c1.7,0,3.6,0.2,5.1,0.9c3.4,1.7,4,5.7,3.3,9.1c-0.5,2.8-1.7,5.4-3.2,7.8c-2,3.4-4.5,6.5-7.1,9.4c-0.8,0.9-1.6,1.8-2.5,2.6
						c-0.2,0.2,0.1,0.4,0.3,0.3c3.2-3,6.1-6.4,8.5-10c1.7-2.6,3.2-5.4,4.1-8.4c1-3.5,1.2-8-2-10.4c-1.4-1.1-3-1.4-4.7-1.6
						c-1.9-0.2-3.8-0.1-5.6,0.4c-4.6,1.1-8.6,4.1-11.8,7.5c-5.3,5.5-9.3,12.2-12.8,19c-0.6,1.1-1.1,2.2-1.6,3.4
						C266.9,241.4,267.1,241.5,267.1,241.4L267.1,241.4z"/>
				</g>
			</g>
			<line class="st2" x1="299.4" y1="211.6" x2="280.4" y2="241.3"/>
		</g>
		<g>
			<g>
				<path class="st6" d="M112.4,241.2c-3,0-5.5-2.5-5.5-5.5V41.3c0-3,2.5-5.5,5.5-5.5h103.3c3,0,5.5,2.5,5.5,5.5v194.4
					c0,3-2.5,5.5-5.5,5.5H112.4z"/>
				<path class="st6" d="M215.7,36.1c2.9,0,5.2,2.3,5.2,5.2v194.4c0,2.9-2.3,5.2-5.2,5.2H112.4c-2.9,0-5.2-2.3-5.2-5.2V41.3
					c0-2.9,2.3-5.2,5.2-5.2H215.7 M215.7,35.5H112.4c-3.2,0-5.8,2.6-5.8,5.8v194.4c0,3.2,2.6,5.8,5.8,5.8h103.3
					c3.2,0,5.8-2.6,5.8-5.8V41.3C221.4,38.1,218.9,35.5,215.7,35.5L215.7,35.5z"/>
			</g>
			<g>
				<path class="st7" d="M169.3,232c0,2.9-2.3,5.2-5.2,5.2c-2.9,0-5.2-2.3-5.2-5.2c0-2.9,2.3-5.2,5.2-5.2
					C166.9,226.8,169.3,229.1,169.3,232z"/>
			</g>
			<g>
				<defs>
					<path id="SVGID_1_" d="M215.7,241.5H112.4c-3.2,0-5.8-2.6-5.8-5.8V41.3c0-3.2,2.6-5.8,5.8-5.8h103.3c3.2,0,5.8,2.6,5.8,5.8
						v194.4C221.4,238.9,218.9,241.5,215.7,241.5z"/>
				</defs>
				<clipPath id="SVGID_2_">
					<use xlink:href="#SVGID_1_"  style="overflow:visible;"/>
				</clipPath>
				<g class="st8">
					<linearGradient id="SVGID_3_" gradientUnits="userSpaceOnUse" x1="74.642" y1="216.0241" x2="246.8653" y2="43.8008">
						<stop  offset="0.2704" style="stop-color:#FFFFFF;stop-opacity:0.1"/>
						<stop  offset="1" style="stop-color:#FFFFFF;stop-opacity:0.3"/>
					</linearGradient>
					<polygon class="st9" points="191.2,13.1 105.3,246.7 130.3,246.7 216.2,13.1 					"/>
					<linearGradient id="SVGID_4_" gradientUnits="userSpaceOnUse" x1="103.7472" y1="212.4271" x2="268.7763" y2="47.3979">
						<stop  offset="0.2704" style="stop-color:#FFFFFF;stop-opacity:0.1"/>
						<stop  offset="1" style="stop-color:#FFFFFF;stop-opacity:0.3"/>
					</linearGradient>
					<polygon class="st10" points="223.9,13.1 138,246.7 148.6,246.7 234.5,13.1 					"/>
				</g>
			</g>
			<rect x="107.5" y="54.7" class="st4" width="113" height="167.6"/>
			<g>
				<path class="st7" d="M157.6,44h15.9c0.4,0,0.6,0.3,0.6,0.6l0,0c0,0.4-0.3,0.6-0.6,0.6h-15.9c-0.4,0-0.6-0.3-0.6-0.6l0,0
					C156.9,44.3,157.2,44,157.6,44z"/>
				<circle class="st7" cx="154" cy="44.7" r="0.7"/>
			</g>
			<g>
				<g>
					<rect x="115.2" y="119.6" class="st11" width="48.8" height="49.3"/>
					<g>
						
							<ellipse transform="matrix(0.1593 -0.9872 0.9872 0.1593 -17.9946 253.1441)" class="st12" cx="139.6" cy="137.1" rx="10.1" ry="10.1"/>
						<ellipse class="st12" cx="139.6" cy="137.1" rx="7" ry="10.1"/>
						<ellipse class="st12" cx="139.6" cy="137.1" rx="2.7" ry="10.1"/>
						<line class="st12" x1="129.5" y1="137.1" x2="149.7" y2="137.1"/>
						<path class="st12" d="M130.6,141.6c1.9-0.6,5.3-1.1,9-1.1c3.8,0,7.1,0.4,9,1.1"/>
						<path class="st12" d="M133.5,145.2c1.7-0.7,3.8-1,6.1-1c2.2,0,4.3,0.4,6,1"/>
						<path class="st12" d="M130.6,132.7c1.9,0.6,5.3,1.1,9,1.1c3.8,0,7.1-0.4,9-1.1"/>
						<path class="st12" d="M133.5,129.2c1.7,0.7,3.8,1,6.1,1c2.2,0,4.3-0.4,6-1"/>
					</g>
					<g>
						
							<rect x="119.4" y="157.4" transform="matrix(-1 -1.224647e-16 1.224647e-16 -1 279.2807 317.5058)" class="st13" width="40.5" height="2.6"/>
						
							<rect x="135.7" y="152.6" transform="matrix(-1 -1.224647e-16 1.224647e-16 -1 295.5696 307.8098)" class="st13" width="24.2" height="2.6"/>
						<rect x="119.4" y="152.6" class="st13" width="13.5" height="2.6"/>
						
							<rect x="119.4" y="162.3" transform="matrix(-1 -1.224647e-16 1.224647e-16 -1 279.2807 327.2019)" class="st13" width="40.5" height="2.6"/>
					</g>
				</g>
				<g>
					<rect x="164" y="119.6" class="st14" width="48.8" height="49.3"/>
					<g>
						
							<rect x="168.1" y="128.4" transform="matrix(-1 -1.224647e-16 1.224647e-16 -1 376.7413 259.3294)" class="st1" width="40.5" height="2.6"/>
						
							<rect x="168.1" y="133.2" transform="matrix(-1 -1.224647e-16 1.224647e-16 -1 376.7413 269.0254)" class="st1" width="40.5" height="2.6"/>
						
							<rect x="168.1" y="138.1" transform="matrix(-1 -1.224647e-16 1.224647e-16 -1 348.8654 278.7215)" class="st1" width="12.6" height="2.6"/>
						
							<rect x="184.1" y="138.1" transform="matrix(-1 -1.224647e-16 1.224647e-16 -1 392.6633 278.7215)" class="st1" width="24.4" height="2.6"/>
						
							<rect x="168.1" y="142.9" transform="matrix(-1 -1.224647e-16 1.224647e-16 -1 376.7413 288.4175)" class="st1" width="40.5" height="2.6"/>
						
							<rect x="168.1" y="147.8" transform="matrix(-1 -1.224647e-16 1.224647e-16 -1 376.7413 298.1137)" class="st1" width="40.5" height="2.6"/>
						
							<rect x="168.1" y="152.6" transform="matrix(-1 -1.224647e-16 1.224647e-16 -1 376.7413 307.8098)" class="st1" width="40.5" height="2.6"/>
						
							<rect x="196.9" y="157.4" transform="matrix(-1 -1.224647e-16 1.224647e-16 -1 405.5338 317.5058)" class="st1" width="11.7" height="2.6"/>
						
							<rect x="168.1" y="157.4" transform="matrix(-1 -1.224647e-16 1.224647e-16 -1 362.2611 317.5058)" class="st1" width="26" height="2.6"/>
						
							<rect x="168.1" y="162.3" transform="matrix(-1 -1.224647e-16 1.224647e-16 -1 376.7413 327.2019)" class="st1" width="40.5" height="2.6"/>
						
							<rect x="197.9" y="123.5" transform="matrix(-1 -1.224647e-16 1.224647e-16 -1 406.5013 249.6333)" class="st1" width="10.7" height="2.6"/>
						<rect x="168.1" y="123.5" class="st1" width="27" height="2.6"/>
					</g>
				</g>
				<g>
					<rect x="115.2" y="168.9" class="st14" width="48.8" height="49.3"/>
					<g>
						<rect x="119.4" y="206.8" class="st1" width="40.5" height="2.6"/>
						<rect x="119.4" y="201.9" class="st1" width="40.5" height="2.6"/>
						<rect x="149.5" y="197.1" class="st1" width="10.4" height="2.6"/>
						<rect x="119.5" y="197.1" class="st1" width="26.6" height="2.6"/>
						<rect x="119.4" y="192.2" class="st1" width="40.5" height="2.6"/>
						<rect x="119.4" y="187.4" class="st1" width="40.5" height="2.6"/>
						<rect x="119.4" y="182.5" class="st1" width="40.5" height="2.6"/>
						<rect x="119.4" y="177.7" class="st1" width="18.8" height="2.6"/>
						<rect x="141" y="177.7" class="st1" width="18.9" height="2.6"/>
						<rect x="119.4" y="172.8" class="st1" width="40.5" height="2.6"/>
						<rect x="119.4" y="211.6" class="st1" width="18.9" height="2.6"/>
						
							<rect x="141" y="211.6" transform="matrix(-1 -1.224647e-16 1.224647e-16 -1 300.8961 425.816)" class="st1" width="18.9" height="2.6"/>
					</g>
				</g>
				<g>
					<rect x="164" y="168.9" class="st11" width="48.8" height="49.3"/>
					<g>
						<g>
							<polygon class="st15" points="198.3,202.8 178.7,202.6 176.5,188.5 200.2,188.5 							"/>
							<polygon class="st15" points="200.2,188.5 176.5,188.5 188.3,178.8 							"/>
							
								<rect x="180.1" y="187.1" transform="matrix(1 -1.760907e-03 1.760907e-03 1 -0.3412 0.3317)" class="st4" width="16.1" height="13.6"/>
							<polygon class="st13" points="176.5,188.5 176.6,203.9 188.4,196.7 							"/>
							<polygon class="st13" points="200.2,188.5 200.2,203.8 188.4,196.7 							"/>
							<polygon class="st13" points="200.2,203.8 176.6,203.9 188.4,194.1 							"/>
							<polyline class="st16" points="176.6,203.9 188.4,194.1 200.2,203.8 							"/>
							<line class="st16" x1="190.1" y1="195.5" x2="200.2" y2="188.5"/>
						</g>
						<line class="st16" x1="186.7" y1="195.5" x2="176.5" y2="188.5"/>
					</g>
					
						<rect x="178.9" y="209.8" transform="matrix(-1 -1.224647e-16 1.224647e-16 -1 376.7413 422.1089)" class="st13" width="18.9" height="2.6"/>
				</g>
				<g>
					<rect x="115.2" y="66" class="st11" width="97.6" height="49.2"/>
					<g>
						
							<rect x="162.7" y="73.1" transform="matrix(-1 -1.224647e-16 1.224647e-16 -1 371.2681 149.5864)" class="st13" width="46" height="3.4"/>
						
							<rect x="162.7" y="79.4" transform="matrix(-1 -1.224647e-16 1.224647e-16 -1 371.2681 162.2408)" class="st13" width="46" height="3.4"/>
						
							<rect x="162.7" y="85.7" transform="matrix(-1 -1.224647e-16 1.224647e-16 -1 371.2681 174.8954)" class="st13" width="46" height="3.4"/>
						
							<rect x="162.7" y="92.1" transform="matrix(-1 -1.224647e-16 1.224647e-16 -1 371.2681 187.5497)" class="st13" width="46" height="3.4"/>
						
							<rect x="162.7" y="104.7" transform="matrix(-1 -1.224647e-16 1.224647e-16 -1 371.2681 212.8587)" class="st13" width="46" height="3.4"/>
						
							<rect x="181.1" y="98.4" transform="matrix(-1 -1.224647e-16 1.224647e-16 -1 389.7594 200.2042)" class="st13" width="27.5" height="3.4"/>
						<rect x="162.7" y="98.4" class="st13" width="15.4" height="3.4"/>
					</g>
					<g>
						<rect x="120.8" y="73.2" class="st13" width="34.8" height="34.8"/>
						<polygon class="st4" points="141.4,84.1 152,102.2 130.9,102.2 						"/>
						<polygon class="st4" points="130.7,90 133,94.4 128.9,102.2 124.4,102.2 						"/>
						<path class="st4" d="M125.3,83.1c0,1.1,0.9,2,2,2c1.1,0,2-0.9,2-2c0-1.1-0.9-2-2-2C126.2,81.1,125.3,82,125.3,83.1z"/>
					</g>
				</g>
				<path class="st11" d="M136.5,62h55c0.9,0,1.6-0.7,1.6-1.6l0,0c0-0.9-0.7-1.6-1.6-1.6h-55c-0.9,0-1.6,0.7-1.6,1.6l0,0
					C135,61.3,135.7,62,136.5,62z"/>
				<line class="st12" x1="164" y1="119.6" x2="164" y2="218.2"/>
				<line class="st12" x1="115.2" y1="168.9" x2="212.8" y2="168.9"/>
			</g>
		</g>
		<line class="st17" x1="0" y1="241.5" x2="328.1" y2="241.5"/>
		<g>
			<g>
				<g>
					<g>
						<path class="st18" d="M250.4,224.2l0.6,17.4l-0.6,5.5l-20.8-0.1c-0.5,0-0.9-0.4-0.9-1l0,0c0-0.4,0.2-0.7,0.6-0.9l9.3-4.3
							l-1.4-18.1"/>
						<path class="st19" d="M227.7,246.8c0.2-0.7,0.6-1.5,1-1.6l9.8-4.2c5.4,2.2,12.4,0.5,12.4,0.5l0.5,7.4c0,0.2-0.2,0.4-0.4,0.4
							l-23.2-0.1C227.4,249.1,227.7,246.8,227.7,246.8z"/>
						<path class="st20" d="M236.5,241.3c0.6,0.7,1,1.5,1.4,2.3"/>
						<path class="st20" d="M235.2,242.1c0.6,0.8,0.8,1.2,1.1,2"/>
						<path class="st20" d="M234.2,242.6c0.4,0.5,0.8,1.2,1.1,1.8"/>
					</g>
					<line class="st20" x1="251.4" y1="247.7" x2="227.6" y2="247.5"/>
					<path class="st20" d="M251.2,244.1c0,0-5.5,0-6,3.5"/>
					<path class="st20" d="M230.8,244.3c0,0,1.6,2.3,1.9,3.3"/>
				</g>
				<path class="st21" d="M248,155.7c0,0,2.5,4.3,3.3,7.4c1.2,5,0,10.2,0,10.2l-0.1,60.9h-15.4c0,0-3.4-70.2-1.9-79.3"/>
				<path class="st20" d="M238.1,234.3c0,0-3.4-70.2-1.9-79.3"/>
				<g>
					<g>
						<path class="st18" d="M233.4,217.3l7,16l1.5,5.3l-19.3,7.6c-0.5,0.2-1,0-1.2-0.5l0,0c-0.1-0.4,0-0.8,0.2-1l7-7.4l-8.1-16.3"/>
						<path class="st22" d="M220.7,246.7c-0.1-0.7,0-1.6,0.3-1.9l7.5-7.6c5.8,0,11.7-4.2,11.7-4.2l3.3,6.7c0.1,0.2,0,0.5-0.2,0.6
							l-21.6,8.5C221.3,249,220.7,246.7,220.7,246.7z"/>
						<path class="st20" d="M226.8,238.4c0.8,0.5,1.5,1,2.2,1.6"/>
						<path class="st20" d="M225.9,239.6c0.8,0.5,1.2,0.9,1.8,1.4"/>
						<path class="st20" d="M225.2,240.5c0.6,0.3,1.2,0.9,1.7,1.3"/>
					</g>
					<line class="st20" x1="243.1" y1="238.7" x2="220.9" y2="247.5"/>
					<path class="st20" d="M241.5,235.5c0,0-5.1,2.1-4.3,5.5"/>
					<path class="st20" d="M222.6,243.3c0,0,2.3,1.5,3,2.4"/>
				</g>
				<path class="st22" d="M221.4,165.6c-7.9,19.5-8.1,21.5-9.4,31c-1.3,9.8,13.3,38.5,13.3,38.5l14.1-6.2c0,0-9.3-26.3-8.7-30.8
					c1.1-8.3,10.7-22.5,10.7-22.5s4.6-3.6,5.5-8.4c1-4.8-1.2-9.8-1.2-9.8"/>
				<path class="st20" d="M235.9,167.9c0.2-0.1,6.3-2,6.3-2"/>
				<line class="st20" x1="249.3" y1="164.2" x2="251.3" y2="163.5"/>
				<path class="st20" d="M226.1,165.1c0,0-9.8,21.3-11.1,31c-1.3,9.8,12.9,37.7,12.9,37.7"/>
				<path class="st20" d="M233.9,188.8c3-6.7,7.4-13.1,7.4-13.1s4.6-3.6,5.5-8.4"/>
			</g>
			<g>
				<path class="st18" d="M220.1,117.4l4,7c0,0-2.4,5.2-9,2.7l-1.7-3.7L220.1,117.4z"/>
				<path class="st18" d="M209.4,112.7c0,0-2,9.3,1.5,11c1.8,0.9,6.8,0.3,8-1.6c0.9-1.4,0.5-8.2-0.5-9
					C214.2,110,209.4,112.7,209.4,112.7z"/>
				<g>
					<path class="st23" d="M218.1,109.9c-1.5-2.6-4.6-2.1-9.6,0.7c-0.7,0.4-2.1,0.5-2.1,1.3c0,1,0.7,2.7,1.9,3c0.8,0.2,1.2,0.2,2,0
						c1-0.2,2.4,0.2,2.4,1.4c0,0.3-0.1,0.9,0.2,1c0.2,0.1,0.5,0,0.7,0c0.5,0,0.7,0.6,0.7,1.1c-0.1,0.5,0.2,0.8,0.2,1.3
						c-0.1,1.1,1.3,2.3,2.4,2.4c1,0.1,3.8-0.4,5.2-2.2c1.2-1.6,1-4.3-0.9-8.3C220.3,110,218.6,109.5,218.1,109.9z"/>
				</g>
				<path class="st18" d="M212.6,117.8c0.3-1.5,1.1-1.7,1.8-1.3c0.9,0.5,0.7,2.7,0.4,3.2c-0.7,1-1.5,1.4-1.9,0.6"/>
				<path class="st24" d="M213.8,124.1c1-0.9,0.9-2.5,0.9-2.5"/>
				<g>
					<g>
						<path class="st25" d="M209.7,117.1c-0.1,0.3-0.2,0.8,0.1,1c0.1,0.1,0.2,0.1,0.2,0C210.5,117.8,210,116.5,209.7,117.1z"/>
					</g>
				</g>
				<path class="st26" d="M209.2,116.1c0.4,0,1.1,0,1.5,0.3"/>
				<path class="st4" d="M211,120.6l-1.5-0.1c0,0-0.1,1.9,0.6,1.9C210.9,122.5,211,120.6,211,120.6z"/>
			</g>
			<g>
				<path class="st5" d="M223.2,122.8c0,0,3.5-0.9,8.5,0.5c4.2,1.2,9.5,4.4,13.6,8.6c7,7.4,3.7,25.8,3.7,25.8l-9-0.3
					c0,0,1.4-11.8-3.3-16.6c-4.7-4.7-11.4-5.8-11.4-5.8"/>
				<g>
					<path class="st18" d="M184.8,148.7c-2.8,0.8-11.4,1.7-11.6,2.3c-0.1,0.6,2.9,0.3,2.7,0.8c-0.2,0.5-4.8,1.2-4.8,1.8
						c0,0.8,4.7-0.2,4.7-0.2s-2,0.3-1.7,1.1c0.2,0.5,1,0.7,2.5,0.5c-0.8,0.2-1.2,0.6-1,1.1c0.2,0.5,1,0.5,1.9,0.4
						c-0.6,0.1-1.1,0.5-0.7,0.9c0.5,0.5,4,0.3,10.2-0.8"/>
				</g>
				<path class="st5" d="M214.2,125.2c0,0,2.4,1,5.1,0c2.7-1,3.8-2.3,3.8-2.3s6.1-0.4,13.5,7c7.5,7.5,13.3,28.7,13.3,28.7
					l-30.6,10.3c0,0-5.2-18.6-7.3-27C209.9,133.3,214.2,125.2,214.2,125.2z"/>
				<path class="st27" d="M236.2,127.9c6.1,7.2,13.7,30.6,13.7,30.6"/>
				<path class="st5" d="M214.2,125.2c-4,1.5-7.5,5.5-9.6,9.5c-3.5,6.6-5.6,11.4-5.6,11.4l-17.6,2.6l0.9,9.4c0,0,11.9-0.4,21.4-1.8
					c6.8-1,12-15,12-15"/>
				<path class="st27" d="M213.1,125.7c0,0,1.9,2.6,6.6,0.8c4.7-1.7,4.8-3.9,4.8-3.9"/>
				<line class="st27" x1="213.5" y1="146.1" x2="215.4" y2="142.1"/>
				<line class="st27" x1="184.2" y1="148.3" x2="184.8" y2="157.9"/>
				<line class="st27" x1="218.7" y1="166.8" x2="249.3" y2="156.7"/>
			</g>
		</g>
		<g>
			<g>
				<path class="st18" d="M98.3,141.1c0.1,0.1,0.3,0.2,0.4,0.3c1.4,0.9,2.8,1.7,4.3,2.2c0.9,0.3,1.9,0.4,2.6,1
					c0.3,0.2,0.6,0.5,0.9,0.7c0.1,0.1,1,0.4,0.9,0.3c0.1,0.3,0.5,0.5,0.8,0.6c0,0,0.1,0,0.1,0c0,0,0.1,0,0.1-0.1
					c0.1,0.2,0.5,0.3,0.6,0.2c0.1-0.1-0.2-0.7-0.2-0.7s0.2,0,0.3-0.1c0.1-0.1,0.1-0.3,0.1-0.4c0.1-1.4-0.5-2.9-1.5-3.9"/>
			</g>
			<g>
				<g>
					<path class="st28" d="M108,144.1c0,0.1,0,0.1,0,0.2c0,0.1,0,0.1,0.1,0.2c0,0.1,0.1,0.2,0.1,0.3c0,0.1,0.1,0.2,0.1,0.4
						c0,0.1,0.1,0.2,0.2,0.3c0.1,0.1,0.2,0,0.2-0.1c0-0.1,0-0.3-0.1-0.4c-0.1-0.1-0.1-0.3-0.2-0.4c-0.1-0.1-0.1-0.2-0.2-0.3
						c0-0.1-0.1-0.1-0.1-0.2C108.2,144.1,108.2,144.1,108,144.1C108.1,144,108,144,108,144.1L108,144.1z"/>
				</g>
			</g>
			<g>
				<g>
					<path class="st28" d="M106.6,144.1c0.3,0.3,0.5,0.6,0.8,0.8c0.1,0.1,0.3,0.3,0.4,0.4c0.1,0.1,0.1,0.2,0.2,0.2
						c0.1,0.1,0.1,0.2,0.2,0.2c0,0.1,0.2,0,0.1-0.1c0-0.1,0-0.2-0.1-0.3c0-0.1-0.1-0.2-0.2-0.2c-0.1-0.2-0.3-0.3-0.4-0.4
						c-0.3-0.3-0.6-0.5-0.9-0.8C106.6,144,106.5,144.1,106.6,144.1L106.6,144.1z"/>
				</g>
			</g>
			<g>
				<line class="st29" x1="97.1" y1="249.3" x2="86.6" y2="142.5"/>
				<polyline class="st29" points="137.8,249.3 127.3,142.5 86.6,142.5 				"/>
				<line class="st29" x1="116.9" y1="249.3" x2="127.3" y2="142.5"/>
				<polyline class="st29" points="76.2,249.3 86.6,142.5 127.3,142.5 				"/>
				<line class="st29" x1="136.1" y1="234.1" x2="77.6" y2="234.1"/>
				<line class="st29" x1="134.7" y1="221.1" x2="78.9" y2="221.1"/>
				<line class="st29" x1="133.7" y1="207.6" x2="80.2" y2="207.6"/>
				<line class="st29" x1="132.4" y1="194.8" x2="81.5" y2="194.8"/>
				<line class="st29" x1="131.1" y1="181.5" x2="82.8" y2="181.5"/>
				<line class="st29" x1="129.8" y1="168.2" x2="84.1" y2="168.2"/>
				<line class="st29" x1="128.3" y1="155.7" x2="85.3" y2="155.7"/>
			</g>
			<g>
				<path class="st18" d="M96,142.3c4.2,0,8.4,0,12.5,0c-0.4-0.7-0.6-1.2-1.1-1.6c-0.6-0.5-1-0.9-1.6-1.2c-1.9-1-4.1-1.5-6.3-1.6"/>
			</g>
			<path class="st30" d="M81.4,113.5c0,0,5.7,14.9,7.1,16.1c1.4,1.2,15,8,15,8l-4.2,8.8c0,0-16.4-6.5-18.7-8.8
				c-2.3-2.3-9.8-11.1-10.6-20"/>
			<g>
				<g>
					<g>
						<path class="st18" d="M70.5,210.8l-0.6,16l0.5,5l19.1,0c0.5,0,0.9-0.4,0.9-0.9l0,0c0-0.4-0.2-0.7-0.6-0.8l-8.5-4l1.4-16.7"/>
						<path class="st31" d="M91.2,231.7c-0.2-0.6-0.6-1.3-0.9-1.5l-9-3.9c-5,2-11.4,0.4-11.4,0.4l-0.5,6.8c0,0.2,0.2,0.4,0.4,0.4
							l21.3,0C91.5,233.8,91.3,231.7,91.2,231.7z"/>
						<path class="st32" d="M83.2,226.6c-0.5,0.7-0.9,1.4-1.3,2.1"/>
						<path class="st32" d="M84.4,227.3c-0.5,0.7-0.7,1.1-1.1,1.8"/>
						<path class="st32" d="M85.3,227.8c-0.4,0.5-0.7,1.1-1,1.7"/>
					</g>
					<line class="st32" x1="69.5" y1="232.4" x2="91.3" y2="232.4"/>
					<path class="st32" d="M69.7,229.1c0,0,5.1,0.1,5.5,3.3"/>
					<path class="st32" d="M88.5,229.3c0,0-1.5,2.1-1.8,3"/>
				</g>
				<path class="st5" d="M66.3,150.6c0,0-1.8,8.2,2.1,18.1c0,0,1.9,10.3,2.1,22.2c0.2,12.1-1.4,27.4-1.4,33.2h15.7
					c0,0,1.9-16.3,2.1-32.8c0.2-18.5-1.4-39.3-1.4-44.7"/>
				<path class="st27" d="M82.4,224c0,0,1.9-16.6,2.1-33.3c0.2-18.3-1.4-38.8-1.4-44.2"/>
				<g>
					<g>
						<path class="st18" d="M97.1,197.8l-0.6,16l0.5,5l19.1,0c0.5,0,0.9-0.4,0.9-0.9l0,0c0-0.4-0.2-0.7-0.6-0.8l-8.5-4l1.4-16.7"/>
						<path class="st31" d="M117.8,218.6c-0.2-0.6-0.6-1.3-0.9-1.5l-9-3.9c-5,2-11.4,0.4-11.4,0.4l-0.5,6.8c0,0.2,0.2,0.4,0.4,0.4
							l21.3,0C118.1,220.8,117.8,218.6,117.8,218.6z"/>
						<path class="st32" d="M109.8,213.6c-0.5,0.7-0.9,1.4-1.3,2.1"/>
						<path class="st32" d="M111,214.3c-0.5,0.7-0.7,1.1-1.1,1.8"/>
						<path class="st32" d="M111.9,214.8c-0.4,0.5-0.7,1.1-1,1.7"/>
					</g>
					<line class="st32" x1="96" y1="219.3" x2="117.9" y2="219.3"/>
					<path class="st32" d="M96.2,216.1c0,0,5.1,0.1,5.5,3.3"/>
					<path class="st32" d="M115,216.3c0,0-1.5,2.1-1.8,3"/>
				</g>
				<path class="st5" d="M92.8,151.5c0,0,15.1,14.3,18.5,23.6c2.4,6.5-1.1,36.2-1.1,36.2h-15c0,0,1.8-27,0.9-29.8
					C94.9,178.2,82,167,82,167s-5.5-1.2-8.1-7.1c-2.4-5.3-1.3-11.7-1.3-11.7"/>
				<path class="st27" d="M89.2,151.5c0,0,15.7,16.6,18.5,23.6c2.2,5.4-1.1,36.2-1.1,36.2"/>
				<path class="st27" d="M86.5,171.1c-1.2-1.1-3.2-2.9-3.9-3.5c-0.4-0.4-0.9-0.6-1.4-0.8c-1.6-0.5-5.4-2.3-7.5-6.9"/>
				<path class="st27" d="M78,156.6c0,0,4.5,0.2,6.4,0"/>
				<line class="st27" x1="65.8" y1="156.6" x2="69.5" y2="156.6"/>
			</g>
			<g>
				<g>
					<g>
						<g>
							<path class="st18" d="M119.8,115.2c1.6-0.7,8.8-3.9,8.9-3.4c0.2,0.4-2.1,1.9-1.9,2c0.1,0,2.2-0.5,3.2-1
								c0.9-0.4,2.4-1,2.7-0.6c0.5,0.7-4.5,3.1-4.5,3.1s0.9-0.4,1.3,0.1c0.6,0.8-0.7,1.5-0.7,1.5s0.8-0.4,1,0.3
								c0.3,0.7-0.9,1.3-0.9,1.3s0.9-0.4,1.1,0.4c0.2,1.1-7.3,3.8-7.3,3.8"/>
						</g>
					</g>
				</g>
				<path class="st31" d="M83.3,107.9c0,0-1.5,1.2-3.9,0.8c-2.4-0.4-3-1.6-3-1.6s-6.4,0.9-9.5,20.6c-2.2,13.8-1.4,25.1-1.4,25.1
					h29.1c0,0,0.9-30.1-0.6-35.7"/>
				<path class="st31" d="M85.6,122.4c0,0,8.6,9.5,16.7,9.5c8,0,23.2-8.5,23.2-8.5l-3.6-9.9l-17.6,6.3c0,0-9.3-8.7-13.5-10.3
					c-4.3-1.6-7.4-1.6-7.4-1.6"/>
				<path class="st32" d="M94.9,129.7c0,0-5.4-4.1-8-6.1"/>
				<line class="st32" x1="120.2" y1="114.1" x2="123.5" y2="124.5"/>
				<line class="st32" x1="65.5" y1="150.4" x2="94.7" y2="150.4"/>
				<path class="st32" d="M89.7,125.8c0.3,8.4,0,27,0,27"/>
			</g>
			<g>
				<path class="st18" d="M76.5,102.9l-0.7,5.3c0,0,5.1,2.7,8.5-0.2v-3.1L76.5,102.9z"/>
				<path class="st18" d="M83.5,94.5c0,0,6,7.6,3.8,10.4c-1.1,1.5-4.9,1.1-6.6,0c-1.3-0.8-5-5.2-4.4-6.3
					C78.4,94.3,83.5,94.5,83.5,94.5z"/>
				<path class="st33" d="M82.7,95.9c0.1,3.1-0.3,5.8-0.3,5.8l-0.5,9.9c0,0-7.9,0.8-13-2.7c0,0,1.7-10.4,5.5-13.6
					c3.6-3,8.3-2.8,10.6-0.8c0,0-0.3,0.9-0.8,1.1C83.9,95.9,82.7,95.9,82.7,95.9"/>
				<path class="st18" d="M83.3,100.7c-0.7-0.9-1.3-0.8-1.6-0.3c-0.4,0.7,0.4,2.1,0.8,2.3c0.8,0.5,1.5,0.4,1.5-0.2"/>
				<path class="st24" d="M84.5,105.8c-0.9,0-1.1-0.7-1.1-0.7"/>
				<g>
					<g>
						<path class="st25" d="M85.1,98.4c0.3,0.2,0.5,0.6,0.3,0.9c0,0.1-0.1,0.1-0.2,0.1C84.7,99.3,84.6,97.9,85.1,98.4z"/>
					</g>
				</g>
				<path class="st34" d="M85,97.3c-0.6,0-0.9,0.4-1.1,0.9"/>
				<path class="st4" d="M85.5,102.3l1.3-0.4c0,0,0.5,1.6-0.1,1.8C86.1,103.9,85.5,102.3,85.5,102.3z"/>
				<g>
					<path class="st33" d="M78.3,93.6c0.5-0.1,0.9-0.7,0.9-1.2c0-0.5-0.4-1.1-0.9-1.3c-0.5-0.3-1.1-0.3-1.6-0.1
						c-0.2,0.1-0.4,0.1-0.6,0.3c-0.7,0.5-0.7,1.6-0.2,2.3c0.2,0.3,0.5,0.5,0.8,0.6c0.3,0.1,1,0,1.4-0.3"/>
				</g>
			</g>
			<path class="st18" d="M85.7,98.3c0.1,0.1,1.7,0.8,1.7,1.4c0,0.4-0.9,0.7-0.9,0.7"/>
			<g>
				<path class="st18" d="M106.5,141c0.9,1,1.3,2,1.6,2.8c0,0,0,0.1,0,0.1c0,0.2-0.3,0.2-0.5,0.1c-0.4-0.2-0.8-0.4-1.1-0.7
					c-0.1-0.1-0.3-0.2-0.4-0.3c-0.3-0.2-0.6-0.2-0.9-0.2c-1.3-0.2-2.5-0.8-3.2-1.9"/>
			</g>
			<g>
				<path class="st35" d="M106.5,141c0.6,0.6,1.1,1.4,1.5,2.2l0.3,0.6c0,0.1,0.1,0.1,0,0.2c0,0.1-0.1,0.2-0.2,0.2
					c-0.2,0.1-0.3,0-0.4,0c-0.4-0.2-0.8-0.4-1.2-0.7c-0.2-0.1-0.3-0.3-0.5-0.4c-0.2-0.1-0.4-0.1-0.6-0.1c-0.4-0.1-0.9-0.2-1.3-0.3
					c-0.8-0.3-1.6-0.9-2-1.7c0.5,0.7,1.2,1.2,2,1.5c0.4,0.1,0.8,0.2,1.2,0.3c0.2,0,0.4,0,0.7,0.1c0.2,0.1,0.4,0.3,0.6,0.4
					c0.3,0.3,0.7,0.5,1.1,0.6c0.1,0,0.2,0,0.2,0c0.1,0,0,0,0-0.1c-0.1-0.2-0.2-0.4-0.3-0.6C107.4,142.5,107,141.7,106.5,141z"/>
			</g>
		</g>
	</g>
	<text transform="matrix(1 0 0 1 254.6529 248.8713)" class="st36 st37 st38">Designed by Freepik</text>
</g>
</svg>
