<?xml version="1.0" encoding="utf-8"?>
<!-- Generator: Adobe Illustrator 25.1.0, SVG Export Plug-In . SVG Version: 6.00 Build 0)  -->
<svg version="1.1" id="Layer_1" xmlns="http://www.w3.org/2000/svg" xmlns:xlink="http://www.w3.org/1999/xlink" x="0px" y="0px"
	 viewBox="0 0 150 150" style="enable-background:new 0 0 150 150;" xml:space="preserve">
<style type="text/css">
	.st0{fill:#1B2A4F;}
	.st1{fill:#384E85;}
	.st2{fill:#2E4277;}
	.st3{fill:#6BB5FB;}
	.st4{fill:#FFFFFF;}
	.st5{enable-background:new    ;}
	.st6{fill:#45D7DE;}
	.st7{fill:#4466FB;}
	.st8{fill:#3955D1;}
	.st9{fill:#AABAFD;}
	.st10{fill:#B7C5FD;}
	.st11{fill:#D9DDF6;}
	.st12{fill:#FF9A36;}
	.st13{fill:#9AADFD;}
	.st14{fill:#7C7C7C;}
	.st15{font-family:'MyriadPro-Regular';}
	.st16{font-size:4px;}
</style>
<g id="Layer_1_1_">
	<g>
		<path class="st0" d="M112.2,110.4v1.7c0,1.2-0.8,2.3-2.3,3.2c-3.1,1.8-8.1,1.8-11.2,0L85.9,108c-1.6-0.9-2.3-2.1-2.3-3.3V103
			c0,1.2,0.8,2.4,2.3,3.3l12.8,7.4c3.1,1.8,8.1,1.8,11.2,0C111.4,112.8,112.2,111.6,112.2,110.4z"/>
		<g>
			<path class="st1" d="M109.8,107.2c3.1,1.8,3.1,4.7,0,6.5s-8.1,1.8-11.2,0l-12.8-7.4c-3.1-1.8-3.1-4.7,0-6.5
				C89,98,94,98,97.1,99.8L109.8,107.2z"/>
		</g>
		<g>
			<g>
				<polygon class="st0" points="104.8,97.6 107.4,96.1 107.4,108.9 104.8,110.4 				"/>
			</g>
			<g>
				<polygon class="st2" points="104.8,97.6 104.8,110.4 91.8,102.9 91.9,90.1 				"/>
			</g>
		</g>
		<g>
			<g>
				<g>
					<g>
						<g>
							<g>
								<path class="st3" d="M128.9,111.6v4.7c0,1.5-1,2.1-2.3,1.3L75.1,87.9c-1.3-0.7-2.3-2.5-2.3-4v-4.7L128.9,111.6z"/>
							</g>
							<g>
								<path class="st0" d="M126.6,74.7c1.3,0.7,2.3,2.6,2.3,4l-0.1,32.9l-56-32.4l0.1-32.9c0-1.5,1-2.1,2.3-1.3L126.6,74.7z"/>
								<g>
									<polygon class="st4" points="127.3,76.9 127.3,110.6 74.4,80.1 74.5,46.4 									"/>
								</g>
							</g>
						</g>
					</g>
				</g>
			</g>
		</g>
	</g>
	<g>
		<g>
			<g class="st5">
				<g>
					<path class="st6" d="M122.9,135.5c0,0.8-0.6,1.8-1.3,2.3l-1.6,0.9l-53.4-31l1.6-0.9c0.7-0.4,1.3-1.4,1.3-2.3
						c0-0.4-0.1-0.7-0.4-0.8l53.4,31C122.7,134.8,122.9,135.1,122.9,135.5z"/>
				</g>
				<g>
					<polygon class="st7" points="120,139.4 66.6,108.4 66.6,107.7 120,138.7 					"/>
				</g>
				<g>
					<polygon class="st7" points="105.2,144.2 51.8,113.2 51.8,112.5 105.2,143.5 					"/>
				</g>
				<g>
					<path class="st6" d="M123,133.9c-0.4-0.2-0.9-0.2-1.4,0.1l-16.4,9.5l-53.4-31l16.4-9.5c0.5-0.3,1-0.3,1.4-0.1L123,133.9z"/>
				</g>
				<g>
					<path class="st8" d="M121.6,134c1.1-0.6,2-0.1,2,1.1c0,1.2-0.9,2.8-1.9,3.4l-1.6,0.9v-0.7l1.6-0.9c0.7-0.4,1.3-1.4,1.3-2.3
						c0-0.8-0.6-1.2-1.3-0.7l-16.4,9.5v-0.7L121.6,134z"/>
				</g>
			</g>
		</g>
		<g>
			<g>
				<polygon class="st2" points="70.7,106 69.3,106.8 67,105.4 68.4,104.6 				"/>
			</g>
			<g>
				<polygon class="st2" points="73.8,107.8 72.5,108.6 70.1,107.3 71.5,106.5 				"/>
			</g>
			<g>
				<polygon class="st2" points="77,109.6 75.6,110.4 73.3,109.1 74.7,108.3 				"/>
			</g>
			<g>
				<polygon class="st2" points="80.1,111.4 78.8,112.2 76.4,110.9 77.8,110.1 				"/>
			</g>
			<g>
				<polygon class="st2" points="69.9,107.8 67.5,109.2 64,107.2 66.4,105.8 				"/>
			</g>
			<g>
				<polygon class="st2" points="73,109.6 70.7,111 68.3,109.7 70.7,108.3 				"/>
			</g>
			<g>
				<polygon class="st2" points="76.2,111.5 73.8,112.8 71.5,111.5 73.8,110.1 				"/>
			</g>
			<g>
				<polygon class="st2" points="79.3,113.3 76.9,114.6 74.6,113.3 77,111.9 				"/>
			</g>
			<g>
				<polygon class="st2" points="83.3,113.3 81.9,114 79.6,112.7 80.9,111.9 				"/>
			</g>
			<g>
				<polygon class="st2" points="82.4,115.1 80.1,116.5 77.7,115.1 80.1,113.7 				"/>
			</g>
			<g>
				<polygon class="st2" points="68.9,110.7 66.5,112.1 61,108.9 63.4,107.5 				"/>
			</g>
			<g>
				<polygon class="st2" points="72,112.5 69.6,113.9 67.3,112.5 69.7,111.2 				"/>
			</g>
			<g>
				<polygon class="st2" points="75.1,114.3 72.8,115.7 70.4,114.4 72.8,113 				"/>
			</g>
			<g>
				<polygon class="st2" points="78.3,116.1 75.9,117.5 73.6,116.2 75.9,114.8 				"/>
			</g>
			<g>
				<polygon class="st2" points="66.7,112.9 64.3,114.3 58,110.7 60.4,109.3 				"/>
			</g>
			<g>
				<polygon class="st2" points="69.8,114.7 67.4,116.1 65.1,114.7 67.5,113.4 				"/>
			</g>
			<g>
				<polygon class="st2" points="72.8,116.4 70.4,117.8 68.1,116.5 70.5,115.1 				"/>
			</g>
			<g>
				<polygon class="st2" points="75.8,118.2 73.4,119.5 71.1,118.2 73.4,116.8 				"/>
			</g>
			<g>
				<polygon class="st2" points="86.4,115.1 85,115.9 82.7,114.5 84.1,113.7 				"/>
			</g>
			<g>
				<polygon class="st2" points="85.6,116.9 83.2,118.3 80.9,116.9 83.2,115.5 				"/>
			</g>
			<g>
				<polygon class="st2" points="81.4,118 79.1,119.3 76.7,118 79.1,116.6 				"/>
			</g>
			<g>
				<polygon class="st2" points="78.8,119.9 76.4,121.3 74.1,119.9 76.4,118.5 				"/>
			</g>
			<g>
				<polygon class="st2" points="89.6,116.9 88.2,117.7 85.8,116.3 87.2,115.5 				"/>
			</g>
			<g>
				<polygon class="st2" points="92.7,118.7 91.3,119.5 89,118.1 90.4,117.3 				"/>
			</g>
			<g>
				<polygon class="st2" points="95.8,120.5 94.5,121.3 92.1,120 93.5,119.2 				"/>
			</g>
			<g>
				<polygon class="st2" points="99,122.3 97.6,123.1 95.3,121.8 96.6,121 				"/>
			</g>
			<g>
				<polygon class="st2" points="102.1,124.1 100.7,124.9 98.4,123.6 99.8,122.8 				"/>
			</g>
			<g>
				<polygon class="st2" points="88.7,118.7 86.4,120.1 84,118.7 86.4,117.4 				"/>
			</g>
			<g>
				<polygon class="st2" points="91.9,120.5 89.5,121.9 87.2,120.6 89.5,119.2 				"/>
			</g>
			<g>
				<polygon class="st2" points="100.1,125.3 97.8,126.7 90.3,122.4 92.7,121 				"/>
			</g>
			<g>
				<polygon class="st2" points="84.6,119.8 82.2,121.1 79.9,119.8 82.2,118.4 				"/>
			</g>
			<g>
				<polygon class="st2" points="87.7,121.6 85.4,123 83,121.6 85.4,120.2 				"/>
			</g>
			<g>
				<polygon class="st2" points="90.9,123.4 88.5,124.8 86.1,123.4 88.5,122 				"/>
			</g>
			<g>
				<polygon class="st2" points="97.1,127 94.8,128.4 89.3,125.2 91.7,123.9 				"/>
			</g>
			<g>
				<polygon class="st2" points="91,126.9 88.6,128.3 86.3,127 88.7,125.6 				"/>
			</g>
			<g>
				<polygon class="st2" points="109,128.1 107.6,128.9 105.3,127.6 106.7,126.8 				"/>
			</g>
			<g>
				<polygon class="st2" points="107,129.3 104.7,130.7 102.3,129.3 104.7,127.9 				"/>
			</g>
			<g>
				<polygon class="st2" points="104,131 101.7,132.4 99.3,131 101.7,129.7 				"/>
			</g>
			<g>
				<polygon class="st2" points="101.1,132.7 98.7,134.1 96.3,132.8 98.7,131.4 				"/>
			</g>
			<g>
				<polygon class="st2" points="112.2,129.9 110.8,130.7 108.4,129.4 109.8,128.6 				"/>
			</g>
			<g>
				<polygon class="st2" points="110.2,131.1 107.8,132.5 105.5,131.1 107.8,129.7 				"/>
			</g>
			<g>
				<polygon class="st2" points="107.2,132.8 104.8,134.2 102.5,132.8 104.8,131.5 				"/>
			</g>
			<g>
				<polygon class="st2" points="104.2,134.6 101.8,135.9 99.5,134.6 101.9,133.2 				"/>
			</g>
			<g>
				<polygon class="st2" points="101.2,136.3 98.8,137.7 93.4,134.5 95.7,133.1 				"/>
			</g>
			<g>
				<polygon class="st2" points="115.3,131.7 113.9,132.5 111.6,131.2 113,130.4 				"/>
			</g>
			<g>
				<polygon class="st2" points="118.4,133.6 117.1,134.4 114.7,133 116.1,132.2 				"/>
			</g>
			<g>
				<polygon class="st2" points="81.7,121.6 79.4,123 77,121.6 79.4,120.2 				"/>
			</g>
			<g>
				<polygon class="st2" points="84.7,123.3 82.4,124.7 80,123.3 82.4,122 				"/>
			</g>
			<g>
				<polygon class="st2" points="59.7,112.4 57.4,113.7 55,112.4 57.4,111 				"/>
			</g>
			<g>
				<polygon class="st2" points="62.9,114.2 60.5,115.6 58.2,114.2 60.5,112.8 				"/>
			</g>
			<g>
				<polygon class="st2" points="66,116 63.7,117.4 61.3,116 63.7,114.6 				"/>
			</g>
			<g>
				<polygon class="st2" points="78.7,123.3 76.4,124.7 64.5,117.8 66.8,116.4 				"/>
			</g>
			<g>
				<polygon class="st2" points="81.7,125.1 79.4,126.4 77,125.1 79.4,123.7 				"/>
			</g>
			<g>
				<polygon class="st2" points="84.9,126.9 82.5,128.2 80.2,126.9 82.5,125.5 				"/>
			</g>
			<g>
				<polygon class="st2" points="88,128.7 85.7,130.1 83.3,128.7 85.7,127.3 				"/>
			</g>
			<g>
				<polygon class="st2" points="91.2,130.5 88.8,131.9 86.5,130.5 88.8,129.1 				"/>
			</g>
			<g>
				<polygon class="st2" points="113.3,132.9 110.9,134.3 108.6,132.9 111,131.6 				"/>
			</g>
			<g>
				<polygon class="st2" points="110.3,134.6 108,136 105.6,134.7 108,133.3 				"/>
			</g>
			<g>
				<polygon class="st2" points="107.3,136.4 105,137.7 102.6,136.4 105,135 				"/>
			</g>
			<g>
				<polygon class="st2" points="104.3,138.1 102,139.5 99.6,138.1 102,136.8 				"/>
			</g>
			<g>
				<polygon class="st2" points="116.4,134.7 114.1,136.1 111.7,134.7 114.1,133.4 				"/>
			</g>
			<g>
				<polygon class="st2" points="113.5,136.4 111.1,137.8 108.8,136.5 111.1,135.1 				"/>
			</g>
			<g>
				<polygon class="st2" points="110.5,138.2 105.1,141.3 102.8,139.9 108.1,136.8 				"/>
			</g>
		</g>
	</g>
	<g>
		<path class="st1" d="M131.2,77.4c0-1.5-1-3.3-2.3-4L77.4,43.7c-0.7-0.4-1.2-0.4-1.7-0.2l-2.2,1.3c0.4-0.2,1-0.2,1.7,0.2l51.4,29.7
			c1.3,0.7,2.3,2.6,2.3,4l-0.1,32.9l2.2-1.3L131.2,77.4z"/>
		<path class="st8" d="M128.9,111.6v4.7c0,0.7-0.2,1.3-0.7,1.5l2.2-1.3c0.4-0.2,0.7-0.7,0.7-1.5v-4.7L128.9,111.6z"/>
	</g>
	<g>
		<path class="st7" d="M98.3,95.9c0.8,0.5,1.5,1.7,1.5,2.6c0,1-0.7,1.4-1.5,0.9s-1.5-1.7-1.5-2.7C96.8,95.8,97.5,95.4,98.3,95.9z"/>
	</g>
	<g>
		<g>
			<g>
				<g>
					<g class="st5">
						<g>
							<polygon class="st9" points="60.3,91.8 60.3,95.3 48.1,102.4 48.1,98.9 							"/>
						</g>
						<g>
							<polygon class="st10" points="48.1,98.9 48.1,102.4 35.9,95.3 35.9,91.8 							"/>
						</g>
						<g>
							<polygon class="st11" points="60.3,91.8 48.1,98.9 35.9,91.8 48,84.8 							"/>
						</g>
					</g>
				</g>
				<g>
					<polygon class="st1" points="47.3,59.1 47.5,59.3 48.5,58.7 44.2,53.4 47.1,53 47.2,53 47.4,53.2 48.4,52.6 44.1,47.3 
						47.1,46.9 47.2,46.8 47.4,47 48.5,46.4 44.1,41.1 47.1,40.7 47.2,40.6 47.4,40.9 48.5,40.3 44.1,34.9 47.1,34.5 47.2,34.5 
						47.4,34.7 48.5,34.1 44.1,28.8 47.1,28.4 47.3,28.3 47.4,28.5 48.5,27.9 44.1,22.6 47.2,22.2 47.3,22.2 47.5,22.4 48.5,21.8 
						43.9,16.1 42.8,16.7 47,21.8 43.7,22.2 42.6,22.8 43.3,22.7 42.9,23 47,27.9 43.6,28.4 42.6,29 43.3,28.9 42.9,29.1 46.9,34.1 
						43.6,34.5 42.5,35.1 43.3,35 42.8,35.3 46.9,40.3 43.6,40.7 42.5,41.3 43.3,41.2 42.8,41.4 46.9,46.4 43.6,46.9 42.5,47.4 
						43.3,47.4 42.8,47.6 46.9,52.6 43.7,53 42.6,53.6 42.9,53.6 42.8,53.6 47,58.7 43.7,59.1 42.6,59.7 43.3,59.6 42.9,59.9 
						47,64.9 43.6,65.3 42.6,65.9 43.3,65.8 42.9,66.1 46.9,71 43.6,71.5 42.5,72.1 43.3,72 42.8,72.2 46.9,77.2 43.6,77.6 
						42.5,78.2 43.3,78.1 42.8,78.4 46.9,83.4 43.6,83.8 42.5,84.4 43.3,84.3 42.8,84.5 46.9,89.5 43.7,89.9 42.6,90.5 47.1,90 
						47.2,89.9 47.4,90.1 48.4,89.5 44.1,84.2 47.1,83.8 47.2,83.7 47.4,84 48.5,83.4 44.1,78 47.1,77.6 47.2,77.6 47.4,77.8 
						48.5,77.2 44.1,71.9 47.1,71.5 47.2,71.4 47.4,71.6 48.5,71 44.1,65.7 47.1,65.3 47.3,65.3 47.4,65.5 48.5,64.9 44.1,59.5 
						47.2,59.2 					"/>
					<polygon class="st1" points="53.7,84.4 52.9,84.3 53.4,84.5 49.3,89.5 52.5,89.9 53.6,90.5 49.1,90 49,89.9 48.8,90.1 
						47.7,89.5 52.1,84.2 49.1,83.8 49,83.7 48.8,84 47.7,83.4 52.1,78 49.1,77.6 49,77.6 48.8,77.8 47.7,77.2 52.1,71.9 49.1,71.5 
						48.9,71.4 48.8,71.6 47.7,71 52.1,65.7 49,65.3 48.9,65.3 48.7,65.5 47.7,64.9 52,59.5 49,59.2 48.9,59.1 48.7,59.3 47.7,58.7 
						52,53.4 49.1,53 49,53 48.8,53.2 47.7,52.6 52.1,47.3 49.1,46.9 49,46.8 48.8,47 47.7,46.4 52.1,41.1 49.1,40.7 49,40.6 
						48.8,40.9 47.7,40.3 52.1,34.9 49.1,34.5 48.9,34.5 48.8,34.7 47.7,34.1 52.1,28.8 49,28.4 48.9,28.3 48.7,28.5 47.7,27.9 
						52,22.6 49,22.2 48.9,22.2 48.7,22.4 47.7,21.8 52.3,16.1 53.4,16.7 49.2,21.8 52.5,22.2 53.6,22.8 52.8,22.7 53.3,23 
						49.2,27.9 52.5,28.4 53.6,29 52.9,28.9 53.3,29.1 49.2,34.1 52.6,34.5 53.6,35.1 52.9,35 53.3,35.3 49.3,40.3 52.6,40.7 
						53.7,41.3 52.9,41.2 53.4,41.4 49.3,46.4 52.6,46.9 53.7,47.4 52.9,47.4 53.4,47.6 49.3,52.6 52.5,53 53.6,53.6 53.3,53.6 
						53.4,53.6 49.2,58.7 52.5,59.1 53.6,59.7 52.8,59.6 53.3,59.9 49.2,64.9 52.5,65.3 53.6,65.9 52.9,65.8 53.3,66.1 49.2,71 
						52.6,71.5 53.6,72.1 52.9,72 53.3,72.2 49.3,77.2 52.6,77.6 53.7,78.2 52.9,78.1 53.4,78.4 49.3,83.4 52.6,83.8 					"/>
					<g>
						<g>
							<g>
								<g class="st5">
									<g>
										<polygon class="st0" points="47.5,59.3 42.9,59.9 47.4,65.5 42.9,66.1 47.4,71.6 42.8,72.2 47.4,77.8 42.8,78.4 47.4,84 
											42.8,84.5 47.4,90.1 42.7,90.7 42.6,90.5 47.1,90 42.5,84.4 47.1,83.8 42.5,78.2 47.1,77.6 42.5,72.1 47.1,71.5 
											42.6,65.9 47.1,65.3 42.6,59.7 47.2,59.2 42.8,53.8 42.7,53.8 42.6,53.6 47.1,53 42.5,47.4 47.1,46.9 42.5,41.3 
											47.1,40.7 42.5,35.1 47.1,34.5 42.6,29 47.1,28.4 42.6,22.8 47.2,22.2 42.7,16.8 42.8,16.7 47.5,22.4 42.9,23 47.4,28.5 
											42.9,29.1 47.4,34.7 42.8,35.3 47.4,40.9 42.8,41.4 47.4,47 42.8,47.6 47.4,53.2 42.9,53.8 										"/>
									</g>
								</g>
							</g>
						</g>
						<g>
							<g>
								<g class="st5">
									<g>
										<polygon class="st0" points="53.7,84.4 49.1,90 53.6,90.5 53.5,90.7 48.8,90.1 53.4,84.5 48.8,84 53.4,78.4 48.8,77.8 
											53.3,72.2 48.8,71.6 53.3,66.1 48.7,65.5 53.3,59.9 48.7,59.3 53.3,53.8 48.8,53.2 53.4,47.6 48.8,47 53.4,41.4 
											48.8,40.9 53.3,35.3 48.8,34.7 53.3,29.1 48.7,28.5 53.3,23 48.7,22.4 53.4,16.7 53.5,16.8 49,22.2 53.6,22.8 49,28.4 
											53.6,29 49.1,34.5 53.6,35.1 49.1,40.7 53.7,41.3 49.1,46.9 53.7,47.4 49.1,53 53.6,53.6 53.5,53.8 53.4,53.8 49,59.2 
											53.6,59.7 49,65.3 53.6,65.9 49.1,71.5 53.6,72.1 49.1,77.6 53.7,78.2 49.1,83.8 										"/>
									</g>
								</g>
							</g>
						</g>
					</g>
					<g>
						<g>
							<g>
								<g class="st5">
									<g>
										<polygon class="st1" points="47.2,52.6 48.1,52.2 49,52.6 48.1,53 										"/>
									</g>
								</g>
							</g>
							<g>
								<g class="st5">
									<g>
										<polygon class="st1" points="52.4,50.2 53.2,49.8 54.1,50.2 53.2,50.6 										"/>
									</g>
									<g>
										<polygon class="st2" points="53.2,54.4 53.2,92.4 52.4,92 52.4,54 										"/>
									</g>
								</g>
							</g>
							<g>
								<g class="st5">
									<g>
										<polygon class="st1" points="43.8,50.2 42.9,49.8 42.1,50.2 42.9,50.6 										"/>
									</g>
								</g>
							</g>
						</g>
					</g>
					<g>
						<g>
							<g class="st5">
								<g>
									<polygon class="st0" points="49,15.7 49,95.1 48.1,95.5 48.1,16.1 									"/>
								</g>
								<g>
									<polygon class="st1" points="47.2,15.7 48.1,15.3 49,15.7 48.1,16.1 									"/>
								</g>
								<g>
									<polygon class="st2" points="48.1,16.1 48.1,95.5 47.2,95.1 47.2,15.7 									"/>
								</g>
							</g>
						</g>
						<g>
							<g class="st5">
								<g>
									<polygon class="st0" points="54.1,13.3 54.1,92 53.2,92.4 53.2,13.7 									"/>
								</g>
								<g>
									<polygon class="st1" points="52.4,13.2 53.2,12.8 54.1,13.2 53.2,13.7 									"/>
								</g>
								<g>
									<polygon class="st2" points="53.2,13.7 53.2,54.4 52.4,54 52.4,13.3 									"/>
								</g>
							</g>
						</g>
						<g>
							<g class="st5">
								<g>
									<polygon class="st0" points="42.9,13.7 42.9,92.4 42.1,92 42.1,13.3 									"/>
								</g>
								<g>
									<polygon class="st1" points="43.8,13.2 42.9,12.8 42.1,13.2 42.9,13.7 									"/>
								</g>
								<g>
									<polygon class="st2" points="43.8,13.3 43.8,92 42.9,92.4 42.9,13.7 									"/>
								</g>
							</g>
						</g>
					</g>
				</g>
			</g>
		</g>
		<g>
			<g>
				<g class="st5">
					<g>
						<polygon class="st9" points="55.5,7.2 55.5,13.8 48.1,18.1 48.1,11.5 						"/>
					</g>
					<g>
						<polygon class="st10" points="48.1,11.5 48.1,18.1 40.7,13.8 40.7,7.2 						"/>
					</g>
					<g>
						<polygon class="st11" points="55.5,7.2 48.1,11.5 40.7,7.2 48.1,2.9 						"/>
					</g>
				</g>
			</g>
		</g>
	</g>
	<path class="st1" d="M98.5,52.4c-0.3,0.4-0.6,0.7-1,0.9c-0.3,0.2-0.6,0.2-0.8,0.3l0,0L95.6,53l-1.5,1.5c0.2,0.4,0.5,0.8,0.8,1
		l1.1,0.6c-0.3-0.2-0.6-0.5-0.8-1l1.3-1.3l0.6,0.4c0.4,0.2,0.9,0.2,1.4-0.1c0.3-0.2,0.5-0.4,0.7-0.6C99.1,53,98.9,52.7,98.5,52.4z"
		/>
	<path class="st0" d="M98.6,54c-0.8,0.5-1.5,0.3-1.8-0.4l-1.5,1.5c0.5,1.3,1.9,1.6,3.3,0.7c0.5-0.3,0.9-0.6,1.3-1
		c-0.1-0.5-0.3-1-0.5-1.4C99.1,53.6,98.9,53.8,98.6,54z"/>
	<g>
		<g>
			<g class="st5">
				<g>
					<path class="st10" d="M47.5,124.1v4c0,0.4-0.2,0.7-0.7,1L35,136c-1,0.5-2.5,0.5-3.5,0l-11.9-6.9c-0.5-0.3-0.7-0.7-0.7-1v-4
						c0,0.4,0.2,0.7,0.7,1l11.9,6.9c1,0.6,2.5,0.6,3.4,0l11.8-6.9C47.3,124.8,47.5,124.5,47.5,124.1z"/>
				</g>
				<g>
					<path class="st11" d="M46.7,123.1c1,0.6,1,1.5,0,2L34.9,132c-0.9,0.5-2.5,0.5-3.5,0l-11.9-6.9c-0.9-0.5-1-1.4,0-2l11.8-6.9
						c0.9-0.5,2.5-0.5,3.4,0L46.7,123.1z"/>
				</g>
			</g>
		</g>
		<g>
			<g class="st5">
				<g>
					<path class="st6" d="M37.6,121.2c1.9,1.1,3.1,2.6,3.1,4.3c0,0.2-0.3,0.4-0.6,0.4c-0.2,0-0.3,0-0.5-0.1
						c-0.1-0.1-0.2-0.2-0.2-0.3c0-1.5-1-2.8-2.7-3.7c-1.7-1-4-1.6-6.5-1.6c-0.2,0-0.3,0-0.4-0.1s-0.2-0.2-0.2-0.3
						c0-0.2,0.3-0.4,0.6-0.4C33.1,119.4,35.7,120.1,37.6,121.2z"/>
				</g>
				<g>
					<path class="st6" d="M35.5,122.4c1.4,0.8,2.3,2,2.3,3.2c0,0.2-0.3,0.4-0.6,0.4c-0.2,0-0.3,0-0.4-0.1c-0.1-0.1-0.2-0.2-0.2-0.3
						c0-1.1-0.8-2-2-2.7s-2.9-1.1-4.7-1.1c-0.2,0-0.3,0-0.5-0.1c-0.1-0.1-0.2-0.2-0.2-0.3c0-0.2,0.3-0.4,0.6-0.4
						C32.1,121,34.1,121.5,35.5,122.4z"/>
				</g>
				<g>
					<path class="st6" d="M33.4,123.6c1,0.6,1.6,1.4,1.6,2.2c0,0.2-0.3,0.4-0.6,0.4c-0.2,0-0.3,0-0.4-0.1c-0.1-0.1-0.2-0.2-0.2-0.3
						c0-0.6-0.5-1.2-1.2-1.7c-0.8-0.4-1.8-0.7-2.9-0.7c-0.2,0-0.3,0-0.4-0.1s-0.2-0.2-0.2-0.3c0-0.2,0.3-0.4,0.6-0.4
						C31,122.7,32.4,123,33.4,123.6z"/>
				</g>
			</g>
			<g class="st5">
				<g>
					<path class="st6" d="M31,125c0.7,0.4,0.7,1.1,0,1.5s-1.9,0.4-2.7,0c-0.7-0.4-0.7-1.1,0-1.5C29.1,124.5,30.3,124.5,31,125z"/>
				</g>
			</g>
		</g>
	</g>
	<g>
		<path class="st12" d="M81.8,135.2v4c0,0.4-0.2,0.7-0.7,1L69.2,147c-1,0.5-2.5,0.5-3.5,0l-11.9-6.9c-0.5-0.3-0.7-0.7-0.7-1v-4
			c0,0.4,0.2,0.7,0.7,1l11.9,6.9c1,0.6,2.5,0.6,3.4,0l11.8-6.9C81.6,135.9,81.8,135.5,81.8,135.2z"/>
	</g>
	<g>
		<path class="st12" d="M81.1,133.8c1,0.6,1,1.5,0,2l-11.8,6.9c-0.9,0.5-2.5,0.5-3.5,0l-11.9-6.9c-0.9-0.5-1-1.4,0-2l11.8-6.9
			c0.9-0.5,2.5-0.5,3.4,0L81.1,133.8z"/>
	</g>
</g>
<g id="Layer_5">
	<g>
		<g>
			<path class="st6" d="M116,91.9c0.5,0.3,0.9,1,0.9,1.5v7c0,0.6-0.4,0.8-0.9,0.5l-6.1-3.5c-0.5-0.3-0.9-1-0.9-1.5v-7
				c0-0.6,0.4-0.8,0.9-0.5L116,91.9z"/>
		</g>
		<g>
			<path class="st1" d="M102.9,84.3c0.5,0.3,0.9,1,0.9,1.5v7c0,0.6-0.4,0.8-0.9,0.5l-6.1-3.5c-0.5-0.3-0.9-1-0.9-1.5v-7
				c0-0.6,0.4-0.8,0.9-0.5L102.9,84.3z"/>
		</g>
		<g>
			<path class="st13" d="M89.9,76.8c0.5,0.3,0.9,1,0.9,1.5v7c0,0.6-0.4,0.8-0.9,0.5l-6.1-3.5c-0.5-0.3-0.9-1-0.9-1.5v-7
				c0-0.6,0.4-0.8,0.9-0.5L89.9,76.8z"/>
		</g>
	</g>
</g>
<g id="Layer_3">
	<g class="st5">
		<g>
			<polygon class="st0" points="101.4,41.6 104.8,39.6 104.8,43 101.4,45 			"/>
		</g>
		<g>
			<polygon class="st1" points="50.2,12 53.6,10 104.8,39.6 101.4,41.6 			"/>
		</g>
		<g>
			<polygon class="st2" points="101.4,41.6 101.4,45 50.2,15.4 50.2,12 			"/>
		</g>
	</g>
</g>
<g id="Layer_4">
	<g>
		<g class="st5">
			<g>
				<path class="st11" d="M100.8,55.7l-1.4,0.8c-0.3,0.2-0.8,0.2-1.3-0.1c-1-0.6-1.9-2.1-1.9-3.3c0-0.6,0.2-1,0.5-1.2l1.4-0.8
					c-0.3,0.2-0.5,0.6-0.5,1.2c0,1.2,0.8,2.7,1.9,3.3C100,55.9,100.5,55.9,100.8,55.7z"/>
				<path class="st11" d="M112.1,59.2v17.7c0,0.9-0.3,1.5-0.8,1.8l-1.4,0.8c0.5-0.3,0.8-0.9,0.8-1.8l0.1-17.7c0-1.8-1.3-4-2.8-4.9
					L88.4,43.9c-0.8-0.4-1.5-0.5-2-0.2l1.4-0.8c0.5-0.3,1.2-0.3,2,0.2l19.4,11.2C110.8,55.2,112.1,57.4,112.1,59.2z"/>
			</g>
			<g>
				<path class="st10" d="M107.8,55.1c1.6,0.9,2.8,3.1,2.8,4.9l-0.1,17.7c0,1.8-1.3,2.5-2.9,1.6L88.3,68.2c-1.6-0.9-2.8-3.1-2.8-4.9
					l0.1-17.7c0-1.8,1.3-2.5,2.8-1.6L107.8,55.1z M98.1,56.4c1,0.6,1.9,0.1,1.9-1.1c0-1.2-0.8-2.6-1.9-3.2c-1-0.6-1.9-0.1-1.9,1.1
					C96.2,54.3,97.1,55.8,98.1,56.4"/>
			</g>
			<g>
				<g>
					<polygon class="st6" points="93.6,59.6 93.6,61.4 90.7,61.6 93.6,65.1 93.6,66.9 89.3,61.6 89.3,60 					"/>
				</g>
				<g>
					<polygon class="st6" points="100.3,63.5 104.6,68.8 104.6,70.5 100.3,70.8 100.3,69 103.2,68.8 100.3,65.3 					"/>
				</g>
				<g>
					<polygon class="st6" points="99.6,61.1 95.8,70.2 94.3,69.4 98.1,60.2 					"/>
				</g>
			</g>
		</g>
	</g>
</g>
<g id="Layer_2_1_">
	<g>
		<g>
			<g class="st5">
				<g>
					<path class="st1" d="M98.3,46.7l1.1,0.6c0.7-0.2,1.3-0.2,1.7,0.1l-1.1-0.6C99.6,46.5,99,46.5,98.3,46.7z"/>
					<polygon class="st1" points="97.8,50 97.8,40.1 99.4,39.1 98.3,38.5 96.7,39.4 96.7,49.3 					"/>
				</g>
			</g>
		</g>
		<g>
			<path class="st11" d="M100.6,50.6c0-0.6-0.2-1-0.6-1.2l-1.1-0.6c0.3,0.2,0.6,0.6,0.6,1.2c0,0.8-0.4,1.7-0.9,2.4
				c0.3,0.3,0.6,0.6,0.8,0.9C100.1,52.6,100.6,51.5,100.6,50.6z"/>
		</g>
		<g>
			<path class="st0" d="M102.2,49.7c0-1.9-1.2-2.9-2.8-2.4v-8.2L97.8,40v9.9l0.8-0.5c1.1-0.6,1.9-0.1,2,1.1c0,0.9-0.5,2-1.2,2.8
				c0.3,0.4,0.5,0.9,0.5,1.4C101.2,53.4,102.2,51.4,102.2,49.7z"/>
		</g>
	</g>
</g>
<text transform="matrix(1 0 0 1 74.1 148.7993)" class="st14 st15 st16">Designed by Alexiuz AS/ iconfinder</text>
</svg>
