<?xml version="1.0" encoding="utf-8"?>
<!-- Generator: Adobe Illustrator 25.1.0, SVG Export Plug-In . SVG Version: 6.00 Build 0)  -->
<svg version="1.1" id="Layer_1" xmlns="http://www.w3.org/2000/svg" xmlns:xlink="http://www.w3.org/1999/xlink" x="0px" y="0px"
	 viewBox="0 0 176.8 153.6" style="enable-background:new 0 0 176.8 153.6;" xml:space="preserve">
<style type="text/css">
	.st0{fill:none;stroke:#45D7DE;stroke-width:1.6632;stroke-miterlimit:10;}
</style>
<g id="BACKGROUND">
</g>
<g id="OBJECTS">
	<g>
		<path class="st0" d="M45.6,113.3c-1.4,0-2.7-1.2-2.7-2.7c0-1.4,1.2-2.7,2.7-2.7c1.4,0,2.7,1.2,2.7,2.7
			C48.2,112.2,47,113.3,45.6,113.3z M45.6,99.6c-1.4,0-2.7-1.2-2.7-2.7c0-1.4,1.2-2.7,2.7-2.7c1.4,0,2.7,1.2,2.7,2.7
			C48.2,98.4,47,99.6,45.6,99.6z M58.9,113.3c-1.4,0-2.7-1.2-2.7-2.7c0-1.4,1.2-2.7,2.7-2.7c1.4,0,2.7,1.2,2.7,2.7
			C61.6,112.2,60.4,113.3,58.9,113.3z M58.9,99.6c-1.4,0-2.7-1.2-2.7-2.7c0-1.4,1.2-2.7,2.7-2.7c1.4,0,2.7,1.2,2.7,2.7
			C61.6,98.4,60.4,99.6,58.9,99.6z M86,94.4c1.4,0,2.7,1.2,2.7,2.7c0,1.4-1.2,2.7-2.7,2.7c-1.4,0-2.7-1.2-2.7-2.7
			C83.4,95.5,84.5,94.4,86,94.4z M86,108.1c1.4,0,2.7,1.2,2.7,2.7c0,1.4-1.2,2.7-2.7,2.7c-1.4,0-2.7-1.2-2.7-2.7
			C83.4,109.3,84.5,108.1,86,108.1z M72.6,94.4c1.4,0,2.7,1.2,2.7,2.7c0,1.4-1.2,2.7-2.7,2.7c-1.4,0-2.7-1.2-2.7-2.7
			C70,95.5,71.2,94.4,72.6,94.4z M72.6,108.1c1.4,0,2.7,1.2,2.7,2.7c0,1.4-1.2,2.7-2.7,2.7c-1.4,0-2.7-1.2-2.7-2.7
			C70,109.3,71.2,108.1,72.6,108.1z"/>
		<rect x="28.9" y="26.6" class="st0" width="63.2" height="63.2"/>
		<rect x="74.2" y="58.2" class="st0" width="63.2" height="63.2"/>
	</g>
</g>
</svg>
