<?xml version="1.0" encoding="utf-8"?>
<!-- Generator: Adobe Illustrator 25.1.0, SVG Export Plug-In . SVG Version: 6.00 Build 0)  -->
<svg version="1.1" xmlns="http://www.w3.org/2000/svg" xmlns:xlink="http://www.w3.org/1999/xlink" x="0px" y="0px"
	 viewBox="0 0 750 500" style="enable-background:new 0 0 750 500;" xml:space="preserve">
<style type="text/css">
	.st0{fill:none;stroke:#45D7DE;stroke-width:2;stroke-miterlimit:10;}
</style>
<g id="BACKGROUND">
</g>
<g id="OBJECTS">
	<g>
		<path class="st0" d="M423.2,483.4c-15.6,0-29.7,6.4-39.9,16.6H463C452.9,489.7,438.8,483.4,423.2,483.4z"/>
		<path class="st0" d="M365.5,500c12.6-18.3,33.8-30.4,57.7-30.4c23.9,0,45,12.1,57.7,30.4h70.4c6.7-13.5,20.5-22.7,36.5-22.7
			c16,0,29.9,9.3,36.5,22.7 M68.5,500.3c12.6-18.3,33.8-30.4,57.7-30.4c23.9,0,45,12.1,57.7,30.4h70.4c6.7-13.5,20.5-22.7,36.5-22.7
			c16,0,29.9,9.3,36.5,22.7 M432.9,213.4c-5.8,0-10.6-4.7-10.6-10.6c0-5.8,4.7-10.6,10.6-10.6c5.8,0,10.6,4.7,10.6,10.6
			C443.5,208.6,438.8,213.4,432.9,213.4z M450.5,258.8c-1.7,0-3.2-1.4-3.2-3.2c0-1.7,1.4-3.2,3.2-3.2c1.7,0,3.2,1.4,3.2,3.2
			C453.6,257.4,452.2,258.8,450.5,258.8z M450.5,242.3c-1.7,0-3.2-1.4-3.2-3.2c0-1.7,1.4-3.2,3.2-3.2c1.7,0,3.2,1.4,3.2,3.2
			C453.6,240.9,452.2,242.3,450.5,242.3z M466.5,258.8c-1.7,0-3.2-1.4-3.2-3.2c0-1.7,1.4-3.2,3.2-3.2c1.7,0,3.2,1.4,3.2,3.2
			C469.7,257.4,468.3,258.8,466.5,258.8z M466.5,242.3c-1.7,0-3.2-1.4-3.2-3.2c0-1.7,1.4-3.2,3.2-3.2c1.7,0,3.2,1.4,3.2,3.2
			C469.7,240.9,468.3,242.3,466.5,242.3z M11.7,144.8c1.7,0,3.2,1.4,3.2,3.2c0,1.7-1.4,3.2-3.2,3.2c-1.7,0-3.2-1.4-3.2-3.2
			C8.5,146.2,9.9,144.8,11.7,144.8z M11.7,161.3c1.7,0,3.2,1.4,3.2,3.2c0,1.7-1.4,3.2-3.2,3.2c-1.7,0-3.2-1.4-3.2-3.2
			C8.5,162.7,9.9,161.3,11.7,161.3z M483,236c1.7,0,3.2,1.4,3.2,3.2c0,1.7-1.4,3.2-3.2,3.2c-1.7,0-3.2-1.4-3.2-3.2
			C479.8,237.4,481.2,236,483,236z M483,252.5c1.7,0,3.2,1.4,3.2,3.2c0,1.7-1.4,3.2-3.2,3.2c-1.7,0-3.2-1.4-3.2-3.2
			C479.8,253.9,481.2,252.5,483,252.5z M153.3,367.5c0.1-5.8,4.9-10.5,10.8-10.4c5.8,0.1,10.5,4.9,10.4,10.8
			c-0.1,5.8-4.9,10.5-10.8,10.4C157.8,378.2,153.2,373.4,153.3,367.5z M6.5,384.2c0-1.7,1.5-3.1,3.2-3.1c1.7,0,3.1,1.5,3.1,3.2
			c0,1.7-1.5,3.1-3.2,3.1C7.9,387.4,6.5,385.9,6.5,384.2z M23,384.5c0-1.7,1.5-3.1,3.2-3.1c1.7,0,3.1,1.5,3.1,3.2
			c0,1.7-1.5,3.1-3.2,3.1C24.4,387.7,23,386.3,23,384.5z M6.2,400.2c0-1.7,1.5-3.1,3.2-3.1c1.7,0,3.1,1.5,3.1,3.2
			c0,1.7-1.5,3.1-3.2,3.1C7.6,403.4,6.2,402,6.2,400.2z M22.7,400.6c0-1.7,1.5-3.1,3.2-3.1c1.7,0,3.1,1.5,3.1,3.2
			c0,1.7-1.5,3.1-3.2,3.1C24,403.7,22.7,402.3,22.7,400.6z M330.6,445.5c0,1.7-1.5,3.1-3.2,3.1c-1.7,0-3.1-1.5-3.1-3.2
			c0-1.7,1.5-3.1,3.2-3.1C329.2,442.4,330.6,443.8,330.6,445.5z M314.1,445.2c0,1.7-1.5,3.1-3.2,3.1c-1.7,0-3.1-1.5-3.1-3.2
			c0-1.7,1.5-3.1,3.2-3.1C312.8,442,314.1,443.5,314.1,445.2z M330.9,429.5c0,1.7-1.5,3.1-3.2,3.1c-1.7,0-3.1-1.5-3.1-3.2
			c0-1.7,1.5-3.1,3.2-3.1C329.6,426.3,330.9,427.7,330.9,429.5z M314.4,429.2c0,1.7-1.5,3.1-3.2,3.1c-1.7,0-3.1-1.5-3.1-3.2
			c0-1.7,1.5-3.1,3.2-3.1C313.1,426,314.5,427.4,314.4,429.2z M232.5,396.6c4.3,0,7.8,3.5,7.8,7.8c0,4.3-3.5,7.8-7.8,7.8
			c-4.3,0-7.8-3.5-7.8-7.8C224.7,400.1,228.2,396.6,232.5,396.6z M218.6,216c-8.7,0-15.7-7.1-15.7-15.7s7.1-15.7,15.7-15.7
			s15.7,7.1,15.7,15.7S227.3,216,218.6,216z M456.1,128.5c-4.6,0-8.3-3.7-8.3-8.3c0-4.6,3.7-8.3,8.3-8.3s8.3,3.7,8.3,8.3
			C464.4,124.8,460.7,128.5,456.1,128.5z M604.7,430c-1.7,0-3.2-1.4-3.2-3.2c0-1.7,1.4-3.2,3.2-3.2c1.7,0,3.2,1.4,3.2,3.2
			C607.8,428.6,606.4,430,604.7,430z M604.7,413.5c-1.7,0-3.2-1.4-3.2-3.2c0-1.7,1.4-3.2,3.2-3.2c1.7,0,3.2,1.4,3.2,3.2
			C607.8,412.1,606.4,413.5,604.7,413.5z M702.1,413.5c-1.7,0-3.2-1.4-3.2-3.2c0-1.7,1.4-3.2,3.2-3.2s3.2,1.4,3.2,3.2
			C705.3,412.1,703.9,413.5,702.1,413.5z M705.3,426.8c0,1.7-1.4,3.2-3.2,3.2s-3.2-1.4-3.2-3.2c0-1.7,1.4-3.2,3.2-3.2
			S705.3,425.1,705.3,426.8z M685.7,413.5c-1.7,0-3.2-1.4-3.2-3.2c0-1.7,1.4-3.2,3.2-3.2c1.7,0,3.2,1.4,3.2,3.2
			C688.8,412.1,687.4,413.5,685.7,413.5z M688.8,426.8c0,1.7-1.4,3.2-3.2,3.2c-1.7,0-3.2-1.4-3.2-3.2c0-1.7,1.4-3.2,3.2-3.2
			C687.4,423.7,688.8,425.1,688.8,426.8z M679.2,340c-2.8,0-5.1-2.3-5.1-5.1s2.3-5.1,5.1-5.1s5.1,2.3,5.1,5.1S682,340,679.2,340z
			 M620.7,430c-1.7,0-3.2-1.4-3.2-3.2c0-1.7,1.4-3.2,3.2-3.2c1.7,0,3.2,1.4,3.2,3.2C623.9,428.6,622.5,430,620.7,430z M620.7,413.5
			c-1.7,0-3.2-1.4-3.2-3.2c0-1.7,1.4-3.2,3.2-3.2c1.7,0,3.2,1.4,3.2,3.2C623.9,412.1,622.5,413.5,620.7,413.5z M637.2,430
			c-1.7,0-3.2-1.4-3.2-3.2c0-1.7,1.4-3.2,3.2-3.2c1.7,0,3.2,1.4,3.2,3.2C640.3,428.6,638.9,430,637.2,430z M637.2,413.5
			c-1.7,0-3.2-1.4-3.2-3.2c0-1.7,1.4-3.2,3.2-3.2c1.7,0,3.2,1.4,3.2,3.2C640.3,412.1,638.9,413.5,637.2,413.5z M653.2,430
			c-1.7,0-3.2-1.4-3.2-3.2c0-1.7,1.4-3.2,3.2-3.2s3.2,1.4,3.2,3.2C656.4,428.6,655,430,653.2,430z M653.2,413.5
			c-1.7,0-3.2-1.4-3.2-3.2c0-1.7,1.4-3.2,3.2-3.2s3.2,1.4,3.2,3.2C656.4,412.1,655,413.5,653.2,413.5z M652.4,192.2
			c-4.3,0-7.8-3.5-7.8-7.8c0-4.3,3.5-7.8,7.8-7.8c4.3,0,7.8,3.5,7.8,7.8C660.2,188.7,656.7,192.2,652.4,192.2z M669.6,430
			c-1.7,0-3.2-1.4-3.2-3.2c0-1.7,1.4-3.2,3.2-3.2s3.2,1.4,3.2,3.2C672.8,428.6,671.3,430,669.6,430z M669.6,413.5
			c-1.7,0-3.2-1.4-3.2-3.2c0-1.7,1.4-3.2,3.2-3.2s3.2,1.4,3.2,3.2C672.8,412.1,671.3,413.5,669.6,413.5z M681.9,493.5
			c-4.6,0-8.4-3.8-8.4-8.4c0-4.6,3.8-8.4,8.4-8.4c4.6,0,8.4,3.8,8.4,8.4C690.4,489.8,686.6,493.5,681.9,493.5z M700,475.5
			c-4.6,0-8.4-3.8-8.4-8.4c0-4.6,3.8-8.4,8.4-8.4c4.6,0,8.4,3.8,8.4,8.4C708.4,471.8,704.6,475.5,700,475.5z M718.2,430
			c-1.7,0-3.2-1.4-3.2-3.2c0-1.7,1.4-3.2,3.2-3.2c1.7,0,3.2,1.4,3.2,3.2C721.3,428.6,719.9,430,718.2,430z M718.2,413.5
			c-1.7,0-3.2-1.4-3.2-3.2c0-1.7,1.4-3.2,3.2-3.2c1.7,0,3.2,1.4,3.2,3.2C721.3,412.1,719.9,413.5,718.2,413.5z M720.8,133.5
			c-4.6,0-8.3-3.7-8.3-8.3c0-4.6,3.7-8.3,8.3-8.3c4.6,0,8.3,3.7,8.3,8.3C729.1,129.8,725.4,133.5,720.8,133.5z"/>
	</g>
</g>
</svg>
