<?xml version="1.0" encoding="utf-8"?>
<!-- Generator: Adobe Illustrator 25.1.0, SVG Export Plug-In . SVG Version: 6.00 Build 0)  -->
<svg version="1.1" xmlns="http://www.w3.org/2000/svg" xmlns:xlink="http://www.w3.org/1999/xlink" x="0px" y="0px"
	 viewBox="0 0 337.8 202.5" style="enable-background:new 0 0 337.8 202.5;" xml:space="preserve">
<style type="text/css">
	.st0{fill:none;}
	.st1{opacity:0.5;fill:#FFFFFF;}
	.st2{font-family:'MyriadPro-Regular';}
	.st3{font-size:6px;}
	.st4{fill:none;stroke:#DEE3FC;stroke-width:0.3948;stroke-miterlimit:10;}
	.st5{fill:#DEE3FC;}
	.st6{fill:#A4AFFF;}
	.st7{fill:#FFFFFF;}
	.st8{fill:#3945BA;}
	
		.st9{fill:none;stroke:#698BD1;stroke-width:0.5;stroke-linecap:round;stroke-linejoin:round;stroke-miterlimit:10;stroke-dasharray:1.4185;}
	.st10{fill:#4B5A9B;}
	.st11{fill:#BC0FBC;}
	.st12{fill:#B2C1F9;}
	.st13{fill:#EA0FE4;}
	.st14{fill:none;stroke:#495AD6;stroke-width:0.4478;stroke-miterlimit:10;}
	.st15{fill:none;stroke:#495AD6;stroke-width:0.8358;stroke-linecap:round;stroke-linejoin:round;stroke-miterlimit:10;}
	.st16{fill:#F0F4FF;}
	.st17{fill:#3B47BC;}
	.st18{fill:#495AD6;}
	.st19{fill:#281616;}
	.st20{fill:#002C54;}
	.st21{fill:#052635;}
	.st22{fill:#E5918F;}
	.st23{fill:#C7E5F2;}
	.st24{fill:#CC6362;}
	.st25{fill:none;stroke:#FFFFFF;stroke-width:0.2505;stroke-miterlimit:10;}
	.st26{opacity:0.5;}
	.st27{fill:#375F84;}
	.st28{fill:#45D7DE;}
	.st29{fill:#E49191;}
	.st30{fill:#467CDB;}
	.st31{fill:#5996EF;}
	.st32{fill:none;stroke:#FFFFFF;stroke-width:0.4478;stroke-miterlimit:10;}
	.st33{fill:#FFFFFF;stroke:#495AD6;stroke-width:0.4478;stroke-miterlimit:10;}
	.st34{fill:none;stroke:#495AD6;stroke-width:0.8358;stroke-miterlimit:10;}
	.st35{fill:none;stroke:#495AD6;stroke-width:0.8358;stroke-linecap:round;stroke-miterlimit:10;}
	.st36{fill:#193091;}
	.st37{fill:#3DBDC4;}
	.st38{fill:none;stroke:#FFFFFF;stroke-width:0.4478;stroke-linecap:round;stroke-miterlimit:10;}
	.st39{fill:#6589D1;}
	.st40{fill:#3B5FB7;}
	.st41{fill:#9FB739;}
	.st42{fill:none;stroke:#FFFFFF;stroke-linecap:round;stroke-miterlimit:10;}
	.st43{fill:none;stroke:#DEE3FC;stroke-width:0.5;stroke-linecap:round;stroke-miterlimit:10;}
	.st44{fill:#844AF4;stroke:#DEE3FC;stroke-width:0.5;stroke-miterlimit:10;}
	.st45{fill:#7E89FD;}
	.st46{fill:#7E89FD;stroke:#DEE3FC;stroke-width:0.5;stroke-miterlimit:10;}
	.st47{fill:#B8F4E3;}
	.st48{fill:#B4C1EF;}
	.st49{fill:none;stroke:#FFFFFF;stroke-width:0.5572;stroke-linecap:round;stroke-miterlimit:10;}
</style>
<g id="BACKGROUND">
</g>
<g id="OBJECTS">
	<g>
		<rect x="281.7" y="191" class="st0" width="54.1" height="8.4"/>
		<text transform="matrix(1 0 0 1 281.7329 195.3004)" class="st1 st2 st3">Designed by Freepik</text>
		<g>
			<g>
				<g>
					<path class="st4" d="M118.7,50.3v-5.1c0-0.5-0.4-0.9-0.9-0.9h-1.3c-0.4,0-0.7-0.3-0.8-0.6c-0.5-2-1.2-3.9-2.3-5.5
						c-0.2-0.3-0.2-0.8,0.1-1l0.9-0.9c0.4-0.4,0.4-0.9,0-1.3l-3.6-3.6c-0.4-0.4-0.9-0.4-1.3,0l-0.9,0.9c-0.3,0.3-0.7,0.3-1,0.1
						c-1.7-1-3.6-1.8-5.5-2.3c-0.4-0.1-0.6-0.4-0.6-0.8v-1.3c0-0.5-0.4-0.9-0.9-0.9h-5.1c-0.5,0-0.9,0.4-0.9,0.9v1.3
						c0,0.4-0.3,0.7-0.6,0.8c-2,0.5-3.9,1.2-5.5,2.3c-0.3,0.2-0.8,0.2-1-0.1l-0.9-0.9c-0.4-0.4-0.9-0.4-1.3,0l-3.6,3.6
						c-0.4,0.4-0.4,0.9,0,1.3l0.9,0.9c0.3,0.3,0.3,0.7,0.1,1c-1,1.7-1.8,3.6-2.3,5.5c-0.1,0.4-0.4,0.6-0.8,0.6h-1.3
						c-0.5,0-0.9,0.4-0.9,0.9v5.1c0,0.5,0.4,0.9,0.9,0.9h1.3c0.4,0,0.7,0.3,0.8,0.6c0.5,2,1.2,3.9,2.3,5.5c0.2,0.3,0.2,0.8-0.1,1
						l-0.9,0.9c-0.4,0.4-0.4,0.9,0,1.3l3.6,3.6c0.4,0.4,0.9,0.4,1.3,0l0.9-0.9c0.3-0.3,0.7-0.3,1-0.1c1.7,1,3.5,1.8,5.5,2.3
						c0.4,0.1,0.6,0.4,0.6,0.8v1.3c0,0.5,0.4,0.9,0.9,0.9h5.1c0.5,0,0.9-0.4,0.9-0.9v-1.3c0-0.4,0.3-0.7,0.6-0.8
						c2-0.5,3.9-1.2,5.5-2.3c0.3-0.2,0.8-0.2,1,0.1l0.9,0.9c0.4,0.4,0.9,0.4,1.3,0l3.6-3.6c0.4-0.4,0.4-0.9,0-1.3l-0.9-0.9
						c-0.3-0.3-0.3-0.7-0.1-1c1-1.7,1.8-3.5,2.3-5.5c0.1-0.4,0.4-0.6,0.8-0.6h1.3C118.2,51.2,118.7,50.8,118.7,50.3z M97.8,62.2
						c-8,0-14.4-6.5-14.4-14.5c0-8,6.5-14.4,14.4-14.4c8,0,14.4,6.5,14.4,14.4C112.3,55.8,105.8,62.2,97.8,62.2z"/>
					<path class="st5" d="M142.2,67.7v-3.5c0-0.3-0.3-0.6-0.6-0.6h-0.9c-0.3,0-0.5-0.2-0.6-0.4c-0.3-1.4-0.8-2.6-1.6-3.8
						c-0.1-0.2-0.1-0.5,0.1-0.7l0.6-0.6c0.2-0.2,0.2-0.6,0-0.9l-2.5-2.5c-0.2-0.2-0.6-0.2-0.9,0l-0.6,0.6c-0.2,0.2-0.5,0.2-0.7,0.1
						c-1.1-0.7-2.4-1.2-3.8-1.6c-0.3-0.1-0.4-0.3-0.4-0.6v-0.9c0-0.3-0.3-0.6-0.6-0.6h-3.5c-0.3,0-0.6,0.3-0.6,0.6v0.9
						c0,0.3-0.2,0.5-0.4,0.6c-1.4,0.3-2.6,0.8-3.8,1.6c-0.2,0.1-0.5,0.1-0.7-0.1l-0.6-0.6c-0.2-0.2-0.6-0.2-0.9,0l-2.5,2.5
						c-0.2,0.2-0.2,0.6,0,0.9l0.6,0.6c0.2,0.2,0.2,0.5,0.1,0.7c-0.7,1.1-1.2,2.4-1.6,3.8c-0.1,0.3-0.3,0.4-0.6,0.4h-0.9
						c-0.3,0-0.6,0.3-0.6,0.6v3.5c0,0.3,0.3,0.6,0.6,0.6h0.9c0.3,0,0.5,0.2,0.6,0.4c0.3,1.4,0.8,2.6,1.6,3.8
						c0.1,0.2,0.1,0.5-0.1,0.7l-0.6,0.6c-0.2,0.2-0.2,0.6,0,0.9l2.5,2.5c0.2,0.2,0.6,0.2,0.9,0l0.6-0.6c0.2-0.2,0.5-0.2,0.7-0.1
						c1.1,0.7,2.4,1.2,3.8,1.6c0.3,0.1,0.4,0.3,0.4,0.6v0.9c0,0.3,0.3,0.6,0.6,0.6h3.5c0.3,0,0.6-0.3,0.6-0.6v-0.9
						c0-0.3,0.2-0.5,0.4-0.6c1.4-0.3,2.6-0.8,3.8-1.6c0.2-0.1,0.5-0.1,0.7,0.1l0.6,0.6c0.2,0.2,0.6,0.2,0.9,0l2.5-2.5
						c0.2-0.2,0.2-0.6,0-0.9l-0.6-0.6c-0.2-0.2-0.2-0.5-0.1-0.7c0.7-1.1,1.2-2.4,1.6-3.8c0.1-0.3,0.3-0.4,0.6-0.4h0.9
						C141.9,68.3,142.2,68,142.2,67.7z M128,75.2c-5.1,0-9.3-4.2-9.3-9.3c0-5.1,4.2-9.3,9.3-9.3c5.1,0,9.3,4.2,9.3,9.3
						C137.3,71.1,133.2,75.2,128,75.2z"/>
				</g>
				<g>
					<circle class="st6" cx="76.5" cy="158.5" r="1.7"/>
					<circle class="st6" cx="303.3" cy="112.2" r="1.7"/>
					<circle class="st6" cx="299.9" cy="51.8" r="1.7"/>
					<circle class="st6" cx="239" cy="31.2" r="1.1"/>
					<path class="st6" d="M83.1,17.1c0,0.6-0.5,1.1-1.1,1.1c-0.6,0-1.1-0.5-1.1-1.1c0-0.6,0.5-1.1,1.1-1.1
						C82.6,16,83.1,16.5,83.1,17.1z"/>
					<path class="st6" d="M106.6,82.5c0,0.6-0.5,1.1-1.1,1.1c-0.6,0-1.1-0.5-1.1-1.1c0-0.6,0.5-1.1,1.1-1.1
						C106.1,81.4,106.6,81.9,106.6,82.5z"/>
					<path class="st6" d="M67.6,160.2c0,0.6-0.5,1.1-1.1,1.1c-0.6,0-1.1-0.5-1.1-1.1c0-0.6,0.5-1.1,1.1-1.1
						C67.2,159.1,67.6,159.6,67.6,160.2z"/>
					<circle class="st6" cx="278.4" cy="159.5" r="1.7"/>
					<circle class="st6" cx="314.4" cy="159.5" r="1.7"/>
					<circle class="st6" cx="112.3" cy="12.4" r="1.7"/>
					<path class="st6" d="M229.1,89.5c0,1.3-1,2.3-2.3,2.3s-2.3-1-2.3-2.3s1-2.3,2.3-2.3S229.1,88.2,229.1,89.5z"/>
					<path class="st6" d="M62,61.5c0,1.3-1,2.3-2.3,2.3c-1.3,0-2.3-1-2.3-2.3c0-1.3,1-2.3,2.3-2.3C61,59.2,62,60.2,62,61.5z"/>
				</g>
				<g>
					<path class="st7" d="M55.6,27.6h-2.8c-0.2,0-0.3-0.1-0.3-0.3v-2.8c0-0.2,0.1-0.3,0.3-0.3h2.8c0.2,0,0.3,0.1,0.3,0.3v2.8
						C56,27.5,55.8,27.6,55.6,27.6z"/>
					<path class="st7" d="M60.3,27.6h-2.8c-0.2,0-0.3-0.1-0.3-0.3v-2.8c0-0.2,0.1-0.3,0.3-0.3h2.8c0.2,0,0.3,0.1,0.3,0.3v2.8
						C60.7,27.5,60.5,27.6,60.3,27.6z"/>
					<path class="st7" d="M65,27.6h-2.8c-0.2,0-0.3-0.1-0.3-0.3v-2.8c0-0.2,0.1-0.3,0.3-0.3H65c0.2,0,0.3,0.1,0.3,0.3v2.8
						C65.4,27.5,65.2,27.6,65,27.6z"/>
				</g>
				<g>
					<g>
						<path class="st5" d="M294.9,151h-2.8c-0.2,0-0.3-0.1-0.3-0.3v-2.8c0-0.2,0.1-0.3,0.3-0.3h2.8c0.2,0,0.3,0.1,0.3,0.3v2.8
							C295.3,150.9,295.1,151,294.9,151z"/>
						<path class="st5" d="M299.6,151h-2.8c-0.2,0-0.3-0.1-0.3-0.3v-2.8c0-0.2,0.1-0.3,0.3-0.3h2.8c0.2,0,0.3,0.1,0.3,0.3v2.8
							C300,150.9,299.8,151,299.6,151z"/>
						<path class="st5" d="M304.3,151h-2.8c-0.2,0-0.3-0.1-0.3-0.3v-2.8c0-0.2,0.1-0.3,0.3-0.3h2.8c0.2,0,0.3,0.1,0.3,0.3v2.8
							C304.6,150.9,304.5,151,304.3,151z"/>
					</g>
				</g>
				<g>
					<g>
						<path class="st5" d="M77.7,149.1h-2.8c-0.2,0-0.3-0.1-0.3-0.3v-2.8c0-0.2,0.1-0.3,0.3-0.3h2.8c0.2,0,0.3,0.1,0.3,0.3v2.8
							C78,148.9,77.9,149.1,77.7,149.1z"/>
						<path class="st5" d="M82.4,149.1h-2.8c-0.2,0-0.3-0.1-0.3-0.3v-2.8c0-0.2,0.1-0.3,0.3-0.3h2.8c0.2,0,0.3,0.1,0.3,0.3v2.8
							C82.7,148.9,82.6,149.1,82.4,149.1z"/>
						<path class="st5" d="M87.1,149.1h-2.8c-0.2,0-0.3-0.1-0.3-0.3v-2.8c0-0.2,0.1-0.3,0.3-0.3h2.8c0.2,0,0.3,0.1,0.3,0.3v2.8
							C87.4,148.9,87.3,149.1,87.1,149.1z"/>
					</g>
				</g>
			</g>
			<g>
				<g>
					<path class="st8" d="M205,179.3h-67.7c-5.9,0-10.7-4.8-10.7-10.7V18c0-5.9,4.8-10.7,10.7-10.7H205c5.9,0,10.7,4.8,10.7,10.7
						v150.6C215.7,174.5,210.9,179.3,205,179.3z"/>
					<path class="st7" d="M204.7,176.8h-67c-5.2,0-9.3-4.2-9.3-9.3V18.2c0-5.2,4.2-9.3,9.3-9.3h67c5.2,0,9.3,4.2,9.3,9.3v149.3
						C214,172.6,209.9,176.8,204.7,176.8z"/>
					<path class="st5" d="M210.3,17.9V167c0,3.5-2.8,6.3-6.3,6.3h-65.5c-3.5,0-6.3-2.8-6.3-6.3V17.9c0-3.5,2.8-6.3,6.3-6.3h10.9
						c0.6,0,1.2,0.3,1.4,0.9l1.2,2.3c0.5,1.1,1.6,1.7,2.8,1.7h32.9c1.2,0,2.3-0.7,2.8-1.7l1.2-2.3c0.3-0.5,0.8-0.9,1.4-0.9H204
						C207.5,11.6,210.3,14.4,210.3,17.9z"/>
					<path class="st5" d="M185,13.8h-26.5c-0.6,0-1.1-0.5-1.1-1.1l0,0c0-0.6,0.5-1.1,1.1-1.1H185c0.6,0,1.1,0.5,1.1,1.1l0,0
						C186.1,13.3,185.6,13.8,185,13.8z"/>
				</g>
				<path class="st9" d="M199.9,168.2H141c-2.3,0-4.2-1.9-4.2-4.2v-20.8c0-2.3,1.9-4.2,4.2-4.2h58.9c2.3,0,4.2,1.9,4.2,4.2V164
					C204.1,166.3,202.2,168.2,199.9,168.2z"/>
				<path class="st9" d="M196.9,96.6h-29.2c-1.7,0-3-1.4-3-3V79.1c0-1.7,1.4-3,3-3h29.2c1.7,0,3,1.4,3,3v14.4
					C199.9,95.2,198.6,96.6,196.9,96.6z"/>
				<g>
					<path class="st10" d="M203.2,134.1h-60.3c-2,0-3.6-1.6-3.6-3.6v-25.5c0-2,1.6-3.6,3.6-3.6h60.3c2,0,3.6,1.6,3.6,3.6v25.5
						C206.8,132.5,205.2,134.1,203.2,134.1z"/>
					<path class="st11" d="M204.1,102.4v25.5c0,2-1.6,3.6-3.6,3.6h-60.1c-2,0-3.6-1.6-3.6-3.6v-25.5c0-2,1.6-3.6,3.6-3.6h60.1
						C202.5,98.9,204.1,100.5,204.1,102.4z"/>
					<path class="st7" d="M160.1,128.9h-17.7c-1.3,0-2.4-1.1-2.4-2.4v-17.7c0-1.3,1.1-2.4,2.4-2.4h17.7c1.3,0,2.4,1.1,2.4,2.4v17.7
						C162.5,127.8,161.4,128.9,160.1,128.9z"/>
					<g>
						<path class="st12" d="M181,109.1h-15.6c-0.4,0-0.8-0.3-0.8-0.8l0,0c0-0.4,0.3-0.8,0.8-0.8H181c0.4,0,0.8,0.3,0.8,0.8l0,0
							C181.8,108.8,181.5,109.1,181,109.1z"/>
						<path class="st12" d="M173.9,112.2h-8.5c-0.4,0-0.8-0.3-0.8-0.8l0,0c0-0.4,0.3-0.8,0.8-0.8h8.5c0.4,0,0.8,0.3,0.8,0.8l0,0
							C174.7,111.9,174.4,112.2,173.9,112.2z"/>
						<path class="st12" d="M200,112.2h-23c-0.4,0-0.8-0.3-0.8-0.8l0,0c0-0.4,0.3-0.8,0.8-0.8h23c0.4,0,0.8,0.3,0.8,0.8l0,0
							C200.8,111.9,200.4,112.2,200,112.2z"/>
						<path class="st12" d="M178.6,115.3h-13.1c-0.4,0-0.8-0.3-0.8-0.8l0,0c0-0.4,0.3-0.8,0.8-0.8h13.1c0.4,0,0.8,0.3,0.8,0.8l0,0
							C179.3,114.9,179,115.3,178.6,115.3z"/>
						<path class="st12" d="M189.7,115.3h-8.3c-0.4,0-0.8-0.3-0.8-0.8l0,0c0-0.4,0.3-0.8,0.8-0.8h8.3c0.4,0,0.8,0.3,0.8,0.8l0,0
							C190.5,114.9,190.1,115.3,189.7,115.3z"/>
						<path class="st12" d="M200,115.3h-7.6c-0.4,0-0.8-0.3-0.8-0.8l0,0c0-0.4,0.3-0.8,0.8-0.8h7.6c0.4,0,0.8,0.3,0.8,0.8l0,0
							C200.8,114.9,200.4,115.3,200,115.3z"/>
						<path class="st12" d="M200,118.3h-34.6c-0.4,0-0.8-0.3-0.8-0.8l0,0c0-0.4,0.3-0.8,0.8-0.8H200c0.4,0,0.8,0.3,0.8,0.8l0,0
							C200.8,118,200.4,118.3,200,118.3z"/>
						<path class="st12" d="M184.5,121.4h-19c-0.4,0-0.8-0.3-0.8-0.8l0,0c0-0.4,0.3-0.8,0.8-0.8h19c0.4,0,0.8,0.3,0.8,0.8l0,0
							C185.2,121.1,184.9,121.4,184.5,121.4z"/>
						<path class="st12" d="M200,121.4h-12.5c-0.4,0-0.8-0.3-0.8-0.8l0,0c0-0.4,0.3-0.8,0.8-0.8H200c0.4,0,0.8,0.3,0.8,0.8l0,0
							C200.8,121.1,200.4,121.4,200,121.4z"/>
						<path class="st12" d="M176.6,124.5h-11.2c-0.4,0-0.8-0.3-0.8-0.8l0,0c0-0.4,0.3-0.8,0.8-0.8h11.2c0.4,0,0.8,0.3,0.8,0.8l0,0
							C177.4,124.1,177,124.5,176.6,124.5z"/>
						<path class="st12" d="M190.8,124.5h-11.2c-0.4,0-0.8-0.3-0.8-0.8l0,0c0-0.4,0.3-0.8,0.8-0.8h11.2c0.4,0,0.8,0.3,0.8,0.8l0,0
							C191.6,124.1,191.2,124.5,190.8,124.5z"/>
						<path class="st12" d="M200,124.5h-6.5c-0.4,0-0.8-0.3-0.8-0.8l0,0c0-0.4,0.3-0.8,0.8-0.8h6.5c0.4,0,0.8,0.3,0.8,0.8l0,0
							C200.8,124.1,200.4,124.5,200,124.5z"/>
						<path class="st12" d="M181,127.5h-15.6c-0.4,0-0.8-0.3-0.8-0.8l0,0c0-0.4,0.3-0.8,0.8-0.8H181c0.4,0,0.8,0.3,0.8,0.8l0,0
							C181.8,127.2,181.5,127.5,181,127.5z"/>
						<path class="st12" d="M200,109.1h-15.6c-0.4,0-0.8-0.3-0.8-0.8l0,0c0-0.4,0.3-0.8,0.8-0.8H200c0.4,0,0.8,0.3,0.8,0.8l0,0
							C200.8,108.8,200.4,109.1,200,109.1z"/>
					</g>
					<g>
						<path class="st13" d="M204.1,102.4v1.1h-67.3v-1.1c0-2,1.6-3.6,3.6-3.6h60.1C202.5,98.9,204.1,100.5,204.1,102.4z"/>
						<g>
							<path class="st5" d="M191.4,101.3c0,0.5-0.4,0.8-0.8,0.8s-0.8-0.4-0.8-0.8c0-0.5,0.4-0.8,0.8-0.8S191.4,100.8,191.4,101.3z"
								/>
							<path class="st5" d="M195.7,101.3c0,0.5-0.4,0.8-0.8,0.8s-0.8-0.4-0.8-0.8c0-0.5,0.4-0.8,0.8-0.8S195.7,100.8,195.7,101.3z"
								/>
							<path class="st5" d="M199.9,101.3c0,0.5-0.4,0.8-0.8,0.8s-0.8-0.4-0.8-0.8c0-0.5,0.4-0.8,0.8-0.8S199.9,100.8,199.9,101.3z"
								/>
						</g>
					</g>
				</g>
				<g>
					<path class="st14" d="M157.6,96.6h-13.3c-2,0-3.6-1.6-3.6-3.6V79.7c0-2,1.6-3.6,3.6-3.6h13.3c2,0,3.6,1.6,3.6,3.6V93
						C161.2,95,159.6,96.6,157.6,96.6z"/>
					<g>
						<polyline class="st15" points="147.8,83.4 144.8,86.3 147.8,89.3 						"/>
						<polyline class="st15" points="154.2,83.4 157.1,86.3 154.2,89.3 						"/>
						<line class="st15" x1="152.4" y1="83.4" x2="149.6" y2="89.3"/>
					</g>
				</g>
				<g>
					<path class="st12" d="M204.1,26.2v41.6c0,2.3-1.8,4.1-4.1,4.1h-59.1c-2.3,0-4.1-1.8-4.1-4.1V26.2c0-2.3,1.8-4.1,4.1-4.1H200
						C202.3,22.1,204.1,23.9,204.1,26.2z"/>
					<circle class="st16" cx="190.5" cy="35.2" r="9.8"/>
					<path class="st7" d="M176.4,71.9h-35.5c-2.3,0-4.1-1.8-4.1-4.1v-6.6l15.5-26.9c0.8-1.4,2.8-1.4,3.7,0l11.7,20.3l8.7,15.1
						C176.8,70.4,176.7,71.3,176.4,71.9z"/>
					<path class="st16" d="M191.6,71.9h-33.9l9.9-17.2l5.4-9.3c0.7-1.3,2.6-1.3,3.3,0L191.6,71.9z"/>
				</g>
			</g>
			<g>
				<g>
					<rect x="232.8" y="149.3" class="st17" width="26.1" height="39.3"/>
					
						<rect x="258.9" y="149.3" transform="matrix(-1 -1.224647e-16 1.224647e-16 -1 527.8008 337.7906)" class="st18" width="10" height="39.3"/>
					<g>
						<rect x="260.3" y="150.8" class="st12" width="7.3" height="1.3"/>
						<rect x="260.3" y="153.5" class="st12" width="7.3" height="1.3"/>
						<rect x="260.3" y="156.1" class="st12" width="7.3" height="1.3"/>
						<rect x="260.3" y="158.8" class="st12" width="7.3" height="1.3"/>
						<rect x="260.3" y="161.5" class="st12" width="7.3" height="1.3"/>
						<rect x="260.3" y="164.2" class="st12" width="7.3" height="1.3"/>
						<rect x="260.3" y="166.9" class="st12" width="7.3" height="1.3"/>
						<rect x="260.3" y="169.6" class="st12" width="7.3" height="1.3"/>
						<rect x="260.3" y="172.3" class="st12" width="7.3" height="1.3"/>
						<rect x="260.3" y="175" class="st12" width="7.3" height="1.3"/>
						<rect x="260.3" y="177.7" class="st12" width="7.3" height="1.3"/>
						<rect x="260.3" y="180.4" class="st12" width="7.3" height="1.3"/>
						<rect x="260.3" y="183.1" class="st12" width="7.3" height="1.3"/>
						<rect x="260.3" y="185.8" class="st12" width="7.3" height="1.3"/>
					</g>
				</g>
				<g>
					<path class="st19" d="M228.5,188.5h13.3c0,0,0.7-2.4-0.9-5.3c0,0-1.1,0.9-4.3,0.3c0,0-1.3,1.1-2.3,1.6
						C233.5,185.5,228.2,186.6,228.5,188.5z"/>
					<path class="st20" d="M229.4,151.1c0.9,5.1,4.8,22.4,6.5,32.7c3.1,0.3,4.6-0.1,5.4-0.3c-0.2-3.6-0.5-12.1-0.4-15.8
						c0.1-6.3,0.4-14.7-2.4-19.2l-9.4,0.7c0.1,0.5,0.1,0.9,0.2,1.2C229.3,150.6,229.4,150.8,229.4,151.1z"/>
					<path class="st19" d="M204.5,188.5h13.3c0,0,0.7-2.4-0.9-5.3c0,0-1.1,0.9-4.3,0.3c0,0-1.3,1.1-2.3,1.6
						C209.4,185.5,204.1,186.6,204.5,188.5z"/>
					<path class="st21" d="M212.2,183.5c2.5,0.6,4.4,0.6,5.2,0.5c0.7-4.1,1.8-13.2,2.8-17.4c1.6-6.6,3.1-15.7,2-18.9l-9.2-2.3
						C213.1,145.6,212.4,173.4,212.2,183.5z"/>
					<path class="st21" d="M248.9,135.9L248.9,135.9c-0.2-1.8-0.4-3.1-0.4-3.1l-10.3,2.5l-8.7,2c-3.2,0.7-7.2,1.6-10.6,2.4
						c-3.9,0.9-6.4,3.8-5.6,7.7l1,4.7c5.4-0.1,30.9-2.5,33.1-3.6C249.8,147.1,250.5,142.7,248.9,135.9z"/>
					<path class="st20" d="M264.3,135.9L264.3,135.9c-0.2-1.8-1.1-3.8-1.1-3.8l-9.6,3.1l-8.7,2c-3.2,0.7-7.2,1.6-10.6,2.4
						c-3.9,0.9-6.4,3.8-5.6,7.7l1,4.7c5.4-0.1,28.1-0.9,33.1-3.6C265.1,147.1,265.9,142.7,264.3,135.9z"/>
					<g>
						<path class="st22" d="M235.5,121.1c0,0,4.6-2.1,5.8,0c0.7,1.1,0.2,3.2-1.3,4.1c-1.6,0.9-10.4,4.6-18.7,6.7
							c0,0-0.4-1.2-0.9-2.4c0,0,3.7-1.5,7.4-4.2C231.5,122.8,235.5,121.1,235.5,121.1L235.5,121.1z"/>
					</g>
					<path class="st22" d="M236.6,106.8l-3.9,15.6c0,0,0.4,4,4.4,2c4-1.9,6.6-14.4,6.6-14.4L236.6,106.8z"/>
					<path class="st7" d="M243.2,115.6c-0.5-0.1-0.9-0.2-1.4-0.4c-0.5-0.1-0.9-0.3-1.3-0.4c-3.7-1.3-5.7-2.8-5.7-2.8
						c1.2-5.1,2.6-8.5,3.8-10.8c0-0.1,0.1-0.1,0.1-0.2c0-0.1,0.1-0.1,0.1-0.2c0.7-1.1,1.6-2.1,2.7-2.8c0.1-0.1,0.2-0.2,0.3-0.2
						l0.5,8.2l0.1,0.8L243.2,115.6z"/>
					<path class="st23" d="M243.2,115.6c-0.5-0.1-0.9-0.2-1.4-0.4c-0.5-0.1-0.9-0.3-1.3-0.4c0.8-5.5,1.5-9,1.5-9l0.4,1L243.2,115.6z
						"/>
					<path class="st7" d="M266.4,101.5c-0.1,2.4-0.5,6.3-0.9,10.2c-0.1,1.2-0.2,2.5-0.3,3.7c-0.1,0.7-1.2,4.7-1.2,5.4
						c-0.2,3.4-1.9,6-0.3,11.2c0.4,1.2,0.5,1.9,0.5,2.4c0,0.4-0.5,0.7-0.6,0.8c-0.7,0.4-2,0.7-3.5,0.8h0c-3.1,0.4-7.3,0.5-9.9,0.5
						c-3.4,0-8.5-0.5-9.2-1.4c-0.6-0.8,0-1.9,0.2-3.5c1.3-7.1,0.8-10.8,0.7-16c0-0.1,0-0.3,0-0.4c-0.1-7.9-0.7-14.7-0.3-17.2
						c0.1-0.1,0.2-0.2,0.3-0.2c0.5-0.4,1.1-0.7,1.6-1c0,0,0.1-0.1,0.2-0.1c0.2-0.1,0.3-0.2,0.5-0.3c0.1,0,0.1-0.1,0.2-0.1
						c1.2-0.6,2.8-1.2,3.8-1.5c0.1,0,0.2-0.1,0.3-0.1c0.9-0.1,1.9-0.1,3,0c0.9,0,2.3,0.2,3.9,0.4c0,0,0,0,0,0c1.7,0.2,3.6,0.6,5.1,1
						c0,0,0,0,0,0c0.3,0.1,2.1,0.8,4.1,2.8C265.1,99.6,265.8,100.5,266.4,101.5z"/>
					<path class="st23" d="M263.6,132c0.4,1.2,0.5,1.9,0.5,2.4c0,0.4-0.5,0.7-0.6,0.8c-0.7,0.4-2,0.7-3.5,0.8c0.7-0.1,1.8-1.1,1.8-2
						c0-0.7-0.8-5.1-0.6-7.9c0.2-2.8,0.7-7.4-0.2-11c-0.9-3.6-1.7-8.4-1.7-8.4l5,3c0,0,0.6,0.9,1.3,2c-0.1,1.2-0.2,2.5-0.3,3.7
						C265.1,116.1,262,126.8,263.6,132z"/>
					<g>
						<path class="st20" d="M241.8,80.5c0,0,0.4,5.2,2.2,5.5c1.7,0.3,1.3-1.9,1.3-1.9l-0.2-2.5L241.8,80.5z"/>
						<path class="st22" d="M249.7,99.3c-3.4-0.4-2.1-3.7-1.6-4.4c0.1,0,0.7-0.2,0.7-0.2c0,0,0,0,0,0c0.1-0.1,0.2-0.2,0.3-0.4
							c0.3-0.9,0.2-2.6,0.2-2.7c0,0,0,0,0,0v-0.3c0.1-0.2,0.1-0.4,0.2-0.6l1.8-1.4l3.7-2.9c0,0-1,4.9-0.2,8c0.1,0.2,0.2,0.6,0.5,0.7
							c0,0,0,0,0,0c0.1,0.1,0.2,0.1,0.4,0.1C256.5,95.7,255.2,100,249.7,99.3z"/>
						<path class="st24" d="M252.7,89.5c0,0,0,3.3-3.6,4.8c0.3-0.9,0.2-2.6,0.2-2.7l1.5-1.2L252.7,89.5z"/>
						<path class="st22" d="M242.6,81.3c0,0,0.8,10.8,3.7,11.7c0,0,3.7,0.3,6.4-3.2c0.8-1,1.7-1.3,2.1-2.5c0.5-2,1.2-5.8,0.3-8
							C253.7,76,242.7,73.5,242.6,81.3z"/>
						<path class="st20" d="M255.1,77.4c0-2-2-2.7-2-2.7c-2-0.9-6.1-0.5-10.3,0.4c-1,0.2-2.2-0.4-2.9,0.1c-0.8,0.6,0,3.2,0,3.2
							c1.6,4.9,7.6,3.3,9.4,2.7c0.4,1.3,0.4,3,1.4,3.9c0.6,0.5,1.7,0.5,2.7,0.4c0.1,0.3,0.6,0.5,0.7,0.8c0.3,1.2,0.3,3,0.3,4.3
							l0.5-0.2C255,90.1,260.3,77.6,255.1,77.4z"/>
						<g>
							<path class="st25" d="M245.6,84.9c0.2,0.9-0.3,1.7-1,1.8c-0.7,0.1-1.4-0.5-1.5-1.4c-0.2-0.9,0.3-1.7,1-1.8
								C244.7,83.4,245.4,84,245.6,84.9z"/>
							<path class="st25" d="M249.1,84.2c0.2,0.9-0.3,1.7-1,1.8c-0.7,0.1-1.4-0.5-1.5-1.4c-0.2-0.9,0.3-1.7,1-1.8
								C248.3,82.7,248.9,83.3,249.1,84.2z"/>
							<path class="st25" d="M245.6,84.9c0,0,0.2-0.3,1-0.2"/>
							<line class="st25" x1="249.1" y1="84.5" x2="252.1" y2="84"/>
						</g>
						<g>
							<path class="st22" d="M252.4,87.8c2.1,0.8,2.7-4.3,0.8-4.5c-1.5-0.2-1.6,1.9-1.6,1.9S251.2,87.3,252.4,87.8z"/>
						</g>
						<g class="st26">
							<g>
								<path class="st24" d="M253,84c-0.3,0.4-0.5,0.8-0.5,1.2c-0.1,0.4,0,0.9,0.1,1.4c-0.2-0.2-0.3-0.4-0.3-0.7
									c-0.1-0.2-0.1-0.5-0.1-0.8C252.2,84.7,252.5,84.2,253,84z"/>
							</g>
							<g>
								<path class="st24" d="M253.4,85c-0.5,0.1-0.8,0.4-0.8,0.8l-0.3-0.1C252.4,85.2,252.9,84.9,253.4,85z"/>
							</g>
						</g>
					</g>
					<path class="st22" d="M272.2,123.2C272.2,123.2,272.2,123.2,272.2,123.2c-0.9,1.1-4.4,1.8-6,0.4c-0.5-0.5-1.1-1.7-1.7-3.2
						c-1.5-3.9-2.9-9.7-2.9-9.7l7.7-3.9c0,0,1,4.5,1.8,8.7c0,0,0,0,0,0.1c0.3,1.4,0.5,2.7,0.7,3.8c0,0,0,0.1,0,0.1
						C272.2,120.8,272.4,122.2,272.2,123.2z"/>
					<path class="st7" d="M258.8,105.2c0.7,3.1,3.1,9,3.1,9c1.6,0.3,3.8,0,5.7-0.7c2.1-0.8,3.6-2.3,3.6-2.3s-1.6-4.4-2.9-7.5
						c-1.3-2.8-2-3.9-2.5-4.4c-0.8-0.9-2.1-1.8-3.1-2.3L258.8,105.2z"/>
					<path class="st7" d="M268.5,107.3l-4.5-2l-3.6-9.2c0,0,0.7,0.2,1.5,0.5c0,0,0,0,0,0c0,0,0.1,0,0.1,0c0,0,0,0,0.1,0
						c0.8,0.4,3.8,2.1,5.8,8.5c0,0.1,0,0.1,0,0.2c0.2,0.7,0.4,1.3,0.5,1.6c0,0,0,0.1,0,0.1C268.5,107.2,268.5,107.2,268.5,107.3z"/>
					<g>
						<path class="st22" d="M272.2,123.2C272.2,123.2,272.2,123.2,272.2,123.2c-0.1,0.6-0.2,1-0.5,1.1c0,0-0.7,0.4-0.7,0.4
							c-0.9,0.6-2.7,1.6-4.8,2.5c-5.2,2.2-12.7,4.8-16.7,6c0,0-0.4-1.1-1-2.3c0,0,3.7-1.7,7.3-4.5c3.6-2.7,8.8-6.1,8.8-6.1l1.3-1.5
							c0,0,4.7-4.3,5.4-3.4c0,0,0,0,0,0.1c0.1,0.4,0.5,2.1,0.7,3.8c0,0,0,0.1,0,0.1C272.2,120.8,272.4,122.2,272.2,123.2z"/>
						<path class="st22" d="M249,130.6c0,0-0.9,0.5-1.8,0.4c-0.5-0.1-0.7-0.3-1.1-0.4c-0.4-0.1-1.4-0.2-1.9-0.4
							c-0.5-0.2-0.7-0.3-0.7,0.2c0,0.5,1,0.9,1.3,1.1c0.3,0.1,0.6,0.6,0.6,0.6c0,0.1-1.6,0.9-2.1,0.8c0,0-0.1,0.4-0.1,0.6
							c0.1,0.2,0.4,0.3,0.4,0.4c0,0.1-0.1,0.3,0,0.5c0.1,0.2,0.4,0.2,0.5,0.5c0.1,0.3,0,0.3,0.1,0.6c0.1,0.3,0.5,0.4,0.6,0.5
							c0.1,0.2,0,0.3,0.2,0.4c0.2,0.1,1.7-0.4,2.2-0.6c0.6-0.2,2-2.4,3.7-3.1L249,130.6z"/>
					</g>
					<path class="st27" d="M256.8,140.1H245v-1.1h11.7c0.3,0,0.6,0.3,0.6,0.6l0,0C257.3,139.8,257.1,140.1,256.8,140.1z"/>
					<path class="st27" d="M250.4,140.1H221c-0.4,0-0.7-0.2-0.8-0.6l-6-21.7c-0.1-0.5,0.2-1,0.7-1h28.4c0.7,0,1.2,0.4,1.4,1.1
						l6,21.6C250.9,139.8,250.7,140.1,250.4,140.1z"/>
					<path class="st28" d="M249.3,140.1h-29.4c-0.4,0-0.7-0.2-0.8-0.6l-6-21.7c-0.1-0.5,0.2-1,0.7-1h28.4c0.7,0,1.2,0.4,1.4,1.1
						l6,21.6C249.8,139.8,249.6,140.1,249.3,140.1z"/>
				</g>
			</g>
			<g>
				<path class="st29" d="M132.7,126.1l3.4-3.5c0,0,0.1-1.6,0.3-1.9c0.2-0.3,0.7-1.5,0.9-1.7c0.2-0.1,0.7,0,0.7,0s0.5-0.2,0.7-0.2
					c0.2,0,0.6,0.2,0.6,0.2s0.5,0,0.7,0c0.2,0,0.3,0.1,0.3,0.1s0.8-0.9,1.2-1.3c0.4-0.3,1-0.9,1.2-0.9c0.2,0,0.2,0.3,0.1,0.6
					c-0.1,0.3-0.7,0.8-0.7,0.8l-1.6,2.4c0,0,0.3-0.1,0.4-0.2c0.1-0.1,1.1-1,1.1-1c0.1,0,0.5-0.3,0.7,0c0.2,0.3-1.6,2.5-1.9,2.8
					c-0.3,0.3-2,1.2-2,1.2s-1.8,3.3-2,3.5C136.8,127.2,132.7,126.1,132.7,126.1z"/>
				<path class="st29" d="M136,110c0,0-1.9,11-3.7,11.3c0,0-7.2,0.3-8.7-8.4c-1.4-7.5,4.2-9.1,6.8-8.6
					C132.9,104.9,136.5,105.3,136,110z"/>
				<path class="st29" d="M129.6,119.5c0,0-1,1.4-1.4,4.6c0,0-3,0.4-5.7-1c0,0,1.5-4.6,1.7-9.6"/>
				<path class="st20" d="M127.6,102.5c-3.9,0.9-3.6,3.3-3.6,3.3c-1.8,0.5-2.2,1.2-2.2,4.6c0,3.4,1.2,7.4,1.9,7.8
					c0.7,0.3,4.5,0.3,4.8,0.2c0.3-0.1,1.7-3.2,1.3-3.8c-0.3-0.5,0-2.7,0.9-2.8c0.9-0.1,0.7,1.3,0.7,1.3l0.7-0.2l0.6-1.4
					c5.2,0.3,6.5-5.6,6.5-5.6C138.1,105.2,131.5,101.6,127.6,102.5z"/>
				<path class="st22" d="M84.2,177.1l4,0.6l-1.3,4.6l-4.3-1.1c0,0-1.7-2.4,0.9-4.1C83.6,177,84,177.1,84.2,177.1z"/>
				<path d="M113.7,165.2l-5.8-17.6c0,0-1.8-0.6-2.7,0c0,0-6.1,3.3-5.4,12.6c0.5,7,2,14.6,2.6,17.7l-15.5-0.6c0,0-1.9,2.3-0.7,5.2
					c0,0,19.5,5.3,22.3,5.7c2.2,0.4,4.7,0.7,5.9-0.3C116.4,186.2,113.7,165.2,113.7,165.2z"/>
				<path class="st22" d="M102.6,177.1l4,0.6l-1.3,4.6l-4.3-1.1c0,0-1.7-2.4,0.9-4.1C102,177,102.4,177.1,102.6,177.1z"/>
				<path class="st30" d="M101.2,179.5c-0.1,0.9,0.7,1.7,0.6,2c-0.1,0.2-2.8,4.7-2.8,4.7s2,0.9,1.7,2.1h-5.1c0,0-1.3-1.2-1.3-2.9
					c0,0,0.3-2,1.3-3.7s3-5.7,3-5.7s0.6-0.3,1.7,0c1.3,0.3,2.5,1.1,2.5,1.1S101.4,177.3,101.2,179.5z"/>
				<path class="st20" d="M141.9,184.2c-1.3-4.7-13.1-24.7-17-30c-8.2-3.6-16.9-6.6-16.9-6.6c-3.6,0.9-5.4,8.1-3.3,13
					c1.4,3.3,10.3,11.7,15.8,16.6l-15.2,0c0,0-1.8,2.7-0.2,5.2c0,0,25.2,5.7,27.4,6.1c2.2,0.3,7.2,0,7.2,0S142.9,188.2,141.9,184.2z
					"/>
				<path class="st30" d="M82.8,179.5c-0.1,0.9,0.7,1.7,0.6,2c-0.1,0.2-2.8,4.7-2.8,4.7s2,0.9,1.7,2.1h-5.1c0,0-1.3-1.2-1.3-2.9
					c0,0,0.3-2,1.3-3.7s3-5.7,3-5.7s0.6-0.3,1.7,0c1.3,0.3,2.5,1.1,2.5,1.1S83,177.3,82.8,179.5z"/>
				<path class="st29" d="M160.9,122.7l-8.1,14.3l-5.8-5.8l-4.8,7.2l1.4,0.7l-0.5,0.4c0,0,11.2,5.5,12.6,4.3
					c1.3-1.2,7.6-19.4,7.6-19.4L160.9,122.7z"/>
				<path class="st30" d="M147.9,132.1c0,0-1.5,6.5-4.6,9.5l-7.9-3c0,0-3.6,6.1-7.2,10.8c-1.4,1.8-1.8,4.4-3.4,4.7
					c-0.1,0-0.2-0.1-0.3-0.1c-4.4-1.3-10.8,0.1-16.1-1.9c-5.9-2.2-4.7-3.4-4.7-3.4s3.6-6.4,5.6-13.2c0.9-3,1.5-5.8,1.9-8
					c0.7-3.8,3.8-6.9,7.7-7.4c0,0,0.1,0,0.1,0c4.5-0.6,16.1,0.8,18.4,1.8S147.9,132.1,147.9,132.1z"/>
				<path class="st31" d="M135.5,138.7c0,0-3.6,6.1-7.2,10.8c-1.4,1.8-1.8,4.4-3.4,4.7c0.7-0.2,1.9-4,2.3-4.8
					c0.4-0.8,1.1-1.7,2.5-4.6c1.4-2.9,3.4-7.2,3.4-7.2L135.5,138.7z"/>
				<g>
					<path d="M120.3,177.3c0.7-0.1,1.3-0.2,2-0.2c0.7,0,1.3,0.1,2,0.1c1.3,0.2,2.6,0.5,3.8,1.1c-0.7-0.1-1.3-0.2-2-0.3
						c-0.7-0.1-1.3-0.2-1.9-0.3L120.3,177.3z"/>
				</g>
				<path class="st29" d="M166.9,117.4c-0.1,0-1,0.7-1.4,1l0.5-0.9c0,0,0.6-0.6,0.8-0.9c0.2-0.3,0.1-0.7-0.1-0.7
					c-0.1,0-0.9,0.6-1.3,0.9l0.1-0.2c0,0,0.6-0.6,0.8-0.9c0.2-0.3,0.1-0.7-0.1-0.7c-0.2,0-1.6,1.2-1.6,1.2l-0.7,0.9l0.5-1
					c0,0,0.3-0.3,0.5-0.7c0.2-0.4,0.1-0.5-0.1-0.6s-1.1,0.6-1.3,0.9c-0.2,0.3-1,1.4-1.1,1.6l-0.8,1.6c-0.1-0.5-0.1-1.3-0.2-1.8
					c-0.1-0.7-0.8-0.9-0.8-0.6c0,0.4-0.4,2.2-0.3,3.1c0.1,1,0.2,1.6,0.3,2.2c0.1,0.5-0.5,1.6-0.5,1.6s2.3,1.4,2.6,1
					c0.4-0.4,1.2-1.4,1.6-2c0.5-0.9,0.9-2,0.9-2l0.7-1.5c0,0,0.6-0.6,0.8-0.9C167.2,117.8,167.1,117.4,166.9,117.4z"/>
			</g>
			<g>
				<path class="st32" d="M296.8,71.9h-26.5c-1.7,0-3.1,1.4-3.1,3.1v6.3c0,1.6,1.2,2.9,2.7,3.1c0.2,0,0.4,0.2,0.4,0.4v3.4
					c0,0.2,0.3,0.3,0.4,0.1l2.7-3.8c0.1-0.1,0.2-0.2,0.4-0.2h23.1c1.7,0,3.1-1.4,3.1-3.1V75C299.9,73.3,298.5,71.9,296.8,71.9z"/>
				<g>
					<path class="st32" d="M274.3,78.1c0,0.6-0.5,1-1,1c-0.6,0-1-0.5-1-1c0-0.6,0.5-1,1-1C273.9,77.1,274.3,77.5,274.3,78.1z"/>
					<path class="st32" d="M279.5,78.1c0,0.6-0.5,1-1,1c-0.6,0-1-0.5-1-1c0-0.6,0.5-1,1-1C279,77.1,279.5,77.5,279.5,78.1z"/>
					<path class="st32" d="M284.6,78.1c0,0.6-0.5,1-1,1c-0.6,0-1-0.5-1-1c0-0.6,0.5-1,1-1C284.1,77.1,284.6,77.5,284.6,78.1z"/>
					<path class="st32" d="M289.7,78.1c0,0.6-0.5,1-1,1s-1-0.5-1-1c0-0.6,0.5-1,1-1S289.7,77.5,289.7,78.1z"/>
					<path class="st32" d="M294.8,78.1c0,0.6-0.5,1-1,1c-0.6,0-1-0.5-1-1c0-0.6,0.5-1,1-1C294.3,77.1,294.8,77.5,294.8,78.1z"/>
				</g>
			</g>
			<g>
				<path class="st32" d="M87.2,99.4h26.5c1.7,0,3.1,1.4,3.1,3.1v6.3c0,1.6-1.2,2.9-2.7,3.1c-0.2,0-0.4,0.2-0.4,0.4v3.4
					c0,0.2-0.3,0.3-0.4,0.1l-2.7-3.8c-0.1-0.1-0.2-0.2-0.4-0.2H87.2c-1.7,0-3.1-1.4-3.1-3.1v-6.3C84.1,100.7,85.5,99.4,87.2,99.4z"
					/>
				<g>
					<path class="st32" d="M109.6,105.6c0,0.6,0.5,1,1,1c0.6,0,1-0.5,1-1c0-0.6-0.5-1-1-1C110.1,104.6,109.6,105,109.6,105.6z"/>
					<path class="st32" d="M104.5,105.6c0,0.6,0.5,1,1,1c0.6,0,1-0.5,1-1c0-0.6-0.5-1-1-1C105,104.6,104.5,105,104.5,105.6z"/>
					<path class="st32" d="M99.4,105.6c0,0.6,0.5,1,1,1c0.6,0,1-0.5,1-1c0-0.6-0.5-1-1-1C99.9,104.6,99.4,105,99.4,105.6z"/>
					<path class="st32" d="M94.3,105.6c0,0.6,0.5,1,1,1c0.6,0,1-0.5,1-1c0-0.6-0.5-1-1-1C94.8,104.6,94.3,105,94.3,105.6z"/>
					<path class="st32" d="M89.2,105.6c0,0.6,0.5,1,1,1c0.6,0,1-0.5,1-1c0-0.6-0.5-1-1-1C89.7,104.6,89.2,105,89.2,105.6z"/>
				</g>
			</g>
			<g>
				<path class="st33" d="M247.4,57.4H199c-2.7,0-4.8-2.2-4.8-4.8l0,0c0-2.7,2.2-4.8,4.8-4.8h48.4c2.7,0,4.8,2.2,4.8,4.8l0,0
					C252.2,55.3,250.1,57.4,247.4,57.4z"/>
				<g>
					<path class="st34" d="M246.7,52.3c0,1.4-1.1,2.6-2.6,2.6c-1.4,0-2.6-1.1-2.6-2.6c0-1.4,1.1-2.6,2.6-2.6
						C245.5,49.7,246.7,50.9,246.7,52.3z"/>
					<line class="st35" x1="245.9" y1="54.1" x2="247.3" y2="55.5"/>
				</g>
			</g>
			<g>
				<g>
					<path class="st36" d="M174.1,188.8H162c-2.1,0-3.9-1.7-3.9-3.9v-12.2c0-2.1,1.7-3.9,3.9-3.9h12.2c2.1,0,3.9,1.7,3.9,3.9v12.2
						C178,187,176.3,188.8,174.1,188.8z"/>
					<path class="st28" d="M170.5,188.8h-12.2c-2.1,0-3.9-1.7-3.9-3.9v-12.2c0-2.1,1.7-3.9,3.9-3.9h12.2c2.1,0,3.9,1.7,3.9,3.9v12.2
						C174.4,187,172.6,188.8,170.5,188.8z"/>
					<path class="st7" d="M162.1,175.1l5.7,3.3c0.4,0.2,0.4,0.7,0,0.9l-5.7,3.3c-0.4,0.2-0.8-0.1-0.8-0.5v-6.6
						C161.3,175.1,161.7,174.9,162.1,175.1z"/>
				</g>
				<g>
					<path class="st36" d="M300,188.8h-15.9c-2.8,0-5-2.3-5-5v-15.9c0-2.8,2.3-5,5-5H300c2.8,0,5,2.3,5,5v15.9
						C305,186.5,302.8,188.8,300,188.8z"/>
					<path class="st37" d="M295.2,188.8h-15.9c-2.8,0-5-2.3-5-5v-15.9c0-2.8,2.3-5,5-5h15.9c2.8,0,5,2.3,5,5v15.9
						C300.3,186.5,298,188.8,295.2,188.8z"/>
					<path class="st7" d="M290.4,169.2c0,1.7-1.4,3.1-3.1,3.1c-1.7,0-3.1-1.4-3.1-3.1c0-1.7,1.4-3.1,3.1-3.1
						C289,166,290.4,167.4,290.4,169.2z"/>
					<path class="st7" d="M293.8,179.7v4.6c0,0.4-0.3,0.8-0.8,0.8h-11.5c-0.4,0-0.8-0.3-0.8-0.8v-4.6c0-3.6,2.9-6.5,6.5-6.5l0,0
						C290.9,173.2,293.8,176.1,293.8,179.7z"/>
				</g>
				<g>
					<path class="st16" d="M229.2,63H219c-0.4,0-0.8-0.3-0.8-0.8l0,0c0-0.4,0.3-0.8,0.8-0.8h10.2c0.4,0,0.8,0.3,0.8,0.8l0,0
						C230,62.7,229.6,63,229.2,63z"/>
					<path class="st16" d="M239.4,63H232c-0.4,0-0.8-0.3-0.8-0.8l0,0c0-0.4,0.3-0.8,0.8-0.8h7.4c0.4,0,0.8,0.3,0.8,0.8l0,0
						C240.2,62.7,239.8,63,239.4,63z"/>
					<path class="st16" d="M223.3,66.4H219c-0.4,0-0.8-0.3-0.8-0.8l0,0c0-0.4,0.3-0.8,0.8-0.8h4.3c0.4,0,0.8,0.3,0.8,0.8l0,0
						C224.1,66,223.7,66.4,223.3,66.4z"/>
					<path class="st16" d="M239.4,66.4h-13.5c-0.4,0-0.8-0.3-0.8-0.8l0,0c0-0.4,0.3-0.8,0.8-0.8h13.5c0.4,0,0.8,0.3,0.8,0.8l0,0
						C240.2,66,239.8,66.4,239.4,66.4z"/>
					<path class="st16" d="M232.4,69.7H219c-0.4,0-0.8-0.3-0.8-0.8l0,0c0-0.4,0.3-0.8,0.8-0.8h13.5c0.4,0,0.8,0.3,0.8,0.8l0,0
						C233.2,69.4,232.9,69.7,232.4,69.7z"/>
					<path class="st16" d="M239.4,69.7h-4.3c-0.4,0-0.8-0.3-0.8-0.8l0,0c0-0.4,0.3-0.8,0.8-0.8h4.3c0.4,0,0.8,0.3,0.8,0.8l0,0
						C240.2,69.4,239.8,69.7,239.4,69.7z"/>
				</g>
				<g>
					<path class="st36" d="M99.9,141.4H64.2c-1.1,0-1.9-0.9-1.9-1.9v-18c0-1.1,0.9-1.9,1.9-1.9h35.7c1.1,0,1.9,0.9,1.9,1.9v18
						C101.8,140.5,100.9,141.4,99.9,141.4z"/>
					<line class="st38" x1="64" y1="122.5" x2="100.1" y2="122.5"/>
					<circle class="st7" cx="99.1" cy="121" r="0.4"/>
					<circle class="st7" cx="96.9" cy="121" r="0.4"/>
					<circle class="st7" cx="94.6" cy="121" r="0.4"/>
					<g>
						<g>
							<path class="st39" d="M70.7,125.5h-6.1c-0.3,0-0.6-0.3-0.6-0.6l0,0c0-0.3,0.3-0.6,0.6-0.6h6.1c0.3,0,0.6,0.3,0.6,0.6l0,0
								C71.3,125.2,71,125.5,70.7,125.5z"/>
							<path class="st39" d="M70.7,128.2h-6.1c-0.3,0-0.6-0.3-0.6-0.6l0,0c0-0.3,0.3-0.6,0.6-0.6h6.1c0.3,0,0.6,0.3,0.6,0.6l0,0
								C71.3,128,71,128.2,70.7,128.2z"/>
							<path class="st39" d="M70.7,131h-6.1c-0.3,0-0.6-0.3-0.6-0.6l0,0c0-0.3,0.3-0.6,0.6-0.6h6.1c0.3,0,0.6,0.3,0.6,0.6l0,0
								C71.3,130.8,71,131,70.7,131z"/>
							<path class="st39" d="M70.7,133.8h-6.1c-0.3,0-0.6-0.3-0.6-0.6l0,0c0-0.3,0.3-0.6,0.6-0.6h6.1c0.3,0,0.6,0.3,0.6,0.6l0,0
								C71.3,133.6,71,133.8,70.7,133.8z"/>
							<path class="st39" d="M70.7,136.6h-6.1c-0.3,0-0.6-0.3-0.6-0.6l0,0c0-0.3,0.3-0.6,0.6-0.6h6.1c0.3,0,0.6,0.3,0.6,0.6l0,0
								C71.3,136.3,71,136.6,70.7,136.6z"/>
							<path class="st39" d="M70.7,139.4h-6.1c-0.3,0-0.6-0.3-0.6-0.6l0,0c0-0.3,0.3-0.6,0.6-0.6h6.1c0.3,0,0.6,0.3,0.6,0.6l0,0
								C71.3,139.1,71,139.4,70.7,139.4z"/>
						</g>
						<g>
							<path class="st40" d="M99.5,125.5H73.1c-0.3,0-0.6-0.3-0.6-0.6l0,0c0-0.3,0.3-0.6,0.6-0.6h26.4c0.3,0,0.6,0.3,0.6,0.6l0,0
								C100.1,125.2,99.8,125.5,99.5,125.5z"/>
							<path class="st40" d="M99.5,128.2H73.1c-0.3,0-0.6-0.3-0.6-0.6l0,0c0-0.3,0.3-0.6,0.6-0.6h26.4c0.3,0,0.6,0.3,0.6,0.6l0,0
								C100.1,128,99.8,128.2,99.5,128.2z"/>
							<path class="st40" d="M99.5,131H73.1c-0.3,0-0.6-0.3-0.6-0.6l0,0c0-0.3,0.3-0.6,0.6-0.6h26.4c0.3,0,0.6,0.3,0.6,0.6l0,0
								C100.1,130.8,99.8,131,99.5,131z"/>
							<path class="st40" d="M99.5,133.8H73.1c-0.3,0-0.6-0.3-0.6-0.6l0,0c0-0.3,0.3-0.6,0.6-0.6h26.4c0.3,0,0.6,0.3,0.6,0.6l0,0
								C100.1,133.6,99.8,133.8,99.5,133.8z"/>
							<path class="st40" d="M99.5,136.6H73.1c-0.3,0-0.6-0.3-0.6-0.6l0,0c0-0.3,0.3-0.6,0.6-0.6h26.4c0.3,0,0.6,0.3,0.6,0.6l0,0
								C100.1,136.3,99.8,136.6,99.5,136.6z"/>
							<path class="st40" d="M99.5,139.4H73.1c-0.3,0-0.6-0.3-0.6-0.6l0,0c0-0.3,0.3-0.6,0.6-0.6h26.4c0.3,0,0.6,0.3,0.6,0.6l0,0
								C100.1,139.1,99.8,139.4,99.5,139.4z"/>
						</g>
					</g>
				</g>
				<g>
					
						<ellipse transform="matrix(0.233 -0.9725 0.9725 0.233 183.4841 279.8401)" class="st4" cx="269.1" cy="23.6" rx="16.3" ry="16.3"/>
					
						<ellipse transform="matrix(0.9145 -0.4046 0.4046 0.9145 13.4672 110.9227)" class="st41" cx="269.1" cy="23.6" rx="14.1" ry="14.1"/>
					<path class="st7" d="M270.4,23.6c0,0.7-0.6,1.3-1.3,1.3c-0.7,0-1.3-0.6-1.3-1.3c0-0.7,0.6-1.3,1.3-1.3
						C269.9,22.3,270.4,22.9,270.4,23.6z"/>
					<path class="st7" d="M269,23.3L269,23.3c-0.2,0.1-0.4,0-0.5-0.2l-4.2-7.5c-0.1-0.2,0-0.4,0.2-0.5l0,0c0.2-0.1,0.4,0,0.5,0.2
						l4.2,7.5C269.3,23,269.2,23.2,269,23.3z"/>
					<path class="st7" d="M269.3,23.8L269.3,23.8c0.2-0.2,0.4-0.2,0.6,0l3.6,3.6c0.2,0.2,0.2,0.4,0,0.6l0,0c-0.2,0.2-0.4,0.2-0.6,0
						l-3.6-3.6C269.2,24.2,269.2,24,269.3,23.8z"/>
					<g>
						<line class="st42" x1="269.2" y1="12.3" x2="269.2" y2="10.7"/>
						<line class="st42" x1="280.5" y1="23.7" x2="282.1" y2="23.7"/>
						<line class="st42" x1="269.1" y1="34.9" x2="269.1" y2="36.5"/>
						<line class="st42" x1="257.8" y1="23.5" x2="256.2" y2="23.5"/>
					</g>
					<g class="st26">
						<line class="st43" x1="263.6" y1="13.8" x2="262.8" y2="12.4"/>
						<line class="st43" x1="279" y1="18" x2="280.4" y2="17.2"/>
						<line class="st43" x1="274.7" y1="33.4" x2="275.5" y2="34.8"/>
						<line class="st43" x1="259.3" y1="29.2" x2="257.9" y2="30"/>
					</g>
					<g class="st26">
						<line class="st43" x1="259.4" y1="17.9" x2="258" y2="17.1"/>
						<line class="st43" x1="274.9" y1="13.9" x2="275.7" y2="12.4"/>
						<line class="st43" x1="278.9" y1="29.3" x2="280.3" y2="30.1"/>
						<line class="st43" x1="263.4" y1="33.4" x2="262.6" y2="34.8"/>
					</g>
				</g>
				<g>
					<path class="st36" d="M76,105.4H58.2c-2.6,0-4.8-2.1-4.8-4.8V82.8c0-2.6,2.1-4.8,4.8-4.8H76c2.6,0,4.8,2.1,4.8,4.8v17.8
						C80.8,103.3,78.7,105.4,76,105.4z"/>
					<path class="st44" d="M74.9,103H55.1c-2.1,0-3.8-1.7-3.8-3.8V79.4c0-2.1,1.7-3.8,3.8-3.8h19.8c2.1,0,3.8,1.7,3.8,3.8v19.8
						C78.7,101.3,77,103,74.9,103z"/>
					<g>
						<g>
							<path class="st5" d="M69.7,86.2h-0.1v-1.6c0-2.6-2.1-4.7-4.7-4.7c-2.6,0-4.7,2.1-4.7,4.7v1.6h0c-0.7,0-1.3,0.6-1.3,1.3v5.9
								c0,0.7,0.6,1.3,1.3,1.3h9.5c0.7,0,1.3-0.6,1.3-1.3v-5.9C71.1,86.8,70.5,86.2,69.7,86.2z M61.4,84.6c0-1.9,1.6-3.5,3.5-3.5
								c1.9,0,3.5,1.6,3.5,3.5v1.6h-7V84.6z"/>
							<path class="st45" d="M66.5,89.2c0-0.9-0.9-1.7-1.8-1.5c-0.6,0.1-1.1,0.6-1.2,1.2c-0.1,0.7,0.2,1.3,0.7,1.6
								c0.1,0.1,0.2,0.2,0.1,0.3l-0.3,1C63.9,92.4,64.4,93,65,93c0.6,0,1-0.6,0.9-1.2l-0.3-1c0-0.1,0-0.2,0.1-0.3
								C66.2,90.3,66.5,89.8,66.5,89.2z"/>
						</g>
						<path class="st5" d="M70.5,96.8h-11c-0.3,0-0.6-0.3-0.6-0.6l0,0c0-0.3,0.3-0.6,0.6-0.6h11c0.3,0,0.6,0.3,0.6,0.6l0,0
							C71.1,96.5,70.8,96.8,70.5,96.8z"/>
						<path class="st5" d="M70.5,98.7h-11c-0.3,0-0.6-0.3-0.6-0.6l0,0c0-0.3,0.3-0.6,0.6-0.6h11c0.3,0,0.6,0.3,0.6,0.6l0,0
							C71.1,98.4,70.8,98.7,70.5,98.7z"/>
					</g>
				</g>
				<g>
					<g>
						<path class="st36" d="M292,137.6h-10.5c-1.6,0-2.8-1.3-2.8-2.8v-10.5c0-1.6,1.3-2.8,2.8-2.8H292c1.6,0,2.8,1.3,2.8,2.8v10.5
							C294.8,136.4,293.6,137.6,292,137.6z"/>
						<path class="st46" d="M291.3,136.2h-11.6c-1.2,0-2.3-1-2.3-2.3v-11.6c0-1.2,1-2.3,2.3-2.3h11.6c1.2,0,2.3,1,2.3,2.3V134
							C293.6,135.2,292.6,136.2,291.3,136.2z"/>
					</g>
					<g>
						<g>
							<path class="st7" d="M282.2,133c0,0-0.1,0-0.1,0c-0.3-0.1-0.4-0.4-0.3-0.6l2.4-8.6c0.1-0.3,0.4-0.4,0.6-0.3
								c0.3,0.1,0.4,0.4,0.3,0.6l-2.4,8.6C282.7,132.8,282.5,133,282.2,133z"/>
						</g>
						<g>
							<path class="st7" d="M286.3,133c0,0-0.1,0-0.1,0c-0.3-0.1-0.4-0.4-0.3-0.6l2.4-8.6c0.1-0.3,0.4-0.4,0.6-0.3
								c0.3,0.1,0.4,0.4,0.3,0.6l-2.4,8.6C286.7,132.8,286.5,133,286.3,133z"/>
						</g>
						<g>
							<path class="st7" d="M289.8,126.7h-8.6c-0.3,0-0.5-0.2-0.5-0.5c0-0.3,0.2-0.5,0.5-0.5h8.6c0.3,0,0.5,0.2,0.5,0.5
								C290.3,126.5,290.1,126.7,289.8,126.7z"/>
						</g>
						<g>
							<path class="st7" d="M289.8,130.6h-8.6c-0.3,0-0.5-0.2-0.5-0.5c0-0.3,0.2-0.5,0.5-0.5h8.6c0.3,0,0.5,0.2,0.5,0.5
								C290.3,130.4,290.1,130.6,289.8,130.6z"/>
						</g>
					</g>
				</g>
				<g>
					<path class="st16" d="M97.1,86.3h-6.2c-0.4,0-0.7-0.3-0.7-0.7l0,0c0-0.4,0.3-0.7,0.7-0.7h6.2c0.4,0,0.7,0.3,0.7,0.7l0,0
						C97.8,86,97.5,86.3,97.1,86.3z"/>
					<path class="st16" d="M103.4,89.4H90.9c-0.4,0-0.7-0.3-0.7-0.7l0,0c0-0.4,0.3-0.7,0.7-0.7h12.5c0.4,0,0.7,0.3,0.7,0.7l0,0
						C104.1,89.1,103.8,89.4,103.4,89.4z"/>
					<path class="st16" d="M92.4,92.4h-1.5c-0.4,0-0.7-0.3-0.7-0.7l0,0c0-0.4,0.3-0.7,0.7-0.7h1.5c0.4,0,0.7,0.3,0.7,0.7l0,0
						C93.1,92.1,92.8,92.4,92.4,92.4z"/>
					<path class="st16" d="M103.4,92.4h-8.7c-0.4,0-0.7-0.3-0.7-0.7l0,0c0-0.4,0.3-0.7,0.7-0.7h8.7c0.4,0,0.7,0.3,0.7,0.7l0,0
						C104.1,92.1,103.8,92.4,103.4,92.4z"/>
					<path class="st16" d="M103.4,86.3h-3.8c-0.4,0-0.7-0.3-0.7-0.7l0,0c0-0.4,0.3-0.7,0.7-0.7h3.8c0.4,0,0.7,0.3,0.7,0.7l0,0
						C104.1,86,103.8,86.3,103.4,86.3z"/>
				</g>
				<path class="st7" d="M68.2,179.8c-0.8,0-1.6,0.2-2.2,0.6c-0.3-2.3-2.2-4.1-4.6-4.1c-2.6,0-4.7,2.1-4.7,4.7c0,0.2,0,0.3,0,0.5
					c-0.2,0-0.4-0.1-0.7-0.1c-2,0-3.6,1.6-3.6,3.6c0,2,1.6,3.6,3.6,3.6h12.2c2.4,0,4.4-2,4.4-4.4C72.6,181.8,70.6,179.8,68.2,179.8z
					"/>
			</g>
			<g>
				<path class="st47" d="M37.2,161.1c-0.1-0.7-0.1-1.3,0.1-2c0.6-2.2,1.2-6.2-0.2-10.6c-2.3-7.3-11.8-13.8-11.8-13.8
					s2.6,10.8,4.7,15.3c1.5,3.4,4.3,7.2,5.8,9.2c0.4,0.6,0.7,1.2,0.8,1.9c1.5,8.5,1.3,15,1.3,15.1l0.7,0
					C38.6,176.3,38.8,169.6,37.2,161.1z"/>
				<path class="st48" d="M44.8,154.2c1.9-5.9,2.8-12.9,2.8-12.9s-8.5,7-9.2,12.4c-0.4,3.3,0.1,6,0.6,7.5c0.2,0.7,0.3,1.4,0.2,2.1
					c-0.9,8-0.2,14.1-0.2,14.2l0.6-0.1c0-0.1-0.6-5.8,0.1-13.3c0.1-1,0.5-2,1.2-2.8C42.1,159.8,43.8,157.3,44.8,154.2z"/>
				<path class="st47" d="M53.4,141c0,0-9.1,3.4-11.5,10.9c-1.5,4.5-0.8,8.7-0.2,10.9c0.2,0.6,0.2,1.2,0,1.9
					c-2.1,8.6-2.2,17.5-2.2,17.6h0.7c0-0.1,0-8.8,2.1-17.2c0.2-0.8,0.6-1.6,1.1-2.3c1.6-2.1,4.2-5.9,5.8-9.2
					C51.3,148.8,53.4,141,53.4,141z"/>
				<path class="st48" d="M37.3,172.5c-0.2-3.1-1.1-5.9-2.1-8.3c-0.2-0.5-0.3-1-0.2-1.5c0.1-1,0.2-2.5-0.2-4.5
					c-0.7-3.7-5.6-11.6-12.6-12c0,0,2.4,3.9,3.7,7.2c1.6,4.1,3.8,8.5,7.6,10.1c0.7,0.3,1.2,0.8,1.4,1.5c0.9,2.2,1.6,4.7,1.8,7.6
					L37.3,172.5z"/>
				<g>
					<g>
						<path class="st5" d="M32.5,188.5h11.6l3-18.4c0.1-0.8-0.5-1.6-1.3-1.6h-15c-0.8,0-1.5,0.7-1.3,1.6L32.5,188.5z"/>
					</g>
				</g>
			</g>
			<line class="st49" x1="8.7" y1="188.5" x2="333.8" y2="188.5"/>
		</g>
	</g>
</g>
</svg>
