<?xml version="1.0" encoding="utf-8"?>
<!-- Generator: Adobe Illustrator 25.1.0, SVG Export Plug-In . SVG Version: 6.00 Build 0)  -->
<svg version="1.1" xmlns="http://www.w3.org/2000/svg" xmlns:xlink="http://www.w3.org/1999/xlink" x="0px" y="0px"
	 viewBox="0 0 441 421.6" style="enable-background:new 0 0 441 421.6;" xml:space="preserve">
<style type="text/css">
	.st0{fill:#E0E0E0;}
	.st1{fill:#F5F5F5;}
	.st2{opacity:0.8;}
	.st3{fill-rule:evenodd;clip-rule:evenodd;fill:#EBEBEB;}
	.st4{display:none;}
	.st5{display:inline;fill:#F5F5F5;}
	.st6{fill:#263238;}
	.st7{fill:#FFFFFF;}
	.st8{fill:#E8505B;}
	.st9{opacity:0.3;}
	.st10{fill:#FAFAFA;}
	.st11{fill-rule:evenodd;clip-rule:evenodd;fill:#E8505B;}
	.st12{fill-rule:evenodd;clip-rule:evenodd;fill:#FFFFFF;}
	.st13{opacity:0.4;}
	.st14{fill:#FFBE9D;}
	.st15{fill:#EB996E;}
	.st16{fill:#455A64;}
	.st17{opacity:0.2;}
	.st18{fill:#AAAAAA;}
	.st19{font-family:'MyriadPro-Regular';}
	.st20{font-size:9px;}
</style>
<g id="Background_Complete">
	<g>
		<g>
			<g>
				<g>
					<g>
						<path class="st0" d="M394.9,103.8c0,0,0.6,0,1.5,0.5c0.9,0.4,2.2,1.3,3,3c0.4,0.8,0.6,1.8,0.6,2.9c0,1.1-0.3,2.2-1,3.3
							c-0.3,0.5-0.7,1-1.2,1.4c-0.5,0.4-1,0.8-1.6,1c-1.2,0.6-2.7,0.7-4,0.4c-1.4-0.3-2.6-1.1-3.5-2.1c-0.4-0.5-0.8-1.1-1-1.6
							c-0.3-0.6-0.4-1.2-0.5-1.8c-0.2-1.2,0.1-2.4,0.5-3.4c0.4-1,1.1-1.8,1.8-2.4c1.4-1.2,3-1.5,4-1.5
							C394.4,103.6,394.9,103.8,394.9,103.8c0,0-0.6-0.1-1.6-0.1c-1,0-2.5,0.4-3.8,1.5c-0.7,0.6-1.3,1.3-1.7,2.3
							c-0.4,1-0.6,2.1-0.4,3.2c0.1,0.6,0.2,1.2,0.5,1.7c0.2,0.6,0.6,1.1,1,1.6c0.8,1,2,1.7,3.3,2c1.3,0.3,2.7,0.1,3.8-0.4
							c0.6-0.2,1.1-0.6,1.6-1c0.5-0.4,0.9-0.8,1.2-1.3c0.6-1,0.9-2.1,1-3.1c0.1-1-0.2-2-0.5-2.8c-0.7-1.6-1.9-2.6-2.8-3
							C395.5,103.9,394.9,103.8,394.9,103.8z"/>
					</g>
				</g>
			</g>
		</g>
		<g>
			<g>
				<g>
					<g>
						<path class="st0" d="M400,97c0,0,0-0.1,0-0.2c0-0.2,0-0.4,0-0.7c0-0.6,0-1.5,0-2.7l0,0.1c-1.5-0.3-3.4-0.7-5.8-1.3l0.1-0.1
							c-0.5,1-1,2.1-1.5,3.2l0,0.1l-0.1,0c-1.2,0.1-2.5,0.3-3.8,0.7l-0.1,0l-0.1-0.1c-0.8-0.8-1.6-1.6-2.5-2.5l0.2,0
							c-1.6,1-3.2,2.1-5,3.2l0.1-0.2c0.4,1,0.8,2.2,1.2,3.4l0,0.1l-0.1,0.1c-0.8,0.9-1.6,1.9-2.2,3.1l0,0.1l-0.1,0
							c-1.1,0-2.3,0-3.6,0l0.2-0.1c-0.4,1.8-0.8,3.8-1.3,5.8l-0.1-0.2c1,0.5,2.1,1,3.2,1.5l0.1,0l0,0.1c0,1.2,0.3,2.5,0.7,3.7l0,0.1
							l-0.1,0.1c-0.8,0.8-1.6,1.7-2.5,2.5l0-0.2c1,1.6,2.1,3.3,3.2,5l-0.2-0.1c1.1-0.4,2.2-0.8,3.4-1.2l0.1,0l0.1,0.1
							c0.9,0.8,1.9,1.6,3.1,2.2l0,0l0,0c0,0.1-0.1-0.2,0.1,0.2l0,0v0v0v0l0,0.1l0,0.1l0,0.2l0,0.4l0,0.9c0,0.6,0,1.2,0,1.8l-0.1-0.2
							c1.9,0.4,3.9,0.9,5.8,1.3l-0.2,0.1c0.5-1.1,1-2.2,1.5-3.2l0-0.1l0.1,0c1.3,0,2.5-0.3,3.7-0.6l0.1,0l0.1,0.1
							c0.9,0.9,1.7,1.7,2.5,2.5l-0.2,0c1.7-1.1,3.4-2.1,5-3.2l-0.1,0.2c-0.4-1.1-0.8-2.3-1.2-3.4l0-0.1l0.1-0.1c0.9-1,1.6-2,2.2-3.1
							l0-0.1h0.1c1.2,0,2.4,0,3.6,0l-0.1,0.1c0.5-2,0.9-3.9,1.3-5.8l0.1,0.2c-1.1-0.5-2.2-1-3.2-1.5l-0.1,0l0-0.1
							c-0.1-1.4-0.3-2.6-0.6-3.8l0-0.1l0.1-0.1c0.9-0.9,1.7-1.7,2.5-2.5l0,0.1c-1.2-1.9-2.3-3.6-3.1-5l0.1,0
							c-1.3,0.5-2.5,0.9-3.4,1.2l0,0l0,0c-0.9-0.9-1.8-1.4-2.3-1.8c-0.3-0.2-0.5-0.3-0.6-0.4C400.1,97,400,97,400,97
							c0,0,0.1,0,0.2,0.1c0.1,0.1,0.4,0.2,0.6,0.3c0.6,0.3,1.4,0.9,2.3,1.7l-0.1,0c0.9-0.3,2-0.7,3.4-1.2l0.1,0l0,0.1
							c0.9,1.4,1.9,3,3.2,5l0,0.1l-0.1,0.1c-0.8,0.8-1.6,1.6-2.5,2.5l0-0.1c0.4,1.2,0.6,2.4,0.7,3.8l-0.1-0.1c1,0.5,2.1,1,3.2,1.5
							l0.1,0l0,0.1c-0.4,1.8-0.8,3.7-1.3,5.8l0,0.1l-0.1,0c-1.2,0-2.3,0-3.6,0l0.1-0.1c-0.6,1.1-1.3,2.2-2.2,3.2l0-0.2
							c0.4,1.1,0.8,2.2,1.2,3.4l0,0.1l-0.1,0.1c-1.6,1-3.3,2.1-5,3.2l-0.1,0.1l-0.1-0.1c-0.8-0.8-1.7-1.7-2.5-2.5l0.2,0
							c-1.2,0.4-2.5,0.6-3.8,0.7l0.2-0.1c-0.5,1.1-1,2.1-1.5,3.2l-0.1,0.1l-0.1,0c-1.9-0.4-3.8-0.9-5.8-1.3l-0.1,0l0-0.1
							c0-0.6,0-1.2,0-1.8l0-0.9l0-0.4l0-0.2l0-0.1l0-0.1l0,0v0v0v0c0.2,0.3,0.1,0.1,0.1,0.2l0,0l0,0c-1.2-0.6-2.3-1.4-3.2-2.2l0.2,0
							c-1.2,0.4-2.3,0.8-3.4,1.2l-0.1,0l-0.1-0.1c-1.1-1.7-2.2-3.4-3.2-5l-0.1-0.1l0.1-0.1c0.9-0.9,1.7-1.7,2.5-2.5l0,0.2
							c-0.4-1.3-0.6-2.6-0.7-3.8l0.1,0.1c-1.1-0.5-2.2-1.1-3.2-1.5l-0.1-0.1l0-0.1c0.5-2,0.9-4,1.3-5.8l0-0.1l0.1,0
							c1.2,0,2.5,0,3.6,0l-0.1,0.1c0.6-1.2,1.4-2.3,2.2-3.2l0,0.2c-0.4-1.2-0.8-2.3-1.2-3.4l0-0.1l0.1-0.1c1.8-1.1,3.4-2.2,5-3.1
							l0.1-0.1l0.1,0.1c0.9,0.9,1.7,1.7,2.5,2.5l-0.1,0c1.3-0.4,2.6-0.6,3.8-0.7l-0.1,0.1c0.6-1.2,1.1-2.2,1.5-3.2l0-0.1l0.1,0
							c2.3,0.5,4.3,1,5.8,1.3l0,0l0,0c0,1.1,0,2,0,2.6c0,0.3,0,0.5,0,0.7C400,96.9,400,97,400,97z"/>
					</g>
				</g>
			</g>
		</g>
	</g>
	<g>
		<g>
			<g>
				<path class="st0" d="M434.9,385c0,0,0-0.4,0-1.1c0-0.7,0-1.8,0-3.2c0-2.8,0-6.8,0-12.1c0-10.4-0.1-25.5-0.1-43.9l0.2,0.2
					c-27.9,0-64.4,0-104.1,0h0l0.2-0.2c0,21.3,0,41.7,0,60.2l-0.2-0.2c30.5,0,56.5,0.1,74.9,0.1c9.2,0,16.5,0,21.5,0.1
					c2.5,0,4.4,0,5.7,0c0.6,0,1.1,0,1.5,0C434.8,385,434.9,385,434.9,385s-0.2,0-0.5,0c-0.3,0-0.8,0-1.5,0c-1.3,0-3.2,0-5.7,0
					c-5,0-12.3,0-21.5,0.1c-18.4,0-44.5,0.1-75,0.1l-0.2,0V385c0-18.6,0-38.9,0-60.2v-0.2h0.2h0c39.7,0,76.2,0,104.1,0l0.2,0l0,0.2
					c0,18.5-0.1,33.6-0.1,44c0,5.2,0,9.3,0,12c0,1.4,0,2.4,0,3.1C434.9,384.7,434.9,385,434.9,385z"/>
			</g>
		</g>
		<g>
			<g>
				<path class="st0" d="M435,332.1c0,0.1-23.3,0.2-52,0.2c-28.7,0-52-0.1-52-0.2c0-0.1,23.3-0.2,52-0.2
					C411.7,331.9,435,332,435,332.1z"/>
			</g>
		</g>
		<g>
			<rect x="339.8" y="342" class="st1" width="32.2" height="32.2"/>
		</g>
		<g>
			<g>
				<g>
					<path class="st0" d="M427.4,347.3c0,0-0.2,0-0.5,0c-0.4,0-0.8,0-1.4,0c-1.2,0-2.9,0-5,0.1c-4.3,0-10.1,0-16.5,0.1
						c-6.4,0-12.2,0-16.5-0.1c-2.1,0-3.8-0.1-5-0.1c-0.6,0-1,0-1.4,0c-0.3,0-0.5,0-0.5,0c0,0,0.2,0,0.5,0c0.4,0,0.8,0,1.4,0
						c1.2,0,2.9,0,5-0.1c4.3,0,10.1,0,16.5-0.1c6.4,0,12.2,0,16.5,0.1c2.1,0,3.8,0.1,5,0.1c0.6,0,1,0,1.4,0
						C427.2,347.3,427.4,347.3,427.4,347.3z"/>
				</g>
			</g>
			<g>
				<g>
					<path class="st0" d="M428.4,354.5c0,0-0.2,0-0.5,0c-0.4,0-0.8,0-1.4,0c-1.3,0-3,0-5.1,0.1c-4.4,0-10.3,0-16.8,0.1
						c-6.5,0-12.5,0-16.8-0.1c-2.1,0-3.8-0.1-5.1-0.1c-0.6,0-1,0-1.4,0c-0.3,0-0.5,0-0.5,0c0,0,0.2,0,0.5,0c0.4,0,0.8,0,1.4,0
						c1.3,0,3,0,5.1-0.1c4.4,0,10.3,0,16.8-0.1c6.5,0,12.5,0,16.8,0.1c2.1,0,3.8,0.1,5.1,0.1c0.6,0,1,0,1.4,0
						C428.3,354.5,428.4,354.5,428.4,354.5z"/>
				</g>
			</g>
			<g>
				<g>
					<path class="st0" d="M428.4,361.7c0,0-0.2,0-0.5,0c-0.4,0-0.8,0-1.4,0c-1.3,0-3,0-5.1,0.1c-4.4,0-10.3,0-16.8,0.1
						c-6.5,0-12.5,0-16.8-0.1c-2.1,0-3.8-0.1-5.1-0.1c-0.6,0-1,0-1.4,0c-0.3,0-0.5,0-0.5,0c0,0,0.2,0,0.5,0c0.4,0,0.8,0,1.4,0
						c1.3,0,3,0,5.1-0.1c4.4,0,10.3,0,16.8-0.1c6.5,0,12.5,0,16.8,0.1c2.1,0,3.8,0.1,5.1,0.1c0.6,0,1,0,1.4,0
						C428.3,361.7,428.4,361.7,428.4,361.7z"/>
				</g>
			</g>
			<g>
				<g>
					<path class="st0" d="M428.4,368.9c0,0-0.2,0-0.5,0c-0.4,0-0.8,0-1.4,0c-1.3,0-3,0-5.1,0.1c-4.4,0-10.3,0-16.8,0.1
						c-6.5,0-12.5,0-16.8-0.1c-2.1,0-3.8-0.1-5.1-0.1c-0.6,0-1,0-1.4,0c-0.3,0-0.5,0-0.5,0s0.2,0,0.5,0c0.4,0,0.8,0,1.4,0
						c1.3,0,3,0,5.1-0.1c4.4,0,10.3,0,16.8-0.1c6.5,0,12.5,0,16.8,0.1c2.1,0,3.8,0.1,5.1,0.1c0.6,0,1,0,1.4,0
						C428.3,368.8,428.4,368.9,428.4,368.9z"/>
				</g>
			</g>
		</g>
	</g>
	<g>
		<g>
			
				<ellipse transform="matrix(0.7071 -0.7071 0.7071 0.7071 -0.4431 111.0384)" class="st1" cx="133.8" cy="56.1" rx="43.3" ry="43.3"/>
		</g>
		<g>
			<g>
				<path class="st0" d="M153.5,57.4c0,0-0.5,0.1-1.5,0.1c-1.1,0-2.5,0.1-4.2,0.1c-3.6,0-8.5,0.1-14.2,0.1l-0.3,0l0-0.3
					c0-0.9,0-1.8,0-2.8c0-6.3,0-11.9,0.1-16.1c0-2,0.1-3.6,0.1-4.9c0-1.1,0.1-1.8,0.1-1.8c0,0,0.1,0.6,0.1,1.8
					c0,1.2,0.1,2.9,0.1,4.9c0.1,4.1,0.1,9.8,0.1,16.1c0,1,0,1.9,0,2.8l-0.3-0.3c5.6,0,10.6,0,14.2,0.1c1.7,0,3.1,0.1,4.2,0.1
					C152.9,57.3,153.5,57.3,153.5,57.4z"/>
			</g>
		</g>
		<g>
			<g>
				<path class="st0" d="M133.7,19.9c0.2,0,0.3,1.6,0.3,3.6c0,2-0.1,3.6-0.3,3.6c-0.2,0-0.3-1.6-0.3-3.6
					C133.4,21.5,133.6,19.9,133.7,19.9z"/>
			</g>
		</g>
		<g>
			<g>
				<path class="st0" d="M153.4,25.7c0.1,0.1-0.9,1.3-2.3,2.7c-1.4,1.4-2.6,2.4-2.7,2.3c-0.1-0.1,0.9-1.3,2.3-2.7
					C152.1,26.7,153.3,25.6,153.4,25.7z"/>
			</g>
		</g>
		<g>
			<g>
				<path class="st0" d="M165,38.3c0.1,0.1-1.3,1-3,2c-1.7,1-3,1.9-3.1,1.7c-0.1-0.1,1.1-1.2,2.8-2.2
					C163.4,38.8,164.9,38.2,165,38.3z"/>
			</g>
		</g>
		<g>
			<g>
				<path class="st0" d="M171.7,57c0,0.2-2.2,0.3-5,0.3c-2.7,0-5-0.1-5-0.3c0-0.2,2.2-0.3,5-0.3C169.5,56.7,171.7,56.9,171.7,57z"/>
			</g>
		</g>
		<g>
			<g>
				<path class="st0" d="M103,56.3c0,0.2-2.1,0.3-4.7,0.3c-2.6,0-4.7-0.1-4.7-0.3c0-0.2,2.1-0.3,4.7-0.3
					C100.9,56.1,103,56.2,103,56.3z"/>
			</g>
		</g>
		<g>
			<g>
				<path class="st0" d="M107.8,70.3c0.1,0.1-1.5,1.6-3.5,3.2c-2.1,1.7-3.8,2.9-3.9,2.8c-0.1-0.1,1.5-1.6,3.5-3.2
					C106,71.4,107.7,70.1,107.8,70.3z"/>
			</g>
		</g>
		<g>
			<g>
				<path class="st0" d="M119.8,81c0.1,0.1-1,1.9-2.4,4.2c-1.4,2.3-2.4,4.2-2.6,4.1c-0.1-0.1,0.7-2.1,2.1-4.4
					C118.3,82.6,119.7,80.9,119.8,81z"/>
			</g>
		</g>
		<g>
			<g>
				<path class="st0" d="M133.7,94.9c-0.2,0-0.3-2.2-0.3-5c0-2.7,0.1-5,0.3-5c0.2,0,0.3,2.2,0.3,5C134,92.7,133.9,94.9,133.7,94.9z"
					/>
			</g>
		</g>
		<g>
			<g>
				<path class="st0" d="M155.1,88.3c-0.1,0.1-2-1-4.1-2.8c-2.1-1.8-3.4-3.6-3.3-3.7c0.1-0.1,1.7,1.5,3.7,3.2
					C153.4,86.9,155.2,88.2,155.1,88.3z"/>
			</g>
		</g>
		<g>
			<g>
				<path class="st0" d="M165.1,77.5c-0.1,0.1-1.6-1.2-3.3-2.9c-1.7-1.7-3-3.2-2.9-3.3c0.1-0.1,1.6,1.2,3.3,2.9
					C163.9,75.9,165.2,77.4,165.1,77.5z"/>
			</g>
		</g>
		<g>
			<g>
				<path class="st0" d="M107.4,43c-0.1,0.1-1.4-1-2.9-2.5c-1.5-1.5-2.6-2.8-2.5-2.9c0.1-0.1,1.4,1,2.9,2.5
					C106.4,41.6,107.5,42.9,107.4,43z"/>
			</g>
		</g>
		<g>
			<g>
				<path class="st0" d="M119.8,30c-0.1,0.1-1.4-1-2.8-2.4c-1.5-1.5-2.6-2.7-2.5-2.8c0.1-0.1,1.4,1,2.8,2.4
					C118.8,28.6,119.9,29.9,119.8,30z"/>
			</g>
		</g>
	</g>
	<g class="st2">
		<g>
			<g>
				<path class="st3" d="M369.2,33.9c2.3,1.2,4.4,2.7,6.2,4.4l6.7-2.4l6.3,9.9l-5,5c0.8,2.4,1.2,4.9,1.3,7.5l6.4,3l-2.6,11.4l-7.1,0
					c-1.2,2.3-2.7,4.4-4.4,6.2l2.4,6.7l-9.9,6.3l-5-5c-2.4,0.8-4.9,1.2-7.5,1.3l-3,6.4L342.6,92l0-7.1c-2.3-1.2-4.4-2.7-6.2-4.4
					l-6.7,2.4l-6.3-9.9l5-5c-0.8-2.4-1.2-4.9-1.3-7.5l-6.4-3l2.6-11.4l7.1,0c1.2-2.3,2.7-4.4,4.4-6.2l-2.4-6.7l9.9-6.3l5,5
					c2.4-0.8,4.9-1.2,7.5-1.3l3-6.4l11.4,2.6L369.2,33.9L369.2,33.9z M359.2,47.3c-6.8-1.5-13.5,2.7-15,9.5
					c-1.5,6.8,2.7,13.5,9.5,15c6.8,1.5,13.5-2.7,15-9.5C370.2,55.5,365.9,48.8,359.2,47.3z"/>
			</g>
		</g>
	</g>
	<g>
		<path class="st1" d="M34.2,134.2h74c0,0-6.5-11.9-25.6-10.2c-18.2,1.7-19.1-5.9-28.4-6.8C45,116.3,37.3,123.4,34.2,134.2z"/>
	</g>
	<g>
		<path class="st1" d="M194.3,268.7h59.9c0,0-5.3-9.6-20.7-8.2c-14.7,1.3-15.5-4.7-23-5.5C203,254.2,196.8,259.9,194.3,268.7z"/>
	</g>
</g>
<g id="Background_Simple" class="st4">
	<path class="st5" d="M379.5,49.5l-2.1-3.4C359.5,17,327.2-0.5,293.2,1.6c-4.4,0.3-8.7,0.9-13,1.8c-31,6.5-57.9,29.7-69,59.3
		c-6.6,17.4-8.4,37.5-20.9,51.3c-16.2,18-43.7,18.5-67.9,17.8c-24.2-0.7-51.8-0.1-67.9,17.9c-10.1,11.3-13.3,27.4-12.5,42.5
		c2.2,40.1,30.4,75.9,66.4,93.8s78.3,19.4,117.7,11.6c55.2-11,107.6-41.1,139.2-87.7S404.7,99.8,379.5,49.5z"/>
	<path class="st5" d="M158.5,60.4c-6-6.8-18.5-10.6-27.6-9.5l0,0c-8.3-0.2-16.6,3.7-21.7,10.2c-5.1,6.5-6.9,15.5-4.7,23.5
		c3.4,12.3,15.4,20.7,27.9,23.1c8,1.5,16.8,0.8,23.4-4c6.4-4.7,9.8-12.7,10.7-20.6C167.5,74,164.5,67.2,158.5,60.4z"/>
</g>
<g id="Floor">
	<g>
		<path class="st6" d="M450.6,416.4c0,0.1-103,0.3-230.1,0.3c-127.1,0-230.2-0.1-230.2-0.3c0-0.1,103-0.3,230.2-0.3
			C347.6,416.1,450.6,416.3,450.6,416.4z"/>
	</g>
</g>
<g id="Screens">
	<g>
		<g>
			<g>
				<rect x="280.4" y="116.7" class="st7" width="145.3" height="97.3"/>
			</g>
			<g>
				<g>
					<path class="st8" d="M425.7,214c0,0,0-0.6,0-1.8c0-1.2,0-2.9,0-5.1c0-4.5,0-11.1-0.1-19.6c0-16.9-0.1-41.2-0.1-70.8l0.2,0.2
						c-40,0-90.5,0-145.3,0.1h0l0.3-0.3c0,34.7,0,67.6,0,97.3l-0.2-0.2c42.8,0,79.1,0.1,104.7,0.1c12.8,0,23,0,29.9,0.1
						c3.5,0,6.1,0,8,0c0.9,0,1.6,0,2.1,0C425.4,214,425.7,214,425.7,214s-0.2,0-0.7,0c-0.5,0-1.1,0-2,0c-1.8,0-4.5,0-7.9,0
						c-6.9,0-17.1,0-29.8,0.1c-25.6,0-62,0.1-104.8,0.1l-0.2,0V214c0-29.7,0-62.6,0-97.3l0-0.3h0.3h0c54.7,0,105.2,0,145.3,0.1
						l0.2,0l0,0.2c0,29.7-0.1,54-0.1,70.9c0,8.4,0,15-0.1,19.5c0,2.2,0,3.9,0,5.1C425.7,213.4,425.7,214,425.7,214z"/>
				</g>
			</g>
		</g>
		<g>
			<g>
				<path class="st8" d="M280.4,125.4c0-0.1,32.5-0.3,72.6-0.3c40.1,0,72.6,0.1,72.6,0.3c0,0.1-32.5,0.3-72.6,0.3
					C312.9,125.7,280.4,125.5,280.4,125.4z"/>
			</g>
		</g>
		<g>
			<g class="st9">
				<path class="st8" d="M286.1,121c0,0.6-0.5,1.2-1.2,1.2s-1.2-0.5-1.2-1.2c0-0.6,0.5-1.2,1.2-1.2S286.1,120.4,286.1,121z"/>
			</g>
			<g class="st9">
				<path class="st8" d="M290.1,121c0,0.6-0.5,1.2-1.2,1.2c-0.6,0-1.2-0.5-1.2-1.2c0-0.6,0.5-1.2,1.2-1.2
					C289.6,119.9,290.1,120.4,290.1,121z"/>
			</g>
			<g class="st9">
				<path class="st8" d="M294,121c0,0.6-0.5,1.2-1.2,1.2c-0.6,0-1.2-0.5-1.2-1.2c0-0.6,0.5-1.2,1.2-1.2
					C293.5,119.9,294,120.4,294,121z"/>
			</g>
		</g>
		<g class="st9">
			<rect x="292.9" y="135.5" class="st8" width="38.8" height="38.8"/>
		</g>
		<g>
			<g>
				<path class="st8" d="M405.7,146.5c0,0.1-15.1,0.3-33.8,0.3c-18.6,0-33.8-0.1-33.8-0.3s15.1-0.3,33.8-0.3
					C390.6,146.2,405.7,146.3,405.7,146.5z"/>
			</g>
		</g>
		<g>
			<g>
				<path class="st8" d="M405.7,153.7c0,0.1-15.1,0.3-33.8,0.3c-18.6,0-33.8-0.1-33.8-0.3c0-0.1,15.1-0.3,33.8-0.3
					C390.6,153.4,405.7,153.6,405.7,153.7z"/>
			</g>
		</g>
		<g>
			<g>
				<path class="st8" d="M405.7,160.9c0,0.1-15.1,0.3-33.8,0.3c-18.6,0-33.8-0.1-33.8-0.3s15.1-0.3,33.8-0.3
					C390.6,160.6,405.7,160.8,405.7,160.9z"/>
			</g>
		</g>
		<g>
			<g>
				<path class="st8" d="M378.1,168.1c0,0-0.6,0.1-1.6,0.1c-1.1,0-2.5,0-4.3,0.1c-3.6,0-8.6,0.1-14.1,0.1c-5.5,0-10.5,0-14.1-0.1
					c-1.7,0-3.2-0.1-4.3-0.1c-1,0-1.6-0.1-1.6-0.1c0,0,0.6-0.1,1.6-0.1c1.1,0,2.5,0,4.3-0.1c3.6,0,8.6-0.1,14.1-0.1
					c5.5,0,10.5,0,14.1,0.1c1.7,0,3.2,0.1,4.3,0.1C377.6,168,378.1,168.1,378.1,168.1z"/>
			</g>
		</g>
		<g class="st9">
			<rect x="295.3" y="187.4" class="st8" width="18.2" height="18.2"/>
		</g>
		<g class="st9">
			<rect x="328.3" y="187.4" class="st8" width="18.2" height="18.2"/>
		</g>
		<g class="st9">
			<rect x="361.4" y="187.4" class="st8" width="18.2" height="18.2"/>
		</g>
		<g class="st9">
			<rect x="394.4" y="187.4" class="st8" width="18.2" height="18.2"/>
		</g>
	</g>
	<g>
		<g>
			<g>
				<rect x="14.7" y="151.8" class="st7" width="129.4" height="52.6"/>
			</g>
			<g>
				<g>
					<path class="st8" d="M144.1,204.3c0,0,0-0.3,0-0.9c0-0.6,0-1.5,0-2.7c0-2.4,0-5.9,0-10.5c0-9.1,0-22.2-0.1-38.4l0.1,0.1
						c-32.9,0-78.8,0-129.4,0.1h0l0.2-0.2c0,18.4,0,36.2,0,52.6l-0.2-0.2c37.5,0,69.8,0.1,92.8,0.1c11.5,0,20.6,0,26.9,0.1
						c3.1,0,5.6,0,7.2,0c0.8,0,1.4,0,1.9,0C143.9,204.3,144.1,204.3,144.1,204.3s-0.2,0-0.6,0c-0.4,0-1,0-1.8,0c-1.6,0-4,0-7.2,0
						c-6.3,0-15.4,0-26.9,0.1c-23,0-55.4,0.1-92.9,0.1l-0.2,0v-0.2c0-16.4,0-34.2,0-52.6v-0.2h0.2h0c50.7,0,96.5,0,129.4,0.1l0.1,0
						l0,0.1c0,16.3-0.1,29.4-0.1,38.5c0,4.5,0,8,0,10.4c0,1.2,0,2.1,0,2.7C144.1,204,144.1,204.3,144.1,204.3z"/>
				</g>
			</g>
		</g>
		<g>
			<g>
				<path class="st8" d="M14.8,158.8c0-0.1,28.9-0.2,64.6-0.2c35.7,0,64.6,0.1,64.6,0.2c0,0.1-28.9,0.2-64.6,0.2
					C43.7,159.1,14.8,159,14.8,158.8z"/>
			</g>
		</g>
		<g>
			<g class="st9">
				<path class="st8" d="M20.2,155.7c0,0.5-0.4,0.9-0.9,0.9c-0.5,0-0.9-0.4-0.9-0.9c0-0.5,0.4-0.9,0.9-0.9
					C19.8,154.7,20.2,155.2,20.2,155.7z"/>
			</g>
			<g class="st9">
				<path class="st8" d="M23.5,155.7c0,0.5-0.4,0.9-0.9,0.9c-0.5,0-0.9-0.4-0.9-0.9c0-0.5,0.4-0.9,0.9-0.9
					C23,154.7,23.5,155.2,23.5,155.7z"/>
			</g>
			<g class="st9">
				<path class="st8" d="M26.6,155.7c0,0.5-0.4,0.9-0.9,0.9c-0.5,0-0.9-0.4-0.9-0.9c0-0.5,0.4-0.9,0.9-0.9
					C26.2,154.7,26.6,155.2,26.6,155.7z"/>
			</g>
		</g>
		<g class="st9">
			<rect x="25.7" y="167.4" class="st8" width="31.3" height="31.3"/>
		</g>
		<g>
			<g>
				<g>
					<path class="st8" d="M135.2,175.8c0,0.1-16.1,0.2-35.9,0.2c-19.8,0-35.9-0.1-35.9-0.2c0-0.1,16.1-0.2,35.9-0.2
						C119.1,175.6,135.2,175.7,135.2,175.8z"/>
				</g>
			</g>
			<g>
				<g>
					<path class="st8" d="M135.2,182.1c0,0.1-16.1,0.2-35.9,0.2c-19.8,0-35.9-0.1-35.9-0.2c0-0.1,16.1-0.2,35.9-0.2
						C119.1,181.9,135.2,182,135.2,182.1z"/>
				</g>
			</g>
			<g>
				<g>
					<path class="st8" d="M109.6,188.5c0,0-0.2,0-0.5,0c-0.4,0-0.8,0-1.3,0c-1.2,0-2.9,0-5,0.1c-4.2,0-10,0-16.4,0.1
						c-6.4,0-12.1,0-16.4-0.1c-2.1,0-3.7,0-5-0.1c-0.5,0-1,0-1.3,0c-0.3,0-0.5,0-0.5,0c0,0,0.2,0,0.5,0c0.4,0,0.8,0,1.3,0
						c1.2,0,2.9,0,5-0.1c4.2,0,10,0,16.4-0.1c6.4,0,12.1,0,16.4,0.1c2.1,0,3.7,0,5,0.1c0.5,0,1,0,1.3,0
						C109.4,188.5,109.6,188.5,109.6,188.5z"/>
				</g>
			</g>
		</g>
	</g>
</g>
<g id="Rocket">
	<path class="st1" d="M239.2,85.7c-2.2-1.4-5.1-0.6-7.3,0.9c-2.2,1.4-4,3.4-6.5,4.4c-4.6,1.8-10.5-0.3-14.1,3
		c-2.3,2.1-2.5,5.7-4.2,8.2c-2.9,4.4-9.9,6-10.4,11.2c-0.3,3,2.1,5.9,5,6.8c2.9,0.9,6.2,0,8.7-1.7c3-2,5.3-5,8.7-6.1
		c3.5-1.1,7.7-0.2,10.5-2.6c2.7-2.4,2.3-6.9,4.3-9.9c1-1.6,2.7-2.8,4.2-4.1c1.5-1.3,2.9-2.8,3.1-4.8S240.5,85.8,239.2,85.7"/>
	<g>
		<g>
			<path class="st6" d="M182.9,298.1c0.1-0.1,0.5,0.3,0.9,0.9c0.4,0.6,0.6,1.1,0.5,1.2c-0.1,0.1-0.5-0.3-0.9-0.9
				C182.9,298.8,182.7,298.2,182.9,298.1z"/>
		</g>
		<g>
			<path class="st6" d="M178.6,289.1c0.1,0,0.7,0.9,1.2,2.2c0.5,1.3,0.8,2.4,0.7,2.4c-0.1,0.1-0.7-0.9-1.2-2.2
				C178.8,290.3,178.4,289.2,178.6,289.1z"/>
		</g>
		<g>
			<path class="st6" d="M176.3,279.4c0.1,0,0.5,1.1,0.7,2.4c0.3,1.4,0.3,2.5,0.2,2.5c-0.1,0-0.5-1-0.7-2.4
				C176.2,280.5,176.1,279.4,176.3,279.4z"/>
		</g>
		<g>
			<path class="st6" d="M175.9,269.4c0.1,0,0.2,1.1,0.2,2.5c0,1.4-0.2,2.5-0.3,2.5c-0.1,0-0.2-1.1-0.2-2.5
				C175.6,270.5,175.8,269.4,175.9,269.4z"/>
		</g>
		<g>
			<path class="st6" d="M177.5,259.6c0.1,0,0,1.2-0.3,2.5c-0.3,1.3-0.6,2.4-0.8,2.4c-0.1,0,0-1.1,0.3-2.5
				C177,260.6,177.4,259.5,177.5,259.6z"/>
		</g>
		<g>
			<path class="st6" d="M181.1,250.2c0.1,0.1-0.2,1.1-0.8,2.4c-0.6,1.3-1.1,2.2-1.3,2.2c-0.1-0.1,0.2-1.1,0.8-2.4
				C180.4,251.1,181,250.2,181.1,250.2z"/>
		</g>
		<g>
			<path class="st6" d="M186.6,241.9c0.1,0.1-0.5,1.1-1.3,2.2c-0.8,1.1-1.6,1.9-1.7,1.9c-0.1-0.1,0.4-1.1,1.3-2.2
				C185.8,242.6,186.5,241.8,186.6,241.9z"/>
		</g>
		<g>
			<path class="st6" d="M193.3,234.5c0.1,0.1-0.6,1-1.5,2c-1,1-1.8,1.7-1.9,1.6s0.6-1,1.5-2C192.4,235.1,193.2,234.4,193.3,234.5z"
				/>
		</g>
		<g>
			<path class="st6" d="M200.4,227.4c0.1,0.1-0.6,1-1.6,2c-1,1-1.8,1.7-1.9,1.6c-0.1-0.1,0.6-1,1.6-2
				C199.4,228,200.3,227.3,200.4,227.4z"/>
		</g>
		<g>
			<path class="st6" d="M207,219.8c0.1,0.1-0.5,1-1.4,2.1c-0.9,1.1-1.7,1.9-1.8,1.8c-0.1-0.1,0.5-1,1.4-2.1
				C206,220.5,206.8,219.8,207,219.8z"/>
		</g>
		<g>
			<path class="st6" d="M212.1,211.3c0.1,0.1-0.2,1.1-0.8,2.4c-0.6,1.2-1.3,2.1-1.5,2.1c-0.1-0.1,0.4-1.1,1-2.3
				C211.4,212.2,211.9,211.2,212.1,211.3z"/>
		</g>
		<g>
			<path class="st6" d="M214.5,201.6c0.1,0,0.2,1.1-0.1,2.5c-0.2,1.4-0.6,2.4-0.8,2.4c-0.1,0,0-1.1,0.3-2.5
				C214.2,202.7,214.4,201.6,214.5,201.6z"/>
		</g>
		<g>
			<path class="st6" d="M213.8,191.7c0.1,0,0.5,1,0.7,2.4c0.2,1.4,0.2,2.5,0,2.5c-0.1,0-0.3-1.1-0.5-2.4
				C213.8,192.8,213.6,191.7,213.8,191.7z"/>
		</g>
		<g>
			<path class="st6" d="M209.8,182.5c0.1-0.1,0.9,0.8,1.5,2c0.7,1.2,1,2.3,0.9,2.4c-0.1,0.1-0.7-0.9-1.3-2.1
				C210.2,183.6,209.7,182.6,209.8,182.5z"/>
		</g>
		<g>
			<path class="st6" d="M202.9,175.4c0.1-0.1,1.1,0.4,2.2,1.3c1.1,0.9,1.8,1.8,1.7,1.9c-0.1,0.1-1-0.6-2-1.5
				C203.6,176.2,202.8,175.5,202.9,175.4z"/>
		</g>
		<g>
			<path class="st6" d="M193.8,171.4c0-0.1,1.2,0,2.5,0.5c1.3,0.5,2.3,1,2.2,1.2c-0.1,0.1-1.1-0.2-2.4-0.7
				C194.8,171.9,193.7,171.5,193.8,171.4z"/>
		</g>
		<g>
			<path class="st6" d="M183.8,170.9c0-0.1,1.1-0.4,2.5-0.5c1.4-0.1,2.5,0.1,2.5,0.3c0,0.1-1.1,0.2-2.5,0.3
				C185,171,183.9,171,183.8,170.9z"/>
		</g>
		<g>
			<path class="st6" d="M174.6,174.6c-0.1-0.1,0.8-0.9,2-1.5c1.2-0.7,2.3-1,2.4-0.8c0.1,0.1-0.9,0.6-2.1,1.3
				C175.7,174.1,174.7,174.7,174.6,174.6z"/>
		</g>
		<g>
			<path class="st6" d="M167.7,181.8c-0.1-0.1,0.4-1.1,1.2-2.2c0.9-1.1,1.7-1.8,1.8-1.7c0.1,0.1-0.6,1-1.4,2.1
				C168.5,181,167.9,181.8,167.7,181.8z"/>
		</g>
		<g>
			<path class="st6" d="M164.4,191.1c-0.1,0-0.1-1.2,0.2-2.5c0.3-1.4,0.8-2.4,1-2.3c0.1,0.1-0.2,1.1-0.5,2.5
				C164.7,190,164.5,191.1,164.4,191.1z"/>
		</g>
		<g>
			<path class="st6" d="M165.6,201c-0.1,0.1-0.6-1-1-2.3c-0.3-1.4-0.3-2.5-0.2-2.5c0.1,0,0.4,1.1,0.7,2.4
				C165.4,199.8,165.7,200.9,165.6,201z"/>
		</g>
		<g>
			<path class="st6" d="M170.6,209.5c-0.1,0.1-0.9-0.7-1.7-1.8c-0.8-1.1-1.3-2.2-1.2-2.2c0.1-0.1,0.8,0.8,1.6,1.9
				C170.1,208.5,170.7,209.4,170.6,209.5z"/>
		</g>
		<g>
			<path class="st6" d="M178,216.3c-0.1,0.1-1.1-0.4-2.2-1.3c-1.1-0.9-1.8-1.7-1.7-1.8c0.1-0.1,1,0.6,2.1,1.4
				C177.2,215.4,178.1,216.1,178,216.3z"/>
		</g>
		<g>
			<path class="st6" d="M186.7,221.2c-0.1,0.1-1.1-0.3-2.3-0.9c-1.2-0.6-2.2-1.2-2.1-1.4c0.1-0.1,1.1,0.3,2.3,0.9
				C185.8,220.5,186.7,221.1,186.7,221.2z"/>
		</g>
		<g>
			<path class="st6" d="M196.2,224.3c0,0.1-1.2,0.1-2.5-0.3c-1.3-0.3-2.4-0.8-2.3-0.9c0-0.1,1.1,0.1,2.5,0.4
				C195.1,223.8,196.2,224.1,196.2,224.3z"/>
		</g>
		<g>
			<path class="st6" d="M206.1,224.8c0,0.1-1.1,0.4-2.5,0.4c-1.4,0-2.5-0.2-2.5-0.3c0-0.1,1.1-0.2,2.5-0.2
				C205,224.6,206.1,224.6,206.1,224.8z"/>
		</g>
		<g>
			<path class="st6" d="M215.8,222.2c0.1,0.1-0.9,0.7-2.2,1.2c-1.3,0.5-2.4,0.6-2.5,0.5c0-0.1,1-0.5,2.3-1
				C214.6,222.4,215.7,222.1,215.8,222.2z"/>
		</g>
		<g>
			<path class="st6" d="M224.1,216.7c0.1,0.1-0.7,1-1.8,1.8c-1.1,0.9-2.1,1.4-2.2,1.2c-0.1-0.1,0.8-0.8,1.9-1.7
				C223.1,217.3,224,216.6,224.1,216.7z"/>
		</g>
		<g>
			<path class="st6" d="M230.6,209.2c0.1,0.1-0.4,1.1-1.2,2.2c-0.8,1.1-1.7,1.9-1.8,1.8c-0.1-0.1,0.5-1,1.4-2.1
				C229.8,210,230.5,209.1,230.6,209.2z"/>
		</g>
		<g>
			<path class="st6" d="M234.9,200.2c0.1,0-0.1,1.2-0.6,2.4c-0.5,1.3-1.1,2.3-1.3,2.2c-0.1-0.1,0.3-1.1,0.8-2.4
				C234.4,201.2,234.8,200.1,234.9,200.2z"/>
		</g>
		<g>
			<path class="st6" d="M236.9,190.4c0.1,0,0.2,1.1,0,2.5c-0.2,1.4-0.5,2.5-0.7,2.4c-0.1,0,0-1.1,0.2-2.5
				C236.5,191.5,236.7,190.4,236.9,190.4z"/>
		</g>
		<g>
			<path class="st6" d="M236.6,180.4c0.1,0,0.3,1.1,0.5,2.5c0.1,1.4,0.1,2.5-0.1,2.5c-0.1,0-0.3-1.1-0.5-2.5
				C236.4,181.5,236.5,180.4,236.6,180.4z"/>
		</g>
		<g>
			<path class="st6" d="M234.4,170.6c0.1,0,0.5,1,0.9,2.3c0.4,1.3,0.5,2.5,0.4,2.5c-0.1,0-0.5-1-0.9-2.3
				C234.5,171.8,234.3,170.7,234.4,170.6z"/>
		</g>
		<g>
			<path class="st6" d="M230.6,161.4c0.1-0.1,0.7,0.9,1.3,2.1c0.6,1.3,0.9,2.3,0.8,2.4c-0.1,0.1-0.7-0.9-1.2-2.2
				C230.9,162.5,230.5,161.5,230.6,161.4z"/>
		</g>
		<g>
			<path class="st6" d="M225.7,152.7c0.1-0.1,0.8,0.8,1.5,2c0.7,1.2,1.2,2.2,1,2.3c-0.1,0.1-0.8-0.8-1.5-2
				C226,153.8,225.6,152.8,225.7,152.7z"/>
		</g>
		<g>
			<path class="st6" d="M220.7,144c0.1-0.1,0.8,0.9,1.4,2.1c0.7,1.2,1.1,2.2,1,2.3c-0.1,0.1-0.8-0.9-1.4-2.1
				C221,145.1,220.6,144.1,220.7,144z"/>
		</g>
		<g>
			<path class="st6" d="M216.8,134.8c0.1,0,0.6,1,1.1,2.3c0.5,1.3,0.8,2.4,0.6,2.4c-0.1,0.1-0.6-0.9-1.1-2.3
				C217,135.9,216.7,134.8,216.8,134.8z"/>
		</g>
		<g>
			<path class="st6" d="M215.1,125c0.1,0,0.3,1.1,0.4,2.5c0.1,1.4,0.2,2.5,0.1,2.5c-0.1,0-0.5-1.1-0.6-2.4
				C214.9,126.1,215,125,215.1,125z"/>
		</g>
		<g>
			<path class="st6" d="M216,115c0.1,0,0,1.1-0.2,2.5c-0.2,1.4-0.4,2.5-0.5,2.4c-0.1,0-0.2-1.1,0-2.5C215.5,116.1,215.8,115,216,115
				z"/>
		</g>
		<g>
			<path class="st6" d="M219.2,105.6c0.1,0.1-0.3,1.1-0.8,2.4c-0.5,1.3-1,2.3-1.1,2.2c-0.1,0,0.1-1.2,0.6-2.4
				C218.5,106.5,219.1,105.5,219.2,105.6z"/>
		</g>
		<g>
			<path class="st6" d="M224.8,97.3c0.1,0.1-0.6,1-1.4,2.1c-0.8,1.1-1.6,1.9-1.7,1.9c-0.1-0.1,0.4-1.1,1.3-2.2
				C223.8,98,224.7,97.2,224.8,97.3z"/>
		</g>
		<g>
			<path class="st6" d="M232.3,90.7c0.1,0.1-0.8,0.8-1.9,1.7c-1.1,0.8-2,1.5-2.1,1.4c-0.1-0.1,0.7-0.9,1.8-1.8
				C231.2,91.1,232.2,90.6,232.3,90.7z"/>
		</g>
		<g>
			<path class="st6" d="M241.2,86.2c0,0.1-1,0.6-2.2,1.2c-1.3,0.5-2.3,1-2.4,0.8c-0.1-0.1,0.9-0.8,2.2-1.3
				C240,86.3,241.1,86.1,241.2,86.2z"/>
		</g>
		<g>
			<path class="st6" d="M248.4,84.4c0,0.1-0.5,0.4-1.2,0.5c-0.7,0.1-1.2,0.1-1.3,0c0-0.1,0.5-0.4,1.2-0.5
				C247.9,84.2,248.4,84.2,248.4,84.4z"/>
		</g>
	</g>
	<g>
		<path class="st8" d="M268.9,54.9c0,0,11.7-8.4,28-3c0,0,1.3,13.5-11.7,24.2"/>
		<path class="st8" d="M231.8,79.8c0.5,0.7,13.2,21.2,13.2,21.2l38.3-23.6c6.7-4.1,8.4-13.1,3.7-19.4l0,0
			c-4.3-5.8-12.3-7.1-18.2-3.1L231.8,79.8z"/>
		<path class="st6" d="M245.1,101l-0.9,14.4c0,0,24.8-12,18.6-25.4L245.1,101z"/>
		<path class="st6" d="M249.6,67.9c0,0-16.8-7.4-30.7,3.5l12.9,8.4L249.6,67.9z"/>
		<path class="st6" d="M249.4,79.8l-23.9,15c0,0,0.8,2.6,1.5,2.4c0.5-0.2,18.5-10.8,24.4-14.2c1-0.6,1.2-1.8,0.5-2.7l0,0
			C251.2,79.5,250.2,79.3,249.4,79.8z"/>
		<g>
			<ellipse transform="matrix(0.229 -0.9734 0.9734 0.229 142.69 317.0378)" class="st10" cx="271.5" cy="68.4" rx="7.7" ry="7.7"/>
			<g>
				<path class="st6" d="M279.1,68.4c-0.1,0,0-0.7-0.3-1.8c-0.3-1.1-1.1-2.8-2.8-4.1c-0.9-0.6-1.9-1.2-3.2-1.4
					c-1.2-0.2-2.6-0.2-3.9,0.3c-1.3,0.5-2.6,1.4-3.4,2.6c-0.9,1.2-1.4,2.8-1.4,4.4c0,1.6,0.5,3.2,1.4,4.4c0.9,1.2,2.1,2.1,3.4,2.6
					c1.3,0.5,2.7,0.5,3.9,0.3c1.2-0.2,2.3-0.7,3.2-1.4c1.7-1.3,2.5-3,2.8-4.1C279.1,69.1,279.1,68.4,279.1,68.4c0,0,0,0.2,0,0.5
					c0,0.3,0,0.8-0.2,1.4c-0.3,1.2-1,3-2.8,4.3c-0.9,0.7-2,1.3-3.3,1.5c-1.3,0.2-2.7,0.2-4.1-0.3c-1.4-0.5-2.7-1.4-3.7-2.7
					c-1-1.3-1.5-3-1.5-4.7c0-1.7,0.6-3.4,1.5-4.7c1-1.3,2.3-2.3,3.7-2.7c1.4-0.5,2.9-0.6,4.1-0.3c1.3,0.2,2.4,0.8,3.3,1.5
					c1.8,1.4,2.5,3.2,2.8,4.3c0.1,0.6,0.2,1.1,0.2,1.4C279.2,68.3,279.2,68.4,279.1,68.4z"/>
			</g>
		</g>
		<g>
			<path class="st6" d="M288.5,73.5c-0.1,0-0.2-1.5-0.8-3.8c-0.3-1.2-0.7-2.5-1.3-4c-0.6-1.5-1.4-3-2.4-4.6c-1-1.5-2.1-2.9-3.2-4.1
				c-1.1-1.1-2.1-2.1-3.1-2.9c-1.9-1.5-3.2-2.2-3.1-2.3c0,0,0.4,0.1,1,0.5c0.3,0.2,0.7,0.4,1.1,0.6c0.4,0.3,0.9,0.5,1.4,0.9
				c1,0.7,2.1,1.7,3.2,2.8c1.1,1.2,2.2,2.5,3.3,4.1c1,1.6,1.8,3.2,2.4,4.7c0.6,1.5,1,2.9,1.2,4.1c0.1,0.6,0.2,1.1,0.3,1.6
				c0.1,0.5,0.1,0.9,0.1,1.2C288.5,73.2,288.5,73.5,288.5,73.5z"/>
		</g>
		<g>
			<path class="st6" d="M286.4,74.7c-0.1,0-0.2-1.5-0.8-3.9c-0.3-1.2-0.7-2.6-1.4-4.1c-0.6-1.5-1.4-3.1-2.4-4.6
				c-1-1.6-2.1-2.9-3.2-4.1c-1.1-1.2-2.2-2.2-3.1-2.9c-1.9-1.5-3.2-2.3-3.2-2.4c0,0,0.4,0.1,1,0.5c0.3,0.2,0.7,0.4,1.1,0.6
				c0.4,0.3,0.9,0.6,1.4,1c1,0.7,2.1,1.7,3.3,2.9c1.1,1.2,2.3,2.6,3.3,4.2c1,1.6,1.8,3.2,2.4,4.7c0.6,1.5,1,2.9,1.3,4.2
				c0.2,0.6,0.2,1.2,0.3,1.6c0.1,0.5,0.1,0.9,0.1,1.3C286.4,74.3,286.4,74.6,286.4,74.7z"/>
		</g>
	</g>
</g>
<g id="Plant">
	<g>
		<g>
			<g>
				<g>
					<path class="st8" d="M52.3,392.6c-0.9-3.4,1.4-6.8,3.9-9.2c2.5-2.4,5.5-4.6,6.8-7.9c2.1-5.3-0.7-12.1,3-16.5
						c2.1-2.6,5.9-3.4,7.8-6.2c1-1.4,1.3-3.2,1.7-4.9c2-8.7,6.4-16.9,12.6-23.3c0.4,7.8-1.4,15.6-5,22.5c-1.5,2.8-3.3,5.4-3.8,8.5
						c-0.8,5,2,10.2,0.7,15.1c-1.4,5.6-7.8,9.4-8.1,15.2c-0.3,4.9,4,9.2,3.6,14.1c-0.1,2.1-1.1,4-2.2,5.8
						c-3.8,6.3-9.4,10.6-17.9,10.4l-10.3,0.3L52.3,392.6z"/>
				</g>
			</g>
		</g>
		<g class="st9">
			<g>
				<g>
					<g>
						<path d="M52.3,392.6c-0.9-3.4,1.4-6.8,3.9-9.2c2.5-2.4,5.5-4.6,6.8-7.9c2.1-5.3-0.7-12.1,3-16.5c2.1-2.6,5.9-3.4,7.8-6.2
							c1-1.4,1.3-3.2,1.7-4.9c2-8.7,6.4-16.9,12.6-23.3c0.4,7.8-1.4,15.6-5,22.5c-1.5,2.8-3.3,5.4-3.8,8.5c-0.8,5,2,10.2,0.7,15.1
							c-1.4,5.6-7.8,9.4-8.1,15.2c-0.3,4.9,4,9.2,3.6,14.1c-0.1,2.1-1.1,4-2.2,5.8c-3.8,6.3-9.4,10.6-17.9,10.4l-10.3,0.3
							L52.3,392.6z"/>
					</g>
				</g>
			</g>
		</g>
		<g>
			<g>
				<g>
					<g>
						<g>
							<g>
								<path class="st6" d="M43,416.7c0,0-1,0.2-2.8-0.1c-0.9-0.1-2.1-0.4-3.4-0.9c-1.3-0.5-2.7-1.2-4.1-2.3
									c-0.7-0.6-1.3-1.3-1.7-2.3c-0.4-1-0.4-2-0.5-3.1c0-1.1,0-2.2-0.2-3.3c-0.2-1.1-0.6-2.3-1.2-3.3c-1.2-2.1-3.2-4.2-3.9-7.1
									c-0.7-2.9-0.2-6,0.3-9.1c0.5-3.1,1-6.5-0.2-9.7c-1.1-3.2-3.3-6.2-4.5-9.8c-1.1-3.7-0.6-7.6-0.8-11.5c-0.1-2-0.5-3.9-1.3-5.7
									c-0.8-1.8-2-3.6-2.9-5.5c-1.8-3.9-2.1-8.3-2.6-12.6c-0.2-2.2-0.5-4.4-0.7-6.6c-0.2-2.2-0.4-4.5-1.1-6.6
									c-0.6-2.2-1.5-4.3-2.4-6.4c-0.4-1.1-0.9-2.2-1.2-3.3c-0.2-1.2-0.2-2.4-0.3-3.6c-0.1-2.4,0-4.8,0.3-7.2
									c0.3-2.4,0.7-4.7,1-7.1c0-0.1,0-0.3,0-0.4l0.1-0.5l0.4,0.2c2.2,1.1,4.1,2.8,5.5,4.7c1.5,1.9,2.5,4.1,3.4,6.3
									c1.7,4.5,2.3,9.1,3.1,13.6c0.8,4.4,1.9,8.8,4.2,12.5c1.1,1.8,2.5,3.5,3.7,5.3c1.2,1.8,2.2,3.8,2.5,5.9
									c0.6,4.4-1.8,8.2-1.4,12.1c0.2,1.9,0.9,3.7,1.9,5.4c0.9,1.7,2,3.2,3.1,4.7c1,1.5,2,3.1,2.7,4.8c0.7,1.7,1.1,3.4,1.2,5.2
									c0.2,3.5-0.3,6.8,0,9.9c0.2,3.1,1.3,6,2.5,8.5c1.2,2.6,2.6,4.9,3.8,7.1c0.6,1.1,1.1,2.2,1.5,3.3c0.5,1.1,0.7,2.2,0.9,3.3
									c0.3,2.1,0.3,4.1,0,5.9c-0.5,3.5-1.8,6.1-3,7.5c-0.3,0.4-0.6,0.6-0.8,0.9c-0.2,0.3-0.5,0.4-0.7,0.6
									C43.2,416.6,43,416.7,43,416.7c0-0.1,0.9-0.5,2-2c1.1-1.4,2.4-4,2.8-7.5c0.2-1.7,0.2-3.7-0.1-5.8c-0.2-1-0.4-2.1-0.9-3.2
									c-0.4-1.1-1-2.2-1.6-3.3c-1.2-2.2-2.6-4.5-3.8-7.1c-1.3-2.6-2.4-5.5-2.6-8.7c-0.3-3.2,0.2-6.5,0-9.9c-0.1-1.7-0.5-3.4-1.2-5
									c-0.7-1.6-1.7-3.2-2.7-4.7c-1-1.5-2.1-3.1-3.1-4.8c-1-1.7-1.8-3.6-1.9-5.6c-0.5-4.1,1.9-8,1.3-12c-0.3-2-1.3-3.9-2.4-5.6
									c-1.2-1.8-2.5-3.5-3.7-5.4c-2.3-3.8-3.4-8.3-4.3-12.7c-0.9-4.5-1.4-9.1-3.1-13.4c-0.8-2.2-1.9-4.3-3.3-6.2
									c-1.4-1.9-3.2-3.5-5.3-4.5l0.5-0.3c0,0.1,0,0.3,0,0.4c-0.3,2.4-0.7,4.8-1,7.1c-0.3,2.4-0.4,4.7-0.3,7
									c0.1,1.2,0.1,2.4,0.3,3.5c0.2,1.1,0.7,2.2,1.1,3.2c0.9,2.1,1.8,4.3,2.5,6.5c0.7,2.2,0.9,4.5,1.1,6.7
									c0.2,2.2,0.5,4.4,0.7,6.6c0.5,4.3,0.8,8.7,2.5,12.5c0.9,1.9,2,3.6,2.9,5.5c0.9,1.9,1.3,4,1.4,6c0.2,4-0.3,7.9,0.7,11.4
									c1.1,3.5,3.3,6.5,4.4,9.8c1.2,3.4,0.7,6.9,0.2,10c-0.5,3.1-1,6.1-0.4,8.9c0.6,2.8,2.5,4.8,3.8,7c0.6,1.1,1.1,2.3,1.3,3.5
									c0.2,1.2,0.2,2.3,0.2,3.4c0,1.1,0.1,2.1,0.4,3c0.3,0.9,0.9,1.6,1.6,2.2c1.3,1.1,2.8,1.8,4,2.3c1.3,0.5,2.4,0.8,3.3,0.9
									c0.9,0.2,1.6,0.2,2.1,0.2C42.8,416.7,43,416.7,43,416.7z"/>
							</g>
						</g>
					</g>
				</g>
				<g>
					<g>
						<g>
							<g>
								<path class="st6" d="M11.1,294.7c0,0,0,0.1,0.1,0.3c0.1,0.2,0.1,0.6,0.2,0.9c0.2,0.8,0.4,2,0.8,3.6c0.4,1.5,1.3,3.3,2.1,5.4
									c0.8,2.1,1.7,4.6,2.4,7.3c0.8,2.8,1.5,5.8,2.2,9.1c0.7,3.3,1.5,6.8,3.3,10.1c0.8,1.7,1.8,3.4,2.5,5.3
									c0.8,1.9,1.2,3.9,1.5,5.9c0.5,4.1,1.2,8.3,2.2,12.5c2,8.5,4,16.6,5.7,23.9c1.8,7.3,3.4,13.9,4.8,19.5
									c1.3,5.5,2.4,10,3.2,13.2c0.4,1.5,0.6,2.7,0.8,3.6c0.1,0.4,0.1,0.7,0.2,0.9c0,0.2,0.1,0.3,0,0.3c0,0,0-0.1-0.1-0.3
									c-0.1-0.2-0.2-0.5-0.3-0.9c-0.2-0.9-0.5-2.1-1-3.6c-0.8-3.2-2-7.6-3.4-13.1c-1.4-5.6-3.1-12.2-4.9-19.5
									c-1.8-7.4-3.7-15.4-5.8-23.9c-1-4.3-1.7-8.5-2.2-12.6c-0.3-2-0.7-4-1.4-5.8c-0.7-1.8-1.6-3.5-2.5-5.2
									c-1.8-3.4-2.5-7-3.2-10.3c-0.7-3.3-1.3-6.3-2.1-9.1c-0.7-2.8-1.5-5.2-2.3-7.3c-0.7-2.1-1.6-3.9-2-5.5
									c-0.3-1.6-0.5-2.8-0.7-3.6c-0.1-0.4-0.1-0.7-0.2-0.9C11.1,294.8,11.1,294.7,11.1,294.7z"/>
							</g>
						</g>
					</g>
				</g>
			</g>
			<g>
				<g>
					<g>
						<g>
							<path class="st8" d="M41.2,416.7c-6.7-4.1-8.6-16.2-5.7-23.6c2.9-7.3,7.8-14,8.6-21.8c0.6-6-1.3-12.2,0.1-18.1
								c1.9-7.9,9.7-14,9.7-22.2c0-4.6-2.6-8.9-2.4-13.5c0.3-5.6,4.6-10,7.3-14.9c4.1-7.5,4.4-16.5,5.9-24.9
								c1.4-8.5,4.7-17.5,12.3-21.6c1.1,7.2,2.9,12.1,2.3,21.9c-0.2,3.5-4.3,10.2-4.9,17.8c-0.4,4.6-0.6,9.2-0.9,13.8
								c-0.3,4.5-0.6,9-2.2,13.2c-1.2,3.2-3.2,6.1-4.2,9.4c-1.7,6.2,0.5,12.9-1,19.2c-1.2,5.3-4.9,9.9-5.7,15.3
								c-1.1,7.6,3.8,15.5,1.2,22.8c-1.3,3.6-4.2,6.5-5.1,10.2c-0.7,2.9,0,5.9-0.6,8.8c-1,4.7-9.9,8.2-14.6,7.9"/>
						</g>
					</g>
				</g>
				<g>
					<g>
						<g>
							<g>
								<path class="st6" d="M75,263.3c0,0,0,0.1,0,0.4c0,0.3-0.1,0.7-0.2,1.2c-0.2,1-0.3,2.6-0.7,4.5c-0.4,2-1.4,4.2-2.3,6.9
									c-0.9,2.7-1.8,5.8-2.5,9.2c-0.8,3.5-1.5,7.3-2.2,11.4c-0.7,4.1-1.5,8.6-3.5,12.9c-1,2.2-2,4.3-2.8,6.6
									c-0.8,2.3-1.2,4.8-1.5,7.3c-0.4,5.1-1.1,10.4-2.1,15.7c-2.1,10.6-4.2,20.8-6,30c-1.9,9.2-3.7,17.5-5.2,24.4
									c-1.5,6.9-2.7,12.5-3.5,16.5c-0.4,1.9-0.8,3.4-1,4.5c-0.1,0.5-0.2,0.9-0.3,1.2c-0.1,0.3-0.1,0.4-0.1,0.4c0,0,0-0.1,0-0.4
									c0.1-0.3,0.1-0.7,0.2-1.2c0.2-1.1,0.5-2.6,0.9-4.5c0.8-3.9,1.9-9.6,3.3-16.5c1.4-7,3.1-15.3,5-24.5c1.8-9.2,3.8-19.4,5.9-30
									c1-5.3,1.7-10.6,2.1-15.7c0.3-2.5,0.7-5.1,1.5-7.4c0.8-2.3,1.9-4.5,2.9-6.6c2.1-4.2,2.8-8.6,3.6-12.7
									c0.7-4.1,1.4-8,2.2-11.4c0.8-3.5,1.7-6.6,2.6-9.2c0.9-2.7,1.9-4.9,2.4-6.8c0.4-1.9,0.6-3.5,0.8-4.5c0.1-0.5,0.2-0.9,0.2-1.2
									C75,263.5,75,263.3,75,263.3z"/>
							</g>
						</g>
					</g>
				</g>
			</g>
		</g>
	</g>
</g>
<g id="Chart">
	<g>
		<g>
			<rect x="372.9" y="259.3" class="st8" width="7" height="22.5"/>
		</g>
		<g>
			<rect x="385.8" y="250.1" class="st8" width="7" height="31.8"/>
		</g>
		<g>
			<rect x="399.4" y="245.8" class="st8" width="7" height="36.1"/>
		</g>
		<g>
			<rect x="413.1" y="241.2" class="st8" width="7" height="40.7"/>
		</g>
	</g>
</g>
<g id="Gears">
	<g>
		<g>
			<g>
				<g>
					<g>
						<path class="st6" d="M138,288.6c0,0,0.6,0,1.5,0.5c0.9,0.4,2.2,1.3,3,3c0.4,0.8,0.6,1.8,0.6,2.9c0,1.1-0.3,2.2-1,3.3
							c-0.3,0.5-0.7,1-1.2,1.4c-0.5,0.4-1,0.8-1.6,1c-1.2,0.6-2.7,0.7-4,0.4c-1.4-0.3-2.6-1.1-3.5-2.1c-0.4-0.5-0.8-1.1-1-1.6
							c-0.3-0.6-0.4-1.2-0.5-1.8c-0.2-1.2,0.1-2.4,0.5-3.4c0.4-1,1.1-1.8,1.8-2.4c1.4-1.2,3-1.5,4-1.5
							C137.5,288.4,138,288.6,138,288.6c0,0-0.6-0.1-1.6-0.1c-1,0-2.5,0.4-3.8,1.5c-0.7,0.6-1.3,1.3-1.7,2.3c-0.4,1-0.6,2.1-0.4,3.2
							c0.1,0.6,0.2,1.2,0.5,1.7c0.2,0.6,0.6,1.1,1,1.6c0.8,1,2,1.7,3.3,2c1.3,0.3,2.7,0.1,3.8-0.4c0.6-0.2,1.1-0.6,1.6-1
							c0.5-0.4,0.9-0.8,1.2-1.3c0.6-1,0.9-2.1,1-3.1c0.1-1-0.2-2-0.5-2.8c-0.7-1.6-1.9-2.6-2.8-3C138.5,288.7,138,288.6,138,288.6z"
							/>
					</g>
				</g>
			</g>
		</g>
		<g>
			<g>
				<g>
					<g>
						<path class="st6" d="M143.1,281.8c0,0,0-0.1,0-0.2c0-0.2,0-0.4,0-0.7c0-0.6,0-1.5,0-2.7l0,0.1c-1.5-0.3-3.4-0.7-5.8-1.3
							l0.1-0.1c-0.5,1-1,2.1-1.5,3.2l0,0.1l-0.1,0c-1.2,0.1-2.5,0.3-3.8,0.7l-0.1,0l-0.1-0.1c-0.8-0.8-1.6-1.6-2.5-2.5l0.2,0
							c-1.6,1-3.2,2.1-5,3.2l0.1-0.2c0.4,1,0.8,2.2,1.2,3.4l0,0.1l-0.1,0.1c-0.8,0.9-1.6,1.9-2.2,3.1l0,0.1l-0.1,0
							c-1.1,0-2.3,0-3.6,0l0.2-0.1c-0.4,1.8-0.8,3.8-1.3,5.8l-0.1-0.2c1,0.5,2.1,1,3.2,1.5l0.1,0l0,0.1c0,1.2,0.3,2.5,0.7,3.7l0,0.1
							l-0.1,0.1c-0.8,0.8-1.6,1.7-2.5,2.5l0-0.2c1,1.6,2.1,3.3,3.2,5l-0.2-0.1c1.1-0.4,2.2-0.8,3.4-1.2l0.1,0l0.1,0.1
							c0.9,0.8,1.9,1.6,3.1,2.2l0,0l0,0c0,0.1-0.1-0.2,0.1,0.2v0v0l0,0v0l0,0.1l0,0.1l0,0.2l0,0.4l0,0.9c0,0.6,0,1.2,0,1.8l-0.1-0.2
							c1.9,0.4,3.9,0.9,5.8,1.3l-0.2,0.1c0.5-1.1,1-2.2,1.5-3.2l0-0.1l0.1,0c1.3,0,2.5-0.3,3.7-0.6l0.1,0l0.1,0.1
							c0.9,0.9,1.7,1.7,2.5,2.5l-0.2,0c1.7-1.1,3.4-2.1,5-3.2l-0.1,0.2c-0.4-1.1-0.8-2.3-1.2-3.4l0-0.1l0.1-0.1c0.9-1,1.6-2,2.2-3.1
							l0-0.1l0.1,0c1.2,0,2.4,0,3.6,0l-0.1,0.1c0.5-2,0.9-3.9,1.3-5.8l0.1,0.2c-1.1-0.5-2.2-1-3.2-1.5l-0.1,0l0-0.1
							c-0.1-1.4-0.3-2.6-0.6-3.8l0-0.1l0.1-0.1c0.9-0.9,1.7-1.7,2.5-2.5l0,0.1c-1.2-1.9-2.3-3.6-3.1-5l0.1,0
							c-1.3,0.5-2.5,0.9-3.4,1.2l0,0l0,0c-0.9-0.9-1.8-1.4-2.3-1.8c-0.3-0.2-0.5-0.3-0.6-0.4C143.1,281.8,143.1,281.8,143.1,281.8
							c0,0,0.1,0,0.2,0.1c0.1,0.1,0.4,0.2,0.6,0.3c0.6,0.3,1.4,0.9,2.3,1.7l-0.1,0c0.9-0.3,2-0.7,3.4-1.2l0.1,0l0,0.1
							c0.9,1.4,2,3,3.2,5l0,0.1l-0.1,0.1c-0.8,0.8-1.6,1.6-2.5,2.5l0-0.1c0.4,1.2,0.6,2.4,0.7,3.8l-0.1-0.1c1,0.5,2.1,1,3.2,1.5
							l0.1,0l0,0.1c-0.4,1.8-0.8,3.7-1.3,5.8l0,0.1l-0.1,0c-1.2,0-2.3,0-3.6,0l0.1-0.1c-0.6,1.1-1.3,2.2-2.2,3.2l0-0.2
							c0.4,1.1,0.8,2.2,1.2,3.4l0,0.1l-0.1,0.1c-1.6,1-3.3,2.1-5,3.2l-0.1,0.1l-0.1-0.1c-0.8-0.8-1.7-1.7-2.5-2.5l0.2,0
							c-1.2,0.4-2.5,0.6-3.8,0.7l0.2-0.1c-0.5,1.1-1,2.1-1.5,3.2l-0.1,0.1l-0.1,0c-1.9-0.4-3.8-0.9-5.8-1.3l-0.1,0l0-0.1
							c0-0.6,0-1.2,0-1.8l0-0.9l0-0.4l0-0.2l0-0.1l0-0.1l0,0v0v0v0c0.2,0.3,0.1,0.1,0.1,0.2l0,0l0,0c-1.2-0.6-2.3-1.4-3.2-2.2l0.2,0
							c-1.2,0.4-2.3,0.8-3.4,1.2l-0.1,0l-0.1-0.1c-1.1-1.7-2.2-3.4-3.2-5l-0.1-0.1l0.1-0.1c0.9-0.9,1.7-1.7,2.5-2.5l0,0.2
							c-0.4-1.3-0.6-2.6-0.7-3.8l0.1,0.1c-1.1-0.5-2.2-1.1-3.2-1.5l-0.1-0.1l0-0.1c0.5-2,0.9-4,1.3-5.8l0-0.1l0.1,0
							c1.2,0,2.5,0,3.6,0l-0.1,0.1c0.6-1.2,1.4-2.3,2.2-3.2l0,0.2c-0.4-1.2-0.8-2.3-1.2-3.4l0-0.1l0.1-0.1c1.8-1.1,3.4-2.2,5-3.1
							l0.1-0.1l0.1,0.1c0.9,0.9,1.7,1.7,2.5,2.5l-0.1,0c1.3-0.4,2.6-0.6,3.8-0.7l-0.1,0.1c0.6-1.2,1.1-2.2,1.5-3.2l0-0.1l0.1,0
							c2.3,0.5,4.3,1,5.8,1.3l0,0l0,0c0,1.1,0,2,0,2.6c0,0.3,0,0.5,0,0.7C143.1,281.7,143.1,281.8,143.1,281.8z"/>
					</g>
				</g>
			</g>
		</g>
	</g>
	<g>
		<g>
			<g>
				<g>
					<path class="st11" d="M132.2,236.9c1.3,0.7,2.4,1.5,3.5,2.5l3.7-1.3l3.5,5.5l-2.8,2.8c0.4,1.3,0.7,2.8,0.7,4.2l3.6,1.7
						l-1.4,6.4l-3.9,0c-0.7,1.3-1.5,2.4-2.5,3.5l1.3,3.7l-5.5,3.5l-2.8-2.8c-1.3,0.4-2.8,0.7-4.2,0.7l-1.7,3.6l-6.4-1.4l0-3.9
						c-1.3-0.7-2.4-1.5-3.5-2.5l-3.7,1.3l-3.5-5.5l2.8-2.8c-0.4-1.3-0.7-2.8-0.7-4.2l-3.6-1.7l1.4-6.4l3.9,0
						c0.7-1.3,1.5-2.4,2.5-3.5l-1.3-3.7l5.5-3.5l2.8,2.8c1.3-0.4,2.8-0.7,4.2-0.7l1.7-3.6l6.4,1.4L132.2,236.9L132.2,236.9z
						 M126.6,244.4c-3.8-0.8-7.5,1.5-8.4,5.3c-0.8,3.8,1.5,7.5,5.3,8.4c3.8,0.8,7.5-1.5,8.4-5.3C132.7,249,130.4,245.3,126.6,244.4z
						"/>
				</g>
			</g>
		</g>
		<g class="st2">
			<g>
				<g>
					<path class="st12" d="M132.2,236.9c1.3,0.7,2.4,1.5,3.5,2.5l3.7-1.3l3.5,5.5l-2.8,2.8c0.4,1.3,0.7,2.8,0.7,4.2l3.6,1.7
						l-1.4,6.4l-3.9,0c-0.7,1.3-1.5,2.4-2.5,3.5l1.3,3.7l-5.5,3.5l-2.8-2.8c-1.3,0.4-2.8,0.7-4.2,0.7l-1.7,3.6l-6.4-1.4l0-3.9
						c-1.3-0.7-2.4-1.5-3.5-2.5l-3.7,1.3l-3.5-5.5l2.8-2.8c-0.4-1.3-0.7-2.8-0.7-4.2l-3.6-1.7l1.4-6.4l3.9,0
						c0.7-1.3,1.5-2.4,2.5-3.5l-1.3-3.7l5.5-3.5l2.8,2.8c1.3-0.4,2.8-0.7,4.2-0.7l1.7-3.6l6.4,1.4L132.2,236.9L132.2,236.9z
						 M126.6,244.4c-3.8-0.8-7.5,1.5-8.4,5.3c-0.8,3.8,1.5,7.5,5.3,8.4c3.8,0.8,7.5-1.5,8.4-5.3C132.7,249,130.4,245.3,126.6,244.4z
						"/>
				</g>
			</g>
		</g>
	</g>
	<g>
		<g>
			<g>
				<g>
					<path class="st11" d="M109.2,274.5c0.7,0.4,1.4,0.9,2,1.4l2.2-0.8l2,3.2l-1.6,1.6c0.2,0.8,0.4,1.6,0.4,2.4l2.1,1l-0.8,3.7
						l-2.3,0c-0.4,0.7-0.9,1.4-1.4,2l0.8,2.2l-3.2,2l-1.6-1.6c-0.8,0.2-1.6,0.4-2.4,0.4l-1,2.1l-3.7-0.8l0-2.3
						c-0.7-0.4-1.4-0.9-2-1.4l-2.2,0.8l-2-3.2l1.6-1.6c-0.2-0.8-0.4-1.6-0.4-2.4l-2.1-1l0.8-3.7l2.3,0c0.4-0.7,0.9-1.4,1.4-2
						l-0.8-2.2l3.2-2l1.6,1.6c0.8-0.2,1.6-0.4,2.4-0.4l1-2.1l3.7,0.8L109.2,274.5L109.2,274.5z M105.9,278.8
						c-2.2-0.5-4.4,0.9-4.9,3.1c-0.5,2.2,0.9,4.4,3.1,4.9c2.2,0.5,4.4-0.9,4.9-3.1C109.5,281.5,108.1,279.3,105.9,278.8z"/>
				</g>
			</g>
		</g>
		<g class="st13">
			<g>
				<g>
					<path class="st12" d="M109.2,274.5c0.7,0.4,1.4,0.9,2,1.4l2.2-0.8l2,3.2l-1.6,1.6c0.2,0.8,0.4,1.6,0.4,2.4l2.1,1l-0.8,3.7
						l-2.3,0c-0.4,0.7-0.9,1.4-1.4,2l0.8,2.2l-3.2,2l-1.6-1.6c-0.8,0.2-1.6,0.4-2.4,0.4l-1,2.1l-3.7-0.8l0-2.3
						c-0.7-0.4-1.4-0.9-2-1.4l-2.2,0.8l-2-3.2l1.6-1.6c-0.2-0.8-0.4-1.6-0.4-2.4l-2.1-1l0.8-3.7l2.3,0c0.4-0.7,0.9-1.4,1.4-2
						l-0.8-2.2l3.2-2l1.6,1.6c0.8-0.2,1.6-0.4,2.4-0.4l1-2.1l3.7,0.8L109.2,274.5L109.2,274.5z M105.9,278.8
						c-2.2-0.5-4.4,0.9-4.9,3.1c-0.5,2.2,0.9,4.4,3.1,4.9c2.2,0.5,4.4-0.9,4.9-3.1C109.5,281.5,108.1,279.3,105.9,278.8z"/>
				</g>
			</g>
		</g>
	</g>
</g>
<g id="Character">
	<g>
		<g>
			<g>
				<path class="st6" d="M330,237.7c4.2-1.1,7.3-5.4,7.1-9.7c-0.1-2-0.9-3.9-0.8-5.8c0.1-3,2.1-5.6,3.7-8.2c1.5-2.6,2.5-6.1,0.8-8.6
					c-1.1-1.6-3.2-2.3-4.6-3.7c-1.4-1.4-2-3.3-2.7-5.1c-0.7-1.8-1.7-3.6-3.4-4.6s-4.3-0.5-4.9,1.3"/>
				<path class="st6" d="M311.8,188.3c3-1.9,3.7-6.3,2.1-9.5c-1.6-3.2-5.1-5.1-8.6-5.6c-5.1-0.8-10.5,1-14.1,4.7
					c-1.9,2-3.5,4.6-6.1,5.5c-2.3,0.8-4.9,0.1-7.3,0.4c-3.2,0.4-6,2.7-7.7,5.5c-1.7,2.8-2.3,6.1-2.7,9.3c-0.4,3-0.6,6.3-2.7,8.4
					c-2,2.1-5.2,2.6-7.7,4.1c-4.7,2.8-6.2,9.9-3.1,14.4c1,1.4,2.4,2.8,2.5,4.5c0.1,1.6-0.9,3-1.4,4.6c-1.2,3.9,2,8.6,6.1,8.8
					c2.1,0.1,4.3-0.7,6.2,0.2c1.9,0.9,2.5,3.2,3.7,4.9c2.3,3.3,7.2,4.6,10.9,2.8c1.5-0.8,3-2,4.7-1.9c1.7,0.1,3,1.6,4.7,1.9
					c2.2,0.4,4.3-1.2,5.6-3c1.3-1.8,2.2-3.9,3.9-5.4c2.2-1.9,5.2-2.4,8-3.4c6.1-2.1,11.2-6.9,13.6-12.9c2.4-6,2.1-13-0.8-18.7"/>
				<g>
					<g>
						<g>
							<g>
								<g>
									<g>
										<g>
											<g>
												<g>
													<g>
														<g>
															<g>
																<g>
																	<path class="st14" d="M318.4,192.3c2.5,0.3,4.3,2.4,4.3,4.9l0,0l-2.9,64.7c-0.1,7.6-11.3,11.9-19.5,11.7l0,0
																		c-8.3-0.2-8.5-4.2-8.6-11.5c-0.2-12.1-0.2-16.7-0.2-16.6c0,0-10.4-1.8-12.6-15.4c-1.1-6.8-0.7-17.9-0.1-26.9
																		c0.5-8.2,6-18.2,14.1-17.3L318.4,192.3z"/>
																</g>
															</g>
														</g>
													</g>
												</g>
											</g>
											<g>
												<g>
													<g>
														<g>
															<g>
																<g>
																	<g>
																		<path class="st6" d="M281.9,211.9c0,0.9,0.7,1.7,1.7,1.8c1,0.1,1.8-0.6,1.8-1.6c0-0.9-0.7-1.7-1.7-1.8
																			C282.8,210.3,282,211,281.9,211.9z"/>
																	</g>
																</g>
															</g>
														</g>
													</g>
												</g>
												<g>
													<g>
														<g>
															<g>
																<g>
																	<g>
																		<g>
																			<path class="st6" d="M281.3,208.9c0.2,0.2,1.5-0.7,3.4-0.7c1.9,0,3.3,1,3.5,0.7c0.1-0.1-0.1-0.5-0.7-1
																				c-0.6-0.4-1.6-0.9-2.8-0.9c-1.2,0-2.2,0.4-2.7,0.9C281.4,208.3,281.2,208.8,281.3,208.9z"/>
																		</g>
																	</g>
																</g>
															</g>
														</g>
													</g>
												</g>
											</g>
											<g>
												<g>
													<g>
														<g>
															<g>
																<g>
																	<g>
																		<path class="st6" d="M300.6,211.9c0,0.9,0.7,1.7,1.7,1.8c1,0.1,1.8-0.6,1.8-1.6c0-0.9-0.7-1.7-1.7-1.8
																			C301.5,210.3,300.7,211,300.6,211.9z"/>
																	</g>
																</g>
															</g>
														</g>
													</g>
												</g>
												<g>
													<g>
														<g>
															<g>
																<g>
																	<g>
																		<g>
																			<path class="st6" d="M299.8,209.2c0.2,0.2,1.5-0.7,3.4-0.7c1.9,0,3.3,1,3.5,0.7c0.1-0.1-0.1-0.5-0.7-1
																				c-0.6-0.4-1.6-0.9-2.8-0.9c-1.2,0-2.2,0.4-2.7,0.9C299.9,208.7,299.7,209.1,299.8,209.2z"/>
																		</g>
																	</g>
																</g>
															</g>
														</g>
													</g>
												</g>
											</g>
											<g>
												<g>
													<g>
														<g>
															<g>
																<g>
																	<g>
																		<path class="st6" d="M292.9,223.2c0-0.1-1.2-0.3-3.1-0.6c-0.5-0.1-0.9-0.1-1-0.5c-0.1-0.3,0.1-0.9,0.3-1.4
																			c0.5-1.2,0.9-2.4,1.4-3.7c2-5.2,3.4-9.5,3.2-9.5c-0.2-0.1-2,4.1-4,9.3c-0.5,1.3-0.9,2.5-1.4,3.7
																			c-0.2,0.5-0.5,1.2-0.3,1.9c0.1,0.4,0.5,0.6,0.8,0.7c0.3,0.1,0.6,0.1,0.8,0.1C291.7,223.3,292.9,223.3,292.9,223.2
																			z"/>
																	</g>
																</g>
															</g>
														</g>
													</g>
												</g>
											</g>
											<g>
												<g>
													<g>
														<g>
															<g>
																<g>
																	<path class="st15" d="M291.6,245.4c0,0,9.2,0.6,18.2-4.8c0,0-4.6,9.6-18.2,8.3V245.4z"/>
																</g>
															</g>
														</g>
													</g>
												</g>
											</g>
											<g>
												<g>
													<g>
														<g>
															<g>
																<g>
																	<path class="st8" d="M293.7,227.7c0.7-0.9,1.9-1.4,3-1.3c0.8,0.1,1.6,0.5,2.1,1.1c0.5,0.7,0.6,1.6,0.1,2.2
																		c-0.5,0.7-1.6,0.9-2.5,0.6c-0.9-0.3-1.7-0.8-2.4-1.4c-0.2-0.2-0.4-0.3-0.5-0.6
																		C293.5,228.2,293.5,227.9,293.7,227.7"/>
																</g>
															</g>
														</g>
													</g>
												</g>
											</g>
											<g>
												<g>
													<g>
														<g>
															<g>
																<g>
																	<g>
																		<path class="st6" d="M298.5,224.5c-0.3,0-0.3,2-2.1,3.5c-1.7,1.4-3.9,1.2-3.9,1.5c0,0.1,0.5,0.4,1.4,0.4
																			c0.9,0,2.2-0.3,3.3-1.1c1.1-0.9,1.5-2.1,1.6-2.9C298.8,225,298.6,224.5,298.5,224.5z"/>
																	</g>
																</g>
															</g>
														</g>
													</g>
												</g>
											</g>
										</g>
									</g>
								</g>
								<g>
									<g>
										<g>
											<g>
												<g>
													<g>
														<path class="st6" d="M298.9,206c0.2,0.5,2.1,0.3,4.3,0.5c2.2,0.2,4,0.9,4.3,0.4c0.1-0.2-0.2-0.7-0.9-1.2
															c-0.7-0.5-1.8-1-3.2-1.1c-1.3-0.1-2.5,0.1-3.3,0.4C299.3,205.3,298.9,205.7,298.9,206z"/>
													</g>
												</g>
											</g>
										</g>
									</g>
								</g>
								<g>
									<g>
										<g>
											<g>
												<g>
													<g>
														<path class="st6" d="M282,203.4c0.3,0.4,1.6,0,3.2,0c1.6-0.1,2.9,0.3,3.2-0.2c0.1-0.2-0.1-0.6-0.6-1
															c-0.6-0.4-1.5-0.7-2.6-0.7c-1.1,0-2,0.4-2.5,0.9C282.1,202.8,281.9,203.2,282,203.4z"/>
													</g>
												</g>
											</g>
										</g>
									</g>
								</g>
							</g>
						</g>
					</g>
				</g>
				<path class="st6" d="M309.5,187.8c3.1-2.1,7.2-3.1,10.8-2c3.6,1,6.6,4.3,6.8,8c0.1,2.4-1,5,0.1,7.1c1,2.1,3.5,2.9,5.3,4.4
					c2.8,2.3,3.6,6.6,1.9,9.8c-1.5,2.7-4.6,4.7-4.9,7.8c-0.2,2.9,2.2,5.3,2.8,8.2c0.7,3.1-1.1,6.4-3.6,8.5c-2.5,2.1-5.6,3.2-8.7,4.3
					c-2.4,0.9-5,1.7-7.5,1.2c-3-0.7-5.2-3.4-5.6-6.4c-0.4-3,0.8-6,2.8-8.2c1.7-1.9,4.2-3.6,4.6-6.1c0.7-4-4.1-7.2-3.8-11.2
					c0.1-2.1,1.6-3.8,2.8-5.5c1.2-1.7,2.3-3.8,1.5-5.8c-1-2.5-4.3-3.2-6.3-5c-1.7-1.5-2.3-4-1.7-6.2c0.7-2.1,2.7-3.8,4.9-4.2"/>
				<path class="st6" d="M311,184.8c0,2.7-1.2,5.4-3.3,7.2c-2.1,1.7-5,2.5-7.7,2c-2.1-0.4-4.4-1.4-6.2-0.3c-1.9,1.2-2,4-3.7,5.5
					c-2.4,2.1-6.2,0.1-9.3,1c-2.4,0.7-3.8,2.9-5.4,4.8c-1.6,1.9-3.9,3.7-6.3,3c0.2-2.1,0.3-4.3,0.9-6.3c0.6-2,1.8-4,3.6-5.1
					c1-0.6,2.1-1,3-1.8c2-1.6,2.4-4.3,3.6-6.5c1.6-2.8,4.6-4.8,7.8-5.2c2.7-0.3,5.4,0.5,8-0.1c1.9-0.5,3.6-1.7,5.6-2.1
					c3.8-0.7,7.3,2,10.1,4.7"/>
			</g>
			<g>
				<path class="st16" d="M335.8,217.3c-0.1,0,0.4-0.5,0.3-1.6c-0.1-1-0.9-2.5-2.7-3.1c-0.9-0.4-1.9-0.6-3-0.8
					c-1.1-0.3-2.3-0.6-3.4-1.4c-1.1-0.8-1.7-2.2-1.8-3.6c-0.1-1.4,0.1-2.8,0.2-4.3c0-0.7,0-1.4-0.1-2.1c-0.1-0.7-0.4-1.3-0.8-1.8
					c-0.8-1-2.1-1.5-3.3-1.9c-1.2-0.4-2.4-0.8-3.3-1.4c-1-0.6-1.8-1.3-2.5-2c-1.3-1.4-2-2.9-2.4-3.9c-0.2-0.5-0.3-0.9-0.3-1.2
					c-0.1-0.3-0.1-0.4-0.1-0.4c0,0,0.2,0.6,0.6,1.5c0.4,1,1.2,2.3,2.5,3.7c1.3,1.4,3.2,2.6,5.7,3.2c1.2,0.4,2.6,0.9,3.5,2
					c0.4,0.6,0.8,1.3,0.9,2c0.1,0.7,0.1,1.5,0.1,2.2c-0.1,1.5-0.3,2.9-0.2,4.2c0.1,1.3,0.6,2.6,1.5,3.3c1,0.7,2.1,1.1,3.2,1.4
					c1.1,0.3,2.1,0.5,3,0.9c0.9,0.4,1.7,0.9,2.1,1.6c0.5,0.6,0.7,1.3,0.7,1.9c0,0.6-0.1,1-0.2,1.2
					C335.9,217.2,335.8,217.3,335.8,217.3z"/>
			</g>
			<g>
				<path class="st16" d="M255.6,225.8c0,0-0.1,0-0.2-0.1c-0.1-0.1-0.3-0.2-0.5-0.5c-0.3-0.6-0.4-1.6,0.3-2.7
					c0.3-0.5,0.8-1.1,1.5-1.4c0.6-0.4,1.4-0.6,2.2-0.9c0.8-0.3,1.6-0.7,2.3-1.3c0.7-0.6,1.1-1.6,1.3-2.6c0.2-1,0.3-2.1,0.5-3.3
					c0.2-1.2,0.5-2.4,1.4-3.4c1.6-2.1,4.2-3.2,6.1-5.2c1-1,1.7-2.2,2.1-3.6c0.5-1.4,0.7-2.8,1-4.4c0.4-3,0.8-6.3,2.9-9.1
					c1-1.4,2.5-2.4,4.1-2.7c1.6-0.3,3.2-0.1,4.7,0.1c1.5,0.2,3,0.4,4.4,0.3c1.4-0.2,2.7-0.9,3.6-1.9c1.9-2,2.9-4.7,5.2-6.1
					c2.2-1.4,4.8-1.5,6.9-0.9c2.1,0.6,3.7,2,4.5,3.5c0.9,1.5,1.2,3,1.2,4.2c0,1.2-0.2,2.1-0.4,2.7c-0.2,0.6-0.4,0.9-0.4,0.9
					c0,0,0.1-0.3,0.3-0.9c0.2-0.6,0.4-1.5,0.3-2.7c-0.1-1.2-0.4-2.6-1.2-4.1c-0.8-1.4-2.3-2.8-4.4-3.3c-2-0.5-4.5-0.4-6.5,1
					c-1,0.7-1.9,1.6-2.6,2.7c-0.8,1.1-1.5,2.3-2.5,3.3c-0.5,0.5-1.1,1-1.7,1.4c-0.7,0.3-1.4,0.6-2.2,0.7c-1.5,0.2-3.1,0-4.6-0.2
					c-1.5-0.2-3.1-0.4-4.6-0.1c-1.5,0.3-2.9,1.2-3.8,2.5c-0.9,1.3-1.5,2.8-1.9,4.3c-0.4,1.5-0.6,3.1-0.8,4.6c-0.2,1.5-0.5,3-1,4.4
					c-0.5,1.4-1.2,2.7-2.3,3.8c-2.1,2-4.6,3.1-6.1,5.1c-0.8,1-1.1,2.1-1.3,3.2c-0.2,1.1-0.3,2.3-0.5,3.3c-0.2,1.1-0.7,2.1-1.4,2.7
					c-0.7,0.7-1.6,1-2.4,1.3c-0.8,0.3-1.5,0.5-2.2,0.9c-0.6,0.3-1.1,0.8-1.4,1.3c-0.6,1-0.6,2-0.4,2.5
					C255.3,225.7,255.7,225.8,255.6,225.8z"/>
			</g>
		</g>
		<g>
			<path class="st8" d="M222.2,319.5l24.2-2.2c0,0,14.9-39.1,33.2-48.6l11.9,20.7L266,337.2h-49.6L222.2,319.5z"/>
			<path class="st9" d="M222.2,319.5l24.2-2.2c0,0,14.9-39.1,33.2-48.6l11.9,20.7L266,337.2h-49.6L222.2,319.5z"/>
			<g>
				<path class="st10" d="M231.8,330.6c-0.1-0.1,0.8-1.8,2-3.9c1.2-2.1,2.4-3.7,2.5-3.6c0.1,0.1-0.8,1.8-2,3.9
					C233,329,231.9,330.7,231.8,330.6z"/>
			</g>
			<g>
				<path class="st10" d="M248.9,330.1c-0.1,0.1-1.4-1.4-3-3.3c-1.5-1.9-2.7-3.5-2.5-3.6c0.1-0.1,1.4,1.4,3,3.3
					C247.8,328.4,249,330,248.9,330.1z"/>
			</g>
			<g>
				<path class="st10" d="M251.8,321.1c-0.1,0-0.3-1.4-0.3-3.2c0-1.7,0.1-3.2,0.3-3.2c0.1,0,0.3,1.4,0.3,3.2
					C252.1,319.7,252,321.1,251.8,321.1z"/>
			</g>
			<g>
				<path class="st10" d="M243.3,335.1c-0.1,0.1-1.1-0.4-2.3-1.2c-1.2-0.8-2.1-1.5-2-1.6c0.1-0.1,1.1,0.4,2.3,1.2
					C242.5,334.3,243.4,335,243.3,335.1z"/>
			</g>
			<g>
				<path class="st10" d="M257.2,299.2c0.1,0.1-0.6,2-1.7,4.4c-1.1,2.4-2,4.2-2.1,4.1c-0.1-0.1,0.6-2,1.7-4.4
					C256.1,301,257.1,299.1,257.2,299.2z"/>
			</g>
			<g>
				<path class="st10" d="M267,283.3c0.1,0.1-0.8,0.9-1.9,1.8c-1.2,0.9-2.2,1.5-2.2,1.4c-0.1-0.1,0.8-0.9,1.9-1.8
					C265.9,283.8,266.9,283.2,267,283.3z"/>
			</g>
			<path class="st8" d="M303.1,334.1l12.5-50.3c2.2-8.8,10.8-14.3,19.6-12.7l0,0c9.1,1.6,15.3,10.3,13.9,19.5l-7.6,49.2
				c-1.9,10.3-10.1,18.3-20.4,19.9l-9.9,1.5L303.1,334.1z"/>
			<g>
				<path class="st6" d="M342.4,267.8c-0.1,0.1-1.4-1.5-4.4-2.2c-1.5-0.3-3.4-0.4-5.4,0c-2,0.5-4,1.5-5.8,3c-3.7,3.1-5.6,7-7,9.8
					c-0.7,1.4-1.2,2.6-1.5,3.4c-0.4,0.8-0.6,1.2-0.6,1.2c0,0,0.1-0.5,0.4-1.3c0.3-0.8,0.8-2,1.4-3.5c0.6-1.4,1.4-3.1,2.6-4.9
					c1.1-1.8,2.6-3.6,4.4-5.2c1.9-1.6,4-2.6,6.1-3.1c2.1-0.5,4-0.3,5.6,0.1c1.5,0.4,2.7,1.1,3.4,1.6c0.3,0.3,0.6,0.5,0.8,0.7
					C342.3,267.7,342.4,267.8,342.4,267.8z"/>
			</g>
			<g>
				<path class="st6" d="M271.8,279.1c0,0-0.1,0.2-0.3,0.5c-0.3,0.3-0.6,0.8-1.1,1.3c-0.9,1.1-2.2,2.7-3.7,4.8
					c-3,4.2-6.7,10.4-8.5,18.1c-1.7,7.7-1.8,14.9-2.1,20c-0.1,2.6-0.2,4.7-0.4,6.1c-0.1,0.7-0.1,1.2-0.1,1.7c0,0.4-0.1,0.6-0.1,0.6
					c0,0,0-0.2,0-0.6c0-0.4,0-1,0-1.7c0-1.5,0.1-3.6,0.2-6.1c0.2-5.1,0.2-12.4,2-20.1c1.8-7.8,5.6-14,8.7-18.2
					c1.5-2.1,2.9-3.7,3.9-4.7c0.5-0.5,0.9-0.9,1.1-1.2C271.6,279.2,271.8,279.1,271.8,279.1z"/>
			</g>
			<path class="st8" d="M351.6,279c-1.4-9-6.3-11.2-11.5-14c-1.7-0.9-9.8-3-16.2-4.6c-0.6-3.9-1.7-10.9-2-12.3
				c-0.3-2.1-32.8,3.1-33.2,3.9c-0.3,0.5-1,8.6-1.5,14l-7.8,2.7l-10.1,12.9l-5.3,7.5c-3.1,4.3-5.4,9.2-6.5,14.4
				c-1.3,5.7-1.5,11.3-1.5,17.4l-1.6,33l67.8,19.2l5.3-33.5l17.5-23.8C346.7,306.1,353.3,290,351.6,279z"/>
			<g>
				<path class="st6" d="M293.7,267c-0.1,0-0.2-0.9-0.5-2.3c-0.2-1.4-0.5-3.4-0.7-5.6c-0.1-1.1-0.2-2.1-0.3-3.1
					c-0.1-0.9-0.2-1.8-0.2-2.5c0-0.7,0.2-1.3,0.5-1.7c0.3-0.3,0.5-0.4,0.5-0.4c0,0-0.1,0.2-0.3,0.5c-0.2,0.3-0.3,0.9-0.3,1.6
					c0,0.7,0.2,1.5,0.3,2.5c0.1,1,0.2,2,0.4,3.1c0.3,2.2,0.5,4.2,0.6,5.6C293.8,266.1,293.8,267,293.7,267z"/>
			</g>
			<g>
				<path class="st6" d="M302.4,265c-0.1,0-0.4-0.8-0.7-2.1c-0.4-1.3-0.7-3.2-0.9-5.3c-0.2-2.1-0.2-4-0.1-5.4
					c0.1-1.4,0.3-2.2,0.3-2.2c0.2,0-0.1,3.4,0.3,7.5C301.6,261.7,302.5,264.9,302.4,265z"/>
			</g>
			<g>
				<path class="st6" d="M318.5,262.6c-0.2,0,0.5-3.4-0.2-7.5c-0.7-4.1-2.5-7-2.3-7.1c0.1,0,0.6,0.6,1.2,1.9c0.6,1.2,1.3,3,1.7,5.1
					c0.4,2.1,0.3,4,0.2,5.4C318.8,261.8,318.5,262.6,318.5,262.6z"/>
			</g>
			<g>
				<path class="st10" d="M272.4,292c-0.1-0.1,1-2,2.7-4.2c1.6-2.2,3.2-3.8,3.3-3.7c0.1,0.1-1.2,1.9-2.9,4
					C273.9,290.3,272.5,292.1,272.4,292z"/>
			</g>
			<g>
				<path class="st10" d="M287.7,279.6c-0.1,0.1-1.3-1.3-2.7-3.1c-1.4-1.8-2.4-3.3-2.3-3.4c0.1-0.1,1.3,1.3,2.7,3.1
					C286.8,278,287.8,279.5,287.7,279.6z"/>
			</g>
			<g>
				<path class="st10" d="M303.7,271.8c0.1,0.1-1.4,1.5-3.2,3.2c-1.8,1.7-3.2,3.2-3.3,3.1c-0.1-0.1,1.1-1.7,2.9-3.5
					C301.9,272.9,303.6,271.7,303.7,271.8z"/>
			</g>
			<g>
				<path class="st10" d="M299.2,262.3c-0.1,0.1-1.2-0.7-2.5-1.9c-1.3-1.2-2.2-2.2-2.1-2.3c0.1-0.1,1.2,0.7,2.5,1.9
					C298.3,261.2,299.3,262.2,299.2,262.3z"/>
			</g>
			<g>
				<path class="st10" d="M313.2,254.8c0,0.1-1.5,0.6-3.4,1c-1.9,0.4-3.4,0.6-3.5,0.5c0-0.1,1.5-0.6,3.4-1
					C311.6,254.9,313.1,254.7,313.2,254.8z"/>
			</g>
			<g>
				<path class="st10" d="M316,277c-0.1,0-0.3-1.6-0.4-3.5c-0.1-1.9-0.1-3.5,0.1-3.5c0.1,0,0.3,1.6,0.4,3.5
					C316.2,275.4,316.1,277,316,277z"/>
			</g>
			<g>
				<path class="st10" d="M310.9,287.6c-0.1,0-0.9-1.8-1.8-4c-0.8-2.3-1.4-4.2-1.3-4.2c0.1,0,0.9,1.8,1.8,4
					C310.4,285.7,311,287.6,310.9,287.6z"/>
			</g>
			<g>
				<path class="st10" d="M297,295.1c-0.1,0.1-1-1.8-1.9-4.2c-0.9-2.4-1.6-4.4-1.4-4.4c0.1-0.1,1,1.8,1.9,4.2
					C296.5,293.1,297.2,295.1,297,295.1z"/>
			</g>
			<g>
				<path class="st10" d="M284,303.7c-0.1,0-0.6-1.8-1.1-4.2c-0.5-2.3-0.8-4.3-0.6-4.3c0.1,0,0.6,1.8,1.1,4.2
					C283.8,301.7,284.1,303.6,284,303.7z"/>
			</g>
			<g>
				<path class="st10" d="M268.5,304c-0.1,0.1-1.1-1.6-2.1-3.7c-1-2.1-1.8-3.9-1.6-3.9c0.1-0.1,1.1,1.6,2.1,3.7
					C267.9,302.2,268.6,303.9,268.5,304z"/>
			</g>
			<g>
				<path class="st10" d="M268.1,313.9c0.1,0.1-1.8,1.2-4.1,2.3c-2.3,1.1-4.2,2-4.3,1.8c-0.1-0.1,1.8-1.2,4.1-2.3
					C266.2,314.6,268.1,313.8,268.1,313.9z"/>
			</g>
			<g>
				<path class="st10" d="M268.3,329.6c-0.1,0.1-0.9-1.6-1.4-3.6c-0.6-2.1-0.7-3.8-0.6-3.9c0.1,0,0.5,1.7,1.1,3.7
					C268,327.9,268.5,329.6,268.3,329.6z"/>
			</g>
			<g>
				<path class="st10" d="M265.1,340.7c-0.1,0.1-1.6-1.1-3.3-2.6c-1.7-1.6-3-2.9-2.9-3c0.1-0.1,1.6,1.1,3.3,2.6
					C263.9,339.2,265.2,340.6,265.1,340.7z"/>
			</g>
			<g>
				<path class="st10" d="M285.5,333.2c0,0.1-2.3,0.8-4.9,2c-2.7,1.2-4.7,2.4-4.8,2.3c-0.1-0.1,1.9-1.6,4.6-2.8
					C283.1,333.5,285.5,333,285.5,333.2z"/>
			</g>
			<g>
				<path class="st10" d="M279.6,327.7c-0.1,0-0.8-1.5-1.5-3.4c-0.7-1.9-1.1-3.5-1-3.6s0.8,1.5,1.5,3.4
					C279.3,326,279.7,327.6,279.6,327.7z"/>
			</g>
			<g>
				<path class="st10" d="M291.7,314.2c0.1,0.1-1.1,2.2-2.7,4.8c-1.6,2.6-3.1,4.6-3.2,4.6c-0.1-0.1,1.1-2.2,2.7-4.8
					C290.1,316.1,291.6,314.1,291.7,314.2z"/>
			</g>
			<g>
				<path class="st10" d="M304.7,315.5c-0.1,0.1-1.7-1.9-3.3-4.5c-1.6-2.7-2.6-5-2.4-5.1c0.1-0.1,1.3,2.2,2.9,4.8
					C303.4,313.3,304.8,315.4,304.7,315.5z"/>
			</g>
			<g>
				<path class="st10" d="M312.5,302.6c0,0.1-1.7,0.6-3.8,0.7c-2.1,0.1-3.9-0.2-3.9-0.3c0-0.1,1.7-0.1,3.8-0.2
					C310.8,302.7,312.5,302.5,312.5,302.6z"/>
			</g>
			<g>
				<path class="st10" d="M331,288c0.1,0.1-2.1,1.3-4.9,2.6c-2.8,1.3-5.1,2.3-5.1,2.2c-0.1-0.1,2.1-1.3,4.9-2.6
					C328.6,288.8,330.9,287.9,331,288z"/>
			</g>
			<g>
				<path class="st10" d="M332.2,278.7c-0.1-0.1,0.7-1.9,1.8-4.1c1.1-2.2,2.1-4,2.2-3.9c0.1,0.1-0.7,1.9-1.8,4.1
					C333.4,277,332.4,278.7,332.2,278.7z"/>
			</g>
			<g>
				<path class="st10" d="M344,286c-0.1,0-0.7-2-1.5-4.5c-0.8-2.5-1.5-4.5-1.3-4.6c0.1-0.1,1,1.9,1.8,4.4
					C343.8,283.8,344.1,285.9,344,286z"/>
			</g>
			<g>
				<path class="st10" d="M345.8,295.7c0,0.1-1.9,1-4.4,1.6c-2.5,0.6-4.6,0.8-4.6,0.7c0-0.1,2-0.6,4.5-1.2
					C343.8,296.1,345.8,295.5,345.8,295.7z"/>
			</g>
			<g>
				<path class="st10" d="M325.7,307.5c-0.2,0,0.3-2.5,0.4-5.5c0.1-3-0.1-5.5,0.1-5.5c0.1,0,0.6,2.4,0.5,5.5
					C326.5,305.1,325.8,307.5,325.7,307.5z"/>
			</g>
			<g>
				<path class="st10" d="M321.7,319.6c-0.1,0.1-1.9-1.4-3.7-3.6c-1.8-2.2-3-4.2-2.8-4.3c0.1-0.1,1.5,1.8,3.2,3.9
					C320.2,317.9,321.8,319.5,321.7,319.6z"/>
			</g>
			<g>
				<path class="st10" d="M341.9,317.1c0.1,0.1-1.8,1-4.2,2c-2.4,1-4.3,1.7-4.4,1.5c-0.1-0.1,1.8-1,4.2-2
					C339.9,317.6,341.8,317,341.9,317.1z"/>
			</g>
			<g>
				<path class="st10" d="M334.6,340c-0.1,0-0.2-2.5-0.2-5.5c0-3,0.2-5.5,0.3-5.5c0.1,0,0.2,2.5,0.2,5.5
					C334.9,337.5,334.8,340,334.6,340z"/>
			</g>
			<g>
				<path class="st10" d="M319.1,338.7c-0.1,0,0.1-2.6,0.9-5.7c0.8-3.1,1.8-5.5,1.9-5.4c0.1,0.1-0.6,2.5-1.4,5.5
					C319.7,336.2,319.3,338.7,319.1,338.7z"/>
			</g>
			<g>
				<path class="st10" d="M319.8,344.7c0,0.2-2.5,0.4-5.5,0.9c-3,0.5-5.5,1.1-5.5,0.9c0-0.1,2.4-0.9,5.4-1.4
					C317.3,344.5,319.8,344.5,319.8,344.7z"/>
			</g>
			<g>
				<path class="st10" d="M302.7,340.8c-0.1-0.1,1.2-1.6,3-3.4c1.7-1.8,3.2-3.2,3.3-3.1c0.1,0.1-1.2,1.6-3,3.4
					C304.3,339.5,302.8,340.9,302.7,340.8z"/>
			</g>
			<g>
				<path class="st10" d="M291.6,351.6c-0.1,0-0.6-1.8-1.4-3.9c-0.8-2.1-1.5-3.8-1.4-3.9c0.1-0.1,1.1,1.5,1.9,3.7
					C291.5,349.7,291.7,351.6,291.6,351.6z"/>
			</g>
			<g>
				<path class="st10" d="M309.5,357.8c-0.1,0.1-2.3-0.7-5-1.9c-2.7-1.2-4.9-2.3-4.8-2.4c0.1-0.1,2.3,0.7,5,1.9
					C307.4,356.6,309.6,357.7,309.5,357.8z"/>
			</g>
			<g>
				<path class="st10" d="M278.2,356c-0.1,0,0.3-1.7,0.9-3.7c0.7-2,1.3-3.5,1.4-3.5c0.1,0-0.3,1.7-0.9,3.7
					C279,354.5,278.4,356,278.2,356z"/>
			</g>
			<g>
				<path class="st10" d="M298.8,359.5c0,0.2-2.9-0.3-6.4-0.5c-3.5-0.2-6.4,0-6.4-0.2c0-0.1,2.9-0.5,6.5-0.3
					C296,358.7,298.9,359.4,298.8,359.5z"/>
			</g>
			<g>
				<path class="st6" d="M303.1,330c0,0,0-0.1,0-0.4c0-0.3,0-0.6,0.2-1.1c0.1-0.5,0.4-1.1,1.1-1.5c0.6-0.4,1.5-0.6,2.4-0.4l-0.2,0.1
					c1.1-3.8,2.8-9.4,4.6-15.7c1.6-5.9,2.7-11.3,3.5-15.2c0.4-1.9,0.7-3.5,0.9-4.6c0.2-1.1,0.4-1.7,0.4-1.7c0,0,0,0.6-0.2,1.7
					c-0.2,1.1-0.4,2.7-0.8,4.7c-0.7,3.9-1.7,9.4-3.4,15.3c-1.8,6.3-3.6,11.9-4.8,15.7l0,0.1l-0.2,0c-0.8-0.2-1.7,0-2.2,0.3
					c-0.6,0.3-0.9,0.9-1,1.3C303.1,329.4,303.2,330,303.1,330z"/>
			</g>
			<g>
				<path class="st6" d="M325.5,343.9c-0.1,0-0.7-1.3-2-3.3c-1.3-2-3.3-4.7-6-7.1c-2.7-2.4-5.5-4.2-7.6-5.3
					c-2.1-1.1-3.5-1.6-3.5-1.6c0,0,0.4,0.1,1,0.3c0.6,0.2,1.6,0.5,2.7,1c2.2,1,5.1,2.7,7.8,5.2c2.7,2.5,4.7,5.2,5.9,7.3
					c0.6,1,1,1.9,1.3,2.5C325.4,343.5,325.6,343.9,325.5,343.9z"/>
			</g>
			<g class="st17">
				<path d="M307,325.8c3.8,0.3,7,0.6,10.5,1.9c3.6,1.3,6.9,3.9,8.2,7.5c0.3,0.9,0.5,2-0.2,2.6c-0.5,0.5-1.3,0.5-1.9,0.3
					s-1.2-0.7-1.7-1.1c-2.2-2-4.5-3.8-6.8-5.8c-2.3-2-5.6-4-8.6-4.5"/>
			</g>
			<g>
				<path class="st6" d="M299.8,319.4c0,0-0.3,0.3-1,0.6c-0.7,0.3-1.7,0.8-3.1,1.2c-2.7,0.8-6.6,1.2-10.8,0.1
					c-4.2-1.1-7.4-3.4-9.4-5.4c-1-1-1.7-1.9-2.1-2.5c-0.4-0.6-0.6-1-0.6-1c0.1-0.1,1,1.4,3,3.3c2,1.9,5.2,4.1,9.2,5.1
					c4,1,7.9,0.7,10.6,0C298.3,320.2,299.8,319.4,299.8,319.4z"/>
			</g>
			<g class="st17">
				<path d="M273.4,313.2c1.7,3.7,3.7,7.3,6.9,9.8c1.8,1.4,4,2.6,6.3,2.6c3.3,0.1,6.2-2.2,8.8-4.4
					C287,322.6,277.7,318.8,273.4,313.2"/>
			</g>
			<g>
				<path class="st6" d="M310.3,264.2c-0.2,0,0-3.4-0.4-7.6c-0.4-4.2-1.2-7.5-1.1-7.6c0.1,0,0.4,0.8,0.7,2.1
					c0.3,1.4,0.7,3.2,0.9,5.4c0.2,2.1,0.2,4,0.1,5.4C310.5,263.4,310.4,264.2,310.3,264.2z"/>
			</g>
		</g>
		<g>
			<path class="st8" d="M191.7,398c0,0-10.9,2.3-20.6,0.9c-9.1-1.4-29.5,0-29.5,12c0,13.4,27.2,10.1,37.8,7.9
				c10.6-2.1,21.2-4,21.2-4L191.7,398z"/>
			<g>
				<path class="st6" d="M167.3,415.2c-0.1,0-0.7-2.1-1.3-4.7c-0.6-2.6-0.9-4.7-0.8-4.8c0.1,0,0.7,2.1,1.3,4.7
					C167.1,413,167.5,415.1,167.3,415.2z"/>
			</g>
			<g>
				<path class="st6" d="M171,415.3c-0.1,0-0.6-2.1-0.9-4.8c-0.4-2.7-0.5-4.8-0.4-4.8c0.1,0,0.6,2.1,0.9,4.8
					C171,413.1,171.2,415.3,171,415.3z"/>
			</g>
			<g>
				<path class="st6" d="M174.6,413.9c-0.1,0-0.5-1.8-0.8-4.2c-0.3-2.3-0.4-4.2-0.2-4.2c0.1,0,0.5,1.8,0.8,4.2
					C174.6,412,174.7,413.9,174.6,413.9z"/>
			</g>
			<g>
				<path class="st6" d="M180.2,412.5c-0.1,0.1-0.9-1.5-1.4-3.6c-0.5-2.1-0.5-3.8-0.4-3.8c0.1,0,0.4,1.7,0.9,3.7
					C179.8,410.9,180.4,412.5,180.2,412.5z"/>
			</g>
			<g>
				<path class="st6" d="M181.4,407.6c0,0,0.5-0.1,1.4-0.1c0.9,0,2.3,0.2,3.8,0.7c0.4,0.1,0.8,0.3,1.2,0.6c0.4,0.3,0.7,0.8,0.7,1.3
					c0,1.2-1.3,2-2.5,1.8c-1.2-0.2-2.1-1.1-2.8-2c-0.8-0.9-1.3-2.1-1.6-3.3c-0.6-2.5-0.2-5.1,1.2-6.9c0.2-0.2,0.5-0.4,0.8-0.5
					c0.3-0.1,0.7,0.1,0.9,0.3c0.4,0.4,0.6,1,0.7,1.5c0.1,1,0.1,1.9-0.1,2.7c-0.4,1.6-1.2,2.8-1.8,3.4c-0.3,0.3-0.6,0.6-0.8,0.7
					c-0.2,0.1-0.3,0.2-0.3,0.2c0,0,0.4-0.3,1-1c0.6-0.7,1.3-1.8,1.6-3.4c0.2-0.8,0.2-1.7,0.1-2.6c-0.1-0.4-0.2-0.9-0.6-1.2
					c-0.3-0.3-0.7-0.2-1,0.2c-1.2,1.7-1.6,4.1-1.1,6.5c0.3,1.2,0.8,2.3,1.5,3.2c0.7,0.9,1.5,1.7,2.5,1.9c0.9,0.2,2-0.5,1.9-1.3
					c0-0.4-0.2-0.8-0.6-1c-0.3-0.3-0.7-0.5-1.1-0.6c-1.5-0.6-2.8-0.8-3.7-0.9C181.9,407.7,181.4,407.7,181.4,407.6z"/>
			</g>
			<g>
				<path class="st6" d="M199.5,413.1c0,0-0.1,0-0.3,0.1c-0.2,0.1-0.5,0.1-0.8,0.2c-0.8,0.2-1.8,0.4-3.2,0.7
					c-2.7,0.6-6.7,1.4-11.7,2.4c-4.9,0.9-10.8,2-17.5,2.9c-3.3,0.4-6.8,0.8-10.5,0.5c-1.8-0.1-3.7-0.4-5.5-1.1
					c-0.9-0.3-1.8-0.7-2.6-1.2c-0.8-0.5-1.7-1-2.3-1.9l0,0c-0.3-0.3-0.7-0.7-0.9-1.1c-1.1-1.8-1.1-4-0.6-5.9c0.6-1.9,2-3.4,3.5-4.6
					c1.5-1.1,3.2-1.9,5-2.5c0.9-0.2,1.7-0.5,2.6-0.7c0.9-0.2,1.7-0.4,2.6-0.5c6.8-1.1,13-0.5,18.2-0.5c2.6,0,4.9,0,7-0.1
					c2-0.2,3.8-0.4,5.2-0.7c0.7-0.1,1.3-0.3,1.9-0.4c0.5-0.1,1-0.3,1.3-0.4c0.3-0.1,0.6-0.2,0.8-0.2c0.2,0,0.3-0.1,0.3-0.1
					c0,0-0.1,0-0.3,0.1c-0.2,0.1-0.5,0.2-0.8,0.3c-0.4,0.1-0.8,0.3-1.3,0.4c-0.5,0.1-1.2,0.3-1.9,0.4c-1.4,0.3-3.2,0.6-5.2,0.7
					c-2.1,0.2-4.4,0.2-7,0.2c-5.2,0-11.4-0.5-18.1,0.6c-0.8,0.1-1.7,0.3-2.5,0.5c-0.8,0.2-1.7,0.5-2.5,0.7c-1.7,0.6-3.3,1.3-4.8,2.4
					c-1.5,1.1-2.7,2.5-3.3,4.3c-0.6,1.8-0.5,3.8,0.5,5.4c0.2,0.4,0.6,0.7,0.9,1l0,0l0,0c0.6,0.7,1.4,1.3,2.1,1.7
					c0.8,0.5,1.7,0.8,2.5,1.1c1.8,0.6,3.6,0.9,5.4,1c3.6,0.3,7.1-0.1,10.4-0.5c6.6-0.9,12.5-1.9,17.5-2.8c4.9-0.9,8.9-1.7,11.7-2.2
					c1.3-0.3,2.4-0.5,3.2-0.6c0.3-0.1,0.6-0.1,0.8-0.2C199.4,413.1,199.5,413.1,199.5,413.1z"/>
			</g>
			<g>
				<path class="st6" d="M159.8,419.5c-0.1,0-0.1-1.1-0.3-2.8c-0.1-1.7-0.3-4.1-0.7-6.7c-0.3-2.6-0.8-4.9-1.1-6.6
					c-0.3-1.7-0.6-2.7-0.5-2.7c0.1,0,0.4,1,0.8,2.7c0.4,1.7,0.9,4,1.3,6.6c0.3,2.6,0.5,5,0.5,6.7
					C159.9,418.5,159.8,419.5,159.8,419.5z"/>
			</g>
			<polygon class="st13" points="188.4,398.6 195.3,415.9 200.6,414.9 190.4,398 			"/>
		</g>
		<path class="st6" d="M278.1,351.3c-1.1,0.4-72.3-19.6-101.1-27.7c-7.6-2.1-15.7-0.9-22.3,3.4l-0.3,0.2
			c-9.7,6.3-14.4,17.9-11.8,29.2v0c1.7,7.1,6.1,13.3,12.3,17.1c19,11.6,59.2,36.1,60.4,35.6c1.6-0.6,51.8-1.9,51.8-1.9l-60.4-43.4
			l28.7,18.6L278.1,351.3L278.1,351.3z"/>
		<path class="st14" d="M218.7,329.7l15.1-7.8l14.8,9.3l55.5,1.8l8,27l-80.4-18.6c0,0-14.6,1.3-15.7-2
			C215,336.1,218.7,329.7,218.7,329.7z"/>
		<path class="st6" d="M264.2,373l-7.5,24.6l0.9,7.5l0,0c13.6,13.7,35.3,15.2,50.7,3.4h0c9.3-7.2,14.8-18.3,14.7-30l-0.1-25.7
			L264.2,373z"/>
		<g>
			<path class="st16" d="M219.7,373.2c-0.1,0.1-8.8-6.2-19.4-14.1c-10.6-7.9-19.2-14.4-19.1-14.6c0.1-0.1,8.8,6.2,19.4,14.1
				C211.2,366.5,219.8,373,219.7,373.2z"/>
		</g>
		<g>
			<path class="st15" d="M232.8,326.7c0,0.1-3.3,1.3-7.4,2.6c-4.1,1.3-7.5,2.3-7.6,2.1c0-0.1,3.3-1.3,7.4-2.6
				C229.4,327.6,232.8,326.6,232.8,326.7z"/>
		</g>
		<g>
			<path class="st15" d="M233.9,331.4c0,0.1-1,0.2-2.6,0.5c-1.6,0.3-3.8,0.7-6.2,1.2c-2.4,0.6-4.5,1.2-6.1,1.6
				c-1.5,0.5-2.5,0.8-2.5,0.7c0-0.1,0.9-0.5,2.4-1c1.5-0.6,3.7-1.2,6.1-1.8c2.4-0.6,4.6-0.9,6.3-1.1
				C232.9,331.3,233.9,331.3,233.9,331.4z"/>
		</g>
		<g>
			<path class="st15" d="M232.7,335.6c0,0.1-3.7,1-8.3,1.9c-4.6,0.9-8.4,1.5-8.4,1.4c0-0.1,3.7-1,8.3-1.9
				C228.9,336.1,232.7,335.4,232.7,335.6z"/>
		</g>
		<g>
			<path class="st16" d="M213.1,293.4l14,45.9c0.2,0.5,0.6,0.9,1.2,0.9l38,2.9c0.7,0.1,1.2,0.6,1.2,1.3v2.4c0,0.7-0.6,1.3-1.4,1.3
				l-104-2c-0.5,0-1-0.3-1.2-0.9l-18.3-47.9c-0.3-0.8,0.3-1.8,1.2-1.8l67.9-3.2C212.3,292.4,212.9,292.8,213.1,293.4z"/>
			<path class="st0" d="M183.8,313.2c-0.7,0.2-1.9,1.2-2.1,2.3c-0.1,1.1,0.4,2.2,1.3,2.9c1.1,0.8,2.7,0.9,3.8,0.1
				c1.1-0.8,1.6-2.2,1-3.8C187.4,313.4,185.1,312.5,183.8,313.2"/>
		</g>
		<g>
			<path class="st6" d="M200.6,414.9l-11-18.1l80.8-63.3c5-4.1,11.2-6.6,17.6-7.2h0c20.1-1.8,37,14.9,35.3,35l-1.3,15.4L268.4,394
				L200.6,414.9z"/>
			<g>
				<path class="st16" d="M304.2,371.9c0,0-0.1,0.1-0.2,0.2c-0.2,0.1-0.4,0.3-0.7,0.5c-0.6,0.5-1.5,1.2-2.6,2.1
					c-0.6,0.4-1.2,0.9-1.9,1.5c-0.7,0.5-1.5,1-2.3,1.6c-0.8,0.6-1.7,1.2-2.7,1.8c-0.5,0.3-1,0.7-1.5,1c-0.5,0.3-1.1,0.6-1.6,1
					c-2.2,1.3-4.6,2.8-7.3,4.2c-1.3,0.7-2.7,1.5-4.1,2.2c-1.4,0.7-2.9,1.4-4.5,2.1c-6.2,2.8-13,5.6-20.4,8.1
					c-14.8,5.1-28.4,8.7-38.2,11.7c-2.5,0.7-4.7,1.4-6.6,2c-1.9,0.6-3.6,1.1-5,1.6c-1.3,0.4-2.4,0.8-3.1,1c-0.3,0.1-0.6,0.2-0.8,0.3
					c-0.2,0.1-0.3,0.1-0.3,0.1c0,0,0.1,0,0.3-0.1c0.2-0.1,0.5-0.2,0.8-0.3c0.7-0.3,1.8-0.6,3.1-1.1c1.3-0.5,3-1,4.9-1.7
					c1.9-0.6,4.1-1.3,6.6-2.1c9.8-3.1,23.4-6.8,38.1-11.8c7.4-2.5,14.3-5.3,20.4-8.1c1.5-0.7,3-1.4,4.5-2.1c1.4-0.7,2.8-1.5,4.1-2.1
					c2.7-1.3,5.1-2.8,7.3-4.1c0.5-0.3,1.1-0.6,1.6-0.9c0.5-0.3,1-0.7,1.5-1c1-0.6,1.9-1.2,2.7-1.8c0.8-0.6,1.6-1.1,2.3-1.6
					c0.7-0.5,1.3-1,1.9-1.4c1.1-0.8,2-1.5,2.6-2c0.3-0.2,0.5-0.4,0.7-0.5C304.1,372,304.2,371.9,304.2,371.9z"/>
			</g>
			<g>
				<path class="st16" d="M306.2,380.4c0,0-0.3,0.2-0.8,0.4c-0.5,0.2-1.3,0.6-2.3,0.9c-2,0.7-4.8,1.6-7.9,2.3
					c-3.2,0.7-6.1,1-8.2,1.2c-1.1,0.1-1.9,0.1-2.5,0.1c-0.6,0-0.9,0-0.9-0.1c0-0.1,1.3-0.2,3.4-0.4c2.1-0.2,5-0.6,8.1-1.3
					c3.1-0.7,5.9-1.5,7.9-2.1C304.9,380.8,306.2,380.3,306.2,380.4z"/>
			</g>
			<g>
				<path class="st16" d="M267.2,336.5c0.1,0.1-17.2,13.7-38.6,30.3c-21.4,16.7-38.9,30.1-38.9,29.9c-0.1-0.1,17.2-13.7,38.6-30.4
					C249.7,349.8,267.1,336.4,267.2,336.5z"/>
			</g>
			<g>
				<g>
					<path class="st8" d="M262.5,403.7c-3.9-2.1-8.2-0.8-11.9,0.4c-2.5,0.8-5,2.1-7.5,1.4c-1.8-0.5-3.2-2-4.5-3.3
						c-5.6-5.2-13.3-8-20.9-7.5c-2.2,0.1-4.3,1-5.7,2.6c-3.8,4.1-0.9,9.5,2.5,13c6,6.1,14.2,10.1,22.7,11c7.1,0.7,16.8-0.2,24-3.3
						c4.4-1.9,6.7-7.1,4.4-11.4C264.8,405.4,263.8,404.4,262.5,403.7z"/>
					<g class="st13">
						<path d="M262.5,407c-3.9-2.1-8.2-0.8-11.9,0.4c-2.5,0.8-5,2.1-7.5,1.4c-1.8-0.5-3.2-2-4.5-3.3c-5.6-5.2-13.3-8-20.9-7.5
							c-2.2,0.1-4.3,1-5.7,2.6c-0.8,0.9-1.3,1.9-1.6,2.9c0.6,2.5,2.2,4.9,4.1,6.8c6,6.1,14.2,10.1,22.7,11c7.1,0.7,16.8-0.2,24-3.3
							c2.7-1.1,4.5-3.5,5.1-6.1c-0.2-0.7-0.4-1.3-0.7-2C264.8,408.7,263.8,407.7,262.5,407z"/>
					</g>
				</g>
				<g>
					<path class="st6" d="M266.2,411.9c-0.1,0-0.1-0.9-1-2.3c-0.5-0.7-1.1-1.4-2.1-2c-0.9-0.6-2.2-1.2-3.6-1.4
						c-2.9-0.3-6.2,0.9-9.9,1.9c-1.8,0.5-3.8,1.2-6,1c-1.1-0.1-2.1-0.5-3.1-1.1c-1-0.6-1.8-1.3-2.7-2c-3.2-3.1-7-5.1-10.6-6.3
						c-1.8-0.6-3.6-1-5.3-1.2c-1.7-0.2-3.3-0.2-4.7,0c-1.4,0.2-2.6,0.7-3.6,1.3c-1,0.6-1.7,1.3-2.2,1.9c-1,1.2-1.4,2.1-1.4,2.1
						c0,0,0.3-0.9,1.3-2.2c0.5-0.6,1.2-1.4,2.2-2c1-0.6,2.3-1.1,3.7-1.4c1.5-0.3,3.1-0.2,4.8,0c1.7,0.2,3.5,0.6,5.4,1.2
						c1.8,0.6,3.7,1.4,5.6,2.5c0.9,0.5,1.8,1.1,2.7,1.8c0.9,0.7,1.7,1.4,2.5,2.1c0.8,0.7,1.7,1.4,2.6,2c0.9,0.5,1.9,0.9,2.9,1
						c2,0.3,4-0.4,5.8-0.9c3.7-1,7.1-2.2,10.1-1.8c3,0.5,4.9,2.3,5.8,3.6c0.4,0.7,0.6,1.3,0.7,1.8
						C266.2,411.7,266.2,411.9,266.2,411.9z"/>
				</g>
				<g>
					<path class="st6" d="M266.2,411.9c-0.1,0-0.1-0.9-1-2.3c-0.5-0.7-1.1-1.4-2.1-2c-0.9-0.6-2.2-1.2-3.6-1.4
						c-2.9-0.3-6.2,0.9-9.9,1.9c-1.8,0.5-3.8,1.2-6,1c-1.1-0.1-2.1-0.5-3.1-1.1c-1-0.6-1.8-1.3-2.7-2c-3.2-3.1-7-5.1-10.6-6.3
						c-1.8-0.6-3.6-1-5.3-1.2c-1.7-0.2-3.3-0.2-4.7,0c-1.4,0.2-2.6,0.7-3.6,1.3c-1,0.6-1.7,1.3-2.2,1.9c-1,1.2-1.4,2.1-1.4,2.1
						c0,0,0.3-0.9,1.3-2.2c0.5-0.6,1.2-1.4,2.2-2c1-0.6,2.3-1.1,3.7-1.4c1.5-0.3,3.1-0.2,4.8,0c1.7,0.2,3.5,0.6,5.4,1.2
						c1.8,0.6,3.7,1.4,5.6,2.5c0.9,0.5,1.8,1.1,2.7,1.8c0.9,0.7,1.7,1.4,2.5,2.1c0.8,0.7,1.7,1.4,2.6,2c0.9,0.5,1.9,0.9,2.9,1
						c2,0.3,4-0.4,5.8-0.9c3.7-1,7.1-2.2,10.1-1.8c3,0.5,4.9,2.3,5.8,3.6c0.4,0.7,0.6,1.3,0.7,1.8
						C266.2,411.7,266.2,411.9,266.2,411.9z"/>
				</g>
				<g>
					<path class="st6" d="M218.1,411c0-0.1,0.7-0.6,2-1.4c1.3-0.8,3.1-1.8,5.1-2.7c2.1-1,4-1.7,5.4-2.2c1.4-0.5,2.3-0.7,2.3-0.7
						c0,0.1-0.8,0.4-2.2,1c-1.4,0.6-3.3,1.4-5.3,2.3c-2,1-3.9,1.9-5.2,2.6C219,410.6,218.1,411,218.1,411z"/>
				</g>
				<g>
					<path class="st6" d="M219.4,414.8c-0.1-0.1,3.3-1.9,7.6-3.9c4.2-2.1,7.7-3.6,7.8-3.5c0.1,0.1-3.3,1.9-7.6,3.9
						C223,413.4,219.5,415,219.4,414.8z"/>
				</g>
				<g>
					<path class="st6" d="M235.5,416.5c-0.1,0.1-4.2-2.3-9.2-5.5c-5-3.2-9-5.8-8.9-5.9c0.1-0.1,4.2,2.3,9.2,5.5
						C231.6,413.7,235.6,416.4,235.5,416.5z"/>
				</g>
				<g>
					<path class="st6" d="M237.8,412.5c0,0.1-0.8-0.5-2-1.4c-1.2-0.9-2.9-2.1-4.8-3.4c-1.9-1.3-3.6-2.4-4.8-3.3
						c-1.2-0.8-2-1.4-2-1.4c0-0.1,0.9,0.4,2.2,1.1c1.3,0.8,3.1,1.9,4.9,3.2c1.9,1.3,3.5,2.6,4.7,3.5
						C237.2,411.8,237.9,412.5,237.8,412.5z"/>
				</g>
			</g>
		</g>
	</g>
	<text transform="matrix(1 0 0 1 324.4811 413.9382)" class="st18 st19 st20">Designed by slidesgo / Freepik</text>
</g>
</svg>
