<?xml version="1.0" encoding="utf-8"?>
<!-- Generator: Adobe Illustrator 25.1.0, SVG Export Plug-In . SVG Version: 6.00 Build 0)  -->
<svg version="1.1" id="Layer_1" xmlns="http://www.w3.org/2000/svg" xmlns:xlink="http://www.w3.org/1999/xlink" x="0px" y="0px"
	 viewBox="0 0 1049.3 861.7" style="enable-background:new 0 0 1049.3 861.7;" xml:space="preserve">
<style type="text/css">
	.st0{fill:#45D7DE;}
	.st1{fill:#70E8E8;}
	.st2{fill:#2C3149;}
	.st3{opacity:0.42;fill:#91BECE;}
	.st4{fill:#B7C3B6;}
	.st5{fill:#FFFFFF;}
	.st6{fill:#EC685A;}
	.st7{fill:#00132C;}
	.st8{fill:#5A8A92;}
	.st9{fill:#91BECE;}
	.st10{fill:#E3F3FD;}
	.st11{fill:#EFB2A0;}
	.st12{fill:#FDE5CF;}
	.st13{fill:#E2CD71;}
	.st14{clip-path:url(#SVGID_2_);}
	.st15{fill:#F7AD83;}
	.st16{fill:#1A1A1A;}
	.st17{fill:#FCF4ED;}
	.st18{fill:#406468;}
	.st19{opacity:0.7;}
	.st20{fill:#CEBB6A;}
	.st21{fill:#EFCEC5;}
	.st22{fill:#FDEFE7;}
	.st23{fill:#9A3836;}
	.st24{fill:#030205;}
	.st25{fill:#E2BEB5;}
	.st26{fill:#191E30;}
	.st27{opacity:0.41;fill:#FFFFFF;}
	.st28{fill:#CFB6A8;}
	.st29{fill:#F77514;}
	.st30{fill:#AAAAAA;}
	.st31{font-family:'MyriadPro-Regular';}
	.st32{font-size:17.3907px;}
</style>
<path class="st0" d="M999.2,604.6c0,10.9-0.4,21.7-1.1,32.4c-3.7,55.4-16.9,108.3-37.8,156.9c-3.3,7.7-6.8,15.2-10.5,22.7H91.5
	c-9.9-20-18.4-40.8-25.5-62.2c-4.2-12.6-7.8-25.4-10.9-38.5c-8.5-35.7-13-73-13-111.4C42.1,340.3,256.4,126,520.7,126
	c22.2,0,44,1.5,65.3,4.4c5,0.7,10,1.5,15,2.3c5.5,0.9,10.9,1.9,16.3,3.1C706.4,154,786.5,197.1,850,257.4
	c35.2,33.5,65.4,72.2,89.2,115c7.3,13.1,13.9,26.5,20,40.2c4.9,11,9.3,22.3,13.3,33.7c17.2,49.1,26.6,101.9,26.8,156.9
	C999.2,603.7,999.2,604.1,999.2,604.6z"/>
<path class="st1" d="M999.2,604.6c0,10.9-0.4,21.7-1.1,32.4c-3.7,55.4-16.9,108.3-37.8,156.9c-3.3,7.7-6.8,15.2-10.5,22.7H91.5
	c-9.9-20-18.4-40.8-25.5-62.2L338.5,586l256,24l344.7-237.7c7.3,13.1,13.9,26.5,20,40.2c4.9,11,9.3,22.3,13.3,33.7
	c17.2,49.1,26.6,101.9,26.8,156.9C999.2,603.7,999.2,604.1,999.2,604.6z"/>
<circle class="st2" cx="311.9" cy="338.3" r="8.2"/>
<g>
	<path class="st3" d="M803.6,653.9H270.3c-24.5,0-44.4-19.9-44.4-44.4V337.1c0-24.5,19.9-44.4,44.4-44.4h533.4
		c24.5,0,44.4,19.9,44.4,44.4v272.4C848,634,828.1,653.9,803.6,653.9z"/>
	<path class="st4" d="M786.6,637.9H253.3c-24.5,0-44.4-19.9-44.4-44.4V321.1c0-24.5,19.9-44.4,44.4-44.4h533.4
		c24.5,0,44.4,19.9,44.4,44.4v272.4C831,618,811.1,637.9,786.6,637.9z"/>
	<path class="st5" d="M254.7,346.2V571h533.8V346.2H254.7z M786.5,396.1h-69.4v-47.9h69.4V396.1z M544.4,398.1h97.2v53.1h-97.2
		V398.1z M542.4,451.2H444v-53.1h98.3V451.2z M643.6,398.1h71.6v53.1h-71.6V398.1z M643.6,396.1v-47.9h71.6v47.9H643.6z
		 M641.6,396.1h-97.2v-47.9h97.2V396.1z M542.4,396.1H444v-47.9h98.3V396.1z M442,396.1h-91.7v-47.9H442V396.1z M442,398.1v53.1
		h-91.7v-53.1H442z M348.4,451.2h-91.7v-53.1h91.7V451.2z M348.4,453.2v63.3h-91.7v-63.3H348.4z M350.4,453.2H442v63.3h-91.7V453.2z
		 M444,453.2h98.3v63.3H444V453.2z M544.4,453.2h97.2v63.3h-97.2V453.2z M643.6,453.2h71.6v63.3h-71.6V453.2z M717.2,453.2h69.4
		v63.3h-69.4V453.2z M717.2,451.2v-53.1h69.4v53.1H717.2z M348.4,348.2v47.9h-91.7v-47.9H348.4z M256.7,569v-50.5h91.7v49h2v-49H442
		v49h2v-49h98.3v49h2v-49h97.2v49h2v-49h71.6v49h2v-49h69.4V569H256.7z"/>
	<g>
		<path class="st6" d="M253.2,567.9c-0.3,0-0.7-0.1-1-0.2c-1.6-0.6-2.3-2.3-1.8-3.9c0.1-0.3,12.8-34.4,36.2-67.7
			c13.8-19.7,28.6-35.3,43.9-46.4c19.4-14.1,39.8-21,60.5-20.6c2.5,0,39.9,0.1,78.7,48.8c16.8,21.1,42.4,33,70.1,32.6
			c37.1-0.5,73.2-21.4,101.6-59C697,378.1,729.7,354,787,344.2c1.6-0.3,3.2,0.8,3.5,2.5c0.3,1.6-0.8,3.2-2.5,3.5
			c-56.2,9.6-86.7,32.2-141.7,104.9c-15.2,20.1-32.5,35.6-51.6,46.2c-17.5,9.7-36.5,15-54.7,15.2c-29.6,0.4-56.9-12.3-74.9-34.9
			c-37.4-46.8-73.6-46.5-74-46.5l-0.1,0l-0.1,0c-44.3-0.9-78.5,34.5-99.4,64.4c-23,32.7-35.4,66.1-35.5,66.5
			C255.6,567.1,254.5,567.9,253.2,567.9z"/>
	</g>
	<g>
		<path class="st7" d="M255.7,573c-0.5,0-1-0.1-1.4-0.4c-1.5-0.8-2-2.6-1.2-4.1c0.5-0.9,12.3-22.8,35.2-44.8
			c20.9-20.1,55.3-44,101-44c0.6,0,1.3,0,1.9,0c2.3,0,39.5,0,78.4,35.8c18.9,17.4,47.8,26,79.3,23.6c34.2-2.6,67.2-17.8,93.1-43
			c57.5-55.9,90.1-76.3,145.1-91c1.6-0.4,3.2,0.5,3.7,2.1c0.4,1.6-0.5,3.2-2.1,3.7c-54.5,14.5-85.1,33.8-142.5,89.5
			c-26.9,26.1-61.3,42-96.8,44.7c-33.1,2.5-63.6-6.7-83.8-25.2c-37.4-34.4-73.9-34.2-74.3-34.2l0,0l-0.1,0
			c-44.5-0.7-78.1,22.6-98.5,42.1c-22.3,21.4-34,43.2-34.2,43.4C257.8,572.5,256.8,573,255.7,573z"/>
	</g>
</g>
<path class="st6" d="M395.5,674.8c0-0.1,0.1-0.2,0.1-0.3C395.6,674.6,395.5,674.7,395.5,674.8z"/>
<path class="st6" d="M395.6,674.5c0.2-0.6,0.5-1.2,0.8-1.9C396,673.5,395.8,674.1,395.6,674.5z"/>
<g>
	<g>
		<rect x="701.7" y="753.1" class="st2" width="35.9" height="47.4"/>
		<path class="st2" d="M738.1,800.9h-36.9v-48.4h36.9V800.9z M702.2,799.9h34.9v-46.4h-34.9V799.9z"/>
	</g>
	<g>
		<rect x="799.7" y="744.1" class="st2" width="35.9" height="56.3"/>
		<path class="st2" d="M836.1,800.9h-36.9v-57.4h36.9V800.9z M800.2,799.9h34.9v-55.3h-34.9V799.9z"/>
	</g>
	<g>
		<rect x="750.7" y="728.6" class="st2" width="35.9" height="71.9"/>
		<path class="st2" d="M787.1,800.9h-36.9v-72.9h36.9V800.9z M751.2,799.9h34.9v-70.9h-34.9V799.9z"/>
	</g>
	<g>
		<rect x="849.5" y="706.5" class="st2" width="35.9" height="93.9"/>
		<path class="st2" d="M885.9,800.9H849V706h36.9V800.9z M850,799.9h34.9V707H850V799.9z"/>
	</g>
	<g>
		<g>
			<line class="st2" x1="820.7" y1="700.8" x2="860.4" y2="673.3"/>
			
				<rect x="816.4" y="685.5" transform="matrix(0.822 -0.5695 0.5695 0.822 -241.6493 600.9456)" class="st2" width="48.3" height="3"/>
		</g>
		<g>
			<line class="st2" x1="773.9" y1="694.1" x2="807.5" y2="703"/>
			
				<rect x="789.2" y="681.2" transform="matrix(0.2549 -0.967 0.967 0.2549 -86.3059 1285.0551)" class="st2" width="3" height="34.7"/>
		</g>
		<g>
			<line class="st2" x1="724.5" y1="718.8" x2="760.5" y2="696.5"/>
			
				<rect x="721.4" y="706.1" transform="matrix(0.8509 -0.5254 0.5254 0.8509 -261.0446 495.6198)" class="st2" width="42.3" height="3"/>
		</g>
		<g>
			<circle class="st2" cx="718" cy="722.4" r="6.9"/>
		</g>
		<g>
			<circle class="st2" cx="767.4" cy="693.4" r="6.9"/>
		</g>
		<g>
			<circle class="st2" cx="814.8" cy="704.9" r="6.9"/>
		</g>
		<g>
			<circle class="st2" cx="866.6" cy="668.9" r="6.9"/>
		</g>
	</g>
</g>
<g>
	<path class="st8" d="M192.3,787.7v21c-10.3-1.4-18.7-4.4-24.4-7v-14H192.3z"/>
	<path class="st8" d="M259.5,787.7v15.2c-7,3.3-15.4,5.2-24.4,6.1v-21.2H259.5z"/>
	<path class="st9" d="M302.3,740.3v11.5c0,10-7.9,18.1-17.8,18.5c-9.8,20.6-34.5,35.5-63.8,37c-38.4-1.8-68.8-26.6-68.8-57
		c0-4.3,0.7-8.5,1.8-12.6c-9.4-2.6-14.1-8.3-16.5-13.7c4,1.5,8.4,2.2,11.9,2.5c0.3-0.5,0.6-1,0.9-1.4c3,0.8,6,1.2,8.5,1.4
		c11-18.6,34.4-31.9,62-33.2c5.4,0.3,10.7,1,15.8,2.2c0.3-0.5,0.8-1,1.2-1.5c5.6-5.6,20.5-10.7,20.5-10.7v20.3
		c15.4,8.5,26.4,21.5,29.8,36.5H302.3z"/>
	<path class="st8" d="M258.1,683.4c0,0-13.2,6.2-15.8,13.6c0,0-7.7-3.5-10.9-3.8C228.1,692.9,247.4,678.4,258.1,683.4z"/>
	<path class="st8" d="M220.7,807.4c-1.6,0.1-3.2,0.1-4.9,0.1c-40.5,0-73.3-25.6-73.3-57.1c0-4.3,0.6-8.5,1.8-12.6
		c-20.7-5.8-18.7-26.2-18.7-26.2c1.1,6.6,6,10.4,11.6,12.5c2.3,5.4,7.1,11.1,16.5,13.7c-1.2,4-1.8,8.2-1.8,12.6
		C151.9,780.7,182.3,805.6,220.7,807.4z"/>
	<path class="st8" d="M220.6,693.4c-27.6,1.3-51.1,14.6-62,33.2c-2.6-0.2-5.6-0.6-8.5-1.4c12-18.9,36.9-31.9,65.8-31.9
		C217.4,693.3,219,693.3,220.6,693.4z"/>
	<circle class="st2" cx="254.1" cy="735.7" r="8.2"/>
	<g>
		<g>
			<path class="st10" d="M204.1,784.1c-0.2,0-0.5-0.1-0.7-0.2c-0.6-0.4-0.8-1.2-0.5-1.8l25.5-43.8c0.4-0.6,1.2-0.8,1.8-0.5
				c0.6,0.4,0.8,1.2,0.5,1.8l-25.5,43.8C205,783.9,204.6,784.1,204.1,784.1z"/>
		</g>
		<g>
			<path class="st10" d="M203.8,751.3c-0.8,0-1.6-0.1-2.4-0.2c-3.1-0.6-5.8-2.4-7.6-5.1c-1.8-2.6-2.4-5.8-1.8-8.9s2.4-5.8,5.1-7.6
				c2.6-1.8,5.8-2.4,8.9-1.8c6.4,1.3,10.6,7.6,9.3,14v0c-0.6,3.1-2.4,5.8-5.1,7.6C208.4,750.6,206.1,751.3,203.8,751.3z
				 M203.8,730.2c-1.8,0-3.6,0.5-5.1,1.6c-2.1,1.4-3.5,3.5-3.9,5.9c-0.5,2.4,0,4.9,1.4,6.9s3.5,3.5,5.9,3.9c2.4,0.5,4.9,0,6.9-1.4
				c2.1-1.4,3.5-3.5,3.9-5.9c1-5-2.3-9.9-7.3-10.9C205,730.2,204.4,730.2,203.8,730.2z M214.1,741.5L214.1,741.5L214.1,741.5z"/>
		</g>
		<g>
			<path class="st10" d="M237,784.5c-0.8,0-1.6-0.1-2.3-0.2c-6.4-1.3-10.6-7.6-9.3-14c1.3-6.4,7.6-10.6,14-9.3
				c3.1,0.6,5.8,2.4,7.6,5.1c1.8,2.6,2.4,5.8,1.8,8.9C247.5,780.6,242.5,784.5,237,784.5z M237,763.4c-4.3,0-8.2,3-9.1,7.4
				c-1,5,2.3,9.9,7.3,10.9c5,1,9.9-2.3,10.9-7.3c0.5-2.4,0-4.9-1.4-6.9c-1.4-2.1-3.5-3.5-5.9-3.9C238.2,763.4,237.5,763.4,237,763.4
				z"/>
		</g>
	</g>
	<g>
		<path class="st8" d="M242.1,715.3h-51.2c-0.7,0-1.3-0.6-1.3-1.3c0-0.7,0.6-1.3,1.3-1.3h51.2c0.7,0,1.3,0.6,1.3,1.3
			C243.5,714.7,242.9,715.3,242.1,715.3z"/>
	</g>
	<circle class="st11" cx="215.2" cy="676.6" r="30.6"/>
	<path class="st9" d="M192.3,808.7v6.5h-24.4v-13.5C173.6,804.3,182,807.3,192.3,808.7z"/>
	<path class="st9" d="M259.5,802.9v12.3h-24.4V809C244.2,808.1,252.5,806.2,259.5,802.9z"/>
	<circle class="st12" cx="215.2" cy="676.6" r="17"/>
</g>
<g>
	<path class="st13" d="M695.9,608.1c-0.1,1.5-0.2,2.8-0.2,4.1c-0.3,4-4.1,6.9-8,6l-1.3,9.2l-0.8,6.1c-2.9,20.9-20.8,36.2-41.5,36.2
		c-1.6,0-3.2-0.1-4.8-0.3c-1.7-0.2-3.3-0.5-4.9-0.9l-9.9,71.1l-1,7.2L611.1,836H435.2L420,748l-1.6-9.4l-12.5-71.9
		c-2.3,0.7-4.8,1.2-7.3,1.5c-18.7,2.1-43.4-17.3-53.2-36.8c-3.2,0.7-6.5-1.6-6.7-5.2l-3-72.2l-0.1-1.3c-3.4-31.4,21.1-57.6,48-67.8
		l5.6-2.1c3.2-1.5,6.4-2.8,9.5-3.9l48.8-17.5c0,0,0,0,0,0l0,0v0c12.4,17,39.8,28.8,71.5,28.8c10,0,19.5-1.2,28.3-3.3
		c1.6-0.4,3.2-0.8,4.7-1.2c16.6-4.8,30-13.1,38-23.5l46.7,16.8c3.9,1.4,7.8,3.1,11.8,5l5.6,2.1c25.3,9.6,44,35.7,42.9,62.4
		C698,567.2,696.8,593.2,695.9,608.1z"/>
	<g>
		<defs>
			<path id="SVGID_1_" d="M697.4,548.5c1.1-26.8-17.6-52.9-42.9-62.4l-5.6-2.1c-4-1.9-7.9-3.6-11.8-4.9l-46.7-16.8
				c-12.7,16.6-39.7,28-71,28c-31.7,0-59.1-11.8-71.5-28.8l0,0l0,0c0,0,0,0,0,0L399.1,479c-3.1,1.1-6.3,2.4-9.5,3.9l-5.6,2.1
				c-26.9,10.2-51.4,36.4-48,67.8l0.1,1.3l3,72.2c0.2,3.6,3.5,5.8,6.7,5.2c9.8,19.5,34.5,38.9,53.2,36.8c2.5-0.3,4.9-0.8,7.3-1.5
				L435.6,836h175.9l23.3-167.6c1.6,0.4,3.2,0.7,4.9,0.9h0c22.6,2.6,43.1-13.4,46.3-35.9l2.1-15.2c3.9,0.9,7.8-1.9,8-6
				C696.9,598.4,698.5,569,697.4,548.5z"/>
		</defs>
		<clipPath id="SVGID_2_">
			<use xlink:href="#SVGID_1_"  style="overflow:visible;"/>
		</clipPath>
		<g class="st14">
			<g>
				<rect x="331.8" y="445" class="st5" width="387.2" height="2.2"/>
			</g>
			<g>
				<rect x="331.8" y="459" class="st5" width="387.2" height="2.2"/>
			</g>
			<g>
				<rect x="331.8" y="473.1" class="st5" width="387.2" height="2.2"/>
			</g>
			<g>
				<rect x="331.8" y="487.1" class="st5" width="387.2" height="2.2"/>
			</g>
			<g>
				<rect x="331.8" y="501.1" class="st5" width="387.2" height="2.2"/>
			</g>
			<g>
				<rect x="331.8" y="515.2" class="st5" width="387.2" height="2.2"/>
			</g>
			<g>
				<rect x="331.8" y="529.2" class="st5" width="387.2" height="2.2"/>
			</g>
			<g>
				<rect x="331.8" y="543.2" class="st5" width="387.2" height="2.2"/>
			</g>
			<g>
				<rect x="331.8" y="557.3" class="st5" width="387.2" height="2.2"/>
			</g>
			<g>
				<rect x="331.8" y="571.3" class="st5" width="387.2" height="2.2"/>
			</g>
			<g>
				<rect x="331.8" y="585.3" class="st5" width="387.2" height="2.2"/>
			</g>
			<g>
				<rect x="331.8" y="599.3" class="st5" width="387.2" height="2.2"/>
			</g>
			<g>
				<rect x="331.8" y="613.4" class="st5" width="387.2" height="2.2"/>
			</g>
			<g>
				<rect x="331.8" y="627.4" class="st5" width="387.2" height="2.2"/>
			</g>
			<g>
				<rect x="331.8" y="641.4" class="st5" width="387.2" height="2.2"/>
			</g>
			<g>
				<rect x="331.8" y="655.5" class="st5" width="387.2" height="2.2"/>
			</g>
			<g>
				<rect x="331.8" y="669.5" class="st5" width="387.2" height="2.2"/>
			</g>
			<g>
				<rect x="331.8" y="683.5" class="st5" width="387.2" height="2.2"/>
			</g>
			<g>
				<rect x="331.8" y="697.5" class="st5" width="387.2" height="2.2"/>
			</g>
			<g>
				<rect x="331.8" y="711.6" class="st5" width="387.2" height="2.2"/>
			</g>
			<g>
				<rect x="331.8" y="725.6" class="st5" width="387.2" height="2.2"/>
			</g>
			<g>
				<rect x="331.8" y="739.6" class="st5" width="387.2" height="2.2"/>
			</g>
			<g>
				<rect x="331.8" y="753.7" class="st5" width="387.2" height="2.2"/>
			</g>
			<g>
				<rect x="331.8" y="767.7" class="st5" width="387.2" height="2.2"/>
			</g>
			<g>
				<rect x="331.8" y="781.7" class="st5" width="387.2" height="2.2"/>
			</g>
			<g>
				<rect x="331.8" y="795.8" class="st5" width="387.2" height="2.2"/>
			</g>
			<g>
				<rect x="331.8" y="809.8" class="st5" width="387.2" height="2.2"/>
			</g>
			<g>
				<rect x="331.8" y="823.8" class="st5" width="387.2" height="2.2"/>
			</g>
		</g>
	</g>
	<path class="st15" d="M590.1,462.3c-12.7,16.6-39.7,28-71,28c-31.7,0-59.1-11.8-71.5-28.8l33.7-12.1v-60.8h74.1v61.2L590.1,462.3z"
		/>
	<path class="st6" d="M555.9,396.2V415c-8.1,8.9-20.3,18.8-34.3,18.8c-17.7,0-32.5-12.5-39.8-20v-16.5l25.8-1.2H555.9z"/>
	<g>
		<path class="st15" d="M575.1,318.9c0.2,1.4,0.4,2.9,0.6,4.3l0,0.1c1,9.2,1.2,18.3,0.4,27.1c0,0,0,0.1,0,0.1
			c-1.8,20.9-8.6,39.7-20.3,52.2c-7.6,8.1-17.2,13.5-28.9,15.2c-31,4.5-54.3-18.6-66.4-50.9c-3.1-8.2-5.4-16.9-7-25.9
			c-0.3-1.5-0.5-3.1-0.7-4.6c-6.7-46.7-9.1-80.8,49.6-89.2c10-1.4,19.1,5.8,29.1,4.4c22.8-3.3,37.2,32,42.8,62.4
			c0,0.1,0,0.3,0.1,0.4C574.6,316,574.9,317.4,575.1,318.9z"/>
		<g>
			<g>
				<g>
					<path class="st12" d="M560.3,316.5l-36.5-6.2c-1.7-0.3-2.2-2.4-0.8-3.4c6.3-4.4,21-10.8,38.9,6.2
						C563.3,314.5,562.2,316.9,560.3,316.5z"/>
				</g>
			</g>
			<g>
				<g>
					<circle class="st16" cx="491.1" cy="341" r="5.1"/>
				</g>
				<g>
					<circle class="st16" cx="546.4" cy="333" r="5.1"/>
				</g>
			</g>
			<g>
				<path class="st16" d="M515,380.4c-3.4,0-5.7-0.4-5.7-0.4c-0.5-0.1-0.9-0.6-0.8-1.2c0.1-0.5,0.6-0.9,1.2-0.8
					c0.2,0,20.6,3.5,28.5-11c0.3-0.5,0.9-0.7,1.4-0.4c0.5,0.3,0.7,0.9,0.4,1.4C534,378.7,522.1,380.4,515,380.4z"/>
			</g>
			<g>
				<path class="st16" d="M520.9,386.7c-0.2,0-0.4-0.2-0.5-0.4c-0.1-0.3,0.1-0.5,0.4-0.6l12.3-2.8c0.3-0.1,0.5,0.1,0.6,0.4
					c0.1,0.3-0.1,0.5-0.4,0.6l-12.3,2.8C521,386.7,520.9,386.7,520.9,386.7z"/>
			</g>
			<g>
				<path class="st16" d="M520.9,361.2c-1.4,0-2.6-0.4-3.6-1.1c-1.2-0.8-1.9-2.1-2.2-3.7l-3.5-24.7c-0.1-0.5,0.3-1.1,0.8-1.1
					c0.6-0.1,1.1,0.3,1.1,0.8l3.5,24.7c0.1,1,0.6,1.8,1.3,2.3c1,0.7,2.4,0.9,4,0.5c1.8-0.4,2.7-1.3,2.9-1.5c0.3-0.5,0.9-0.6,1.4-0.3
					c0.5,0.3,0.6,0.9,0.3,1.4c-0.5,0.9-2,2-4.2,2.4C522.1,361.2,521.5,361.2,520.9,361.2z"/>
			</g>
			<g>
				<g>
					<path class="st12" d="M464.7,330.6l36-8.9c1.6-0.4,2-2.6,0.5-3.4c-6.6-3.9-21.7-9.2-38.4,9.1
						C461.5,328.8,462.9,331,464.7,330.6z"/>
				</g>
			</g>
		</g>
		<g>
			<g>
				<path class="st6" d="M460.6,367c-0.8,0.8-1.8,1.4-2.9,2.1c-5.7,3.1-16.5-1.1-19.9-9.6c-3.5-8.5-1.4-17.4,4.6-19.8
					c3.2-1.3,7.5-0.7,11.2,1.5C455.2,350.1,457.6,358.8,460.6,367z"/>
				<g>
					<path class="st16" d="M447.4,363.2c-3.8-5.4,2.4-11.5,3.9-12.9c-1.1-1.6-2.4-2.5-3.9-2.8c-3.2-0.6-6.5,2-6.5,2l-0.6-0.8
						c0.1-0.1,3.7-2.9,7.3-2.2c1.9,0.3,3.6,1.6,4.8,3.6l0.2,0.4l-0.3,0.3c-0.1,0.1-7.8,6.5-4.1,11.8L447.4,363.2z"/>
				</g>
			</g>
			<g>
				<path class="st6" d="M596,336.7c-0.9,9.1-10.1,16.2-16.4,14.8c-1.3-0.3-2.4-0.7-3.3-1.2c0-0.1,0-0.1,0-0.2
					c0.3-3.8,0.5-7.7,0.4-11.7c0-1,0-2,0-3c-0.1-3.7-0.3-7.5-0.7-11.2c0-0.3-0.1-0.7-0.1-1c0.5-0.4,0.9-0.9,1.4-1.3c0,0,0,0,0,0
					c2.2-1.8,4.7-2.9,7.1-3.1c0.6-0.1,1.1-0.1,1.7,0C592.4,319.6,596.9,327.6,596,336.7z"/>
				<g>
					<path class="st16" d="M587.4,343.4c-0.1,0-0.1,0-0.2,0c-0.3-0.1-0.4-0.4-0.3-0.6c2.1-6.2-7.1-10.2-7.2-10.2l-0.4-0.2l0.1-0.4
						c0.6-2.3,1.8-4,3.6-4.8c3.4-1.7,7.5,0,7.7,0.1c0.3,0.1,0.4,0.4,0.3,0.7c-0.1,0.3-0.4,0.4-0.7,0.3c0,0-3.9-1.6-6.8-0.1
						c-1.4,0.7-2.4,2-3,3.8c1.9,0.9,9.5,5.1,7.4,11.3C587.8,343.3,587.6,343.4,587.4,343.4z"/>
				</g>
			</g>
		</g>
		<g>
			<circle class="st6" cx="481.6" cy="363.2" r="9.8"/>
			<circle class="st6" cx="559.3" cy="352" r="9.8"/>
		</g>
		<path class="st12" d="M575.9,326.5c0,0-12.4-17-13.1-32.9c-0.7-15.8-7.5-23.9-14.2-25.6c-3.2-0.8-8.3,1.5-13.9,4.9
			c-8.5,5.2-18.2,13.3-24.6,17.8c-11.6,8.3-38.8,12.7-52.8,1.7c-8.7-6.8-4,47-1.5,56c0,0-6.5-16.8-16.7-23.1
			c-10.2-6.3-17.2-16.6-9.5-30.9c7.7-14.3-5.1-24.5-5.4-37.7c-0.3-13.2,19.1-26.8,46-23.7c26.9,3.1,48-12.7,55.7-18.1
			c7.8-5.4,23.5-1.4,25.9,20.4c2.4,21.8,14.8,3.8,23.5,12.2c6.6,6.4-1,9.5,5.1,22.2c6.1,12.7,9.6,0.6,12.2,16.1
			C594.6,297.6,573.4,297.4,575.9,326.5z"/>
		<g>
			<g>
				<path class="st16" d="M486.6,370.5c-4.8,0-9.5-1.6-13.5-4.5c-4.8-3.6-8-8.9-8.8-14.9c-1.8-12.3,6.8-23.8,19.1-25.6
					c12.3-1.8,23.8,6.8,25.6,19.1c1.8,12.3-6.8,23.8-19.1,25.6C488.8,370.4,487.7,370.5,486.6,370.5z M486.7,326.3
					c-1,0-2,0.1-3.1,0.2c-11.8,1.7-20,12.6-18.3,24.4c0.8,5.7,3.8,10.7,8.4,14.2c4.6,3.5,10.3,4.9,16,4.1c5.7-0.8,10.7-3.8,14.2-8.4
					c3.5-4.6,4.9-10.3,4.1-16C506.5,334.1,497.2,326.3,486.7,326.3z"/>
			</g>
			<g>
				<path class="st16" d="M550.1,361.4c-11,0-20.7-8.1-22.3-19.4c-1.8-12.3,6.8-23.8,19.1-25.6c6-0.9,11.9,0.7,16.7,4.3
					c4.8,3.6,8,8.9,8.8,14.9c0.9,6-0.7,11.9-4.3,16.7c-3.6,4.8-8.9,8-14.9,8.8C552.2,361.3,551.1,361.4,550.1,361.4z M550.1,317.2
					c-1,0-2.1,0.1-3.1,0.2c-11.8,1.7-20,12.6-18.3,24.4c1.7,11.8,12.6,20,24.4,18.3c5.7-0.8,10.7-3.8,14.2-8.4
					c3.5-4.6,4.9-10.3,4.1-16c-0.8-5.7-3.8-10.7-8.4-14.2C559.2,318.7,554.8,317.2,550.1,317.2z"/>
			</g>
			<g>
				<path class="st16" d="M508.5,345.3c-0.1,0-0.2,0-0.3-0.1c-0.2-0.2-0.2-0.5-0.1-0.7c0.1-0.1,8.6-10.2,20.4-2.9
					c0.2,0.1,0.3,0.5,0.2,0.7c-0.1,0.2-0.5,0.3-0.7,0.2c-11-6.8-19,2.6-19.1,2.7C508.8,345.2,508.7,345.3,508.5,345.3z"/>
			</g>
		</g>
		<path class="st17" d="M449.1,268.6c3.2,0.8,6.6,1.2,9.9,1.4c3.3,0.2,6.6,0.1,9.8-0.3c3.2-0.4,6.3-1.2,9.1-2.3
			c2.8-1.1,5.3-2.6,7.5-4.4c1.1-0.9,2.1-1.9,2.9-2.9c0.4-0.5,0.9-1,1.3-1.6l0.6-0.8l0.9-1.1c1.2-1.5,2.3-3.1,3.8-4.6
			c0.7-0.7,1.3-1.5,2.1-2.2l2.4-2.1c3.3-2.8,7.4-5.4,12.8-6.7c0.6-0.2,1.4-0.3,2.1-0.4c0.7-0.1,1.4-0.2,2.2-0.2c0.7,0,1.5,0,2.3,0
			c0.8,0,1.5,0.1,2.3,0.2c1.5,0.2,3.1,0.6,4.7,1.2c0.8,0.3,1.6,0.7,2.3,1c0.4,0.2,0.8,0.5,1.2,0.7c0.2,0.1,0.5,0.3,0.7,0.5l0.3,0.2
			c0.2,0.2,0.4,0.3,0.6,0.5c4.4,4,4.8,10.9,0.7,15.3s-10.9,4.8-15.3,0.7c0.1,0.1,0.3,0.2,0.4,0.3l0.1,0.1c0.1,0,0.1,0.1,0.2,0.1
			c0,0,0.1,0,0.1,0c0,0,0.1-0.1,0-0.1c0-0.1-0.1-0.3-0.3-0.4c-0.1,0-0.1-0.1-0.3-0.2c-0.1,0-0.2-0.1-0.3-0.2
			c-0.1-0.1-0.3-0.1-0.4-0.1c-0.2,0-0.3-0.1-0.5-0.1c-1.5-0.2-3.7,0.4-6.1,1.6l-1.8,1c-0.6,0.3-1.2,0.8-1.8,1.2
			c-1.2,0.8-2.4,1.8-3.6,2.8l-0.9,0.7l-1.2,1.1c-0.8,0.7-1.6,1.4-2.5,2c-1.7,1.3-3.5,2.3-5.3,3.3c-3.7,1.9-7.7,3.1-11.6,3.7
			c-3.9,0.6-7.8,0.6-11.5,0.3c-3.7-0.3-7.4-1.1-10.9-2.1c-3.5-1-6.8-2.2-10.2-3.9c-0.8-0.4-1.1-1.4-0.7-2.2
			C447.5,268.7,448.3,268.4,449.1,268.6L449.1,268.6z"/>
		<path class="st6" d="M534.7,272.9c-11.7,10.5-30.1,31.7-48.9,32.5c-22.4,1-28.5-13-28.5-13c14,10.9,41.1,6.6,52.8-1.7
			C516.5,286.2,526.2,278.2,534.7,272.9z"/>
	</g>
	<path class="st18" d="M598.6,671.4l-126.2-18.4l124.7,18.1C597.6,671.3,598.1,671.4,598.6,671.4z"/>
	<g class="st19">
		<path class="st20" d="M619.2,576.9l-1.7,33.3l68.8,17.2l1.3-9.2c4,0.9,7.8-1.9,8-6c0.1-1.2,0.2-2.6,0.2-4.1
			C627.2,603.3,619.2,576.9,619.2,576.9z"/>
		<path class="st13" d="M623.2,739.4c-1.2-0.1-2.6-0.2-4.1-0.4c-0.9-0.1-1.8-0.2-2.7-0.3c-6.1-0.7-13.7-1.9-23.3-3.7
			c-0.7-0.1-1.4-0.3-2.1-0.4c-0.8-0.2-1.6-0.3-2.5-0.5c-3.4-0.7-7-1.5-10.9-2.3c-0.4-0.1-0.8-0.2-1.2-0.3c-1.9-0.4-3.8-0.9-5.8-1.3
			c-0.5-0.1-1.1-0.2-1.6-0.4c-2.1-0.5-4.3-1-6.6-1.6c-0.6-0.1-1.1-0.3-1.7-0.4c-2.9-0.7-5.8-1.5-8.9-2.3c-0.6-0.2-1.2-0.3-1.8-0.5
			c-1.2-0.3-2.5-0.7-3.8-1c-1.2-0.3-2.4-0.7-3.7-1c-4.9-1.3-10-2.8-15.3-4.3c-1.2-0.3-2.3-0.7-3.5-1c-6.5-1.9-13.4-4-20.7-6.3
			c-0.8-0.3-1.6-0.5-2.4-0.8c-13.8-4.3-28.9-9.3-45.3-15c-0.9-0.3-1.9-0.7-2.8-1c-4.6,9.6-8.9,18.2-12.9,25.6
			c-4.6,8.6-12.5,14.8-21.5,18.5l1.6,9.4c7.6-2.2,28.5-11.1,36.3-43.2c0,0,129.1,40.4,167.3,41.9l1-7.2c-0.1,0-0.2,0-0.2,0
			C623.9,739.4,623.6,739.4,623.2,739.4z"/>
		<path class="st20" d="M413,643.4l16.8-33.2c-16.2-15.4-17.6-28.7-17.6-28.7s-7.8,23.7-36.2,35.4c6.4-1.6,13.7-2.6,22-2.6
			c1.5,0,3.1,0,4.7,0c0.6,0,1.2,0,1.8,0.1c1.3,0.1,2.7,0.1,4,0.3c0,0,0,0,0,0c0.5,0,1,0.1,1.5,0.1c0.6,0.1,1.3,0.1,1.9,0.2
			c0.6,0.1,1.3,0.1,1.9,0.2l-0.1,2.7L413,643.4z"/>
		<path class="st20" d="M597.1,671.2l7.2,1c1.2,0.2,2.4,0.1,3.5-0.2h0c3.2-0.9,5.6-3.8,5.9-7.3l0.9-12.8c-15,2.8-43.5,3.2-43.5,3.2
			c-41-2.7-71.4-9.3-94-17.5c-0.2,0.5-0.4,1-0.6,1.5c-0.4,1-0.7,1.9-1.1,2.9c-1.5,3.8-2.9,7.4-4.4,11l1.4,0.2L597.1,671.2z"/>
	</g>
	<g>
		<path class="st21" d="M562.5,498.6l0.1,0.1c0,0.2-0.1,0.4-0.3,0.6l-1.9,2.4l3.6,2.9l-0.5,0.6c-1.1,1.4-3.4,1.5-5.1,0.1l-0.8-0.6
			L562.5,498.6z"/>
		<g>
			<path class="st6" d="M468.3,429l85.7,67.5l-2.8,3.5l-86.6-68.2C466,431.2,467.3,430.3,468.3,429z"/>
			<path class="st22" d="M456.5,419.8l11.7,9.3c-1,1.2-2.2,2.1-3.7,2.8l-1.7-1.3l-7.6-9.3c0.2-0.2,0.4-0.5,0.7-0.7
				C456.2,420.2,456.4,420,456.5,419.8z"/>
			<path class="st2" d="M450.2,414.8l6.3,5c-0.2,0.2-0.3,0.4-0.5,0.6c-0.2,0.3-0.4,0.5-0.7,0.7L450.2,414.8z"/>
			<path class="st23" d="M470.1,425.2l86.4,68.1l-2.6,3.2L468.3,429l0.1-0.1C469.2,427.9,469.8,426.6,470.1,425.2z"/>
			<path class="st15" d="M468.2,423.7l1.9,1.5c-0.3,1.4-0.9,2.6-1.8,3.8l-0.1,0.1l-11.7-9.3c0.1-0.1,0.2-0.2,0.3-0.4
				c0.3-0.4,0.6-0.7,0.8-1.1L468.2,423.7z"/>
			<path class="st24" d="M457.7,418.3c-0.3,0.4-0.5,0.7-0.8,1.1c-0.1,0.1-0.2,0.3-0.3,0.4l-6.3-5l-0.4-0.5L457.7,418.3z"/>
		</g>
		<path class="st2" d="M562.5,498.6l0.1,0.1c0,0.2-0.1,0.4-0.3,0.6l-4,5c-0.2,0.2-0.4,0.4-0.6,0.5c-0.6,0.3-1.5,0.1-2.2-0.4
			l-4.1-3.2c-0.9-0.7-1.2-2-0.6-2.7l2.1-2.6l7.2,5.7L562.5,498.6z"/>
		<path class="st25" d="M562.6,498.7l0.6,0.5c1.7,1.4,2.2,3.6,1.1,5l-0.3,0.4l-3.6-2.9l1.9-2.4C562.5,499.1,562.6,498.9,562.6,498.7
			z"/>
		<path class="st26" d="M554.9,493.4l-1.9,2.4l7.2,5.7l0.2,0.2l1.9-2.4c0.1-0.2,0.2-0.4,0.3-0.6c0.2-0.7-0.2-1.6-0.9-2.1l-4.1-3.2
			C556.7,492.6,555.5,492.6,554.9,493.4z"/>
	</g>
	<g>
		<g>
			<path class="st15" d="M687.6,618.1c0,0-0.2,66.8-21.6,101.4c-6.6,10.7-15.3,18.3-26.6,19.9c-1.1,0.2-2.3,0.3-3.5,0.3
				c0,0-1.5,0.2-4.9,0.1c-0.5,0-1,0-1.6,0c-1.4-0.1-3.1-0.2-5.1-0.3c-0.3,0-0.7-0.1-1.1-0.1c-1.2-0.1-2.6-0.2-4.1-0.4
				c-0.9-0.1-1.8-0.2-2.7-0.3c-6.1-0.7-13.7-1.9-23.3-3.7c-0.7-0.1-1.4-0.3-2.1-0.4c-0.8-0.2-1.6-0.3-2.5-0.5
				c-3.4-0.7-7-1.5-10.9-2.3c-0.4-0.1-0.8-0.2-1.2-0.3c-1.9-0.4-3.8-0.9-5.8-1.3c-0.5-0.1-1.1-0.2-1.6-0.4c-2.1-0.5-4.3-1-6.6-1.6
				c-0.6-0.1-1.1-0.3-1.7-0.4c-2.9-0.7-5.8-1.5-8.9-2.3c-0.6-0.2-1.2-0.3-1.8-0.5c-1.2-0.3-2.5-0.7-3.8-1c-1.2-0.3-2.4-0.7-3.7-1
				c-4.9-1.3-10-2.8-15.3-4.3c-1.2-0.3-2.3-0.7-3.5-1c-6.5-1.9-13.4-4-20.7-6.3c-0.8-0.3-1.6-0.5-2.4-0.8
				c-13.8-4.3-28.9-9.3-45.3-15c-0.9-0.3-1.9-0.7-2.8-1c-0.1,0-0.3-0.1-0.4-0.1c-2.9-1-5.8-2-8.8-3.1c-2.1-0.7-4.2-1.5-6.3-2.2
				l5.1-14.5l2.5-7.1l4-11.3l2.2-6.2l5.8,0.8l5.5,0.8l1.5,0.2l7.3,1.1l1.4,0.2l124.7,18.1l7.2,1c1.2,0.2,2.4,0.1,3.5-0.2h0
				c3.2-0.9,5.6-3.8,5.9-7.3l0.9-12.8l0.2-2.7l2.7-39c0,0,15.3-0.9,31.7-0.4C665.9,610.3,683.6,612.3,687.6,618.1z"/>
			<path class="st6" d="M666,719.5c-6.6,10.7-15.3,18.3-26.6,19.9c-1.1,0.2-2.3,0.3-3.5,0.3c0,0-1.5,0.2-4.9,0.1c-0.5,0-1,0-1.6,0
				c-1.4-0.1-3.1-0.2-5.1-0.3c-0.3,0-0.7-0.1-1.1-0.1c-1.2-0.1-2.6-0.2-4.1-0.4c-0.9-0.1-1.8-0.2-2.7-0.3
				c-6.1-0.7-13.7-1.9-23.3-3.7c-0.7-0.1-1.4-0.3-2.1-0.4c-0.8-0.2-1.6-0.3-2.5-0.5c-3.4-0.7-7-1.5-10.9-2.3
				c-0.4-0.1-0.8-0.2-1.2-0.3c-1.9-0.4-3.8-0.9-5.8-1.3c-0.5-0.1-1.1-0.2-1.6-0.4c-2.1-0.5-4.3-1-6.6-1.6c-0.6-0.1-1.1-0.3-1.7-0.4
				c-2.9-0.7-5.8-1.5-8.9-2.3c-0.6-0.2-1.2-0.3-1.8-0.5c-1.2-0.3-2.5-0.7-3.8-1c-1.2-0.3-2.4-0.7-3.7-1c-4.9-1.3-10-2.8-15.3-4.3
				c-1.2-0.3-2.3-0.7-3.5-1c-6.5-1.9-13.4-4-20.7-6.3c-0.8-0.3-1.6-0.5-2.4-0.8c-13.8-4.3-28.9-9.3-45.3-15c-0.9-0.3-1.9-0.7-2.8-1
				c-0.1,0-0.3-0.1-0.4-0.1c-2.9-1-5.8-2-8.8-3.1c-2.1-0.7-4.2-1.5-6.3-2.2l5.1-14.5l2.5-7.1l11.9-9.8l0.6-0.5l4-3.3l2.5-2l7.3,1.1
				l1.4,0.2c-0.4,1-1.3,3.1-2.2,6c-0.1,0.2-0.1,0.4-0.2,0.7c-1.6,4.8-3.3,11.1-3.6,16.9c-0.3,6.2,1,11.7,6,13.5
				C482.6,694,575,724.4,630,726.6C646.4,727.2,659.4,725.4,666,719.5z"/>
			<path class="st6" d="M649.3,609.8c-10.9,3.6-15.9,20.3-19.5,41.6c-1.5,8.6-5.9,13.7-10.7,16.6c-1.1,0.7-2.1,1.2-3.2,1.7
				c-3,1.3-5.9,2-8.1,2.3c3.2-0.9,5.6-3.8,5.9-7.3l0.9-12.8l0.2-2.7l2.7-39C617.5,610.2,632.8,609.3,649.3,609.8L649.3,609.8z"/>
		</g>
		<g>
			<path class="st15" d="M551.9,476.8c-0.4,1.6-1.1,3.3-1.8,5c-9,20.1-38.7,47.8-38.7,47.8c-8.5,32.9-17.7,62.5-27.1,88.5
				c-1.2,3.4-2.4,6.6-3.6,9.9c-0.5,1.3-1,2.6-1.5,3.9c-0.7,1.9-1.4,3.8-2.1,5.6c-0.2,0.5-0.4,1-0.6,1.5c-0.4,1-0.7,1.9-1.1,2.9
				c-1.5,3.8-2.9,7.4-4.4,11c-0.8,2-1.6,4-2.4,5.9c-0.1,0.2-0.2,0.4-0.3,0.6c-2.3,5.5-4.6,10.8-6.8,15.9c-3,6.8-5.9,13.2-8.8,19.2
				c-4.6,9.6-8.9,18.2-12.9,25.6c-6.5,12.2-19.7,19.7-33.3,21.7c-7.8,1.1-15.8,0.5-22.8-2.1c-0.8-0.3-1.7-0.7-2.5-1.1
				c-7-3.2-12.8-8.7-15.9-16.5c-10.5-26.4-16.5-63.2-19.8-90.8c0.8-0.2,1.5-0.5,2.2-1.1c1.2-1,2.6-1.9,4.1-2.9
				c5.8-3.9,13.8-7.9,24.2-10.4c6.4-1.6,13.7-2.6,22-2.6c1.5,0,3.1,0,4.7,0c0.6,0,1.2,0,1.8,0.1c1.3,0.1,2.6,0.1,4,0.3h0
				c0.5,0,1,0.1,1.5,0.1c0.6,0.1,1.3,0.1,1.9,0.2c0.6,0.1,1.3,0.1,1.9,0.2l-0.1,2.7l-0.7,25.5l16.8-33.2l49.3-97.5l-0.5-32.1
				c-0.4-11.3,1.9-22.6,6.7-32.8l4-8.6l5.9-27.6c0.1,0,0.2,0,0.3,0.1c0.6,0.1,1.1,0.3,1.6,0.6c0,0,0,0,0.1,0
				c9.2,5.1,4.1,31.2,3.2,35.5c0,0.1,0,0.1,0,0.2c-0.1,0.3-0.1,0.4-0.1,0.4l48.2-46.7c0.1,0.2,0.2,0.5,0.2,0.8
				c0,0.2,0.1,0.3,0.1,0.5c0,0.2,0.1,0.5,0.1,0.7c0.2,1,0.2,2,0.1,3.1c0,0.3,0,0.6-0.1,0.9c0,0,0,0.1,0,0.1c0,0.2,0,0.4-0.1,0.5
				c-0.1,0.4-0.1,0.8-0.2,1.3c-0.2,0.9-0.4,1.8-0.7,2.7c-0.1,0.3-0.2,0.6-0.3,0.9c-0.2,0.5-0.3,0.9-0.5,1.4
				c-0.1,0.2-0.2,0.5-0.3,0.7c-0.5,1.3-1.1,2.6-1.8,3.8c-0.3,0.6-0.6,1.1-0.9,1.7c-0.3,0.5-0.5,0.9-0.8,1.4c-0.6,1-1.2,1.9-1.8,2.9
				c-0.3,0.4-0.5,0.8-0.8,1.2c-0.3,0.4-0.6,0.8-0.8,1.2c0,0,0,0,0,0c-0.4,0.5-0.7,1.1-1.1,1.6c-1.2,1.6-2.4,3.1-3.5,4.6
				c-0.6,0.7-1.2,1.4-1.7,2.1c-3.2,3.9-6.3,7.1-8.1,9c-0.1,0.1-0.2,0.2-0.3,0.3c-0.1,0.1-0.2,0.2-0.3,0.3c-0.1,0.1-0.2,0.2-0.2,0.2
				c-0.1,0.1-0.1,0.1-0.2,0.2c-0.1,0.1-0.2,0.2-0.2,0.2c-0.1,0.1-0.2,0.2-0.3,0.3c-0.1,0.1-0.1,0.1-0.2,0.2
				c-0.2,0.2-0.3,0.3-0.4,0.4l0,0l2.7-1.2c1.2-0.5,2.5-0.7,3.8-0.4c1.4,0.3,2.7,1,3.7,2.1l0.3,0.3c1.2,1.3,1.8,3,1.8,4.8
				c0,1.3-0.4,2.7-1.1,3.9c1.6-1.2,3.6-1.3,5.3-0.5c0.1,0.1,0.2,0.1,0.4,0.2c0.1,0,0.1,0.1,0.2,0.1c0,0,0.1,0.1,0.1,0.1
				c0.1,0.1,0.2,0.1,0.3,0.2c0.3,0.2,0.5,0.4,0.7,0.7l2.3,2.6c1.8,2,2.1,5.1,0.5,7.4l-1.1,1.5l-0.3,0.4c0.9-0.5,1.9-0.8,2.9-0.8
				c0.2,0,0.4,0,0.6,0c1.7,0.2,3.2,1.1,4.2,2.6C552.1,472.5,552.4,474.7,551.9,476.8z"/>
			<path class="st6" d="M500.5,447.8l-0.1,0.2l-5.7,7.4c0.2-0.8,11.4-37.3,2.6-43.1C506.5,417.4,501.4,443.6,500.5,447.8z"/>
			<path class="st6" d="M523.7,446.8L523.7,446.8l-10.5,10.6c0,0-1-3.6,5.7-10.6c6.6-6.9,32.8-31.9,29.9-44.3
				C552.9,418.9,524.5,446,523.7,446.8z"/>
			<path class="st6" d="M535.9,452.4c0,1.3-0.4,2.7-1.1,3.9l-11.4,11.1c0,0-0.6-2.9,3.4-7.4c3.9-4.3,8.9-11.6,3.4-14.8
				c1.4,0.3,2.7,1,3.7,2.1l0.3,0.3C535.3,449,535.9,450.7,535.9,452.4z"/>
			<path class="st6" d="M544.6,466.9l-1.1,1.5l-9.9,9.7c0,0-0.6-2.9,3.4-7.4c3.8-4.3,8.8-11.5,3.5-14.8c0.5,0.3,0.9,0.6,1.3,1
				l2.3,2.6C546,461.6,546.2,464.7,544.6,466.9z"/>
			<path class="st6" d="M551.9,476.8c-0.4,1.6-1.1,3.3-1.8,5c-9,20.1-38.7,47.8-38.7,47.8c-8.5,32.9-17.7,62.5-27.1,88.5
				c-1.2,3.4-2.4,6.6-3.6,9.9c-0.5,1.3-1,2.6-1.5,3.9c-0.7,1.9-1.4,3.8-2.1,5.6h0c-0.2,0.5-0.4,1-0.6,1.5c-0.4,1-0.7,1.9-1.1,2.9
				c-1.5,3.8-2.9,7.4-4.4,11c-0.8,2-1.6,4-2.4,5.9c-0.1,0.2-0.2,0.4-0.3,0.6c-2.3,5.5-4.6,10.8-6.8,15.9c-3,6.8-5.9,13.2-8.8,19.2
				c-4.6,9.6-8.9,18.2-12.9,25.6c-6.5,12.2-19.7,19.7-33.3,21.7c-7.8,1.1-15.8,0.5-22.8-2.1c6.1,1.7,12.5,1.6,18.8-0.4
				c9.5-3,18.7-10.3,26.2-22c4.9-7.6,9.8-16.5,14.8-26c3-5.9,6-12,9-18.4c2.3-4.9,4.6-9.9,6.8-14.9c0.1-0.2,0.2-0.4,0.2-0.5
				c0.5-1.2,1.1-2.4,1.6-3.6c0.3-0.7,0.7-1.5,1-2.3c2.5-5.6,4.9-11.3,7.3-17c1.8-4.2,3.5-8.4,5.2-12.6c7.4-18.3,14.1-36.1,19.6-51.1
				c9.2-25.2,15-42.8,15-42.8s0.4-8.3,2.1-11.8c1.7-3.4,28.1-24.6,35.6-34.4c0,0,0-0.1,0.1-0.1c7.3-9.6-0.3-13.6-0.3-13.6l0.1-0.1
				c1.7,0.2,3.2,1.1,4.2,2.6C552.1,472.5,552.4,474.7,551.9,476.8z"/>
			<path class="st6" d="M413.8,615.2l-0.1,2.7l-0.7,25.5c0,0-4.9,7.6-9.6,15.8c-2.7,4.7-5.3,9.6-7,13.4c1.1-2.7,2.9-7.9,4.4-14.3
				c2.8-11.6,4.5-27.3-1.1-40.5c-0.5-1.2-1.1-2.4-1.7-3.5c1.5,0,3.1,0,4.7,0c0.6,0,1.2,0,1.8,0.1c1.3,0.1,2.6,0.1,4,0.3h0
				c0.5,0,1,0.1,1.5,0.1c0.6,0.1,1.3,0.1,1.9,0.2C412.5,615.1,413.2,615.1,413.8,615.2z"/>
			<path class="st27" d="M495.8,416.8c-0.7,5.7-3.7,22.8-3.7,22.8s-10.2,19.3-10.8,40c-0.5,20.7,2.4,32.6,2.4,32.6
				s-30,59-51.3,100.4c-9.4,18.4-17.2,33.3-19.8,38c-2.2,4-4.5,7.6-6.5,10.6c-5.9,8.6-10.5,13.2-10.5,13.2l5.2-16.1
				c-1.5,6.4-3.3,11.5-4.4,14.3c1.7-3.8,4.3-8.7,7-13.4c4.7-8.2,9.6-15.8,9.6-15.8l16.8-33.2l49.3-97.5l-0.5-32.1
				c-0.4-11.3,1.9-22.6,6.7-32.8l4-8.6l5.9-27.6c0,0,0.1-0.1,0.3,0.1C495.9,412,496.3,413,495.8,416.8z"/>
			<path class="st27" d="M548.6,401.7L500,448.4l-5.4,7c0,0,3.2,0.7,9.7-6.3S545.9,407.4,548.6,401.7z"/>
		</g>
	</g>
</g>
<path class="st28" d="M983.5,837h-922c-5,0-9-4-9-9l0,0c0-5,4-9,9-9h922c5,0,9,4,9,9l0,0C992.5,833,988.5,837,983.5,837z"/>
<g>
	<g>
		<path class="st29" d="M532,167.4c-3.6,0-6.5-2.9-6.5-6.5V12.7c0-3.6,2.9-6.5,6.5-6.5c3.6,0,6.5,2.9,6.5,6.5v148.3
			C538.5,164.5,535.6,167.4,532,167.4z"/>
	</g>
	<g>
		<path class="st29" d="M315.4,223.7c-2.4,0-4.7-1.3-5.8-3.6L244.4,86.9c-1.6-3.2-0.2-7.1,3-8.7c3.2-1.6,7.1-0.2,8.7,3l65.2,133.2
			c1.6,3.2,0.2,7.1-3,8.7C317.4,223.5,316.4,223.7,315.4,223.7z"/>
	</g>
	<g>
		<path class="st29" d="M157.4,369.9c-1.4,0-2.8-0.4-3.9-1.3L35.7,278.6c-2.8-2.2-3.4-6.2-1.2-9.1c2.2-2.8,6.2-3.4,9.1-1.2
			l117.8,90.1c2.8,2.2,3.4,6.2,1.2,9.1C161.3,369.1,159.4,369.9,157.4,369.9z"/>
	</g>
	<g>
		<path class="st29" d="M743.9,223.7c-1,0-1.9-0.2-2.8-0.7c-3.2-1.6-4.5-5.5-3-8.7l65.2-133.2c1.6-3.2,5.5-4.5,8.7-3
			c3.2,1.6,4.5,5.5,3,8.7L749.7,220C748.6,222.3,746.3,223.7,743.9,223.7z"/>
	</g>
	<g>
		<path class="st29" d="M901.9,369.9c-2,0-3.9-0.9-5.2-2.5c-2.2-2.8-1.6-6.9,1.2-9.1l117.8-90.1c2.9-2.2,6.9-1.6,9.1,1.2
			c2.2,2.8,1.6,6.9-1.2,9.1l-117.8,90.1C904.6,369.5,903.2,369.9,901.9,369.9z"/>
	</g>
</g>
<text transform="matrix(1 0 0 1 768.6196 852.8994)" class="st30 st31 st32">Designed by slidesgo / Freepik</text>
</svg>
