<?xml version="1.0" encoding="utf-8"?>
<!-- Generator: Adobe Illustrator 25.1.0, SVG Export Plug-In . SVG Version: 6.00 Build 0)  -->
<svg version="1.1" xmlns="http://www.w3.org/2000/svg" xmlns:xlink="http://www.w3.org/1999/xlink" x="0px" y="0px"
	 viewBox="0 0 594.4 378.2" style="enable-background:new 0 0 594.4 378.2;" xml:space="preserve">
<style type="text/css">
	.st0{fill:none;}
	.st1{fill:#1C1556;}
	.st2{fill:url(#SVGID_1_);}
	.st3{fill:none;stroke:#43BFB9;stroke-width:6.7131;stroke-miterlimit:10;}
	.st4{opacity:0.1;fill:#100E3A;}
	.st5{fill:#100E3A;}
	.st6{fill:#FFFFFF;}
	.st7{fill:#D9D9FC;}
	.st8{fill:#474799;}
	.st9{fill:#A7A5D8;}
	.st10{fill:#67C6B4;}
	.st11{fill:#FF9CBD;}
	.st12{fill:#FFC727;}
	.st13{fill:#DD6A57;}
	.st14{fill:#69A8C4;stroke:#588DA0;stroke-width:4;stroke-miterlimit:10;}
	.st15{fill:#85C8E0;}
	.st16{fill:#FFC727;stroke:#E2AC24;stroke-width:4;stroke-miterlimit:10;}
	.st17{fill:none;stroke:#100E3A;stroke-linecap:round;stroke-linejoin:round;stroke-miterlimit:10;}
	.st18{font-family:'QuicksandBold-Regular';}
	.st19{font-size:33.1333px;}
	.st20{fill:url(#SVGID_2_);}
	.st21{fill:#C14273;}
	.st22{fill:none;stroke:#C14273;stroke-width:5;stroke-miterlimit:10;}
	.st23{fill:none;stroke:#C14273;stroke-width:2.0368;stroke-miterlimit:10;}
	.st24{fill:#43BFB9;}
	.st25{fill:none;stroke:#43BFB9;stroke-miterlimit:10;}
	.st26{fill:#C6C6C6;}
	.st27{font-family:'MyriadPro-Regular';}
	.st28{font-size:12px;}
</style>
<pattern  x="-532.2" y="-107.7" width="300" height="300" patternUnits="userSpaceOnUse" id="Nueva_muestra_de_motivo_17" viewBox="0 -300 300 300" style="overflow:visible;">
	<g>
		<rect y="-300" class="st0" width="300" height="300"/>
		<circle class="st1" cx="150" cy="-150" r="50"/>
		<path class="st1" d="M50-300H0v50C27.6-250,50-272.4,50-300z"/>
		<path class="st1" d="M0-50V0h50C50-27.6,27.6-50,0-50z"/>
		<path class="st1" d="M300-250v-50h-50C250-272.4,272.4-250,300-250z"/>
		<path class="st1" d="M300-50c-27.6,0-50,22.4-50,50h50V-50z"/>
	</g>
</pattern>
<g id="OBJECTS">
	
		<pattern  id="SVGID_1_" xlink:href="#Nueva_muestra_de_motivo_17" patternTransform="matrix(5.204776e-02 0 0 5.204776e-02 -6720.8994 -7488.1172)">
	</pattern>
	<path class="st2" d="M447.4,64.6c0,10.2-2.6,19.7-7.2,28H339.2c-4.6-8.3-7.2-17.8-7.2-28c0-31.9,25.8-57.7,57.7-57.7
		C421.6,6.9,447.4,32.7,447.4,64.6z"/>
	<circle class="st3" cx="254.4" cy="71.1" r="23"/>
	<g>
		<path class="st4" d="M478.2,323.5c0,9.5-71.8,17.2-160.4,17.2c-26.7,0-51.8-0.7-74-1.9c0,0.1,0.1,0.3,0.1,0.4
			c0,8.1-53.8,14.6-120.2,14.6S3.6,347.3,3.6,339.2c0-8.1,53.8-14.6,120.2-14.6c12,0,23.5,0.2,34.4,0.6c-0.5-0.5-0.8-1.1-0.8-1.7
			c0-9.5,71.8-17.2,160.4-17.2C406.4,306.4,478.2,314,478.2,323.5z"/>
		<g>
			<g>
				<path class="st5" d="M485.7,87.3v226.6c0,9-7.2,16.2-16.2,16.2H153.8c-9,0-16.2-7.2-16.2-16.2V87.3c0-9,7.2-16.2,16.2-16.2
					h315.6C478.4,71.1,485.7,78.3,485.7,87.3z"/>
				<rect x="155.2" y="87.9" class="st6" width="312.9" height="186"/>
				<path class="st7" d="M485.7,291.9v22c0,9-7.2,16.2-16.2,16.2H153.8c-9,0-16.2-7.2-16.2-16.2v-22H485.7z"/>
				<rect x="155.2" y="87.9" class="st8" width="312.9" height="10.1"/>
				<g>
					<rect x="174.4" y="127.8" class="st7" width="84.5" height="60.7"/>
					<path class="st6" d="M251.6,159.6c0,9.5-7.7,17.2-17.2,17.2c-5.6,0-10.6-2.7-13.8-6.9h7.5v-12.2h-10.8
						c0.9-8.6,8.2-15.3,17.1-15.3C244,142.4,251.6,150.1,251.6,159.6z"/>
					<path class="st6" d="M220.7,169.8H184v-12.2h33.4c-0.1,0.6-0.1,1.2-0.1,1.9C217.3,163.4,218.5,167,220.7,169.8z"/>
				</g>
				<g>
					<rect x="270.2" y="127.8" class="st9" width="81.8" height="3"/>
					<rect x="270.2" y="134.9" class="st9" width="81.8" height="3"/>
					<rect x="270.2" y="141.9" class="st9" width="81.8" height="3"/>
					<rect x="270.2" y="148.9" class="st9" width="81.8" height="3"/>
					<rect x="270.2" y="156" class="st9" width="47.5" height="3"/>
					<rect x="270.2" y="163" class="st9" width="81.8" height="3"/>
					<rect x="270.2" y="170" class="st9" width="81.8" height="3"/>
					<rect x="270.2" y="177.1" class="st9" width="81.8" height="3"/>
					<rect x="270.2" y="184.1" class="st9" width="61.8" height="3"/>
				</g>
				<g>
					<rect x="174.5" y="198.9" class="st10" width="84.4" height="57.8"/>
					<g>
						<rect x="181.7" y="251.6" class="st6" width="5.1" height="5.1"/>
						<rect x="192.5" y="237" class="st11" width="5.1" height="19.7"/>
						<rect x="203.3" y="227.8" class="st8" width="5.1" height="28.9"/>
						<rect x="214.2" y="214.6" class="st12" width="5.1" height="42.2"/>
						<rect x="225" y="204.2" class="st13" width="5.1" height="52.6"/>
						<rect x="235.8" y="243.4" class="st6" width="5.1" height="13.4"/>
						<rect x="246.6" y="226.2" class="st11" width="5.1" height="30.5"/>
					</g>
				</g>
				<g>
					
						<rect x="363.9" y="196" transform="matrix(0.2963 0.9551 -0.9551 0.2963 536.7465 -203.0564)" class="st14" width="84.4" height="133.4"/>
					
						<rect x="327.6" y="263.1" transform="matrix(0.2963 0.9551 -0.9551 0.2963 518.7924 -151.3489)" class="st15" width="69.1" height="26.5"/>
					<g>
						
							<rect x="374.4" y="232.8" transform="matrix(0.2963 0.9551 -0.9551 0.2963 491.5083 -193.3284)" class="st6" width="5.1" height="8.2"/>
						
							<rect x="388.8" y="227.9" transform="matrix(0.2963 0.9551 -0.9551 0.2963 508.1928 -202.2531)" class="st11" width="5.1" height="31.6"/>
						
							<rect x="399" y="228.7" transform="matrix(0.2963 0.9551 -0.9551 0.2963 523.1805 -206.2908)" class="st8" width="5.1" height="46.3"/>
						
							<rect x="412.4" y="225.3" transform="matrix(0.2963 0.9551 -0.9551 0.2963 539.4424 -213.998)" class="st12" width="5.1" height="67.6"/>
						
							<rect x="423.6" y="224.8" transform="matrix(0.2963 0.9551 -0.9551 0.2963 554.8082 -219.1248)" class="st13" width="5.1" height="84.3"/>
						
							<rect x="396.7" y="275.9" transform="matrix(0.2963 0.9551 -0.9551 0.2963 554.705 -179.7009)" class="st6" width="5.1" height="21.4"/>
						
							<rect x="413.1" y="268.4" transform="matrix(0.2963 0.9551 -0.9551 0.2963 572.1678 -190.8666)" class="st11" width="5.1" height="48.9"/>
					</g>
				</g>
				<g>
					<path class="st11" d="M163.2,93c0,1.4-1.1,2.5-2.5,2.5c-1.4,0-2.5-1.1-2.5-2.5c0-1.4,1.1-2.5,2.5-2.5
						C162.1,90.5,163.2,91.6,163.2,93z"/>
					<path class="st6" d="M173.4,93c0,1.4-1.1,2.5-2.5,2.5c-1.4,0-2.5-1.1-2.5-2.5c0-1.4,1.1-2.5,2.5-2.5
						C172.2,90.5,173.4,91.6,173.4,93z"/>
					<path class="st12" d="M183.6,93c0,1.4-1.1,2.5-2.5,2.5c-1.4,0-2.5-1.1-2.5-2.5c0-1.4,1.1-2.5,2.5-2.5
						C182.4,90.5,183.6,91.6,183.6,93z"/>
				</g>
				<rect x="335.2" y="108.1" class="st7" width="112.5" height="10"/>
				<rect x="174.4" y="108.1" class="st10" width="10" height="10"/>
				<rect x="188.2" y="108.1" class="st12" width="10" height="10"/>
				<rect x="201.9" y="108.1" class="st11" width="10" height="10"/>
				<rect x="229.8" y="108.1" class="st7" width="49.1" height="10"/>
				<path class="st9" d="M317.8,308.4c0,3.5-2.8,6.3-6.3,6.3c-3.5,0-6.3-2.8-6.3-6.3c0-3.5,2.8-6.3,6.3-6.3
					C315,302.1,317.8,304.9,317.8,308.4z"/>
				<g>
					<polygon class="st16" points="483,196.5 362.2,180.1 376.2,93.3 497,109.7 					"/>
					<polygon class="st11" points="473.4,185 431,179.3 461.2,120.8 					"/>
					<polygon class="st11" points="424.4,166 381.9,160.3 408.5,128 					"/>
				</g>
			</g>
		</g>
	</g>
	<line class="st17" x1="35.7" y1="356.5" x2="588.2" y2="356.5"/>
	<g id="Capa_4">
	</g>
	<g>
		<path class="st4" d="M538.8,342.8c0,4-15.5,7.3-34.6,7.3c-19.1,0-34.6-3.3-34.6-7.3c0-4,15.5-7.3,34.6-7.3
			C523.3,335.5,538.8,338.8,538.8,342.8z"/>
		<g>
			<g>
				<path class="st11" d="M510.2,108.8c0,1.7-1.3,3-3,3c-1.7,0-3-1.3-3-3c0-1.7,1.3-3,3-3C508.8,105.8,510.2,107.2,510.2,108.8z"/>
				<path class="st7" d="M522.4,108.8c0,1.7-1.3,3-3,3c-1.7,0-3-1.3-3-3c0-1.7,1.3-3,3-3C521.1,105.8,522.4,107.2,522.4,108.8z"/>
				<path class="st12" d="M534.6,108.8c0,1.7-1.3,3-3,3s-3-1.3-3-3c0-1.7,1.3-3,3-3S534.6,107.2,534.6,108.8z"/>
			</g>
			<text transform="matrix(1 0 0 1 258.0782 150.1488)" class="st7 st18 st19">CSS</text>
		</g>
		
			<pattern  id="SVGID_2_" xlink:href="#Nueva_muestra_de_motivo_17" patternTransform="matrix(2.394600e-02 0 0 2.394600e-02 -6629.437 -7575.2686)">
		</pattern>
		<polygon class="st20" points="18.9,147 18.9,101.4 65.4,147 		"/>
	</g>
	<circle class="st21" cx="519.9" cy="311" r="8.5"/>
	<circle class="st21" cx="217.4" cy="48.1" r="6"/>
	<circle class="st22" cx="91" cy="251.6" r="18.8"/>
	<circle class="st23" cx="111.4" cy="203.8" r="7.6"/>
	<circle class="st24" cx="534.6" cy="254.2" r="8.5"/>
	<circle class="st25" cx="534.6" cy="254.2" r="13.7"/>
	<rect x="424.7" y="362.9" class="st0" width="173.3" height="21.6"/>
	<text transform="matrix(1 0 0 1 424.729 371.4349)" class="st26 st27 st28">Designed by pch.vector / Freepik</text>
</g>
<g id="Layer_3">
</g>
<g id="Layer_4">
</g>
</svg>
